<svg xmlns="http://www.w3.org/2000/svg" xmlns:xlink="http://www.w3.org/1999/xlink" width="500" zoomAndPan="magnify" viewBox="0 0 375 374.999991" height="500" preserveAspectRatio="xMidYMid meet" version="1.0"><defs><g/><clipPath id="84811abce0"><path d="M 236.492188 205.441406 L 318.242188 205.441406 L 318.242188 292.441406 L 236.492188 292.441406 Z M 236.492188 205.441406 " clip-rule="nonzero"/></clipPath><clipPath id="0490cad4d1"><path d="M 127.363281 37.5 L 247.363281 37.5 L 247.363281 135 L 127.363281 135 Z M 127.363281 37.5 " clip-rule="nonzero"/></clipPath><clipPath id="4ef29c3a18"><path d="M 188.546875 47.3125 L 181.300781 40.042969 C 179.695312 38.433594 177.515625 37.527344 175.238281 37.527344 L 133.078125 37.527344 C 129.917969 37.527344 127.363281 40.09375 127.363281 43.261719 L 127.363281 129.238281 C 127.363281 132.40625 129.917969 134.972656 133.078125 134.972656 L 241.648438 134.972656 C 244.804688 134.972656 247.363281 132.40625 247.363281 129.238281 L 247.363281 54.722656 C 247.363281 51.558594 244.804688 48.992188 241.648438 48.992188 L 192.585938 48.992188 C 191.070312 48.992188 189.617188 48.386719 188.546875 47.3125 Z M 188.546875 47.3125 " clip-rule="nonzero"/></clipPath><linearGradient x1="24" gradientTransform="matrix(2.857143, 0, 0, 2.865972, 118.790949, 17.46668)" y1="7.000001" x2="24" gradientUnits="userSpaceOnUse" y2="40.999999" id="c86f9e8aee"><stop stop-opacity="1" stop-color="rgb(91.630554%, 64.601135%, 0%)" offset="0"/><stop stop-opacity="1" stop-color="rgb(91.371155%, 64.373779%, 0%)" offset="0.00390625"/><stop stop-opacity="1" stop-color="rgb(91.113281%, 64.147949%, 0%)" offset="0.0078125"/><stop stop-opacity="1" stop-color="rgb(90.853882%, 63.920593%, 0%)" offset="0.0117188"/><stop stop-opacity="1" stop-color="rgb(90.596008%, 63.694763%, 0%)" offset="0.015625"/><stop stop-opacity="1" stop-color="rgb(90.336609%, 63.468933%, 0%)" offset="0.0195312"/><stop stop-opacity="1" stop-color="rgb(90.078735%, 63.243103%, 0%)" offset="0.0234375"/><stop stop-opacity="1" stop-color="rgb(89.819336%, 63.015747%, 0%)" offset="0.0273437"/><stop stop-opacity="1" stop-color="rgb(89.561462%, 62.789917%, 0%)" offset="0.03125"/><stop stop-opacity="1" stop-color="rgb(89.302063%, 62.562561%, 0%)" offset="0.0351563"/><stop stop-opacity="1" stop-color="rgb(89.044189%, 62.336731%, 0%)" offset="0.0390625"/><stop stop-opacity="1" stop-color="rgb(88.78479%, 62.109375%, 0%)" offset="0.0429688"/><stop stop-opacity="1" stop-color="rgb(88.526917%, 61.883545%, 0%)" offset="0.046875"/><stop stop-opacity="1" stop-color="rgb(88.269043%, 61.656189%, 0%)" offset="0.0507812"/><stop stop-opacity="1" stop-color="rgb(88.011169%, 61.430359%, 0%)" offset="0.0546875"/><stop stop-opacity="1" stop-color="rgb(87.75177%, 61.203003%, 0%)" offset="0.0585938"/><stop stop-opacity="1" stop-color="rgb(87.493896%, 60.977173%, 0%)" offset="0.0625"/><stop stop-opacity="1" stop-color="rgb(87.234497%, 60.751343%, 0%)" offset="0.0664062"/><stop stop-opacity="1" stop-color="rgb(86.976624%, 60.525513%, 0%)" offset="0.0703125"/><stop stop-opacity="1" stop-color="rgb(86.717224%, 60.298157%, 0%)" offset="0.0742188"/><stop stop-opacity="1" stop-color="rgb(86.459351%, 60.072327%, 0%)" offset="0.078125"/><stop stop-opacity="1" stop-color="rgb(86.199951%, 59.844971%, 0%)" offset="0.0820312"/><stop stop-opacity="1" stop-color="rgb(85.942078%, 59.619141%, 0%)" offset="0.0859375"/><stop stop-opacity="1" stop-color="rgb(85.682678%, 59.391785%, 0%)" offset="0.0898438"/><stop stop-opacity="1" stop-color="rgb(85.424805%, 59.165955%, 0%)" offset="0.09375"/><stop stop-opacity="1" stop-color="rgb(85.165405%, 58.938599%, 0%)" offset="0.0976562"/><stop stop-opacity="1" stop-color="rgb(84.907532%, 58.712769%, 0%)" offset="0.101562"/><stop stop-opacity="1" stop-color="rgb(84.648132%, 58.485413%, 0%)" offset="0.105469"/><stop stop-opacity="1" stop-color="rgb(84.390259%, 58.259583%, 0%)" offset="0.109375"/><stop stop-opacity="1" stop-color="rgb(84.130859%, 58.033752%, 0%)" offset="0.113281"/><stop stop-opacity="1" stop-color="rgb(83.872986%, 57.807922%, 0%)" offset="0.117188"/><stop stop-opacity="1" stop-color="rgb(83.613586%, 57.580566%, 0%)" offset="0.121094"/><stop stop-opacity="1" stop-color="rgb(83.355713%, 57.354736%, 0%)" offset="0.125"/><stop stop-opacity="1" stop-color="rgb(83.096313%, 57.12738%, 0%)" offset="0.128906"/><stop stop-opacity="1" stop-color="rgb(82.83844%, 56.90155%, 0%)" offset="0.132812"/><stop stop-opacity="1" stop-color="rgb(82.579041%, 56.674194%, 0%)" offset="0.136719"/><stop stop-opacity="1" stop-color="rgb(82.321167%, 56.448364%, 0%)" offset="0.140625"/><stop stop-opacity="1" stop-color="rgb(82.061768%, 56.221008%, 0%)" offset="0.144531"/><stop stop-opacity="1" stop-color="rgb(81.803894%, 55.995178%, 0%)" offset="0.148438"/><stop stop-opacity="1" stop-color="rgb(81.544495%, 55.767822%, 0%)" offset="0.152344"/><stop stop-opacity="1" stop-color="rgb(81.286621%, 55.541992%, 0%)" offset="0.15625"/><stop stop-opacity="1" stop-color="rgb(81.027222%, 55.316162%, 0%)" offset="0.160156"/><stop stop-opacity="1" stop-color="rgb(80.769348%, 55.090332%, 0%)" offset="0.164063"/><stop stop-opacity="1" stop-color="rgb(80.509949%, 54.862976%, 0%)" offset="0.167969"/><stop stop-opacity="1" stop-color="rgb(80.252075%, 54.637146%, 0%)" offset="0.171875"/><stop stop-opacity="1" stop-color="rgb(79.992676%, 54.40979%, 0%)" offset="0.175781"/><stop stop-opacity="1" stop-color="rgb(79.734802%, 54.18396%, 0%)" offset="0.179688"/><stop stop-opacity="1" stop-color="rgb(79.476929%, 53.956604%, 0%)" offset="0.183594"/><stop stop-opacity="1" stop-color="rgb(79.219055%, 53.730774%, 0%)" offset="0.1875"/><stop stop-opacity="1" stop-color="rgb(78.959656%, 53.503418%, 0%)" offset="0.191406"/><stop stop-opacity="1" stop-color="rgb(78.701782%, 53.277588%, 0%)" offset="0.195312"/><stop stop-opacity="1" stop-color="rgb(78.442383%, 53.050232%, 0%)" offset="0.199219"/><stop stop-opacity="1" stop-color="rgb(78.184509%, 52.824402%, 0%)" offset="0.203125"/><stop stop-opacity="1" stop-color="rgb(77.92511%, 52.598572%, 0%)" offset="0.207031"/><stop stop-opacity="1" stop-color="rgb(77.667236%, 52.372742%, 0%)" offset="0.210938"/><stop stop-opacity="1" stop-color="rgb(77.407837%, 52.145386%, 0%)" offset="0.214844"/><stop stop-opacity="1" stop-color="rgb(77.149963%, 51.919556%, 0%)" offset="0.21875"/><stop stop-opacity="1" stop-color="rgb(76.890564%, 51.6922%, 0%)" offset="0.222656"/><stop stop-opacity="1" stop-color="rgb(76.63269%, 51.46637%, 0%)" offset="0.226562"/><stop stop-opacity="1" stop-color="rgb(76.373291%, 51.239014%, 0%)" offset="0.230469"/><stop stop-opacity="1" stop-color="rgb(76.115417%, 51.013184%, 0%)" offset="0.234375"/><stop stop-opacity="1" stop-color="rgb(76.106262%, 51.005554%, 0%)" offset="0.25"/><stop stop-opacity="1" stop-color="rgb(76.098633%, 50.999451%, 0%)" offset="0.5"/><stop stop-opacity="1" stop-color="rgb(76.098633%, 50.999451%, 0%)" offset="1"/></linearGradient><clipPath id="a560ce7aa3"><path d="M 127.363281 48 L 247.363281 48 L 247.363281 135 L 127.363281 135 Z M 127.363281 48 " clip-rule="nonzero"/></clipPath><clipPath id="805c20a62b"><path d="M 180.464844 58.777344 L 189.800781 49.410156 C 190.066406 49.144531 190.429688 48.992188 190.8125 48.992188 L 241.648438 48.992188 C 244.804688 48.992188 247.363281 51.558594 247.363281 54.722656 L 247.363281 129.238281 C 247.363281 132.40625 244.804688 134.972656 241.648438 134.972656 L 133.078125 134.972656 C 129.917969 134.972656 127.363281 132.40625 127.363281 129.238281 L 127.363281 61.890625 C 127.363281 61.097656 128.003906 60.457031 128.789062 60.457031 L 176.425781 60.457031 C 177.941406 60.457031 179.394531 59.851562 180.464844 58.777344 Z M 180.464844 58.777344 " clip-rule="nonzero"/></clipPath><linearGradient x1="24" gradientTransform="matrix(2.857143, 0, 0, 2.865972, 118.790949, 17.46668)" y1="11" x2="24" gradientUnits="userSpaceOnUse" y2="40.999999" id="561a79c29e"><stop stop-opacity="1" stop-color="rgb(99.996948%, 84.663391%, 41.081238%)" offset="0"/><stop stop-opacity="1" stop-color="rgb(99.993896%, 84.605408%, 40.892029%)" offset="0.015625"/><stop stop-opacity="1" stop-color="rgb(99.987793%, 84.490967%, 40.513611%)" offset="0.03125"/><stop stop-opacity="1" stop-color="rgb(99.981689%, 84.375%, 40.136719%)" offset="0.046875"/><stop stop-opacity="1" stop-color="rgb(99.975586%, 84.260559%, 39.758301%)" offset="0.0625"/><stop stop-opacity="1" stop-color="rgb(99.969482%, 84.144592%, 39.379883%)" offset="0.078125"/><stop stop-opacity="1" stop-color="rgb(99.963379%, 84.030151%, 39.001465%)" offset="0.09375"/><stop stop-opacity="1" stop-color="rgb(99.957275%, 83.914185%, 38.624573%)" offset="0.109375"/><stop stop-opacity="1" stop-color="rgb(99.951172%, 83.799744%, 38.246155%)" offset="0.125"/><stop stop-opacity="1" stop-color="rgb(99.945068%, 83.683777%, 37.867737%)" offset="0.140625"/><stop stop-opacity="1" stop-color="rgb(99.937439%, 83.569336%, 37.489319%)" offset="0.15625"/><stop stop-opacity="1" stop-color="rgb(99.931335%, 83.453369%, 37.110901%)" offset="0.171875"/><stop stop-opacity="1" stop-color="rgb(99.925232%, 83.338928%, 36.734009%)" offset="0.1875"/><stop stop-opacity="1" stop-color="rgb(99.919128%, 83.224487%, 36.355591%)" offset="0.203125"/><stop stop-opacity="1" stop-color="rgb(99.913025%, 83.108521%, 35.977173%)" offset="0.21875"/><stop stop-opacity="1" stop-color="rgb(99.906921%, 82.99408%, 35.598755%)" offset="0.234375"/><stop stop-opacity="1" stop-color="rgb(99.900818%, 82.878113%, 35.221863%)" offset="0.25"/><stop stop-opacity="1" stop-color="rgb(99.894714%, 82.763672%, 34.843445%)" offset="0.265625"/><stop stop-opacity="1" stop-color="rgb(99.888611%, 82.647705%, 34.465027%)" offset="0.28125"/><stop stop-opacity="1" stop-color="rgb(99.882507%, 82.533264%, 34.086609%)" offset="0.296875"/><stop stop-opacity="1" stop-color="rgb(99.876404%, 82.417297%, 33.709717%)" offset="0.3125"/><stop stop-opacity="1" stop-color="rgb(99.8703%, 82.302856%, 33.331299%)" offset="0.328125"/><stop stop-opacity="1" stop-color="rgb(99.864197%, 82.188416%, 32.952881%)" offset="0.34375"/><stop stop-opacity="1" stop-color="rgb(99.856567%, 82.072449%, 32.574463%)" offset="0.359375"/><stop stop-opacity="1" stop-color="rgb(99.850464%, 81.958008%, 32.197571%)" offset="0.375"/><stop stop-opacity="1" stop-color="rgb(99.84436%, 81.842041%, 31.819153%)" offset="0.390625"/><stop stop-opacity="1" stop-color="rgb(99.838257%, 81.7276%, 31.440735%)" offset="0.40625"/><stop stop-opacity="1" stop-color="rgb(99.832153%, 81.611633%, 31.062317%)" offset="0.421875"/><stop stop-opacity="1" stop-color="rgb(99.82605%, 81.497192%, 30.683899%)" offset="0.4375"/><stop stop-opacity="1" stop-color="rgb(99.819946%, 81.381226%, 30.307007%)" offset="0.453125"/><stop stop-opacity="1" stop-color="rgb(99.813843%, 81.266785%, 29.928589%)" offset="0.46875"/><stop stop-opacity="1" stop-color="rgb(99.807739%, 81.150818%, 29.550171%)" offset="0.484375"/><stop stop-opacity="1" stop-color="rgb(99.801636%, 81.036377%, 29.171753%)" offset="0.5"/><stop stop-opacity="1" stop-color="rgb(99.795532%, 80.921936%, 28.794861%)" offset="0.515625"/><stop stop-opacity="1" stop-color="rgb(99.789429%, 80.805969%, 28.416443%)" offset="0.53125"/><stop stop-opacity="1" stop-color="rgb(99.781799%, 80.691528%, 28.038025%)" offset="0.546875"/><stop stop-opacity="1" stop-color="rgb(99.775696%, 80.575562%, 27.659607%)" offset="0.5625"/><stop stop-opacity="1" stop-color="rgb(99.769592%, 80.461121%, 27.282715%)" offset="0.578125"/><stop stop-opacity="1" stop-color="rgb(99.763489%, 80.345154%, 26.904297%)" offset="0.59375"/><stop stop-opacity="1" stop-color="rgb(99.757385%, 80.230713%, 26.525879%)" offset="0.609375"/><stop stop-opacity="1" stop-color="rgb(99.751282%, 80.114746%, 26.147461%)" offset="0.625"/><stop stop-opacity="1" stop-color="rgb(99.745178%, 80.000305%, 25.769043%)" offset="0.640625"/><stop stop-opacity="1" stop-color="rgb(99.739075%, 79.884338%, 25.392151%)" offset="0.65625"/><stop stop-opacity="1" stop-color="rgb(99.732971%, 79.769897%, 25.013733%)" offset="0.671875"/><stop stop-opacity="1" stop-color="rgb(99.726868%, 79.655457%, 24.635315%)" offset="0.6875"/><stop stop-opacity="1" stop-color="rgb(99.720764%, 79.53949%, 24.256897%)" offset="0.703125"/><stop stop-opacity="1" stop-color="rgb(99.714661%, 79.425049%, 23.880005%)" offset="0.71875"/><stop stop-opacity="1" stop-color="rgb(99.708557%, 79.309082%, 23.501587%)" offset="0.734375"/><stop stop-opacity="1" stop-color="rgb(99.700928%, 79.194641%, 23.123169%)" offset="0.75"/><stop stop-opacity="1" stop-color="rgb(99.694824%, 79.078674%, 22.744751%)" offset="0.765625"/><stop stop-opacity="1" stop-color="rgb(99.688721%, 78.964233%, 22.367859%)" offset="0.78125"/><stop stop-opacity="1" stop-color="rgb(99.682617%, 78.848267%, 21.989441%)" offset="0.796875"/><stop stop-opacity="1" stop-color="rgb(99.676514%, 78.733826%, 21.611023%)" offset="0.8125"/><stop stop-opacity="1" stop-color="rgb(99.67041%, 78.619385%, 21.232605%)" offset="0.828125"/><stop stop-opacity="1" stop-color="rgb(99.664307%, 78.503418%, 20.855713%)" offset="0.84375"/><stop stop-opacity="1" stop-color="rgb(99.658203%, 78.388977%, 20.477295%)" offset="0.859375"/><stop stop-opacity="1" stop-color="rgb(99.6521%, 78.27301%, 20.098877%)" offset="0.875"/><stop stop-opacity="1" stop-color="rgb(99.645996%, 78.158569%, 19.720459%)" offset="0.890625"/><stop stop-opacity="1" stop-color="rgb(99.639893%, 78.042603%, 19.342041%)" offset="0.90625"/><stop stop-opacity="1" stop-color="rgb(99.633789%, 77.928162%, 18.965149%)" offset="0.921875"/><stop stop-opacity="1" stop-color="rgb(99.627686%, 77.812195%, 18.586731%)" offset="0.9375"/><stop stop-opacity="1" stop-color="rgb(99.620056%, 77.697754%, 18.208313%)" offset="0.953125"/><stop stop-opacity="1" stop-color="rgb(99.613953%, 77.581787%, 17.829895%)" offset="0.96875"/><stop stop-opacity="1" stop-color="rgb(99.607849%, 77.467346%, 17.453003%)" offset="0.984375"/><stop stop-opacity="1" stop-color="rgb(99.601746%, 77.354431%, 17.080688%)" offset="1"/></linearGradient><clipPath id="c80cff0f30"><path d="M 204 91 L 225 91 L 225 124 L 204 124 Z M 204 91 " clip-rule="nonzero"/></clipPath><clipPath id="db0dfbba95"><path d="M 222.015625 94.414062 C 221.804688 93.007812 220.605469 91.980469 219.1875 91.980469 L 209.820312 91.980469 C 208.40625 91.980469 207.207031 93.007812 206.996094 94.414062 C 206.226562 99.578125 204.503906 111.359375 204.503906 113.476562 C 204.503906 119.015625 208.980469 123.507812 214.503906 123.507812 C 220.027344 123.507812 224.503906 119.015625 224.503906 113.476562 C 224.503906 111.359375 222.78125 99.578125 222.015625 94.414062 Z M 214.503906 117.777344 C 212.140625 117.777344 210.21875 115.851562 210.21875 113.476562 C 210.21875 111.105469 212.140625 109.179688 214.503906 109.179688 C 216.871094 109.179688 218.789062 111.105469 218.789062 113.476562 C 218.789062 115.851562 216.871094 117.777344 214.503906 117.777344 Z M 214.503906 117.777344 " clip-rule="nonzero"/></clipPath><linearGradient x1="33.5" gradientTransform="matrix(2.857143, 0, 0, 2.865972, 118.790949, 17.46668)" y1="26" x2="33.5" gradientUnits="userSpaceOnUse" y2="36.999999" id="a07cfab111"><stop stop-opacity="1" stop-color="rgb(29.368591%, 29.368591%, 29.368591%)" offset="0"/><stop stop-opacity="1" stop-color="rgb(29.182434%, 29.182434%, 29.182434%)" offset="0.0625"/><stop stop-opacity="1" stop-color="rgb(28.81012%, 28.81012%, 28.81012%)" offset="0.125"/><stop stop-opacity="1" stop-color="rgb(28.437805%, 28.437805%, 28.437805%)" offset="0.1875"/><stop stop-opacity="1" stop-color="rgb(28.065491%, 28.065491%, 28.065491%)" offset="0.25"/><stop stop-opacity="1" stop-color="rgb(27.694702%, 27.694702%, 27.694702%)" offset="0.3125"/><stop stop-opacity="1" stop-color="rgb(27.322388%, 27.322388%, 27.322388%)" offset="0.375"/><stop stop-opacity="1" stop-color="rgb(26.950073%, 26.950073%, 26.950073%)" offset="0.4375"/><stop stop-opacity="1" stop-color="rgb(26.577759%, 26.577759%, 26.577759%)" offset="0.5"/><stop stop-opacity="1" stop-color="rgb(26.205444%, 26.205444%, 26.205444%)" offset="0.5625"/><stop stop-opacity="1" stop-color="rgb(25.83313%, 25.83313%, 25.83313%)" offset="0.625"/><stop stop-opacity="1" stop-color="rgb(25.460815%, 25.460815%, 25.460815%)" offset="0.6875"/><stop stop-opacity="1" stop-color="rgb(25.088501%, 25.088501%, 25.088501%)" offset="0.75"/><stop stop-opacity="1" stop-color="rgb(24.716187%, 24.716187%, 24.716187%)" offset="0.8125"/><stop stop-opacity="1" stop-color="rgb(24.343872%, 24.343872%, 24.343872%)" offset="0.875"/><stop stop-opacity="1" stop-color="rgb(23.971558%, 23.971558%, 23.971558%)" offset="0.9375"/><stop stop-opacity="1" stop-color="rgb(23.599243%, 23.599243%, 23.599243%)" offset="1"/></linearGradient><clipPath id="23a62fbac5"><path d="M 237 111 L 268 111 L 268 186 L 237 186 Z M 237 111 " clip-rule="nonzero"/></clipPath><clipPath id="148403f63b"><path d="M 256.183594 104.859375 L 285.605469 196.238281 L 257.046875 205.433594 L 227.625 114.054688 Z M 256.183594 104.859375 " clip-rule="nonzero"/></clipPath><clipPath id="3de94a1396"><path d="M 256.183594 104.859375 L 285.605469 196.238281 L 257.046875 205.433594 L 227.625 114.054688 Z M 256.183594 104.859375 " clip-rule="nonzero"/></clipPath><clipPath id="6f20a4f7f7"><path d="M 234 114 L 271 114 L 271 194 L 234 194 Z M 234 114 " clip-rule="nonzero"/></clipPath><clipPath id="843c682a88"><path d="M 256.183594 104.859375 L 285.605469 196.238281 L 257.046875 205.433594 L 227.625 114.054688 Z M 256.183594 104.859375 " clip-rule="nonzero"/></clipPath><clipPath id="bffa45fed0"><path d="M 256.183594 104.859375 L 285.605469 196.238281 L 257.046875 205.433594 L 227.625 114.054688 Z M 256.183594 104.859375 " clip-rule="nonzero"/></clipPath><clipPath id="c05964ef52"><path d="M 248 168 L 278 168 L 278 201 L 248 201 Z M 248 168 " clip-rule="nonzero"/></clipPath><clipPath id="a7a9241c1c"><path d="M 256.183594 104.859375 L 285.605469 196.238281 L 257.046875 205.433594 L 227.625 114.054688 Z M 256.183594 104.859375 " clip-rule="nonzero"/></clipPath><clipPath id="b3cfaaea8a"><path d="M 256.183594 104.859375 L 285.605469 196.238281 L 257.046875 205.433594 L 227.625 114.054688 Z M 256.183594 104.859375 " clip-rule="nonzero"/></clipPath><clipPath id="97eb444dde"><path d="M 239 132 L 264 132 L 264 184 L 239 184 Z M 239 132 " clip-rule="nonzero"/></clipPath><clipPath id="1eb1ed4cd7"><path d="M 256.183594 104.859375 L 285.605469 196.238281 L 257.046875 205.433594 L 227.625 114.054688 Z M 256.183594 104.859375 " clip-rule="nonzero"/></clipPath><clipPath id="5254b81224"><path d="M 256.183594 104.859375 L 285.605469 196.238281 L 257.046875 205.433594 L 227.625 114.054688 Z M 256.183594 104.859375 " clip-rule="nonzero"/></clipPath><clipPath id="d557c2f22f"><path d="M 235 117 L 266 117 L 266 183 L 235 183 Z M 235 117 " clip-rule="nonzero"/></clipPath><clipPath id="47fd9928ee"><path d="M 256.183594 104.859375 L 285.605469 196.238281 L 257.046875 205.433594 L 227.625 114.054688 Z M 256.183594 104.859375 " clip-rule="nonzero"/></clipPath><clipPath id="3ae0c6b346"><path d="M 256.183594 104.859375 L 285.605469 196.238281 L 257.046875 205.433594 L 227.625 114.054688 Z M 256.183594 104.859375 " clip-rule="nonzero"/></clipPath><clipPath id="3e9954c201"><path d="M 266 187 L 271 187 L 271 196 L 266 196 Z M 266 187 " clip-rule="nonzero"/></clipPath><clipPath id="72dde0c048"><path d="M 256.183594 104.859375 L 285.605469 196.238281 L 257.046875 205.433594 L 227.625 114.054688 Z M 256.183594 104.859375 " clip-rule="nonzero"/></clipPath><clipPath id="f9cdbab49a"><path d="M 256.183594 104.859375 L 285.605469 196.238281 L 257.046875 205.433594 L 227.625 114.054688 Z M 256.183594 104.859375 " clip-rule="nonzero"/></clipPath><clipPath id="e0cbde8801"><path d="M 113 118 L 146 118 L 146 192 L 113 192 Z M 113 118 " clip-rule="nonzero"/></clipPath><clipPath id="21b2ac1df7"><path d="M 162.242188 126.304688 L 119.308594 212.171875 L 92.476562 198.753906 L 135.40625 112.890625 Z M 162.242188 126.304688 " clip-rule="nonzero"/></clipPath><clipPath id="1abad31fa5"><path d="M 162.242188 126.304688 L 119.308594 212.171875 L 92.476562 198.753906 L 135.40625 112.890625 Z M 162.242188 126.304688 " clip-rule="nonzero"/></clipPath><clipPath id="03c5377a35"><path d="M 110 117 L 141 117 L 141 200 L 110 200 Z M 110 117 " clip-rule="nonzero"/></clipPath><clipPath id="a14711d714"><path d="M 162.242188 126.304688 L 119.308594 212.171875 L 92.476562 198.753906 L 135.40625 112.890625 Z M 162.242188 126.304688 " clip-rule="nonzero"/></clipPath><clipPath id="8a8349546e"><path d="M 162.242188 126.304688 L 119.308594 212.171875 L 92.476562 198.753906 L 135.40625 112.890625 Z M 162.242188 126.304688 " clip-rule="nonzero"/></clipPath><clipPath id="48555317e2"><path d="M 105 172 L 132 172 L 132 206 L 105 206 Z M 105 172 " clip-rule="nonzero"/></clipPath><clipPath id="1d85735b7f"><path d="M 162.242188 126.304688 L 119.308594 212.171875 L 92.476562 198.753906 L 135.40625 112.890625 Z M 162.242188 126.304688 " clip-rule="nonzero"/></clipPath><clipPath id="99b4bf3597"><path d="M 162.242188 126.304688 L 119.308594 212.171875 L 92.476562 198.753906 L 135.40625 112.890625 Z M 162.242188 126.304688 " clip-rule="nonzero"/></clipPath><clipPath id="1f133f8d3f"><path d="M 111 135 L 132 135 L 132 188 L 111 188 Z M 111 135 " clip-rule="nonzero"/></clipPath><clipPath id="a59afc78dd"><path d="M 162.242188 126.304688 L 119.308594 212.171875 L 92.476562 198.753906 L 135.40625 112.890625 Z M 162.242188 126.304688 " clip-rule="nonzero"/></clipPath><clipPath id="a568227c6a"><path d="M 162.242188 126.304688 L 119.308594 212.171875 L 92.476562 198.753906 L 135.40625 112.890625 Z M 162.242188 126.304688 " clip-rule="nonzero"/></clipPath><clipPath id="a8443e41e4"><path d="M 114 121 L 139 121 L 139 189 L 114 189 Z M 114 121 " clip-rule="nonzero"/></clipPath><clipPath id="85b86e1e47"><path d="M 162.242188 126.304688 L 119.308594 212.171875 L 92.476562 198.753906 L 135.40625 112.890625 Z M 162.242188 126.304688 " clip-rule="nonzero"/></clipPath><clipPath id="3e9c99d874"><path d="M 162.242188 126.304688 L 119.308594 212.171875 L 92.476562 198.753906 L 135.40625 112.890625 Z M 162.242188 126.304688 " clip-rule="nonzero"/></clipPath><clipPath id="6b2f455176"><path d="M 108 193 L 113 193 L 113 201 L 108 201 Z M 108 193 " clip-rule="nonzero"/></clipPath><clipPath id="958dd525fc"><path d="M 162.242188 126.304688 L 119.308594 212.171875 L 92.476562 198.753906 L 135.40625 112.890625 Z M 162.242188 126.304688 " clip-rule="nonzero"/></clipPath><clipPath id="aa5f38b95d"><path d="M 162.242188 126.304688 L 119.308594 212.171875 L 92.476562 198.753906 L 135.40625 112.890625 Z M 162.242188 126.304688 " clip-rule="nonzero"/></clipPath><clipPath id="403da35a72"><path d="M 69 207.585938 L 135.734375 207.585938 L 135.734375 294.585938 L 69 294.585938 Z M 69 207.585938 " clip-rule="nonzero"/></clipPath></defs><g clip-path="url(#84811abce0)"><path fill="#cc0000" d="M 318.242188 248.941406 L 310.066406 248.941406 L 310.066406 227.191406 L 288.265625 205.441406 L 244.664062 205.441406 L 244.664062 248.941406 L 236.492188 248.941406 L 236.492188 276.128906 L 244.664062 276.128906 L 244.664062 292.441406 L 310.066406 292.441406 L 310.066406 276.128906 L 318.242188 276.128906 L 318.242188 248.941406 " fill-opacity="1" fill-rule="nonzero"/></g><path fill="#ffffff" d="M 247.386719 289.722656 L 307.339844 289.722656 L 307.339844 276.128906 L 247.386719 276.128906 Z M 288.265625 209.289062 L 288.265625 227.191406 L 306.207031 227.191406 Z M 285.539062 229.910156 L 285.539062 208.160156 L 247.386719 208.160156 L 247.386719 248.941406 L 307.339844 248.941406 L 307.339844 229.910156 Z M 285.632812 262.152344 C 285.632812 259.273438 284.5625 257.265625 282.867188 256.007812 C 281.292969 254.824219 279.277344 254.265625 276.175781 254.265625 C 274.3125 254.265625 272.542969 254.390625 271.179688 254.605469 L 271.179688 270.617188 C 272.105469 270.738281 273.460938 270.859375 275.375 270.859375 C 278.578125 270.859375 281.195312 270.179688 282.914062 268.753906 C 284.492188 267.421875 285.632812 265.273438 285.632812 262.152344 Z M 276.175781 267.980469 C 275.714844 267.980469 275.207031 267.980469 274.890625 267.910156 L 274.890625 257.242188 C 275.207031 257.171875 275.738281 257.097656 276.566406 257.097656 C 279.738281 257.097656 281.726562 258.886719 281.703125 262.273438 C 281.703125 266.167969 279.519531 268.003906 276.175781 267.980469 Z M 261.40625 264.933594 C 263.589844 264.933594 265.453125 264.402344 266.714844 263.214844 C 267.683594 262.296875 268.21875 260.941406 268.21875 259.34375 C 268.21875 257.75 267.515625 256.398438 266.472656 255.574219 C 265.382812 254.703125 263.757812 254.265625 261.480469 254.265625 C 259.226562 254.265625 257.625 254.414062 256.484375 254.605469 L 256.484375 270.691406 L 260.144531 270.691406 L 260.144531 264.859375 C 260.484375 264.910156 260.921875 264.933594 261.40625 264.933594 Z M 260.144531 257.195312 C 260.410156 257.121094 260.921875 257.050781 261.671875 257.050781 C 263.515625 257.050781 264.558594 257.945312 264.558594 259.441406 C 264.558594 261.113281 263.34375 262.101562 261.382812 262.101562 C 260.847656 262.101562 260.460938 262.078125 260.144531 262.007812 Z M 298.65625 257.410156 L 298.65625 254.390625 L 288.667969 254.390625 L 288.667969 270.691406 L 292.375 270.691406 L 292.375 264.136719 L 298.242188 264.136719 L 298.242188 261.136719 L 292.375 261.136719 L 292.375 257.410156 L 298.65625 257.410156 " fill-opacity="1" fill-rule="nonzero"/><g clip-path="url(#0490cad4d1)"><g clip-path="url(#4ef29c3a18)"><path fill="url(#c86f9e8aee)" d="M 127.363281 37.527344 L 127.363281 134.972656 L 247.363281 134.972656 L 247.363281 37.527344 Z M 127.363281 37.527344 " fill-rule="nonzero"/></g></g><g clip-path="url(#a560ce7aa3)"><g clip-path="url(#805c20a62b)"><path fill="url(#561a79c29e)" d="M 127.363281 48.992188 L 127.363281 134.972656 L 247.363281 134.972656 L 247.363281 48.992188 Z M 127.363281 48.992188 " fill-rule="nonzero"/></g></g><path fill="#c28200" d="M 221.648438 50.425781 L 221.648438 53.292969 C 221.648438 54.082031 221.007812 54.722656 220.21875 54.722656 L 215.933594 54.722656 C 214.355469 54.722656 213.078125 53.441406 213.078125 51.859375 C 213.078125 50.277344 214.355469 48.992188 215.933594 48.992188 L 220.21875 48.992188 C 221.007812 48.992188 221.648438 49.632812 221.648438 50.425781 Z M 215.933594 57.589844 C 215.933594 56.007812 214.652344 54.722656 213.078125 54.722656 L 208.789062 54.722656 C 208.003906 54.722656 207.363281 55.367188 207.363281 56.15625 L 207.363281 59.023438 C 207.363281 59.8125 208.003906 60.457031 208.789062 60.457031 L 213.078125 60.457031 C 214.652344 60.457031 215.933594 59.171875 215.933594 57.589844 Z M 213.078125 63.320312 C 213.078125 64.902344 214.355469 66.1875 215.933594 66.1875 L 220.21875 66.1875 C 221.007812 66.1875 221.648438 65.546875 221.648438 64.753906 L 221.648438 61.890625 C 221.648438 61.097656 221.007812 60.457031 220.21875 60.457031 L 215.933594 60.457031 C 214.355469 60.457031 213.078125 61.738281 213.078125 63.320312 Z M 215.933594 69.054688 C 215.933594 67.472656 214.652344 66.1875 213.078125 66.1875 L 208.789062 66.1875 C 208.003906 66.1875 207.363281 66.832031 207.363281 67.621094 L 207.363281 70.488281 C 207.363281 71.277344 208.003906 71.921875 208.789062 71.921875 L 213.078125 71.921875 C 214.652344 71.921875 215.933594 70.636719 215.933594 69.054688 Z M 213.078125 74.785156 C 213.078125 76.367188 214.355469 77.652344 215.933594 77.652344 L 220.21875 77.652344 C 221.007812 77.652344 221.648438 77.011719 221.648438 76.21875 L 221.648438 73.351562 C 221.648438 72.5625 221.007812 71.921875 220.21875 71.921875 L 215.933594 71.921875 C 214.355469 71.921875 213.078125 73.203125 213.078125 74.785156 Z M 213.078125 86.25 C 213.078125 87.832031 214.355469 89.117188 215.933594 89.117188 L 220.21875 89.117188 C 221.007812 89.117188 221.648438 88.472656 221.648438 87.683594 L 221.648438 84.816406 C 221.648438 84.027344 221.007812 83.382812 220.21875 83.382812 L 215.933594 83.382812 C 214.355469 83.382812 213.078125 84.667969 213.078125 86.25 Z M 215.933594 80.519531 C 215.933594 78.9375 214.652344 77.652344 213.078125 77.652344 L 208.789062 77.652344 C 208.003906 77.652344 207.363281 78.292969 207.363281 79.085938 L 207.363281 81.949219 C 207.363281 82.742188 208.003906 83.382812 208.789062 83.382812 L 213.078125 83.382812 C 214.652344 83.382812 215.933594 82.101562 215.933594 80.519531 Z M 215.933594 80.519531 " fill-opacity="1" fill-rule="nonzero"/><g clip-path="url(#c80cff0f30)"><g clip-path="url(#db0dfbba95)"><path fill="url(#a07cfab111)" d="M 204.503906 91.980469 L 204.503906 123.507812 L 224.503906 123.507812 L 224.503906 91.980469 Z M 204.503906 91.980469 " fill-rule="nonzero"/></g></g><g clip-path="url(#23a62fbac5)"><g clip-path="url(#148403f63b)"><g clip-path="url(#3de94a1396)"><path fill="#ffffff" d="M 237.851562 111.550781 C 240.203125 128.082031 248.953125 142.886719 255.832031 157.828125 C 258.1875 162.941406 260.25 168.132812 262.019531 173.472656 C 263.246094 177.179688 264.371094 181.050781 266.085938 184.566406 C 266.292969 184.988281 266.582031 185.71875 267.148438 185.722656 C 267.828125 185.730469 267.792969 184.847656 267.765625 184.390625 C 267.730469 183.742188 266.722656 183.789062 266.757812 184.433594 C 266.769531 184.621094 266.792969 184.8125 266.75 184.996094 C 266.953125 184.09375 267.597656 185.222656 267.164062 184.46875 C 266.804688 183.84375 266.546875 183.148438 266.277344 182.480469 C 265.488281 180.519531 264.796875 178.519531 264.109375 176.523438 C 262.652344 172.292969 261.316406 168.066406 259.605469 163.925781 C 253.191406 148.410156 244.042969 133.898438 240.003906 117.46875 C 239.519531 115.503906 239.144531 113.511719 238.859375 111.507812 C 238.769531 110.871094 237.761719 110.910156 237.851562 111.550781 Z M 237.851562 111.550781 " fill-opacity="1" fill-rule="nonzero"/></g></g></g><g clip-path="url(#6f20a4f7f7)"><g clip-path="url(#843c682a88)"><g clip-path="url(#bffa45fed0)"><path fill="#ffffff" d="M 234.082031 114.859375 C 247.066406 140.320312 252.75 169.347656 269.484375 192.902344 C 269.765625 192.71875 270.046875 192.535156 270.328125 192.351562 C 269.113281 190.652344 268.03125 188.78125 267.351562 186.800781 C 267.140625 186.1875 266.183594 186.496094 266.394531 187.109375 C 267.101562 189.171875 268.222656 191.136719 269.484375 192.902344 C 269.863281 193.429688 270.707031 192.882812 270.328125 192.351562 C 253.597656 168.804688 247.90625 139.765625 234.925781 114.308594 C 234.632812 113.730469 233.792969 114.285156 234.082031 114.859375 Z M 234.082031 114.859375 " fill-opacity="1" fill-rule="nonzero"/></g></g></g><g clip-path="url(#c05964ef52)"><g clip-path="url(#a7a9241c1c)"><g clip-path="url(#b3cfaaea8a)"><path fill="#ffffff" d="M 270.972656 168.945312 C 269.382812 172.855469 264.679688 174.226562 260.949219 175.164062 C 256.941406 176.171875 252.75 176.507812 248.796875 177.742188 C 248.445312 177.855469 248.320312 178.351562 248.617188 178.597656 C 256.621094 185.207031 263.894531 192.710938 270.769531 200.472656 C 271.058594 200.800781 271.644531 200.484375 271.605469 200.078125 C 271.164062 195.25 272.050781 190.363281 273.109375 185.667969 C 274.21875 180.75 275.714844 175.921875 277.351562 171.15625 C 277.4375 170.914062 277.21875 170.59375 276.96875 170.558594 C 271.402344 169.804688 266.023438 172.179688 260.84375 173.863281 C 260.308594 174.039062 260.445312 174.886719 261.019531 174.847656 C 265.339844 174.539062 270.855469 173.1875 274.472656 176.316406 C 274.578125 176.023438 274.683594 175.730469 274.789062 175.4375 C 271.628906 175.734375 268.523438 174.972656 265.46875 174.261719 C 265.398438 174.589844 265.324219 174.917969 265.253906 175.242188 C 268.242188 175.511719 270.921875 176.792969 273.359375 178.488281 C 273.417969 178.203125 273.480469 177.917969 273.539062 177.632812 C 269.863281 179.265625 266.167969 176.175781 262.730469 175.140625 C 262.136719 174.964844 261.957031 175.789062 262.394531 176.082031 C 265.402344 178.089844 268.367188 180.398438 270.128906 183.632812 C 270.34375 183.390625 270.5625 183.148438 270.777344 182.90625 C 266.71875 181.277344 263.613281 177.945312 259.566406 176.242188 C 259.078125 176.039062 258.695312 176.515625 258.917969 176.96875 C 261.230469 181.65625 266.34375 183.738281 269.628906 187.546875 C 269.851562 187.296875 270.074219 187.042969 270.300781 186.796875 C 266.210938 183.742188 262.273438 180.421875 257.730469 178.042969 C 257.277344 177.808594 256.804688 178.347656 257.078125 178.769531 C 260.113281 183.457031 265.355469 186.199219 269.238281 190.089844 C 269.460938 189.839844 269.683594 189.589844 269.910156 189.339844 C 263.441406 184.554688 258.390625 177.515625 250.546875 174.835938 C 250.097656 174.683594 249.808594 175.261719 250.015625 175.601562 C 254.335938 182.667969 261.644531 187.1875 267.203125 193.160156 C 267.429688 192.910156 267.652344 192.660156 267.875 192.410156 C 262.917969 188.03125 258.746094 182.769531 253.277344 178.980469 C 252.851562 178.683594 252.136719 179.140625 252.519531 179.632812 C 256.640625 184.882812 261.621094 189.316406 266.285156 194.058594 C 266.507812 193.8125 266.734375 193.558594 266.957031 193.308594 C 263.429688 190.054688 260.332031 186.3125 256.03125 184.03125 C 255.578125 183.792969 255.109375 184.335938 255.378906 184.753906 C 257.984375 188.820312 261.832031 191.753906 265.367188 194.960938 C 265.738281 195.296875 266.339844 194.90625 266.179688 194.429688 C 264.289062 188.714844 260.949219 183.644531 258.523438 178.160156 C 258.371094 178.378906 258.21875 178.601562 258.066406 178.820312 C 262.664062 178.71875 273.105469 181.351562 272.785156 173.710938 C 272.761719 173.144531 271.902344 173.058594 271.792969 173.625 C 270.9375 177.9375 271.46875 182.308594 271.101562 186.664062 C 271.4375 186.648438 271.773438 186.632812 272.109375 186.621094 C 271.878906 181.742188 274.496094 177.289062 274.800781 172.457031 C 274.832031 171.953125 274.039062 171.800781 273.847656 172.25 C 271.109375 178.695312 272.832031 186.601562 268.910156 192.574219 C 269.210938 192.726562 269.507812 192.878906 269.808594 193.035156 C 271.023438 189.808594 271.59375 187.136719 269.5 184.15625 C 269.226562 183.769531 268.53125 183.9375 268.578125 184.453125 C 268.839844 187.304688 268.078125 190.15625 268.878906 192.957031 C 269.152344 192.78125 269.421875 192.605469 269.695312 192.429688 C 267.308594 190.644531 265.925781 187.914062 265.003906 185.140625 C 264.703125 185.285156 264.402344 185.429688 264.101562 185.570312 C 265.371094 187.90625 266.246094 190.417969 267.058594 192.941406 C 267.332031 192.761719 267.605469 192.585938 267.875 192.410156 C 264.230469 188.628906 261.445312 184.109375 257.445312 180.660156 C 257.425781 180.925781 257.40625 181.191406 257.382812 181.457031 C 261.328125 178.441406 267.277344 177.882812 270.1875 173.570312 C 270.328125 173.363281 270.207031 172.984375 269.96875 172.894531 C 265.277344 171.136719 260.972656 173.496094 258.691406 177.734375 C 258.484375 178.125 258.882812 178.574219 259.296875 178.441406 C 262.390625 177.445312 265.53125 176.40625 268.824219 176.5625 C 268.667969 176.320312 268.511719 176.074219 268.355469 175.832031 C 266.5 179.554688 265.886719 183.570312 265.996094 187.703125 C 266.332031 187.6875 266.667969 187.671875 267.003906 187.660156 C 266.878906 186.789062 266.613281 185.769531 266.859375 184.898438 C 267.070312 184.152344 267.507812 183.4375 267.773438 182.703125 C 267.496094 182.792969 267.21875 182.882812 266.945312 182.96875 C 268.804688 184.894531 270.484375 187.03125 270.886719 189.753906 C 271.132812 189.597656 271.375 189.441406 271.621094 189.285156 C 270.792969 188.792969 270.101562 188.113281 269.273438 187.621094 C 268.714844 187.292969 268.257812 188.1875 268.8125 188.519531 C 269.640625 189.007812 270.332031 189.6875 271.160156 190.179688 C 271.46875 190.363281 271.949219 190.082031 271.894531 189.710938 C 271.445312 186.695312 269.6875 184.359375 267.617188 182.21875 C 267.324219 181.917969 266.902344 182.164062 266.789062 182.488281 C 266.507812 183.273438 266.066406 184.015625 265.835938 184.824219 C 265.582031 185.71875 265.871094 186.816406 265.996094 187.703125 C 266.089844 188.332031 267.019531 188.320312 267.003906 187.660156 C 266.898438 183.695312 267.46875 179.863281 269.25 176.289062 C 269.429688 175.929688 269.152344 175.574219 268.78125 175.558594 C 265.40625 175.398438 262.164062 176.464844 258.988281 177.484375 C 259.1875 177.71875 259.390625 177.957031 259.589844 178.191406 C 261.582031 174.488281 265.339844 172.230469 269.511719 173.789062 C 269.4375 173.5625 269.367188 173.339844 269.292969 173.113281 C 267.886719 175.195312 265.453125 176.261719 263.230469 177.246094 C 261.023438 178.222656 258.765625 179.136719 256.832031 180.613281 C 256.582031 180.804688 256.511719 181.183594 256.773438 181.410156 C 260.773438 184.855469 263.558594 189.378906 267.203125 193.160156 C 267.5625 193.53125 268.164062 193.085938 268.019531 192.628906 C 267.175781 190.019531 266.257812 187.433594 264.945312 185.019531 C 264.667969 184.511719 263.867188 184.921875 264.042969 185.449219 C 265.019531 188.375 266.503906 191.292969 269.023438 193.179688 C 269.417969 193.472656 269.980469 193.152344 269.835938 192.648438 C 269.066406 189.949219 269.835938 187.160156 269.582031 184.410156 C 269.277344 184.511719 268.96875 184.609375 268.660156 184.707031 C 270.53125 187.375 269.992188 189.707031 268.910156 192.574219 C 268.679688 193.183594 269.449219 193.578125 269.804688 193.035156 C 273.753906 187.023438 272 179.167969 274.746094 172.707031 C 274.429688 172.640625 274.109375 172.570312 273.792969 172.5 C 273.488281 177.339844 270.875 181.757812 271.101562 186.664062 C 271.132812 187.332031 272.054688 187.246094 272.109375 186.621094 C 272.46875 182.355469 271.941406 178.070312 272.773438 173.839844 C 272.445312 173.8125 272.113281 173.78125 271.78125 173.753906 C 272.058594 180.355469 261.957031 177.726562 258.023438 177.8125 C 257.722656 177.820312 257.433594 178.171875 257.566406 178.46875 C 259.992188 183.953125 263.328125 189.027344 265.222656 194.738281 C 265.496094 194.5625 265.765625 194.386719 266.039062 194.210938 C 262.570312 191.066406 258.777344 188.195312 256.222656 184.203125 C 256.003906 184.445312 255.785156 184.683594 255.570312 184.925781 C 259.792969 187.164062 262.824219 190.867188 266.285156 194.058594 C 266.765625 194.503906 267.410156 193.769531 266.957031 193.308594 C 262.351562 188.632812 257.425781 184.257812 253.363281 179.078125 C 253.109375 179.296875 252.859375 179.511719 252.605469 179.730469 C 258.074219 183.519531 262.246094 188.78125 267.203125 193.160156 C 267.699219 193.597656 268.3125 192.878906 267.875 192.410156 C 262.378906 186.503906 255.125 182.035156 250.855469 175.050781 C 250.679688 175.308594 250.503906 175.5625 250.328125 175.820312 C 257.960938 178.429688 262.9375 185.433594 269.234375 190.089844 C 269.753906 190.472656 270.371094 189.804688 269.90625 189.339844 C 266.09375 185.515625 260.898438 182.816406 257.917969 178.214844 C 257.703125 178.457031 257.484375 178.699219 257.269531 178.941406 C 261.734375 181.277344 265.605469 184.542969 269.625 187.546875 C 270.15625 187.941406 270.71875 187.28125 270.296875 186.796875 C 267.066406 183.054688 262.03125 181.023438 259.757812 176.417969 C 259.539062 176.65625 259.324219 176.898438 259.105469 177.140625 C 263.148438 178.839844 266.257812 182.171875 270.316406 183.804688 C 270.792969 183.996094 271.214844 183.535156 270.96875 183.082031 C 269.125 179.691406 266 177.292969 262.851562 175.1875 C 262.738281 175.5 262.625 175.8125 262.511719 176.125 C 266.175781 177.230469 269.894531 180.347656 273.847656 178.59375 C 274.148438 178.457031 274.378906 177.980469 274.027344 177.738281 C 271.449219 175.945312 268.632812 174.546875 265.46875 174.261719 C 264.839844 174.203125 264.597656 175.09375 265.25 175.246094 C 268.386719 175.976562 271.582031 176.746094 274.828125 176.445312 C 275.253906 176.40625 275.492188 175.867188 275.140625 175.566406 C 271.261719 172.210938 265.617188 173.511719 260.976562 173.839844 C 261.035156 174.167969 261.09375 174.496094 261.152344 174.824219 C 266.132812 173.203125 271.390625 170.816406 276.75 171.542969 C 276.621094 171.339844 276.492188 171.140625 276.367188 170.941406 C 274.726562 175.710938 273.257812 180.539062 272.125 185.453125 C 271.027344 190.210938 270.148438 195.222656 270.597656 200.121094 C 270.878906 199.988281 271.15625 199.855469 271.4375 199.722656 C 264.5625 191.960938 257.289062 184.457031 249.285156 177.847656 C 249.226562 178.132812 249.164062 178.417969 249.105469 178.703125 C 253.289062 177.390625 257.730469 177.042969 261.972656 175.941406 C 265.75 174.960938 270.277344 173.316406 271.867188 169.40625 C 272.113281 168.808594 271.21875 168.34375 270.972656 168.945312 Z M 270.972656 168.945312 " fill-opacity="1" fill-rule="nonzero"/></g></g></g><g clip-path="url(#97eb444dde)"><g clip-path="url(#1eb1ed4cd7)"><g clip-path="url(#5254b81224)"><path fill="#ffffff" d="M 263.75 183.125 C 258.089844 165.582031 251.253906 148.292969 240.921875 132.925781 C 240.558594 132.386719 239.714844 132.9375 240.078125 133.476562 C 250.363281 148.773438 257.160156 165.972656 262.792969 183.433594 C 262.992188 184.054688 263.949219 183.746094 263.75 183.125 Z M 263.75 183.125 " fill-opacity="1" fill-rule="nonzero"/></g></g></g><g clip-path="url(#d557c2f22f)"><g clip-path="url(#47fd9928ee)"><g clip-path="url(#3ae0c6b346)"><path fill="#ffffff" d="M 265.765625 181.875 C 261.332031 171.011719 256.25 160.4375 251.101562 149.898438 C 248.53125 144.636719 245.949219 139.378906 243.417969 134.09375 C 242.054688 131.242188 240.710938 128.382812 239.390625 125.507812 C 238.320312 123.171875 236.863281 120.707031 236.210938 118.214844 C 236.015625 118.429688 235.820312 118.644531 235.621094 118.859375 C 235.359375 118.660156 235.296875 118.65625 235.429688 118.859375 C 235.535156 119.066406 235.648438 119.265625 235.765625 119.464844 C 235.949219 119.773438 236.183594 120.054688 236.480469 120.257812 C 237.003906 120.621094 237.683594 119.878906 237.152344 119.507812 C 236.660156 119.167969 236.421875 117.984375 235.839844 117.878906 C 235.453125 117.804688 235.152344 118.152344 235.253906 118.523438 C 235.859375 120.839844 237.207031 123.125 238.199219 125.304688 C 239.449219 128.046875 240.734375 130.78125 242.03125 133.503906 C 244.566406 138.832031 247.171875 144.128906 249.761719 149.433594 C 255.039062 160.226562 260.265625 171.054688 264.808594 182.183594 C 265.050781 182.78125 266.011719 182.476562 265.765625 181.875 Z M 265.765625 181.875 " fill-opacity="1" fill-rule="nonzero"/></g></g></g><g clip-path="url(#3e9954c201)"><g clip-path="url(#72dde0c048)"><g clip-path="url(#f9cdbab49a)"><path fill="#ffffff" d="M 267.292969 188.03125 C 267.9375 190.03125 268.492188 191.992188 268.660156 194.097656 C 268.988281 194.039062 269.316406 193.980469 269.644531 193.921875 C 269.191406 192.519531 268.699219 191.164062 267.71875 190.042969 C 267.378906 189.65625 266.746094 190.125 266.902344 190.574219 C 267.488281 192.214844 268.453125 193.683594 269.039062 195.324219 C 269.359375 195.222656 269.675781 195.117188 269.996094 195.015625 C 269.519531 193.738281 268.6875 192.636719 268.214844 191.359375 C 267.988281 190.753906 267.03125 191.058594 267.257812 191.667969 C 267.730469 192.945312 268.5625 194.046875 269.039062 195.324219 C 269.261719 195.929688 270.214844 195.628906 269.996094 195.015625 C 269.410156 193.371094 268.449219 191.90625 267.863281 190.265625 C 267.589844 190.441406 267.320312 190.617188 267.046875 190.792969 C 267.898438 191.765625 268.292969 193.019531 268.683594 194.230469 C 268.859375 194.765625 269.714844 194.628906 269.667969 194.054688 C 269.492188 191.859375 268.921875 189.808594 268.253906 187.722656 C 268.054688 187.101562 267.09375 187.410156 267.292969 188.03125 Z M 267.292969 188.03125 " fill-opacity="1" fill-rule="nonzero"/></g></g></g><g clip-path="url(#e0cbde8801)"><g clip-path="url(#21b2ac1df7)"><g clip-path="url(#1abad31fa5)"><path fill="#ffffff" d="M 144.464844 118.257812 C 134.574219 131.710938 130.464844 148.410156 124.921875 163.898438 C 123.027344 169.199219 120.867188 174.351562 118.390625 179.402344 C 116.675781 182.910156 114.773438 186.460938 113.535156 190.175781 C 113.386719 190.621094 113.082031 191.34375 113.484375 191.742188 C 113.964844 192.222656 114.554688 191.566406 114.855469 191.222656 C 115.285156 190.734375 114.535156 190.0625 114.109375 190.550781 C 113.984375 190.691406 113.867188 190.84375 113.707031 190.945312 C 114.484375 190.441406 114.152344 191.699219 114.371094 190.855469 C 114.554688 190.15625 114.851562 189.480469 115.128906 188.816406 C 115.9375 186.863281 116.84375 184.949219 117.75 183.042969 C 119.671875 179.003906 121.675781 175.046875 123.351562 170.894531 C 129.625 155.320312 133.25 138.554688 141.859375 123.988281 C 142.890625 122.246094 144.015625 120.5625 145.214844 118.933594 C 145.59375 118.414062 144.847656 117.734375 144.464844 118.257812 Z M 144.464844 118.257812 " fill-opacity="1" fill-rule="nonzero"/></g></g></g><g clip-path="url(#03c5377a35)"><g clip-path="url(#a14711d714)"><g clip-path="url(#8a8349546e)"><path fill="#ffffff" d="M 139.457031 117.984375 C 130.914062 145.257812 114.65625 169.96875 110.128906 198.507812 C 110.457031 198.570312 110.789062 198.636719 111.117188 198.703125 C 111.4375 196.640625 111.976562 194.542969 112.875 192.65625 C 113.152344 192.070312 112.253906 191.617188 111.972656 192.207031 C 111.035156 194.171875 110.460938 196.359375 110.128906 198.507812 C 110.03125 199.144531 111.015625 199.34375 111.117188 198.703125 C 115.644531 170.175781 131.902344 145.449219 140.445312 118.179688 C 140.640625 117.558594 139.648438 117.371094 139.457031 117.984375 Z M 139.457031 117.984375 " fill-opacity="1" fill-rule="nonzero"/></g></g></g><g clip-path="url(#48555317e2)"><g clip-path="url(#1d85735b7f)"><g clip-path="url(#99b4bf3597)"><path fill="#ffffff" d="M 127.957031 182.433594 C 124.085938 184.113281 119.765625 181.804688 116.445312 179.863281 C 112.875 177.777344 109.648438 175.082031 105.960938 173.199219 C 105.628906 173.03125 105.191406 173.300781 105.234375 173.683594 C 106.328125 184.003906 106.269531 194.457031 105.746094 204.8125 C 105.726562 205.25 106.367188 205.433594 106.625 205.117188 C 109.683594 201.355469 113.738281 198.488281 117.78125 195.875 C 122.011719 193.140625 126.460938 190.734375 130.964844 188.480469 C 131.195312 188.363281 131.265625 187.980469 131.113281 187.78125 C 127.660156 183.347656 122.160156 181.28125 117.28125 178.859375 C 116.777344 178.609375 116.28125 179.3125 116.71875 179.683594 C 120.019531 182.488281 124.902344 185.382812 125.300781 190.148438 C 125.578125 190.011719 125.859375 189.875 126.140625 189.742188 C 123.675781 187.742188 121.992188 185.027344 120.304688 182.378906 C 120.027344 182.5625 119.746094 182.746094 119.464844 182.929688 C 121.410156 185.210938 122.429688 188.003906 122.984375 190.917969 C 123.226562 190.757812 123.46875 190.597656 123.710938 190.4375 C 119.941406 189.03125 119.464844 184.238281 117.734375 181.09375 C 117.433594 180.550781 116.726562 181.011719 116.835938 181.527344 C 117.578125 185.066406 118.082031 188.792969 117.074219 192.332031 C 117.398438 192.3125 117.722656 192.292969 118.046875 192.269531 C 116.289062 188.265625 116.402344 183.710938 114.703125 179.664062 C 114.496094 179.175781 113.886719 179.25 113.730469 179.726562 C 112.101562 184.695312 114.296875 189.761719 113.980469 194.777344 C 114.3125 194.757812 114.648438 194.734375 114.984375 194.714844 C 114.199219 189.671875 113.710938 184.542969 112.128906 179.664062 C 111.972656 179.183594 111.257812 179.234375 111.15625 179.726562 C 110.042969 185.199219 111.871094 190.828125 111.921875 196.320312 C 112.257812 196.300781 112.589844 196.277344 112.925781 196.257812 C 111.652344 188.3125 112.972656 179.75 109.242188 172.34375 C 109.03125 171.925781 108.417969 172.132812 108.328125 172.523438 C 106.46875 180.59375 108.527344 188.9375 108.320312 197.09375 C 108.652344 197.070312 108.988281 197.050781 109.324219 197.027344 C 108.847656 190.429688 109.550781 183.753906 108.292969 177.21875 C 108.195312 176.707031 107.367188 176.535156 107.296875 177.152344 C 106.566406 183.785156 107.019531 190.441406 107.03125 197.09375 C 107.367188 197.070312 107.703125 197.050781 108.039062 197.027344 C 107.796875 192.234375 108.203125 187.394531 106.726562 182.753906 C 106.570312 182.265625 105.855469 182.328125 105.753906 182.8125 C 104.769531 187.542969 105.464844 192.332031 105.746094 197.09375 C 105.777344 197.59375 106.476562 197.734375 106.699219 197.285156 C 109.347656 191.878906 110.511719 185.921875 112.617188 180.304688 C 112.355469 180.355469 112.089844 180.40625 111.828125 180.457031 C 115.183594 183.601562 120.800781 192.789062 125.917969 187.105469 C 126.296875 186.683594 125.742188 186.023438 125.269531 186.347656 C 121.640625 188.835938 118.960938 192.328125 115.648438 195.179688 C 115.898438 195.40625 116.148438 195.628906 116.398438 195.855469 C 119.652344 192.210938 124.632812 190.859375 128.234375 187.621094 C 128.609375 187.285156 128.152344 186.621094 127.699219 186.808594 C 121.230469 189.492188 116.929688 196.347656 109.949219 197.871094 C 110.054688 198.1875 110.160156 198.507812 110.265625 198.824219 C 113.394531 197.371094 115.671875 195.867188 116.261719 192.269531 C 116.339844 191.800781 115.722656 191.433594 115.394531 191.835938 C 113.585938 194.054688 111.046875 195.558594 109.65625 198.121094 C 109.976562 198.1875 110.292969 198.25 110.609375 198.316406 C 110.152344 195.367188 111.078125 192.453125 112.359375 189.824219 C 112.042969 189.71875 111.730469 189.609375 111.414062 189.503906 C 110.683594 192.058594 109.554688 194.464844 108.371094 196.835938 C 108.6875 196.898438 109.003906 196.964844 109.324219 197.027344 C 109.363281 191.777344 110.542969 186.597656 110.09375 181.335938 C 109.894531 181.511719 109.695312 181.6875 109.496094 181.863281 C 114.421875 182.46875 119.0625 186.230469 124.160156 185.191406 C 124.40625 185.140625 124.585938 184.78125 124.476562 184.554688 C 122.355469 180.015625 117.628906 178.6875 113.035156 180.117188 C 112.613281 180.25 112.582031 180.851562 112.96875 181.046875 C 115.875 182.5 118.847656 183.957031 121.089844 186.371094 C 121.148438 186.089844 121.207031 185.804688 121.269531 185.519531 C 117.335938 186.882812 114.089844 189.324219 111.277344 192.351562 C 111.527344 192.574219 111.777344 192.800781 112.023438 193.023438 C 112.546875 192.3125 113.070312 191.402344 113.855469 190.949219 C 114.527344 190.566406 115.339844 190.363281 116.042969 190.023438 C 115.785156 189.890625 115.523438 189.761719 115.265625 189.632812 C 115.246094 192.308594 114.949219 195.011719 113.335938 197.238281 C 113.617188 197.296875 113.902344 197.355469 114.1875 197.417969 C 113.9375 196.484375 113.921875 195.515625 113.671875 194.585938 C 113.503906 193.957031 112.550781 194.28125 112.71875 194.90625 C 112.964844 195.835938 112.984375 196.804688 113.230469 197.734375 C 113.324219 198.078125 113.863281 198.214844 114.082031 197.914062 C 115.875 195.445312 116.25 192.542969 116.269531 189.566406 C 116.273438 189.148438 115.800781 189.03125 115.492188 189.179688 C 114.738281 189.542969 113.902344 189.765625 113.175781 190.183594 C 112.371094 190.644531 111.804688 191.628906 111.277344 192.351562 C 110.898438 192.867188 111.574219 193.507812 112.027344 193.023438 C 114.722656 190.121094 117.8125 187.78125 121.585938 186.476562 C 121.96875 186.34375 122.015625 185.898438 121.765625 185.625 C 119.464844 183.144531 116.402344 181.636719 113.421875 180.144531 C 113.398438 180.453125 113.375 180.765625 113.355469 181.074219 C 117.367188 179.820312 121.636719 180.839844 123.523438 184.871094 C 123.628906 184.660156 123.734375 184.445312 123.839844 184.234375 C 121.378906 184.738281 118.894531 183.796875 116.621094 182.945312 C 114.355469 182.097656 112.105469 181.171875 109.691406 180.875 C 109.375 180.835938 109.0625 181.058594 109.089844 181.398438 C 109.539062 186.660156 108.359375 191.84375 108.320312 197.09375 C 108.316406 197.609375 109.058594 197.714844 109.273438 197.285156 C 110.496094 194.832031 111.648438 192.339844 112.402344 189.695312 C 112.5625 189.140625 111.703125 188.875 111.457031 189.375 C 110.105469 192.148438 109.125 195.269531 109.605469 198.378906 C 109.679688 198.867188 110.308594 199.035156 110.558594 198.570312 C 111.894531 196.101562 114.398438 194.648438 116.140625 192.507812 C 115.851562 192.363281 115.5625 192.21875 115.273438 192.074219 C 114.746094 195.292969 112.726562 196.578125 109.949219 197.871094 C 109.359375 198.144531 109.628906 198.964844 110.265625 198.824219 C 117.292969 197.292969 121.535156 190.453125 128.019531 187.761719 C 127.839844 187.492188 127.664062 187.21875 127.484375 186.949219 C 123.878906 190.191406 118.921875 191.515625 115.652344 195.179688 C 115.203125 195.679688 115.921875 196.265625 116.398438 195.855469 C 119.640625 193.058594 122.261719 189.628906 125.820312 187.191406 C 125.601562 186.9375 125.386719 186.6875 125.167969 186.433594 C 120.746094 191.34375 115.371094 182.398438 112.503906 179.707031 C 112.28125 179.5 111.832031 179.546875 111.714844 179.855469 C 109.609375 185.46875 108.445312 191.429688 105.796875 196.835938 C 106.117188 196.898438 106.433594 196.964844 106.75 197.027344 C 106.476562 192.355469 105.773438 187.648438 106.742188 183.007812 C 106.417969 183.027344 106.09375 183.050781 105.769531 183.070312 C 107.21875 187.625 106.796875 192.390625 107.03125 197.09375 C 107.066406 197.746094 108.039062 197.671875 108.039062 197.027344 C 108.023438 190.464844 107.5625 183.890625 108.285156 177.347656 C 107.953125 177.328125 107.621094 177.304688 107.289062 177.285156 C 108.542969 183.820312 107.84375 190.496094 108.320312 197.09375 C 108.367188 197.75 109.308594 197.667969 109.324219 197.027344 C 109.53125 188.960938 107.476562 180.695312 109.316406 172.71875 C 109.007812 172.777344 108.703125 172.835938 108.398438 172.894531 C 112.027344 180.101562 110.679688 188.589844 111.921875 196.320312 C 112.023438 196.957031 112.929688 196.914062 112.925781 196.253906 C 112.875 190.855469 111.050781 185.292969 112.144531 179.921875 C 111.820312 179.941406 111.496094 179.960938 111.171875 179.984375 C 112.726562 184.777344 113.207031 189.820312 113.976562 194.777344 C 114.078125 195.429688 114.941406 195.355469 114.984375 194.710938 C 115.292969 189.78125 113.117188 184.804688 114.714844 179.921875 C 114.394531 179.941406 114.070312 179.960938 113.746094 179.984375 C 115.445312 184.027344 115.332031 188.582031 117.089844 192.589844 C 117.296875 193.058594 117.917969 193.027344 118.0625 192.527344 C 119.113281 188.816406 118.5625 184.914062 117.789062 181.207031 C 117.488281 181.351562 117.1875 181.496094 116.886719 181.640625 C 118.734375 184.996094 119.207031 189.824219 123.257812 191.335938 C 123.570312 191.453125 124.066406 191.269531 123.988281 190.851562 C 123.398438 187.769531 122.367188 184.796875 120.304688 182.378906 C 119.894531 181.898438 119.101562 182.363281 119.460938 182.929688 C 121.191406 185.644531 122.933594 188.433594 125.460938 190.488281 C 125.792969 190.757812 126.339844 190.542969 126.300781 190.082031 C 125.878906 184.96875 120.9375 181.945312 117.390625 178.933594 C 117.203125 179.210938 117.015625 179.484375 116.828125 179.757812 C 121.519531 182.089844 126.945312 184.066406 130.265625 188.332031 C 130.316406 188.097656 130.363281 187.867188 130.414062 187.632812 C 125.90625 189.894531 121.476562 192.3125 117.226562 195.03125 C 113.113281 197.660156 108.976562 200.628906 105.875 204.441406 C 106.164062 204.542969 106.457031 204.644531 106.75 204.746094 C 107.269531 194.390625 107.328125 183.9375 106.234375 173.617188 C 105.992188 173.777344 105.75 173.9375 105.507812 174.097656 C 109.414062 176.089844 112.832031 178.953125 116.632812 181.132812 C 120.015625 183.074219 124.398438 185.070312 128.273438 183.386719 C 128.867188 183.132812 128.554688 182.175781 127.957031 182.433594 Z M 127.957031 182.433594 " fill-opacity="1" fill-rule="nonzero"/></g></g></g><g clip-path="url(#1f133f8d3f)"><g clip-path="url(#a59afc78dd)"><g clip-path="url(#a568227c6a)"><path fill="#ffffff" d="M 112.875 187.511719 C 121.109375 171.015625 128.324219 153.878906 131.699219 135.671875 C 131.816406 135.035156 130.828125 134.835938 130.710938 135.476562 C 127.351562 153.601562 120.167969 170.644531 111.972656 187.058594 C 111.683594 187.640625 112.585938 188.089844 112.875 187.511719 Z M 112.875 187.511719 " fill-opacity="1" fill-rule="nonzero"/></g></g></g><g clip-path="url(#a8443e41e4)"><g clip-path="url(#85b86e1e47)"><g clip-path="url(#3e9c99d874)"><path fill="#ffffff" d="M 115.191406 188.023438 C 119.625 177.164062 123.394531 166.050781 127.09375 154.921875 C 128.941406 149.363281 130.773438 143.800781 132.664062 138.257812 C 133.683594 135.265625 134.726562 132.28125 135.796875 129.304688 C 136.664062 126.886719 137.351562 124.105469 138.628906 121.867188 C 138.335938 121.886719 138.046875 121.902344 137.757812 121.917969 C 137.710938 121.589844 137.664062 121.546875 137.621094 121.785156 C 137.550781 122.003906 137.492188 122.226562 137.4375 122.449219 C 137.351562 122.800781 137.324219 123.164062 137.390625 123.515625 C 137.511719 124.144531 138.515625 124.089844 138.394531 123.449219 C 138.285156 122.867188 138.941406 121.855469 138.597656 121.367188 C 138.371094 121.046875 137.917969 121.085938 137.726562 121.417969 C 136.539062 123.5 135.902344 126.074219 135.085938 128.324219 C 134.058594 131.160156 133.066406 134.007812 132.085938 136.863281 C 130.167969 142.445312 128.320312 148.050781 126.460938 153.652344 C 122.675781 165.054688 118.832031 176.445312 114.289062 187.574219 C 114.046875 188.171875 114.945312 188.625 115.191406 188.023438 Z M 115.191406 188.023438 " fill-opacity="1" fill-rule="nonzero"/></g></g></g><g clip-path="url(#6b2f455176)"><g clip-path="url(#958dd525fc)"><g clip-path="url(#aa5f38b95d)"><path fill="#ffffff" d="M 111.972656 193.492188 C 111.03125 195.371094 110.058594 197.160156 108.703125 198.78125 C 108.980469 198.96875 109.253906 199.15625 109.53125 199.34375 C 110.1875 198.027344 110.785156 196.714844 110.867188 195.226562 C 110.898438 194.714844 110.113281 194.605469 109.914062 195.035156 C 109.183594 196.617188 108.847656 198.339844 108.113281 199.921875 C 108.414062 200.074219 108.714844 200.222656 109.015625 200.375 C 109.570312 199.128906 109.746094 197.757812 110.300781 196.515625 C 110.566406 195.921875 109.664062 195.46875 109.402344 196.0625 C 108.847656 197.308594 108.667969 198.679688 108.113281 199.921875 C 107.851562 200.515625 108.742188 200.964844 109.015625 200.375 C 109.746094 198.789062 110.085938 197.070312 110.816406 195.484375 C 110.5 195.421875 110.179688 195.355469 109.863281 195.292969 C 109.789062 196.585938 109.195312 197.757812 108.628906 198.894531 C 108.378906 199.398438 109.085938 199.898438 109.453125 199.457031 C 110.863281 197.765625 111.894531 195.902344 112.875 193.941406 C 113.164062 193.359375 112.265625 192.910156 111.972656 193.492188 Z M 111.972656 193.492188 " fill-opacity="1" fill-rule="nonzero"/></g></g></g><g clip-path="url(#403da35a72)"><path fill="#ffa000" d="M 135.707031 294.585938 L 69.011719 294.585938 L 69.011719 207.585938 L 114.863281 207.585938 L 135.707031 228.300781 Z M 135.707031 294.585938 " fill-opacity="1" fill-rule="nonzero"/></g><path fill="#fff3e0" d="M 132.582031 230.371094 L 112.78125 230.371094 L 112.78125 210.691406 Z M 132.582031 230.371094 " fill-opacity="1" fill-rule="nonzero"/><path fill="#ffffff" d="M 77.347656 269.730469 L 77.347656 249.015625 L 82.765625 249.015625 C 85.269531 249.015625 87.144531 249.84375 88.601562 251.292969 C 90.0625 252.742188 90.6875 255.023438 90.894531 257.507812 L 90.894531 260.820312 C 90.894531 263.515625 90.269531 265.585938 88.8125 267.242188 C 87.351562 268.691406 85.476562 269.523438 82.765625 269.523438 L 77.347656 269.523438 Z M 81.515625 252.535156 L 81.515625 266.207031 L 82.765625 266.207031 C 84.226562 266.207031 85.058594 265.792969 85.683594 265.171875 C 86.308594 264.34375 86.519531 263.101562 86.519531 261.441406 L 86.519531 257.921875 C 86.519531 256.058594 86.308594 254.609375 85.683594 253.984375 C 85.058594 253.15625 84.226562 252.742188 82.976562 252.742188 L 81.515625 252.742188 Z M 81.515625 252.535156 " fill-opacity="1" fill-rule="nonzero"/><path fill="#ffffff" d="M 128.621094 267.65625 C 127.785156 268.484375 126.746094 269.109375 125.703125 269.523438 C 124.453125 269.9375 123.203125 270.144531 121.949219 270.144531 C 119.65625 270.144531 117.78125 269.316406 116.324219 267.863281 C 115.074219 266.414062 114.238281 264.34375 114.238281 261.441406 L 114.238281 257.714844 C 114.238281 254.816406 114.863281 252.742188 116.113281 251.085938 C 117.367188 249.636719 119.242188 248.808594 121.535156 248.808594 C 123.828125 248.808594 125.492188 249.429688 126.535156 250.464844 C 127.578125 251.5 128.410156 253.363281 128.621094 255.644531 L 124.453125 255.644531 C 124.242188 254.402344 124.035156 253.363281 123.617188 252.949219 C 123.203125 252.535156 122.574219 252.328125 121.535156 252.328125 C 120.492188 252.328125 119.65625 252.742188 119.03125 253.570312 C 118.617188 254.402344 118.199219 255.644531 118.199219 257.507812 L 118.199219 261.441406 C 118.199219 263.308594 118.40625 264.757812 119.03125 265.585938 C 119.65625 266.414062 120.492188 266.828125 121.742188 266.828125 C 122.574219 266.828125 123.203125 266.621094 123.828125 266.414062 L 124.242188 266.207031 L 124.242188 262.480469 L 121.324219 262.480469 L 121.324219 259.371094 L 128.410156 259.371094 L 128.410156 267.65625 Z M 128.621094 267.65625 " fill-opacity="1" fill-rule="nonzero"/><path fill="#ffffff" d="M 106.5625 262.070312 L 108.527344 249.113281 L 112.671875 249.113281 L 108.984375 269.730469 L 104.78125 269.730469 L 102.359375 257.582031 L 99.964844 269.730469 L 95.75 269.730469 L 92.046875 249.113281 L 96.222656 249.113281 L 98.171875 262.054688 L 100.609375 249.113281 L 104.128906 249.113281 Z M 106.5625 262.070312 " fill-opacity="1" fill-rule="nonzero"/><g fill="#ffffff" fill-opacity="1"><g transform="translate(174.125062, 151.09786)"><g><path d="M 6.546875 0 L 5.515625 -2.65625 L 2.109375 -2.65625 L 1.09375 0 L 0 0 L 3.34375 -8.609375 L 4.3125 -8.609375 L 7.65625 0 Z M 5.1875 -3.609375 L 4.21875 -6.203125 C 4.195312 -6.265625 4.15625 -6.378906 4.09375 -6.546875 C 4.039062 -6.710938 3.988281 -6.882812 3.9375 -7.0625 C 3.882812 -7.25 3.84375 -7.390625 3.8125 -7.484375 C 3.75 -7.234375 3.679688 -6.988281 3.609375 -6.75 C 3.546875 -6.519531 3.488281 -6.335938 3.4375 -6.203125 L 2.46875 -3.609375 Z M 5.1875 -3.609375 "/></g></g></g><g fill="#ffffff" fill-opacity="1"><g transform="translate(181.793072, 151.09786)"><g><path d="M 3.4375 -8.5625 C 4.550781 -8.5625 5.363281 -8.34375 5.875 -7.90625 C 6.382812 -7.46875 6.640625 -6.847656 6.640625 -6.046875 C 6.640625 -5.578125 6.535156 -5.132812 6.328125 -4.71875 C 6.117188 -4.3125 5.765625 -3.976562 5.265625 -3.71875 C 4.765625 -3.46875 4.085938 -3.34375 3.234375 -3.34375 L 2.25 -3.34375 L 2.25 0 L 1.15625 0 L 1.15625 -8.5625 Z M 3.34375 -7.640625 L 2.25 -7.640625 L 2.25 -4.265625 L 3.109375 -4.265625 C 3.921875 -4.265625 4.523438 -4.394531 4.921875 -4.65625 C 5.328125 -4.914062 5.53125 -5.363281 5.53125 -6 C 5.53125 -6.550781 5.351562 -6.960938 5 -7.234375 C 4.644531 -7.503906 4.09375 -7.640625 3.34375 -7.640625 Z M 3.34375 -7.640625 "/></g></g></g><g fill="#ffffff" fill-opacity="1"><g transform="translate(189.053089, 151.09786)"><g><path d="M 6.984375 0 L 5.765625 0 L 3.484375 -3.71875 L 1.1875 0 L 0.046875 0 L 2.890625 -4.46875 L 0.234375 -8.5625 L 1.421875 -8.5625 L 3.53125 -5.203125 L 5.640625 -8.5625 L 6.78125 -8.5625 L 4.125 -4.484375 Z M 6.984375 0 "/></g></g></g><g fill="#ffffff" fill-opacity="1"><g transform="translate(196.085105, 151.09786)"><g><path d="M 3.578125 0 L 0.484375 0 L 0.484375 -0.625 L 1.484375 -0.859375 L 1.484375 -7.703125 L 0.484375 -7.9375 L 0.484375 -8.5625 L 3.578125 -8.5625 L 3.578125 -7.9375 L 2.5625 -7.703125 L 2.5625 -0.859375 L 3.578125 -0.625 Z M 3.578125 0 "/></g></g></g><g fill="#ffffff" fill-opacity="1"><g transform="translate(200.153113, 151.09786)"><g><path d="M 1.15625 -8.5625 L 3.609375 -8.5625 C 4.671875 -8.5625 5.476562 -8.398438 6.03125 -8.078125 C 6.582031 -7.765625 6.859375 -7.21875 6.859375 -6.4375 C 6.859375 -5.9375 6.71875 -5.519531 6.4375 -5.1875 C 6.164062 -4.851562 5.765625 -4.640625 5.234375 -4.546875 L 5.234375 -4.484375 C 5.585938 -4.421875 5.910156 -4.3125 6.203125 -4.15625 C 6.492188 -4.007812 6.722656 -3.796875 6.890625 -3.515625 C 7.066406 -3.234375 7.15625 -2.875 7.15625 -2.4375 C 7.15625 -1.65625 6.890625 -1.050781 6.359375 -0.625 C 5.828125 -0.207031 5.097656 0 4.171875 0 L 1.15625 0 Z M 2.25 -4.921875 L 3.828125 -4.921875 C 4.554688 -4.921875 5.054688 -5.035156 5.328125 -5.265625 C 5.609375 -5.503906 5.75 -5.859375 5.75 -6.328125 C 5.75 -6.796875 5.582031 -7.128906 5.25 -7.328125 C 4.914062 -7.535156 4.382812 -7.640625 3.65625 -7.640625 L 2.25 -7.640625 Z M 2.25 -4.015625 L 2.25 -0.90625 L 3.96875 -0.90625 C 4.726562 -0.90625 5.253906 -1.050781 5.546875 -1.34375 C 5.847656 -1.644531 6 -2.035156 6 -2.515625 C 6 -2.960938 5.84375 -3.320312 5.53125 -3.59375 C 5.226562 -3.875 4.679688 -4.015625 3.890625 -4.015625 Z M 2.25 -4.015625 "/></g></g></g><g fill="#ffffff" fill-opacity="1"><g transform="translate(66.545412, 314.564394)"><g><path d="M 4.859375 -9.125 L 4.859375 -6.53125 C 5.492188 -6.46875 6.050781 -6.296875 6.53125 -6.015625 C 7.007812 -5.742188 7.378906 -5.367188 7.640625 -4.890625 C 7.910156 -4.421875 8.046875 -3.863281 8.046875 -3.21875 C 8.046875 -2.238281 7.757812 -1.460938 7.1875 -0.890625 C 6.625 -0.316406 5.847656 0.0078125 4.859375 0.09375 L 4.859375 2.875 L 3.828125 2.875 L 3.828125 0.09375 C 3.191406 0.0390625 2.632812 -0.117188 2.15625 -0.390625 C 1.675781 -0.671875 1.300781 -1.046875 1.03125 -1.515625 C 0.769531 -1.992188 0.640625 -2.5625 0.640625 -3.21875 C 0.640625 -4.195312 0.921875 -4.972656 1.484375 -5.546875 C 2.054688 -6.117188 2.847656 -6.445312 3.859375 -6.53125 L 3.859375 -9.125 Z M 3.859375 -5.65625 C 3.128906 -5.582031 2.59375 -5.335938 2.25 -4.921875 C 1.914062 -4.515625 1.75 -3.945312 1.75 -3.21875 C 1.75 -2.488281 1.914062 -1.914062 2.25 -1.5 C 2.59375 -1.082031 3.128906 -0.835938 3.859375 -0.765625 Z M 4.859375 -5.640625 L 4.859375 -0.765625 C 5.578125 -0.847656 6.101562 -1.097656 6.4375 -1.515625 C 6.78125 -1.929688 6.953125 -2.5 6.953125 -3.21875 C 6.953125 -3.9375 6.78125 -4.5 6.4375 -4.90625 C 6.09375 -5.3125 5.566406 -5.554688 4.859375 -5.640625 Z M 4.859375 -5.640625 "/></g></g></g><g fill="#ffffff" fill-opacity="1"><g transform="translate(75.245427, 314.564394)"><g><path d="M 3.453125 -6.546875 C 4.234375 -6.546875 4.8125 -6.375 5.1875 -6.03125 C 5.570312 -5.6875 5.765625 -5.132812 5.765625 -4.375 L 5.765625 0 L 4.984375 0 L 4.78125 -0.90625 L 4.734375 -0.90625 C 4.453125 -0.5625 4.15625 -0.300781 3.84375 -0.125 C 3.539062 0.0390625 3.117188 0.125 2.578125 0.125 C 1.992188 0.125 1.507812 -0.0234375 1.125 -0.328125 C 0.738281 -0.640625 0.546875 -1.125 0.546875 -1.78125 C 0.546875 -2.425781 0.796875 -2.921875 1.296875 -3.265625 C 1.804688 -3.617188 2.585938 -3.8125 3.640625 -3.84375 L 4.734375 -3.875 L 4.734375 -4.265625 C 4.734375 -4.796875 4.613281 -5.164062 4.375 -5.375 C 4.144531 -5.582031 3.816406 -5.6875 3.390625 -5.6875 C 3.054688 -5.6875 2.738281 -5.632812 2.4375 -5.53125 C 2.132812 -5.4375 1.847656 -5.328125 1.578125 -5.203125 L 1.265625 -5.984375 C 1.546875 -6.140625 1.875 -6.269531 2.25 -6.375 C 2.632812 -6.488281 3.035156 -6.546875 3.453125 -6.546875 Z M 4.71875 -3.140625 L 3.765625 -3.109375 C 2.960938 -3.078125 2.40625 -2.945312 2.09375 -2.71875 C 1.789062 -2.5 1.640625 -2.1875 1.640625 -1.78125 C 1.640625 -1.414062 1.75 -1.148438 1.96875 -0.984375 C 2.1875 -0.816406 2.46875 -0.734375 2.8125 -0.734375 C 3.351562 -0.734375 3.804688 -0.878906 4.171875 -1.171875 C 4.535156 -1.472656 4.71875 -1.9375 4.71875 -2.5625 Z M 4.71875 -3.140625 "/></g></g></g><g fill="#ffffff" fill-opacity="1"><g transform="translate(81.977437, 314.564394)"><g><path d="M 2.015625 -6.4375 L 2.015625 -2.515625 C 2.015625 -2.410156 2.007812 -2.257812 2 -2.0625 C 1.988281 -1.875 1.976562 -1.679688 1.96875 -1.484375 C 1.957031 -1.296875 1.945312 -1.148438 1.9375 -1.046875 L 5.390625 -6.4375 L 6.6875 -6.4375 L 6.6875 0 L 5.703125 0 L 5.703125 -3.796875 C 5.703125 -3.921875 5.703125 -4.085938 5.703125 -4.296875 C 5.710938 -4.503906 5.71875 -4.707031 5.71875 -4.90625 C 5.726562 -5.113281 5.738281 -5.269531 5.75 -5.375 L 2.328125 0 L 1.015625 0 L 1.015625 -6.4375 Z M 6.234375 -9.09375 C 6.179688 -8.5 5.976562 -8.046875 5.625 -7.734375 C 5.28125 -7.421875 4.726562 -7.265625 3.96875 -7.265625 C 3.1875 -7.265625 2.628906 -7.414062 2.296875 -7.71875 C 1.972656 -8.03125 1.796875 -8.488281 1.765625 -9.09375 L 2.75 -9.09375 C 2.78125 -8.664062 2.890625 -8.375 3.078125 -8.21875 C 3.265625 -8.070312 3.566406 -8 3.984375 -8 C 4.359375 -8 4.648438 -8.078125 4.859375 -8.234375 C 5.066406 -8.390625 5.191406 -8.675781 5.234375 -9.09375 Z M 6.234375 -9.09375 "/></g></g></g><g fill="#ffffff" fill-opacity="1"><g transform="translate(89.693455, 314.564394)"><g><path d="M 5.921875 0 L 4.84375 0 L 4.84375 -5.5625 L 2.953125 -5.5625 C 2.847656 -4.207031 2.703125 -3.113281 2.515625 -2.28125 C 2.335938 -1.457031 2.09375 -0.859375 1.78125 -0.484375 C 1.46875 -0.109375 1.085938 0.078125 0.640625 0.078125 C 0.535156 0.078125 0.429688 0.0703125 0.328125 0.0625 C 0.234375 0.0507812 0.148438 0.03125 0.078125 0 L 0.078125 -0.796875 C 0.128906 -0.773438 0.179688 -0.757812 0.234375 -0.75 C 0.296875 -0.75 0.351562 -0.75 0.40625 -0.75 C 0.84375 -0.75 1.191406 -1.207031 1.453125 -2.125 C 1.710938 -3.039062 1.910156 -4.476562 2.046875 -6.4375 L 5.921875 -6.4375 Z M 5.921875 0 "/></g></g></g><g fill="#ffffff" fill-opacity="1"><g transform="translate(96.629467, 314.564394)"><g/></g></g><g fill="#ffffff" fill-opacity="1"><g transform="translate(99.905475, 314.564394)"><g><path d="M 0.71875 -9.90625 L 3.59375 -9.90625 C 4.96875 -9.90625 6.140625 -9.429688 7.109375 -8.484375 C 8.085938 -7.546875 8.578125 -6.367188 8.578125 -4.953125 C 8.578125 -3.523438 8.085938 -2.34375 7.109375 -1.40625 C 6.140625 -0.46875 4.96875 0 3.59375 0 L 0.71875 0 Z M 2.96875 -2.015625 L 3.328125 -2.015625 C 4.148438 -2.015625 4.820312 -2.289062 5.34375 -2.84375 C 5.863281 -3.40625 6.128906 -4.101562 6.140625 -4.9375 C 6.140625 -5.78125 5.878906 -6.484375 5.359375 -7.046875 C 4.835938 -7.609375 4.160156 -7.890625 3.328125 -7.890625 L 2.96875 -7.890625 Z M 2.96875 -2.015625 "/></g></g></g><g fill="#ffffff" fill-opacity="1"><g transform="translate(108.761496, 314.564394)"><g><path d="M 8.3125 0 L 6.734375 -5.5625 L 5.140625 0 L 2.640625 0 L -0.1875 -9.90625 L 2.328125 -9.90625 L 4.015625 -3.109375 L 4.078125 -3.109375 L 5.875 -9.90625 L 7.578125 -9.90625 L 9.390625 -3.109375 L 9.4375 -3.109375 L 11.140625 -9.90625 L 13.625 -9.90625 L 10.8125 0 Z M 8.3125 0 "/></g></g></g><g fill="#ffffff" fill-opacity="1"><g transform="translate(122.213522, 314.564394)"><g><path d="M 9.671875 -5.546875 L 9.671875 -3.390625 C 9.410156 -2.210938 8.847656 -1.320312 7.984375 -0.71875 C 7.128906 -0.113281 6.164062 0.1875 5.09375 0.1875 C 3.757812 0.1875 2.625 -0.3125 1.6875 -1.3125 C 0.75 -2.3125 0.28125 -3.519531 0.28125 -4.9375 C 0.28125 -6.382812 0.738281 -7.601562 1.65625 -8.59375 C 2.570312 -9.582031 3.71875 -10.078125 5.09375 -10.078125 C 6.707031 -10.078125 7.984375 -9.515625 8.921875 -8.390625 L 7.4375 -6.765625 C 6.90625 -7.617188 6.171875 -8.046875 5.234375 -8.046875 C 4.535156 -8.046875 3.941406 -7.742188 3.453125 -7.140625 C 2.960938 -6.535156 2.71875 -5.800781 2.71875 -4.9375 C 2.71875 -4.101562 2.960938 -3.382812 3.453125 -2.78125 C 3.941406 -2.1875 4.535156 -1.890625 5.234375 -1.890625 C 5.804688 -1.890625 6.304688 -2.0625 6.734375 -2.40625 C 7.160156 -2.757812 7.375 -3.222656 7.375 -3.796875 L 5.09375 -3.796875 L 5.09375 -5.546875 Z M 9.671875 -5.546875 "/></g></g></g><g fill="#ffffff" fill-opacity="1"><g transform="translate(51.721194, 331.064393)"><g><path d="M 4.84375 -7.734375 C 3.914062 -7.734375 3.1875 -7.425781 2.65625 -6.8125 C 2.132812 -6.195312 1.875 -5.351562 1.875 -4.28125 C 1.875 -3.21875 2.117188 -2.375 2.609375 -1.75 C 3.097656 -1.132812 3.835938 -0.828125 4.828125 -0.828125 C 5.191406 -0.828125 5.539062 -0.859375 5.875 -0.921875 C 6.21875 -0.984375 6.550781 -1.0625 6.875 -1.15625 L 6.875 -0.234375 C 6.550781 -0.109375 6.21875 -0.0195312 5.875 0.03125 C 5.539062 0.09375 5.140625 0.125 4.671875 0.125 C 3.796875 0.125 3.066406 -0.0507812 2.484375 -0.40625 C 1.898438 -0.769531 1.460938 -1.285156 1.171875 -1.953125 C 0.878906 -2.617188 0.734375 -3.398438 0.734375 -4.296875 C 0.734375 -5.160156 0.890625 -5.921875 1.203125 -6.578125 C 1.523438 -7.242188 1.992188 -7.757812 2.609375 -8.125 C 3.222656 -8.5 3.96875 -8.6875 4.84375 -8.6875 C 5.75 -8.6875 6.539062 -8.519531 7.21875 -8.1875 L 6.78125 -7.265625 C 6.519531 -7.390625 6.222656 -7.5 5.890625 -7.59375 C 5.566406 -7.6875 5.21875 -7.734375 4.84375 -7.734375 Z M 4.84375 -7.734375 "/></g></g></g><g fill="#ffffff" fill-opacity="1"><g transform="translate(59.305205, 331.064393)"><g><path d="M 2.546875 -3.28125 L 0.328125 -6.4375 L 1.53125 -6.4375 L 3.1875 -4.015625 L 4.828125 -6.4375 L 6.015625 -6.4375 L 3.796875 -3.28125 L 6.125 0 L 4.9375 0 L 3.1875 -2.5625 L 1.40625 0 L 0.21875 0 Z M 2.546875 -3.28125 "/></g></g></g><g fill="#ffffff" fill-opacity="1"><g transform="translate(65.653219, 331.064393)"><g><path d="M 3.5 -6.546875 C 4.039062 -6.546875 4.507812 -6.425781 4.90625 -6.1875 C 5.3125 -5.945312 5.617188 -5.609375 5.828125 -5.171875 C 6.046875 -4.742188 6.15625 -4.234375 6.15625 -3.640625 L 6.15625 -3.015625 L 1.75 -3.015625 C 1.769531 -2.285156 1.957031 -1.726562 2.3125 -1.34375 C 2.664062 -0.96875 3.160156 -0.78125 3.796875 -0.78125 C 4.210938 -0.78125 4.578125 -0.816406 4.890625 -0.890625 C 5.203125 -0.972656 5.53125 -1.082031 5.875 -1.21875 L 5.875 -0.296875 C 5.539062 -0.148438 5.210938 -0.046875 4.890625 0.015625 C 4.578125 0.0859375 4.195312 0.125 3.75 0.125 C 3.132812 0.125 2.59375 0 2.125 -0.25 C 1.664062 -0.5 1.304688 -0.867188 1.046875 -1.359375 C 0.785156 -1.847656 0.65625 -2.453125 0.65625 -3.171875 C 0.65625 -3.867188 0.773438 -4.46875 1.015625 -4.96875 C 1.253906 -5.476562 1.585938 -5.867188 2.015625 -6.140625 C 2.441406 -6.410156 2.9375 -6.546875 3.5 -6.546875 Z M 3.484375 -5.6875 C 2.984375 -5.6875 2.585938 -5.523438 2.296875 -5.203125 C 2.003906 -4.878906 1.832031 -4.429688 1.78125 -3.859375 L 5.046875 -3.859375 C 5.046875 -4.398438 4.921875 -4.835938 4.671875 -5.171875 C 4.421875 -5.515625 4.023438 -5.6875 3.484375 -5.6875 Z M 3.484375 -5.6875 "/></g></g></g><g fill="#ffffff" fill-opacity="1"><g transform="translate(72.421231, 331.064393)"><g><path d="M 7.921875 -6.4375 L 7.921875 0 L 6.96875 0 L 6.96875 -4.109375 C 6.96875 -4.273438 6.972656 -4.445312 6.984375 -4.625 C 7.003906 -4.800781 7.019531 -4.984375 7.03125 -5.171875 L 7 -5.171875 L 4.890625 0 L 4.015625 0 L 1.96875 -5.171875 L 1.9375 -5.171875 C 1.957031 -4.804688 1.96875 -4.4375 1.96875 -4.0625 L 1.96875 0 L 1.015625 0 L 1.015625 -6.4375 L 2.421875 -6.4375 L 4.453125 -1.265625 L 6.515625 -6.4375 Z M 7.921875 -6.4375 "/></g></g></g><g fill="#ffffff" fill-opacity="1"><g transform="translate(81.373246, 331.064393)"><g/></g></g><g fill="#ffffff" fill-opacity="1"><g transform="translate(84.649254, 331.064393)"><g><path d="M 0.71875 0 L 0.71875 -10.3125 L 2.5625 -10.3125 L 2.5625 0 Z M 0.71875 0 "/></g></g></g><g fill="#ffffff" fill-opacity="1"><g transform="translate(87.925263, 331.064393)"><g/></g></g><g fill="#ffffff" fill-opacity="1"><g transform="translate(91.201271, 331.064393)"><g><path d="M 7.421875 0 L 6.125 0 L 2.25 -4.34375 L 2.25 0 L 1.15625 0 L 1.15625 -8.5625 L 2.25 -8.5625 L 2.25 -4.421875 L 6.03125 -8.5625 L 7.25 -8.5625 L 3.53125 -4.40625 Z M 7.421875 0 "/></g></g></g><g fill="#ffffff" fill-opacity="1"><g transform="translate(98.617282, 331.064393)"><g><path d="M 4.078125 -6.546875 C 4.867188 -6.546875 5.503906 -6.269531 5.984375 -5.71875 C 6.472656 -5.164062 6.71875 -4.335938 6.71875 -3.234375 C 6.71875 -2.128906 6.472656 -1.289062 5.984375 -0.71875 C 5.503906 -0.15625 4.863281 0.125 4.0625 0.125 C 3.570312 0.125 3.164062 0.03125 2.84375 -0.15625 C 2.519531 -0.34375 2.265625 -0.5625 2.078125 -0.8125 L 2 -0.8125 C 2.007812 -0.675781 2.023438 -0.503906 2.046875 -0.296875 C 2.066406 -0.0859375 2.078125 0.0859375 2.078125 0.234375 L 2.078125 2.875 L 1.015625 2.875 L 1.015625 -6.4375 L 1.890625 -6.4375 L 2.03125 -5.5625 L 2.078125 -5.5625 C 2.265625 -5.832031 2.515625 -6.0625 2.828125 -6.25 C 3.140625 -6.445312 3.554688 -6.546875 4.078125 -6.546875 Z M 3.890625 -5.65625 C 3.234375 -5.65625 2.769531 -5.472656 2.5 -5.109375 C 2.226562 -4.742188 2.085938 -4.1875 2.078125 -3.4375 L 2.078125 -3.234375 C 2.078125 -2.441406 2.207031 -1.828125 2.46875 -1.390625 C 2.726562 -0.960938 3.207031 -0.75 3.90625 -0.75 C 4.289062 -0.75 4.609375 -0.851562 4.859375 -1.0625 C 5.117188 -1.28125 5.3125 -1.578125 5.4375 -1.953125 C 5.5625 -2.328125 5.625 -2.753906 5.625 -3.234375 C 5.625 -3.972656 5.484375 -4.5625 5.203125 -5 C 4.921875 -5.4375 4.484375 -5.65625 3.890625 -5.65625 Z M 3.890625 -5.65625 "/></g></g></g><g fill="#ffffff" fill-opacity="1"><g transform="translate(105.997302, 331.064393)"><g><path d="M 3.5 -6.546875 C 4.039062 -6.546875 4.507812 -6.425781 4.90625 -6.1875 C 5.3125 -5.945312 5.617188 -5.609375 5.828125 -5.171875 C 6.046875 -4.742188 6.15625 -4.234375 6.15625 -3.640625 L 6.15625 -3.015625 L 1.75 -3.015625 C 1.769531 -2.285156 1.957031 -1.726562 2.3125 -1.34375 C 2.664062 -0.96875 3.160156 -0.78125 3.796875 -0.78125 C 4.210938 -0.78125 4.578125 -0.816406 4.890625 -0.890625 C 5.203125 -0.972656 5.53125 -1.082031 5.875 -1.21875 L 5.875 -0.296875 C 5.539062 -0.148438 5.210938 -0.046875 4.890625 0.015625 C 4.578125 0.0859375 4.195312 0.125 3.75 0.125 C 3.132812 0.125 2.59375 0 2.125 -0.25 C 1.664062 -0.5 1.304688 -0.867188 1.046875 -1.359375 C 0.785156 -1.847656 0.65625 -2.453125 0.65625 -3.171875 C 0.65625 -3.867188 0.773438 -4.46875 1.015625 -4.96875 C 1.253906 -5.476562 1.585938 -5.867188 2.015625 -6.140625 C 2.441406 -6.410156 2.9375 -6.546875 3.5 -6.546875 Z M 3.484375 -5.6875 C 2.984375 -5.6875 2.585938 -5.523438 2.296875 -5.203125 C 2.003906 -4.878906 1.832031 -4.429688 1.78125 -3.859375 L 5.046875 -3.859375 C 5.046875 -4.398438 4.921875 -4.835938 4.671875 -5.171875 C 4.421875 -5.515625 4.023438 -5.6875 3.484375 -5.6875 Z M 3.484375 -5.6875 "/></g></g></g><g fill="#ffffff" fill-opacity="1"><g transform="translate(112.765314, 331.064393)"><g><path d="M 3.59375 0.125 C 3.019531 0.125 2.515625 0.0078125 2.078125 -0.21875 C 1.640625 -0.457031 1.289062 -0.820312 1.03125 -1.3125 C 0.78125 -1.800781 0.65625 -2.425781 0.65625 -3.1875 C 0.65625 -3.976562 0.785156 -4.617188 1.046875 -5.109375 C 1.304688 -5.609375 1.664062 -5.972656 2.125 -6.203125 C 2.582031 -6.429688 3.097656 -6.546875 3.671875 -6.546875 C 3.992188 -6.546875 4.304688 -6.507812 4.609375 -6.4375 C 4.921875 -6.375 5.171875 -6.296875 5.359375 -6.203125 L 5.046875 -5.328125 C 4.847656 -5.398438 4.617188 -5.46875 4.359375 -5.53125 C 4.109375 -5.59375 3.867188 -5.625 3.640625 -5.625 C 2.378906 -5.625 1.75 -4.8125 1.75 -3.1875 C 1.75 -2.414062 1.898438 -1.820312 2.203125 -1.40625 C 2.515625 -1 2.976562 -0.796875 3.59375 -0.796875 C 3.9375 -0.796875 4.242188 -0.832031 4.515625 -0.90625 C 4.785156 -0.976562 5.03125 -1.0625 5.25 -1.15625 L 5.25 -0.234375 C 5.039062 -0.117188 4.804688 -0.03125 4.546875 0.03125 C 4.285156 0.09375 3.96875 0.125 3.59375 0.125 Z M 3.59375 0.125 "/></g></g></g><g fill="#ffffff" fill-opacity="1"><g transform="translate(118.525331, 331.064393)"><g><path d="M 5.921875 0 L 4.84375 0 L 4.84375 -5.5625 L 2.953125 -5.5625 C 2.847656 -4.207031 2.703125 -3.113281 2.515625 -2.28125 C 2.335938 -1.457031 2.09375 -0.859375 1.78125 -0.484375 C 1.46875 -0.109375 1.085938 0.078125 0.640625 0.078125 C 0.535156 0.078125 0.429688 0.0703125 0.328125 0.0625 C 0.234375 0.0507812 0.148438 0.03125 0.078125 0 L 0.078125 -0.796875 C 0.128906 -0.773438 0.179688 -0.757812 0.234375 -0.75 C 0.296875 -0.75 0.351562 -0.75 0.40625 -0.75 C 0.84375 -0.75 1.191406 -1.207031 1.453125 -2.125 C 1.710938 -3.039062 1.910156 -4.476562 2.046875 -6.4375 L 5.921875 -6.4375 Z M 5.921875 0 "/></g></g></g><g fill="#ffffff" fill-opacity="1"><g transform="translate(125.461343, 331.064393)"><g><path d="M 3.5 -6.546875 C 4.039062 -6.546875 4.507812 -6.425781 4.90625 -6.1875 C 5.3125 -5.945312 5.617188 -5.609375 5.828125 -5.171875 C 6.046875 -4.742188 6.15625 -4.234375 6.15625 -3.640625 L 6.15625 -3.015625 L 1.75 -3.015625 C 1.769531 -2.285156 1.957031 -1.726562 2.3125 -1.34375 C 2.664062 -0.96875 3.160156 -0.78125 3.796875 -0.78125 C 4.210938 -0.78125 4.578125 -0.816406 4.890625 -0.890625 C 5.203125 -0.972656 5.53125 -1.082031 5.875 -1.21875 L 5.875 -0.296875 C 5.539062 -0.148438 5.210938 -0.046875 4.890625 0.015625 C 4.578125 0.0859375 4.195312 0.125 3.75 0.125 C 3.132812 0.125 2.59375 0 2.125 -0.25 C 1.664062 -0.5 1.304688 -0.867188 1.046875 -1.359375 C 0.785156 -1.847656 0.65625 -2.453125 0.65625 -3.171875 C 0.65625 -3.867188 0.773438 -4.46875 1.015625 -4.96875 C 1.253906 -5.476562 1.585938 -5.867188 2.015625 -6.140625 C 2.441406 -6.410156 2.9375 -6.546875 3.5 -6.546875 Z M 3.484375 -5.6875 C 2.984375 -5.6875 2.585938 -5.523438 2.296875 -5.203125 C 2.003906 -4.878906 1.832031 -4.429688 1.78125 -3.859375 L 5.046875 -3.859375 C 5.046875 -4.398438 4.921875 -4.835938 4.671875 -5.171875 C 4.421875 -5.515625 4.023438 -5.6875 3.484375 -5.6875 Z M 3.484375 -5.6875 "/></g></g></g><g fill="#ffffff" fill-opacity="1"><g transform="translate(132.229356, 331.064393)"><g><path d="M 2.078125 -6.4375 L 2.078125 -3.75 L 5.5625 -3.75 L 5.5625 -6.4375 L 6.625 -6.4375 L 6.625 0 L 5.5625 0 L 5.5625 -2.875 L 2.078125 -2.875 L 2.078125 0 L 1.015625 0 L 1.015625 -6.4375 Z M 2.078125 -6.4375 "/></g></g></g><g fill="#ffffff" fill-opacity="1"><g transform="translate(139.873368, 331.064393)"><g><path d="M 2.078125 -3.796875 L 3.984375 -3.796875 C 5.648438 -3.796875 6.484375 -3.1875 6.484375 -1.96875 C 6.484375 -1.363281 6.28125 -0.882812 5.875 -0.53125 C 5.46875 -0.175781 4.820312 0 3.9375 0 L 1.015625 0 L 1.015625 -6.4375 L 2.078125 -6.4375 Z M 5.4375 -1.90625 C 5.4375 -2.300781 5.296875 -2.566406 5.015625 -2.703125 C 4.742188 -2.847656 4.359375 -2.921875 3.859375 -2.921875 L 2.078125 -2.921875 L 2.078125 -0.859375 L 3.890625 -0.859375 C 4.335938 -0.859375 4.707031 -0.9375 5 -1.09375 C 5.289062 -1.25 5.4375 -1.519531 5.4375 -1.90625 Z M 5.4375 -1.90625 "/></g></g></g><g fill="#ffffff" fill-opacity="1"><g transform="translate(248.673283, 314.564394)"><g><path d="M 4.859375 -9.125 L 4.859375 -6.53125 C 5.492188 -6.46875 6.050781 -6.296875 6.53125 -6.015625 C 7.007812 -5.742188 7.378906 -5.367188 7.640625 -4.890625 C 7.910156 -4.421875 8.046875 -3.863281 8.046875 -3.21875 C 8.046875 -2.238281 7.757812 -1.460938 7.1875 -0.890625 C 6.625 -0.316406 5.847656 0.0078125 4.859375 0.09375 L 4.859375 2.875 L 3.828125 2.875 L 3.828125 0.09375 C 3.191406 0.0390625 2.632812 -0.117188 2.15625 -0.390625 C 1.675781 -0.671875 1.300781 -1.046875 1.03125 -1.515625 C 0.769531 -1.992188 0.640625 -2.5625 0.640625 -3.21875 C 0.640625 -4.195312 0.921875 -4.972656 1.484375 -5.546875 C 2.054688 -6.117188 2.847656 -6.445312 3.859375 -6.53125 L 3.859375 -9.125 Z M 3.859375 -5.65625 C 3.128906 -5.582031 2.59375 -5.335938 2.25 -4.921875 C 1.914062 -4.515625 1.75 -3.945312 1.75 -3.21875 C 1.75 -2.488281 1.914062 -1.914062 2.25 -1.5 C 2.59375 -1.082031 3.128906 -0.835938 3.859375 -0.765625 Z M 4.859375 -5.640625 L 4.859375 -0.765625 C 5.578125 -0.847656 6.101562 -1.097656 6.4375 -1.515625 C 6.78125 -1.929688 6.953125 -2.5 6.953125 -3.21875 C 6.953125 -3.9375 6.78125 -4.5 6.4375 -4.90625 C 6.09375 -5.3125 5.566406 -5.554688 4.859375 -5.640625 Z M 4.859375 -5.640625 "/></g></g></g><g fill="#ffffff" fill-opacity="1"><g transform="translate(257.373299, 314.564394)"><g><path d="M 3.453125 -6.546875 C 4.234375 -6.546875 4.8125 -6.375 5.1875 -6.03125 C 5.570312 -5.6875 5.765625 -5.132812 5.765625 -4.375 L 5.765625 0 L 4.984375 0 L 4.78125 -0.90625 L 4.734375 -0.90625 C 4.453125 -0.5625 4.15625 -0.300781 3.84375 -0.125 C 3.539062 0.0390625 3.117188 0.125 2.578125 0.125 C 1.992188 0.125 1.507812 -0.0234375 1.125 -0.328125 C 0.738281 -0.640625 0.546875 -1.125 0.546875 -1.78125 C 0.546875 -2.425781 0.796875 -2.921875 1.296875 -3.265625 C 1.804688 -3.617188 2.585938 -3.8125 3.640625 -3.84375 L 4.734375 -3.875 L 4.734375 -4.265625 C 4.734375 -4.796875 4.613281 -5.164062 4.375 -5.375 C 4.144531 -5.582031 3.816406 -5.6875 3.390625 -5.6875 C 3.054688 -5.6875 2.738281 -5.632812 2.4375 -5.53125 C 2.132812 -5.4375 1.847656 -5.328125 1.578125 -5.203125 L 1.265625 -5.984375 C 1.546875 -6.140625 1.875 -6.269531 2.25 -6.375 C 2.632812 -6.488281 3.035156 -6.546875 3.453125 -6.546875 Z M 4.71875 -3.140625 L 3.765625 -3.109375 C 2.960938 -3.078125 2.40625 -2.945312 2.09375 -2.71875 C 1.789062 -2.5 1.640625 -2.1875 1.640625 -1.78125 C 1.640625 -1.414062 1.75 -1.148438 1.96875 -0.984375 C 2.1875 -0.816406 2.46875 -0.734375 2.8125 -0.734375 C 3.351562 -0.734375 3.804688 -0.878906 4.171875 -1.171875 C 4.535156 -1.472656 4.71875 -1.9375 4.71875 -2.5625 Z M 4.71875 -3.140625 "/></g></g></g><g fill="#ffffff" fill-opacity="1"><g transform="translate(264.105308, 314.564394)"><g><path d="M 2.015625 -6.4375 L 2.015625 -2.515625 C 2.015625 -2.410156 2.007812 -2.257812 2 -2.0625 C 1.988281 -1.875 1.976562 -1.679688 1.96875 -1.484375 C 1.957031 -1.296875 1.945312 -1.148438 1.9375 -1.046875 L 5.390625 -6.4375 L 6.6875 -6.4375 L 6.6875 0 L 5.703125 0 L 5.703125 -3.796875 C 5.703125 -3.921875 5.703125 -4.085938 5.703125 -4.296875 C 5.710938 -4.503906 5.71875 -4.707031 5.71875 -4.90625 C 5.726562 -5.113281 5.738281 -5.269531 5.75 -5.375 L 2.328125 0 L 1.015625 0 L 1.015625 -6.4375 Z M 6.234375 -9.09375 C 6.179688 -8.5 5.976562 -8.046875 5.625 -7.734375 C 5.28125 -7.421875 4.726562 -7.265625 3.96875 -7.265625 C 3.1875 -7.265625 2.628906 -7.414062 2.296875 -7.71875 C 1.972656 -8.03125 1.796875 -8.488281 1.765625 -9.09375 L 2.75 -9.09375 C 2.78125 -8.664062 2.890625 -8.375 3.078125 -8.21875 C 3.265625 -8.070312 3.566406 -8 3.984375 -8 C 4.359375 -8 4.648438 -8.078125 4.859375 -8.234375 C 5.066406 -8.390625 5.191406 -8.675781 5.234375 -9.09375 Z M 6.234375 -9.09375 "/></g></g></g><g fill="#ffffff" fill-opacity="1"><g transform="translate(271.821326, 314.564394)"><g><path d="M 5.921875 0 L 4.84375 0 L 4.84375 -5.5625 L 2.953125 -5.5625 C 2.847656 -4.207031 2.703125 -3.113281 2.515625 -2.28125 C 2.335938 -1.457031 2.09375 -0.859375 1.78125 -0.484375 C 1.46875 -0.109375 1.085938 0.078125 0.640625 0.078125 C 0.535156 0.078125 0.429688 0.0703125 0.328125 0.0625 C 0.234375 0.0507812 0.148438 0.03125 0.078125 0 L 0.078125 -0.796875 C 0.128906 -0.773438 0.179688 -0.757812 0.234375 -0.75 C 0.296875 -0.75 0.351562 -0.75 0.40625 -0.75 C 0.84375 -0.75 1.191406 -1.207031 1.453125 -2.125 C 1.710938 -3.039062 1.910156 -4.476562 2.046875 -6.4375 L 5.921875 -6.4375 Z M 5.921875 0 "/></g></g></g><g fill="#ffffff" fill-opacity="1"><g transform="translate(278.757338, 314.564394)"><g/></g></g><g fill="#ffffff" fill-opacity="1"><g transform="translate(282.033347, 314.564394)"><g><path d="M 0.71875 -9.90625 L 4.328125 -9.90625 C 5.335938 -9.90625 6.15625 -9.644531 6.78125 -9.125 C 7.40625 -8.601562 7.71875 -7.84375 7.71875 -6.84375 C 7.71875 -5.851562 7.398438 -5.078125 6.765625 -4.515625 C 6.128906 -3.953125 5.316406 -3.671875 4.328125 -3.671875 L 2.96875 -3.671875 L 2.96875 0 L 0.71875 0 Z M 2.96875 -5.46875 L 3.609375 -5.46875 C 4.117188 -5.46875 4.535156 -5.566406 4.859375 -5.765625 C 5.179688 -5.972656 5.34375 -6.3125 5.34375 -6.78125 C 5.34375 -7.25 5.179688 -7.582031 4.859375 -7.78125 C 4.535156 -7.988281 4.117188 -8.09375 3.609375 -8.09375 L 2.96875 -8.09375 Z M 2.96875 -5.46875 "/></g></g></g><g fill="#ffffff" fill-opacity="1"><g transform="translate(290.025362, 314.564394)"><g><path d="M 0.71875 -9.90625 L 3.59375 -9.90625 C 4.96875 -9.90625 6.140625 -9.429688 7.109375 -8.484375 C 8.085938 -7.546875 8.578125 -6.367188 8.578125 -4.953125 C 8.578125 -3.523438 8.085938 -2.34375 7.109375 -1.40625 C 6.140625 -0.46875 4.96875 0 3.59375 0 L 0.71875 0 Z M 2.96875 -2.015625 L 3.328125 -2.015625 C 4.148438 -2.015625 4.820312 -2.289062 5.34375 -2.84375 C 5.863281 -3.40625 6.128906 -4.101562 6.140625 -4.9375 C 6.140625 -5.78125 5.878906 -6.484375 5.359375 -7.046875 C 4.835938 -7.609375 4.160156 -7.890625 3.328125 -7.890625 L 2.96875 -7.890625 Z M 2.96875 -2.015625 "/></g></g></g><g fill="#ffffff" fill-opacity="1"><g transform="translate(298.881383, 314.564394)"><g><path d="M 6.4375 -9.90625 L 6.4375 -7.921875 L 2.96875 -7.921875 L 2.96875 -5.953125 L 6.1875 -5.953125 L 6.1875 -3.96875 L 2.96875 -3.96875 L 2.96875 0 L 0.71875 0 L 0.71875 -9.90625 Z M 6.4375 -9.90625 "/></g></g></g><g fill="#ffffff" fill-opacity="1"><g transform="translate(229.548285, 331.064393)"><g><path d="M 4.84375 -7.734375 C 3.914062 -7.734375 3.1875 -7.425781 2.65625 -6.8125 C 2.132812 -6.195312 1.875 -5.351562 1.875 -4.28125 C 1.875 -3.21875 2.117188 -2.375 2.609375 -1.75 C 3.097656 -1.132812 3.835938 -0.828125 4.828125 -0.828125 C 5.191406 -0.828125 5.539062 -0.859375 5.875 -0.921875 C 6.21875 -0.984375 6.550781 -1.0625 6.875 -1.15625 L 6.875 -0.234375 C 6.550781 -0.109375 6.21875 -0.0195312 5.875 0.03125 C 5.539062 0.09375 5.140625 0.125 4.671875 0.125 C 3.796875 0.125 3.066406 -0.0507812 2.484375 -0.40625 C 1.898438 -0.769531 1.460938 -1.285156 1.171875 -1.953125 C 0.878906 -2.617188 0.734375 -3.398438 0.734375 -4.296875 C 0.734375 -5.160156 0.890625 -5.921875 1.203125 -6.578125 C 1.523438 -7.242188 1.992188 -7.757812 2.609375 -8.125 C 3.222656 -8.5 3.96875 -8.6875 4.84375 -8.6875 C 5.75 -8.6875 6.539062 -8.519531 7.21875 -8.1875 L 6.78125 -7.265625 C 6.519531 -7.390625 6.222656 -7.5 5.890625 -7.59375 C 5.566406 -7.6875 5.21875 -7.734375 4.84375 -7.734375 Z M 4.84375 -7.734375 "/></g></g></g><g fill="#ffffff" fill-opacity="1"><g transform="translate(237.132295, 331.064393)"><g><path d="M 2.546875 -3.28125 L 0.328125 -6.4375 L 1.53125 -6.4375 L 3.1875 -4.015625 L 4.828125 -6.4375 L 6.015625 -6.4375 L 3.796875 -3.28125 L 6.125 0 L 4.9375 0 L 3.1875 -2.5625 L 1.40625 0 L 0.21875 0 Z M 2.546875 -3.28125 "/></g></g></g><g fill="#ffffff" fill-opacity="1"><g transform="translate(243.48031, 331.064393)"><g><path d="M 3.5 -6.546875 C 4.039062 -6.546875 4.507812 -6.425781 4.90625 -6.1875 C 5.3125 -5.945312 5.617188 -5.609375 5.828125 -5.171875 C 6.046875 -4.742188 6.15625 -4.234375 6.15625 -3.640625 L 6.15625 -3.015625 L 1.75 -3.015625 C 1.769531 -2.285156 1.957031 -1.726562 2.3125 -1.34375 C 2.664062 -0.96875 3.160156 -0.78125 3.796875 -0.78125 C 4.210938 -0.78125 4.578125 -0.816406 4.890625 -0.890625 C 5.203125 -0.972656 5.53125 -1.082031 5.875 -1.21875 L 5.875 -0.296875 C 5.539062 -0.148438 5.210938 -0.046875 4.890625 0.015625 C 4.578125 0.0859375 4.195312 0.125 3.75 0.125 C 3.132812 0.125 2.59375 0 2.125 -0.25 C 1.664062 -0.5 1.304688 -0.867188 1.046875 -1.359375 C 0.785156 -1.847656 0.65625 -2.453125 0.65625 -3.171875 C 0.65625 -3.867188 0.773438 -4.46875 1.015625 -4.96875 C 1.253906 -5.476562 1.585938 -5.867188 2.015625 -6.140625 C 2.441406 -6.410156 2.9375 -6.546875 3.5 -6.546875 Z M 3.484375 -5.6875 C 2.984375 -5.6875 2.585938 -5.523438 2.296875 -5.203125 C 2.003906 -4.878906 1.832031 -4.429688 1.78125 -3.859375 L 5.046875 -3.859375 C 5.046875 -4.398438 4.921875 -4.835938 4.671875 -5.171875 C 4.421875 -5.515625 4.023438 -5.6875 3.484375 -5.6875 Z M 3.484375 -5.6875 "/></g></g></g><g fill="#ffffff" fill-opacity="1"><g transform="translate(250.248322, 331.064393)"><g><path d="M 7.921875 -6.4375 L 7.921875 0 L 6.96875 0 L 6.96875 -4.109375 C 6.96875 -4.273438 6.972656 -4.445312 6.984375 -4.625 C 7.003906 -4.800781 7.019531 -4.984375 7.03125 -5.171875 L 7 -5.171875 L 4.890625 0 L 4.015625 0 L 1.96875 -5.171875 L 1.9375 -5.171875 C 1.957031 -4.804688 1.96875 -4.4375 1.96875 -4.0625 L 1.96875 0 L 1.015625 0 L 1.015625 -6.4375 L 2.421875 -6.4375 L 4.453125 -1.265625 L 6.515625 -6.4375 Z M 7.921875 -6.4375 "/></g></g></g><g fill="#ffffff" fill-opacity="1"><g transform="translate(259.200337, 331.064393)"><g/></g></g><g fill="#ffffff" fill-opacity="1"><g transform="translate(262.476345, 331.064393)"><g><path d="M 0.71875 0 L 0.71875 -10.3125 L 2.5625 -10.3125 L 2.5625 0 Z M 0.71875 0 "/></g></g></g><g fill="#ffffff" fill-opacity="1"><g transform="translate(265.752353, 331.064393)"><g/></g></g><g fill="#ffffff" fill-opacity="1"><g transform="translate(269.028362, 331.064393)"><g><path d="M 7.421875 0 L 6.125 0 L 2.25 -4.34375 L 2.25 0 L 1.15625 0 L 1.15625 -8.5625 L 2.25 -8.5625 L 2.25 -4.421875 L 6.03125 -8.5625 L 7.25 -8.5625 L 3.53125 -4.40625 Z M 7.421875 0 "/></g></g></g><g fill="#ffffff" fill-opacity="1"><g transform="translate(276.444373, 331.064393)"><g><path d="M 4.078125 -6.546875 C 4.867188 -6.546875 5.503906 -6.269531 5.984375 -5.71875 C 6.472656 -5.164062 6.71875 -4.335938 6.71875 -3.234375 C 6.71875 -2.128906 6.472656 -1.289062 5.984375 -0.71875 C 5.503906 -0.15625 4.863281 0.125 4.0625 0.125 C 3.570312 0.125 3.164062 0.03125 2.84375 -0.15625 C 2.519531 -0.34375 2.265625 -0.5625 2.078125 -0.8125 L 2 -0.8125 C 2.007812 -0.675781 2.023438 -0.503906 2.046875 -0.296875 C 2.066406 -0.0859375 2.078125 0.0859375 2.078125 0.234375 L 2.078125 2.875 L 1.015625 2.875 L 1.015625 -6.4375 L 1.890625 -6.4375 L 2.03125 -5.5625 L 2.078125 -5.5625 C 2.265625 -5.832031 2.515625 -6.0625 2.828125 -6.25 C 3.140625 -6.445312 3.554688 -6.546875 4.078125 -6.546875 Z M 3.890625 -5.65625 C 3.234375 -5.65625 2.769531 -5.472656 2.5 -5.109375 C 2.226562 -4.742188 2.085938 -4.1875 2.078125 -3.4375 L 2.078125 -3.234375 C 2.078125 -2.441406 2.207031 -1.828125 2.46875 -1.390625 C 2.726562 -0.960938 3.207031 -0.75 3.90625 -0.75 C 4.289062 -0.75 4.609375 -0.851562 4.859375 -1.0625 C 5.117188 -1.28125 5.3125 -1.578125 5.4375 -1.953125 C 5.5625 -2.328125 5.625 -2.753906 5.625 -3.234375 C 5.625 -3.972656 5.484375 -4.5625 5.203125 -5 C 4.921875 -5.4375 4.484375 -5.65625 3.890625 -5.65625 Z M 3.890625 -5.65625 "/></g></g></g><g fill="#ffffff" fill-opacity="1"><g transform="translate(283.824393, 331.064393)"><g><path d="M 3.5 -6.546875 C 4.039062 -6.546875 4.507812 -6.425781 4.90625 -6.1875 C 5.3125 -5.945312 5.617188 -5.609375 5.828125 -5.171875 C 6.046875 -4.742188 6.15625 -4.234375 6.15625 -3.640625 L 6.15625 -3.015625 L 1.75 -3.015625 C 1.769531 -2.285156 1.957031 -1.726562 2.3125 -1.34375 C 2.664062 -0.96875 3.160156 -0.78125 3.796875 -0.78125 C 4.210938 -0.78125 4.578125 -0.816406 4.890625 -0.890625 C 5.203125 -0.972656 5.53125 -1.082031 5.875 -1.21875 L 5.875 -0.296875 C 5.539062 -0.148438 5.210938 -0.046875 4.890625 0.015625 C 4.578125 0.0859375 4.195312 0.125 3.75 0.125 C 3.132812 0.125 2.59375 0 2.125 -0.25 C 1.664062 -0.5 1.304688 -0.867188 1.046875 -1.359375 C 0.785156 -1.847656 0.65625 -2.453125 0.65625 -3.171875 C 0.65625 -3.867188 0.773438 -4.46875 1.015625 -4.96875 C 1.253906 -5.476562 1.585938 -5.867188 2.015625 -6.140625 C 2.441406 -6.410156 2.9375 -6.546875 3.5 -6.546875 Z M 3.484375 -5.6875 C 2.984375 -5.6875 2.585938 -5.523438 2.296875 -5.203125 C 2.003906 -4.878906 1.832031 -4.429688 1.78125 -3.859375 L 5.046875 -3.859375 C 5.046875 -4.398438 4.921875 -4.835938 4.671875 -5.171875 C 4.421875 -5.515625 4.023438 -5.6875 3.484375 -5.6875 Z M 3.484375 -5.6875 "/></g></g></g><g fill="#ffffff" fill-opacity="1"><g transform="translate(290.592405, 331.064393)"><g><path d="M 3.59375 0.125 C 3.019531 0.125 2.515625 0.0078125 2.078125 -0.21875 C 1.640625 -0.457031 1.289062 -0.820312 1.03125 -1.3125 C 0.78125 -1.800781 0.65625 -2.425781 0.65625 -3.1875 C 0.65625 -3.976562 0.785156 -4.617188 1.046875 -5.109375 C 1.304688 -5.609375 1.664062 -5.972656 2.125 -6.203125 C 2.582031 -6.429688 3.097656 -6.546875 3.671875 -6.546875 C 3.992188 -6.546875 4.304688 -6.507812 4.609375 -6.4375 C 4.921875 -6.375 5.171875 -6.296875 5.359375 -6.203125 L 5.046875 -5.328125 C 4.847656 -5.398438 4.617188 -5.46875 4.359375 -5.53125 C 4.109375 -5.59375 3.867188 -5.625 3.640625 -5.625 C 2.378906 -5.625 1.75 -4.8125 1.75 -3.1875 C 1.75 -2.414062 1.898438 -1.820312 2.203125 -1.40625 C 2.515625 -1 2.976562 -0.796875 3.59375 -0.796875 C 3.9375 -0.796875 4.242188 -0.832031 4.515625 -0.90625 C 4.785156 -0.976562 5.03125 -1.0625 5.25 -1.15625 L 5.25 -0.234375 C 5.039062 -0.117188 4.804688 -0.03125 4.546875 0.03125 C 4.285156 0.09375 3.96875 0.125 3.59375 0.125 Z M 3.59375 0.125 "/></g></g></g><g fill="#ffffff" fill-opacity="1"><g transform="translate(296.352422, 331.064393)"><g><path d="M 5.921875 0 L 4.84375 0 L 4.84375 -5.5625 L 2.953125 -5.5625 C 2.847656 -4.207031 2.703125 -3.113281 2.515625 -2.28125 C 2.335938 -1.457031 2.09375 -0.859375 1.78125 -0.484375 C 1.46875 -0.109375 1.085938 0.078125 0.640625 0.078125 C 0.535156 0.078125 0.429688 0.0703125 0.328125 0.0625 C 0.234375 0.0507812 0.148438 0.03125 0.078125 0 L 0.078125 -0.796875 C 0.128906 -0.773438 0.179688 -0.757812 0.234375 -0.75 C 0.296875 -0.75 0.351562 -0.75 0.40625 -0.75 C 0.84375 -0.75 1.191406 -1.207031 1.453125 -2.125 C 1.710938 -3.039062 1.910156 -4.476562 2.046875 -6.4375 L 5.921875 -6.4375 Z M 5.921875 0 "/></g></g></g><g fill="#ffffff" fill-opacity="1"><g transform="translate(303.288434, 331.064393)"><g><path d="M 3.5 -6.546875 C 4.039062 -6.546875 4.507812 -6.425781 4.90625 -6.1875 C 5.3125 -5.945312 5.617188 -5.609375 5.828125 -5.171875 C 6.046875 -4.742188 6.15625 -4.234375 6.15625 -3.640625 L 6.15625 -3.015625 L 1.75 -3.015625 C 1.769531 -2.285156 1.957031 -1.726562 2.3125 -1.34375 C 2.664062 -0.96875 3.160156 -0.78125 3.796875 -0.78125 C 4.210938 -0.78125 4.578125 -0.816406 4.890625 -0.890625 C 5.203125 -0.972656 5.53125 -1.082031 5.875 -1.21875 L 5.875 -0.296875 C 5.539062 -0.148438 5.210938 -0.046875 4.890625 0.015625 C 4.578125 0.0859375 4.195312 0.125 3.75 0.125 C 3.132812 0.125 2.59375 0 2.125 -0.25 C 1.664062 -0.5 1.304688 -0.867188 1.046875 -1.359375 C 0.785156 -1.847656 0.65625 -2.453125 0.65625 -3.171875 C 0.65625 -3.867188 0.773438 -4.46875 1.015625 -4.96875 C 1.253906 -5.476562 1.585938 -5.867188 2.015625 -6.140625 C 2.441406 -6.410156 2.9375 -6.546875 3.5 -6.546875 Z M 3.484375 -5.6875 C 2.984375 -5.6875 2.585938 -5.523438 2.296875 -5.203125 C 2.003906 -4.878906 1.832031 -4.429688 1.78125 -3.859375 L 5.046875 -3.859375 C 5.046875 -4.398438 4.921875 -4.835938 4.671875 -5.171875 C 4.421875 -5.515625 4.023438 -5.6875 3.484375 -5.6875 Z M 3.484375 -5.6875 "/></g></g></g><g fill="#ffffff" fill-opacity="1"><g transform="translate(310.056446, 331.064393)"><g><path d="M 2.078125 -6.4375 L 2.078125 -3.75 L 5.5625 -3.75 L 5.5625 -6.4375 L 6.625 -6.4375 L 6.625 0 L 5.5625 0 L 5.5625 -2.875 L 2.078125 -2.875 L 2.078125 0 L 1.015625 0 L 1.015625 -6.4375 Z M 2.078125 -6.4375 "/></g></g></g><g fill="#ffffff" fill-opacity="1"><g transform="translate(317.700458, 331.064393)"><g><path d="M 2.078125 -3.796875 L 3.984375 -3.796875 C 5.648438 -3.796875 6.484375 -3.1875 6.484375 -1.96875 C 6.484375 -1.363281 6.28125 -0.882812 5.875 -0.53125 C 5.46875 -0.175781 4.820312 0 3.9375 0 L 1.015625 0 L 1.015625 -6.4375 L 2.078125 -6.4375 Z M 5.4375 -1.90625 C 5.4375 -2.300781 5.296875 -2.566406 5.015625 -2.703125 C 4.742188 -2.847656 4.359375 -2.921875 3.859375 -2.921875 L 2.078125 -2.921875 L 2.078125 -0.859375 L 3.890625 -0.859375 C 4.335938 -0.859375 4.707031 -0.9375 5 -1.09375 C 5.289062 -1.25 5.4375 -1.519531 5.4375 -1.90625 Z M 5.4375 -1.90625 "/></g></g></g></svg>