<svg xmlns="http://www.w3.org/2000/svg" xmlns:xlink="http://www.w3.org/1999/xlink" width="500" zoomAndPan="magnify" viewBox="0 0 375 374.999991" height="500" preserveAspectRatio="xMidYMid meet" version="1.0"><defs><g/><clipPath id="90ce99e3f8"><path d="M 43.113281 90.863281 L 159.363281 90.863281 L 159.363281 284.363281 L 43.113281 284.363281 Z M 43.113281 90.863281 " clip-rule="nonzero"/></clipPath></defs><g clip-path="url(#90ce99e3f8)"><path fill="#ffffff" d="M 159.113281 105.355469 C 141.882812 114.757812 130.277344 131.929688 127.980469 151.421875 L 123.136719 192.566406 C 123.148438 192.5625 123.160156 192.558594 123.171875 192.558594 C 128.378906 191.386719 133.550781 194.65625 134.722656 199.863281 C 135.894531 205.066406 132.621094 210.238281 127.417969 211.410156 L 122.34375 212.550781 C 121.769531 211.382812 121.167969 210.21875 120.5 209.078125 C 110.960938 192.675781 106.25 173.910156 106.921875 154.949219 L 108.46875 111.214844 C 108.730469 103.742188 106.105469 96.453125 101.136719 90.863281 C 96.167969 96.453125 93.542969 103.742188 93.808594 111.214844 L 95.355469 154.949219 C 96.023438 173.910156 91.316406 192.675781 81.773438 209.078125 C 81.109375 210.21875 80.503906 211.382812 79.933594 212.550781 L 74.859375 211.410156 C 69.652344 210.238281 66.382812 205.066406 67.554688 199.863281 C 68.726562 194.65625 73.898438 191.386719 79.105469 192.558594 C 79.117188 192.558594 79.125 192.5625 79.136719 192.566406 L 74.296875 151.421875 C 72 131.929688 60.394531 114.757812 43.160156 105.355469 L 43.160156 245.464844 L 75.453125 245.464844 C 77.710938 257.671875 84.222656 269.085938 94.546875 277.332031 C 97.273438 279.011719 99.539062 281.34375 101.136719 284.117188 C 102.738281 281.34375 105.003906 279.011719 107.730469 277.332031 C 118.054688 269.085938 124.566406 257.671875 126.824219 245.464844 L 159.113281 245.464844 Z M 133.777344 184.617188 L 137.582031 152.511719 C 138.769531 142.507812 142.898438 133.078125 149.453125 125.421875 L 149.453125 197.152344 L 144.003906 197.152344 C 142.636719 191.875 139.0625 187.199219 133.777344 184.617188 Z M 118.046875 235.804688 L 105.96875 235.804688 C 105.96875 230.152344 109.886719 225.257812 115.398438 224.019531 L 116.363281 223.800781 C 117.492188 227.734375 118.050781 231.777344 118.046875 235.804688 Z M 85.914062 223.800781 L 86.878906 224.019531 C 92.390625 225.257812 96.308594 230.152344 96.308594 235.804688 L 84.226562 235.804688 C 84.226562 231.777344 84.785156 227.734375 85.914062 223.800781 Z M 101.136719 187.714844 C 103.660156 196.894531 107.363281 205.707031 112.148438 213.9375 C 112.308594 214.207031 112.453125 214.484375 112.605469 214.757812 C 107.96875 215.957031 104 218.601562 101.136719 222.140625 C 98.277344 218.601562 94.308594 215.957031 89.671875 214.757812 C 89.824219 214.484375 89.96875 214.207031 90.125 213.9375 C 94.914062 205.707031 98.617188 196.894531 101.136719 187.714844 Z M 64.695312 152.511719 L 68.5 184.617188 C 63.214844 187.199219 59.640625 191.875 58.273438 197.152344 L 52.824219 197.152344 L 52.824219 125.421875 C 59.375 133.078125 63.507812 142.507812 64.695312 152.511719 Z M 52.824219 206.816406 L 58.265625 206.816406 C 58.585938 208.050781 59.035156 209.273438 59.617188 210.464844 C 62.191406 215.734375 67.019531 219.550781 72.738281 220.835938 L 76.480469 221.679688 C 75.199219 226.324219 74.570312 231.074219 74.570312 235.804688 L 52.824219 235.804688 Z M 85.324219 245.464844 L 96.308594 245.464844 L 96.308594 265.878906 C 90.71875 260.042969 87.027344 252.957031 85.324219 245.464844 Z M 105.96875 265.878906 L 105.96875 245.464844 L 116.953125 245.464844 C 115.25 252.957031 111.558594 260.042969 105.96875 265.878906 Z M 127.703125 235.804688 C 127.707031 231.074219 127.078125 226.324219 125.796875 221.679688 L 129.539062 220.835938 C 135.257812 219.550781 140.085938 215.734375 142.660156 210.464844 C 143.242188 209.273438 143.691406 208.050781 144.011719 206.816406 L 149.453125 206.816406 L 149.453125 235.804688 Z M 127.703125 235.804688 " fill-opacity="1" fill-rule="nonzero"/></g><g fill="#ffffff" fill-opacity="1"><g transform="translate(210.674786, 140.999991)"><g><path d="M 4.78125 -17.671875 C 6.125 -17.671875 7.113281 -17.269531 7.75 -16.46875 C 8.394531 -15.675781 8.71875 -14.613281 8.71875 -13.28125 L 8.71875 -11.703125 L 6.875 -11.703125 L 6.875 -13.375 C 6.875 -14.175781 6.710938 -14.796875 6.390625 -15.234375 C 6.066406 -15.679688 5.546875 -15.90625 4.828125 -15.90625 C 4.128906 -15.90625 3.613281 -15.679688 3.28125 -15.234375 C 2.945312 -14.796875 2.78125 -14.175781 2.78125 -13.375 L 2.78125 -4.125 C 2.78125 -3.320312 2.945312 -2.695312 3.28125 -2.25 C 3.613281 -1.8125 4.128906 -1.59375 4.828125 -1.59375 C 5.546875 -1.59375 6.066406 -1.8125 6.390625 -2.25 C 6.710938 -2.695312 6.875 -3.320312 6.875 -4.125 L 6.875 -6.40625 L 8.71875 -6.40625 L 8.71875 -4.21875 C 8.71875 -2.882812 8.394531 -1.816406 7.75 -1.015625 C 7.113281 -0.222656 6.125 0.171875 4.78125 0.171875 C 3.445312 0.171875 2.457031 -0.222656 1.8125 -1.015625 C 1.164062 -1.816406 0.84375 -2.882812 0.84375 -4.21875 L 0.84375 -13.28125 C 0.84375 -13.945312 0.921875 -14.550781 1.078125 -15.09375 C 1.242188 -15.632812 1.488281 -16.09375 1.8125 -16.46875 C 2.132812 -16.851562 2.539062 -17.148438 3.03125 -17.359375 C 3.53125 -17.566406 4.113281 -17.671875 4.78125 -17.671875 Z M 4.78125 -17.671875 "/></g></g></g><g fill="#ffffff" fill-opacity="1"><g transform="translate(223.423284, 140.999991)"><g><path d="M 2.953125 -15.71875 L 2.953125 0 L 1 0 L 1 -17.5 L 9.203125 -17.5 L 9.203125 0 L 7.25 0 L 7.25 -15.71875 Z M 2.953125 -15.71875 "/></g></g></g><g fill="#ffffff" fill-opacity="1"><g transform="translate(236.87168, 140.999991)"><g><path d="M 7.453125 0 L 1 0 L 1 -1.296875 L 3.09375 -1.78125 L 3.09375 -16.046875 L 1 -16.546875 L 1 -17.84375 L 7.453125 -17.84375 L 7.453125 -16.546875 L 5.34375 -16.046875 L 5.34375 -1.78125 L 7.453125 -1.296875 Z M 7.453125 0 "/></g></g></g><g fill="#ffffff" fill-opacity="1"><g transform="translate(248.595348, 140.999991)"><g><path d="M 4.71875 -15.71875 L 4.328125 -4.34375 C 4.296875 -3.644531 4.21875 -3.03125 4.09375 -2.5 C 3.976562 -1.96875 3.785156 -1.515625 3.515625 -1.140625 C 3.253906 -0.765625 2.898438 -0.472656 2.453125 -0.265625 C 2.015625 -0.0664062 1.460938 0.03125 0.796875 0.03125 L 0.46875 0.03125 L 0.46875 -1.75 C 0.875 -1.75 1.203125 -1.796875 1.453125 -1.890625 C 1.703125 -1.992188 1.894531 -2.148438 2.03125 -2.359375 C 2.175781 -2.566406 2.273438 -2.828125 2.328125 -3.140625 C 2.378906 -3.460938 2.410156 -3.832031 2.421875 -4.25 L 2.90625 -17.5 L 10.03125 -17.5 L 10.03125 0 L 8.078125 0 L 8.078125 -15.71875 Z M 4.71875 -15.71875 "/></g></g></g><g fill="#ffffff" fill-opacity="1"><g transform="translate(262.943595, 140.999991)"><g><path d="M 4.671875 -10.59375 C 6.078125 -10.59375 7.109375 -10.238281 7.765625 -9.53125 C 8.421875 -8.820312 8.75 -7.769531 8.75 -6.375 L 8.75 -4.28125 C 8.75 -2.945312 8.4375 -1.898438 7.8125 -1.140625 C 7.1875 -0.378906 6.191406 0 4.828125 0 L 1 0 L 1 -17.5 L 2.953125 -17.5 L 2.953125 -10.59375 Z M 4.828125 -1.78125 C 5.546875 -1.78125 6.054688 -1.976562 6.359375 -2.375 C 6.671875 -2.769531 6.828125 -3.367188 6.828125 -4.171875 L 6.828125 -6.5 C 6.828125 -7.351562 6.648438 -7.957031 6.296875 -8.3125 C 5.953125 -8.664062 5.410156 -8.84375 4.671875 -8.84375 L 2.953125 -8.84375 L 2.953125 -1.78125 Z M 4.828125 -1.78125 "/></g></g></g><g fill="#ffffff" fill-opacity="1"><g transform="translate(275.717088, 140.999991)"><g><path d="M 2.953125 -7.875 L 2.953125 0 L 1 0 L 1 -17.5 L 2.953125 -17.5 L 2.953125 -9.625 L 7.25 -9.625 L 7.25 -17.5 L 9.203125 -17.5 L 9.203125 0 L 7.25 0 L 7.25 -7.875 Z M 2.953125 -7.875 "/></g></g></g><g fill="#ffffff" fill-opacity="1"><g transform="translate(289.165486, 140.999991)"><g><path d="M 0.84375 -13.28125 C 0.84375 -14.625 1.171875 -15.691406 1.828125 -16.484375 C 2.492188 -17.273438 3.5 -17.671875 4.84375 -17.671875 C 6.195312 -17.671875 7.207031 -17.273438 7.875 -16.484375 C 8.539062 -15.691406 8.875 -14.625 8.875 -13.28125 L 8.875 -4.21875 C 8.875 -2.882812 8.539062 -1.816406 7.875 -1.015625 C 7.207031 -0.222656 6.195312 0.171875 4.84375 0.171875 C 3.5 0.171875 2.492188 -0.222656 1.828125 -1.015625 C 1.171875 -1.816406 0.84375 -2.882812 0.84375 -4.21875 Z M 2.78125 -4.125 C 2.78125 -3.320312 2.945312 -2.695312 3.28125 -2.25 C 3.625 -1.8125 4.144531 -1.59375 4.84375 -1.59375 C 5.5625 -1.59375 6.085938 -1.8125 6.421875 -2.25 C 6.753906 -2.695312 6.921875 -3.320312 6.921875 -4.125 L 6.921875 -13.375 C 6.921875 -14.175781 6.753906 -14.796875 6.421875 -15.234375 C 6.085938 -15.679688 5.5625 -15.90625 4.84375 -15.90625 C 4.144531 -15.90625 3.625 -15.679688 3.28125 -15.234375 C 2.945312 -14.796875 2.78125 -14.175781 2.78125 -13.375 Z M 2.78125 -4.125 "/></g></g></g><g fill="#ffffff" fill-opacity="1"><g transform="translate(302.138954, 140.999991)"><g><path d="M 3.671875 0 L 3.671875 -15.71875 L 0.453125 -15.71875 L 0.453125 -17.5 L 8.84375 -17.5 L 8.84375 -15.71875 L 5.625 -15.71875 L 5.625 0 Z M 3.671875 0 "/></g></g></g><g fill="#ffffff" fill-opacity="1"><g transform="translate(314.687485, 140.999991)"><g><path d="M 2.96875 -3.53125 L 2.296875 0 L 0.5 0 L 3.84375 -17.5 L 6.671875 -17.5 L 10.03125 0 L 8.078125 0 L 7.40625 -3.53125 Z M 3.21875 -5.203125 L 7.125 -5.203125 L 5.15625 -15.296875 Z M 3.21875 -5.203125 "/></g></g></g><g fill="#ffffff" fill-opacity="1"><g transform="translate(210.088848, 175.499988)"><g><path d="M 7.453125 0 L 1 0 L 1 -1.296875 L 3.09375 -1.78125 L 3.09375 -16.046875 L 1 -16.546875 L 1 -17.84375 L 7.453125 -17.84375 L 7.453125 -16.546875 L 5.34375 -16.046875 L 5.34375 -1.78125 L 7.453125 -1.296875 Z M 7.453125 0 "/></g></g></g><g fill="#ffffff" fill-opacity="1"><g transform="translate(221.812517, 175.499988)"><g><path d="M 2.953125 -7.875 L 2.953125 0 L 1 0 L 1 -17.5 L 2.953125 -17.5 L 2.953125 -9.625 L 7.25 -9.625 L 7.25 -17.5 L 9.203125 -17.5 L 9.203125 0 L 7.25 0 L 7.25 -7.875 Z M 2.953125 -7.875 "/></g></g></g><g fill="#ffffff" fill-opacity="1"><g transform="translate(235.260913, 175.499988)"><g><path d="M 9.546875 -8.25 L 8.625 -6.59375 L 8.625 0 L 6.703125 0 L 6.703125 -6.59375 L 5.796875 -8.28125 L 2.453125 0 L 0.453125 0 L 4.453125 -10.078125 L 0.546875 -17.5 L 2.5 -17.5 L 6.703125 -9.453125 L 6.703125 -17.5 L 8.625 -17.5 L 8.625 -9.453125 L 12.84375 -17.5 L 14.796875 -17.5 L 10.921875 -10.125 L 14.90625 0 L 12.90625 0 Z M 9.546875 -8.25 "/></g></g></g><g fill="#ffffff" fill-opacity="1"><g transform="translate(253.833491, 175.499988)"><g><path d="M 7.21875 -9.75 L 7.21875 -8 L 2.953125 -8 L 2.953125 -1.78125 L 8.203125 -1.78125 L 8.203125 0 L 1 0 L 1 -17.5 L 8.203125 -17.5 L 8.203125 -15.71875 L 2.953125 -15.71875 L 2.953125 -9.75 Z M 7.21875 -9.75 "/></g></g></g><g fill="#ffffff" fill-opacity="1"><g transform="translate(266.082079, 175.499988)"><g><path d="M 2.953125 -7.875 L 2.953125 0 L 1 0 L 1 -17.5 L 2.953125 -17.5 L 2.953125 -9.625 L 7.25 -9.625 L 7.25 -17.5 L 9.203125 -17.5 L 9.203125 0 L 7.25 0 L 7.25 -7.875 Z M 2.953125 -7.875 "/></g></g></g><g fill="#ffffff" fill-opacity="1"><g transform="translate(279.530476, 175.499988)"><g><path d="M 7.21875 -9.75 L 7.21875 -8 L 2.953125 -8 L 2.953125 -1.78125 L 8.203125 -1.78125 L 8.203125 0 L 1 0 L 1 -17.5 L 8.203125 -17.5 L 8.203125 -15.71875 L 2.953125 -15.71875 L 2.953125 -9.75 Z M 7.21875 -9.75 "/></g></g></g><g fill="#ffffff" fill-opacity="1"><g transform="translate(291.779064, 175.499988)"><g><path d="M 4.828125 -17.5 C 6.210938 -17.5 7.210938 -17.117188 7.828125 -16.359375 C 8.441406 -15.597656 8.75 -14.550781 8.75 -13.21875 L 8.75 -11.125 C 8.75 -9.726562 8.421875 -8.675781 7.765625 -7.96875 C 7.109375 -7.257812 6.078125 -6.90625 4.671875 -6.90625 L 2.953125 -6.90625 L 2.953125 0 L 1 0 L 1 -17.5 Z M 4.671875 -8.65625 C 5.410156 -8.65625 5.953125 -8.832031 6.296875 -9.1875 C 6.648438 -9.539062 6.828125 -10.144531 6.828125 -11 L 6.828125 -13.328125 C 6.828125 -14.128906 6.671875 -14.726562 6.359375 -15.125 C 6.054688 -15.519531 5.546875 -15.71875 4.828125 -15.71875 L 2.953125 -15.71875 L 2.953125 -8.65625 Z M 4.671875 -8.65625 "/></g></g></g><g fill="#ffffff" fill-opacity="1"><g transform="translate(304.302608, 175.499988)"><g><path d="M 7.453125 0 L 1 0 L 1 -1.296875 L 3.09375 -1.78125 L 3.09375 -16.046875 L 1 -16.546875 L 1 -17.84375 L 7.453125 -17.84375 L 7.453125 -16.546875 L 5.34375 -16.046875 L 5.34375 -1.78125 L 7.453125 -1.296875 Z M 7.453125 0 "/></g></g></g><g fill="#ffffff" fill-opacity="1"><g transform="translate(316.026272, 175.499988)"><g><path d="M 4.921875 -17.5 C 6.285156 -17.5 7.257812 -17.175781 7.84375 -16.53125 C 8.425781 -15.894531 8.71875 -14.925781 8.71875 -13.625 L 8.71875 -12.796875 C 8.71875 -11.867188 8.566406 -11.113281 8.265625 -10.53125 C 7.972656 -9.957031 7.441406 -9.554688 6.671875 -9.328125 C 7.523438 -9.085938 8.128906 -8.644531 8.484375 -8 C 8.847656 -7.351562 9.03125 -6.546875 9.03125 -5.578125 L 9.03125 -4.09375 C 9.03125 -2.78125 8.703125 -1.769531 8.046875 -1.0625 C 7.398438 -0.351562 6.394531 0 5.03125 0 L 1 0 L 1 -17.5 Z M 4.453125 -10.078125 C 5.234375 -10.078125 5.816406 -10.234375 6.203125 -10.546875 C 6.597656 -10.867188 6.796875 -11.488281 6.796875 -12.40625 L 6.796875 -13.421875 C 6.796875 -14.203125 6.648438 -14.78125 6.359375 -15.15625 C 6.066406 -15.53125 5.570312 -15.71875 4.875 -15.71875 L 2.953125 -15.71875 L 2.953125 -10.078125 Z M 5.03125 -1.78125 C 6.40625 -1.78125 7.09375 -2.570312 7.09375 -4.15625 L 7.09375 -5.703125 C 7.09375 -6.679688 6.894531 -7.359375 6.5 -7.734375 C 6.113281 -8.109375 5.5 -8.296875 4.65625 -8.296875 L 2.953125 -8.296875 L 2.953125 -1.78125 Z M 5.03125 -1.78125 "/></g></g></g><g fill="#ffffff" fill-opacity="1"><g transform="translate(183.709944, 209.999986)"><g><path d="M 5 -10.28125 C 6.363281 -10.28125 7.390625 -9.945312 8.078125 -9.28125 C 8.773438 -8.625 9.125 -7.585938 9.125 -6.171875 L 9.125 -4.25 C 9.125 -2.882812 8.796875 -1.832031 8.140625 -1.09375 C 7.492188 -0.363281 6.476562 0 5.09375 0 L 1.03125 0 L 1.03125 -17.5 L 8.40625 -17.5 L 8.40625 -15.71875 L 2.953125 -15.71875 L 2.953125 -10.28125 Z M 5.09375 -1.78125 C 5.8125 -1.78125 6.335938 -1.96875 6.671875 -2.34375 C 7.003906 -2.71875 7.171875 -3.3125 7.171875 -4.125 L 7.171875 -6.296875 C 7.171875 -7.148438 6.988281 -7.734375 6.625 -8.046875 C 6.257812 -8.367188 5.71875 -8.53125 5 -8.53125 L 2.953125 -8.53125 L 2.953125 -1.78125 Z M 5.09375 -1.78125 "/></g></g></g><g fill="#ffffff" fill-opacity="1"><g transform="translate(196.98336, 209.999986)"><g><path d="M 6.25 -3.84375 C 6.101562 -3.195312 5.925781 -2.625 5.71875 -2.125 C 5.507812 -1.625 5.226562 -1.207031 4.875 -0.875 C 4.519531 -0.539062 4.082031 -0.296875 3.5625 -0.140625 C 3.039062 0.00390625 2.378906 0.0625 1.578125 0.03125 L 1.578125 -1.71875 C 2.328125 -1.6875 2.890625 -1.800781 3.265625 -2.0625 C 3.640625 -2.320312 3.910156 -2.785156 4.078125 -3.453125 L 4.46875 -4.59375 L 0.453125 -17.5 L 2.40625 -17.5 L 4.171875 -11.421875 L 5.375 -7.03125 L 6.40625 -11.421875 L 7.96875 -17.5 L 10 -17.5 Z M 6.25 -3.84375 "/></g></g></g><g fill="#ffffff" fill-opacity="1"><g transform="translate(210.656712, 209.999986)"><g><path d="M 9.625 2.40625 L 9.625 0 L 2.46875 0 L 2.46875 2.40625 L 0.59375 2.40625 L 0.59375 -1.71875 L 1.71875 -1.71875 C 2.019531 -2.050781 2.21875 -2.425781 2.3125 -2.84375 C 2.40625 -3.257812 2.46875 -3.738281 2.5 -4.28125 L 3.171875 -17.5 L 10.203125 -17.5 L 10.203125 -1.71875 L 11.53125 -1.71875 L 11.53125 2.40625 Z M 4.40625 -4.296875 C 4.363281 -3.660156 4.289062 -3.144531 4.1875 -2.75 C 4.082031 -2.351562 3.882812 -2.007812 3.59375 -1.71875 L 8.21875 -1.71875 L 8.21875 -15.71875 L 4.96875 -15.71875 Z M 4.40625 -4.296875 "/></g></g></g><g fill="#ffffff" fill-opacity="1"><g transform="translate(226.129785, 209.999986)"><g><path d="M 7.453125 0 L 1 0 L 1 -1.296875 L 3.09375 -1.78125 L 3.09375 -16.046875 L 1 -16.546875 L 1 -17.84375 L 7.453125 -17.84375 L 7.453125 -16.546875 L 5.34375 -16.046875 L 5.34375 -1.78125 L 7.453125 -1.296875 Z M 7.453125 0 "/></g></g></g><g fill="#ffffff" fill-opacity="1"><g transform="translate(237.853455, 209.999986)"><g><path d="M 4.921875 -17.5 C 6.285156 -17.5 7.257812 -17.175781 7.84375 -16.53125 C 8.425781 -15.894531 8.71875 -14.925781 8.71875 -13.625 L 8.71875 -12.796875 C 8.71875 -11.867188 8.566406 -11.113281 8.265625 -10.53125 C 7.972656 -9.957031 7.441406 -9.554688 6.671875 -9.328125 C 7.523438 -9.085938 8.128906 -8.644531 8.484375 -8 C 8.847656 -7.351562 9.03125 -6.546875 9.03125 -5.578125 L 9.03125 -4.09375 C 9.03125 -2.78125 8.703125 -1.769531 8.046875 -1.0625 C 7.398438 -0.351562 6.394531 0 5.03125 0 L 1 0 L 1 -17.5 Z M 4.453125 -10.078125 C 5.234375 -10.078125 5.816406 -10.234375 6.203125 -10.546875 C 6.597656 -10.867188 6.796875 -11.488281 6.796875 -12.40625 L 6.796875 -13.421875 C 6.796875 -14.203125 6.648438 -14.78125 6.359375 -15.15625 C 6.066406 -15.53125 5.570312 -15.71875 4.875 -15.71875 L 2.953125 -15.71875 L 2.953125 -10.078125 Z M 5.03125 -1.78125 C 6.40625 -1.78125 7.09375 -2.570312 7.09375 -4.15625 L 7.09375 -5.703125 C 7.09375 -6.679688 6.894531 -7.359375 6.5 -7.734375 C 6.113281 -8.109375 5.5 -8.296875 4.65625 -8.296875 L 2.953125 -8.296875 L 2.953125 -1.78125 Z M 5.03125 -1.78125 "/></g></g></g><g fill="#ffffff" fill-opacity="1"><g transform="translate(250.901916, 209.999986)"><g><path d="M 7.21875 -9.75 L 7.21875 -8 L 2.953125 -8 L 2.953125 -1.78125 L 8.203125 -1.78125 L 8.203125 0 L 1 0 L 1 -17.5 L 8.203125 -17.5 L 8.203125 -15.71875 L 2.953125 -15.71875 L 2.953125 -9.75 Z M 7.21875 -9.75 "/></g></g></g><g fill="#ffffff" fill-opacity="1"><g transform="translate(263.150503, 209.999986)"><g><path d="M 4.71875 -15.71875 L 4.328125 -4.34375 C 4.296875 -3.644531 4.21875 -3.03125 4.09375 -2.5 C 3.976562 -1.96875 3.785156 -1.515625 3.515625 -1.140625 C 3.253906 -0.765625 2.898438 -0.472656 2.453125 -0.265625 C 2.015625 -0.0664062 1.460938 0.03125 0.796875 0.03125 L 0.46875 0.03125 L 0.46875 -1.75 C 0.875 -1.75 1.203125 -1.796875 1.453125 -1.890625 C 1.703125 -1.992188 1.894531 -2.148438 2.03125 -2.359375 C 2.175781 -2.566406 2.273438 -2.828125 2.328125 -3.140625 C 2.378906 -3.460938 2.410156 -3.832031 2.421875 -4.25 L 2.90625 -17.5 L 10.03125 -17.5 L 10.03125 0 L 8.078125 0 L 8.078125 -15.71875 Z M 4.71875 -15.71875 "/></g></g></g><g fill="#ffffff" fill-opacity="1"><g transform="translate(277.49875, 209.999986)"><g><path d="M 4.671875 -10.59375 C 6.078125 -10.59375 7.109375 -10.238281 7.765625 -9.53125 C 8.421875 -8.820312 8.75 -7.769531 8.75 -6.375 L 8.75 -4.28125 C 8.75 -2.945312 8.4375 -1.898438 7.8125 -1.140625 C 7.1875 -0.378906 6.191406 0 4.828125 0 L 1 0 L 1 -17.5 L 2.953125 -17.5 L 2.953125 -10.59375 Z M 4.828125 -1.78125 C 5.546875 -1.78125 6.054688 -1.976562 6.359375 -2.375 C 6.671875 -2.769531 6.828125 -3.367188 6.828125 -4.171875 L 6.828125 -6.5 C 6.828125 -7.351562 6.648438 -7.957031 6.296875 -8.3125 C 5.953125 -8.664062 5.410156 -8.84375 4.671875 -8.84375 L 2.953125 -8.84375 L 2.953125 -1.78125 Z M 4.828125 -1.78125 "/></g></g></g><g fill="#ffffff" fill-opacity="1"><g transform="translate(290.272239, 209.999986)"><g><path d="M 2.953125 -7.875 L 2.953125 0 L 1 0 L 1 -17.5 L 2.953125 -17.5 L 2.953125 -9.625 L 7.25 -9.625 L 7.25 -17.5 L 9.203125 -17.5 L 9.203125 0 L 7.25 0 L 7.25 -7.875 Z M 2.953125 -7.875 "/></g></g></g><g fill="#ffffff" fill-opacity="1"><g transform="translate(303.720636, 209.999986)"><g><path d="M 5.625 -8.125 L 3.03125 0 L 1 0 L 1 -17.5 L 2.71875 -17.5 L 2.71875 -4.453125 L 4.53125 -9.96875 L 7.078125 -17.5 L 9.25 -17.5 L 9.25 0 L 7.5 0 L 7.5 -13.921875 Z M 5.625 -8.125 "/></g></g></g><g fill="#ffffff" fill-opacity="1"><g transform="translate(317.194028, 209.999986)"><g><path d="M 3.96875 -7.59375 L 2.953125 -5.875 L 2.953125 0 L 1 0 L 1 -17.5 L 2.953125 -17.5 L 2.953125 -9.046875 L 7.59375 -17.5 L 9.578125 -17.5 L 5.15625 -9.53125 L 9.71875 0 L 7.71875 0 Z M 3.96875 -7.59375 "/></g></g></g><g fill="#ffffff" fill-opacity="1"><g transform="translate(330.667416, 209.999986)"><g><path d="M 7.453125 0 L 1 0 L 1 -1.296875 L 3.09375 -1.78125 L 3.09375 -16.046875 L 1 -16.546875 L 1 -17.84375 L 7.453125 -17.84375 L 7.453125 -16.546875 L 5.34375 -16.046875 L 5.34375 -1.78125 L 7.453125 -1.296875 Z M 7.453125 0 "/></g></g></g><g fill="#ffffff" fill-opacity="1"><g transform="translate(342.391086, 209.999986)"><g><path d="M 4.921875 -17.5 C 6.285156 -17.5 7.257812 -17.175781 7.84375 -16.53125 C 8.425781 -15.894531 8.71875 -14.925781 8.71875 -13.625 L 8.71875 -12.796875 C 8.71875 -11.867188 8.566406 -11.113281 8.265625 -10.53125 C 7.972656 -9.957031 7.441406 -9.554688 6.671875 -9.328125 C 7.523438 -9.085938 8.128906 -8.644531 8.484375 -8 C 8.847656 -7.351562 9.03125 -6.546875 9.03125 -5.578125 L 9.03125 -4.09375 C 9.03125 -2.78125 8.703125 -1.769531 8.046875 -1.0625 C 7.398438 -0.351562 6.394531 0 5.03125 0 L 1 0 L 1 -17.5 Z M 4.453125 -10.078125 C 5.234375 -10.078125 5.816406 -10.234375 6.203125 -10.546875 C 6.597656 -10.867188 6.796875 -11.488281 6.796875 -12.40625 L 6.796875 -13.421875 C 6.796875 -14.203125 6.648438 -14.78125 6.359375 -15.15625 C 6.066406 -15.53125 5.570312 -15.71875 4.875 -15.71875 L 2.953125 -15.71875 L 2.953125 -10.078125 Z M 5.03125 -1.78125 C 6.40625 -1.78125 7.09375 -2.570312 7.09375 -4.15625 L 7.09375 -5.703125 C 7.09375 -6.679688 6.894531 -7.359375 6.5 -7.734375 C 6.113281 -8.109375 5.5 -8.296875 4.65625 -8.296875 L 2.953125 -8.296875 L 2.953125 -1.78125 Z M 5.03125 -1.78125 "/></g></g></g><g fill="#ffffff" fill-opacity="1"><g transform="translate(223.518535, 244.499984)"><g><path d="M 6.25 -3.84375 C 6.101562 -3.195312 5.925781 -2.625 5.71875 -2.125 C 5.507812 -1.625 5.226562 -1.207031 4.875 -0.875 C 4.519531 -0.539062 4.082031 -0.296875 3.5625 -0.140625 C 3.039062 0.00390625 2.378906 0.0625 1.578125 0.03125 L 1.578125 -1.71875 C 2.328125 -1.6875 2.890625 -1.800781 3.265625 -2.0625 C 3.640625 -2.320312 3.910156 -2.785156 4.078125 -3.453125 L 4.46875 -4.59375 L 0.453125 -17.5 L 2.40625 -17.5 L 4.171875 -11.421875 L 5.375 -7.03125 L 6.40625 -11.421875 L 7.96875 -17.5 L 10 -17.5 Z M 6.25 -3.84375 "/></g></g></g><g fill="#ffffff" fill-opacity="1"><g transform="translate(237.191887, 244.499984)"><g><path d="M 3.96875 -7.59375 L 2.953125 -5.875 L 2.953125 0 L 1 0 L 1 -17.5 L 2.953125 -17.5 L 2.953125 -9.046875 L 7.59375 -17.5 L 9.578125 -17.5 L 5.15625 -9.53125 L 9.71875 0 L 7.71875 0 Z M 3.96875 -7.59375 "/></g></g></g><g fill="#ffffff" fill-opacity="1"><g transform="translate(250.665277, 244.499984)"><g><path d="M 4.828125 -17.5 C 6.210938 -17.5 7.210938 -17.117188 7.828125 -16.359375 C 8.441406 -15.597656 8.75 -14.550781 8.75 -13.21875 L 8.75 -11.125 C 8.75 -9.726562 8.421875 -8.675781 7.765625 -7.96875 C 7.109375 -7.257812 6.078125 -6.90625 4.671875 -6.90625 L 2.953125 -6.90625 L 2.953125 0 L 1 0 L 1 -17.5 Z M 4.671875 -8.65625 C 5.410156 -8.65625 5.953125 -8.832031 6.296875 -9.1875 C 6.648438 -9.539062 6.828125 -10.144531 6.828125 -11 L 6.828125 -13.328125 C 6.828125 -14.128906 6.671875 -14.726562 6.359375 -15.125 C 6.054688 -15.519531 5.546875 -15.71875 4.828125 -15.71875 L 2.953125 -15.71875 L 2.953125 -8.65625 Z M 4.671875 -8.65625 "/></g></g></g><g fill="#ffffff" fill-opacity="1"><g transform="translate(263.188818, 244.499984)"><g><path d="M 2.96875 -3.53125 L 2.296875 0 L 0.5 0 L 3.84375 -17.5 L 6.671875 -17.5 L 10.03125 0 L 8.078125 0 L 7.40625 -3.53125 Z M 3.21875 -5.203125 L 7.125 -5.203125 L 5.15625 -15.296875 Z M 3.21875 -5.203125 "/></g></g></g><g fill="#ffffff" fill-opacity="1"><g transform="translate(276.987153, 244.499984)"><g><path d="M 7.453125 0 L 1 0 L 1 -1.296875 L 3.09375 -1.78125 L 3.09375 -16.046875 L 1 -16.546875 L 1 -17.84375 L 7.453125 -17.84375 L 7.453125 -16.546875 L 5.34375 -16.046875 L 5.34375 -1.78125 L 7.453125 -1.296875 Z M 0.71875 -21.484375 C 0.71875 -21.910156 0.832031 -22.21875 1.0625 -22.40625 C 1.289062 -22.601562 1.570312 -22.703125 1.90625 -22.703125 C 2.21875 -22.703125 2.488281 -22.601562 2.71875 -22.40625 C 2.957031 -22.21875 3.078125 -21.910156 3.078125 -21.484375 C 3.078125 -21.066406 2.957031 -20.753906 2.71875 -20.546875 C 2.488281 -20.335938 2.21875 -20.234375 1.90625 -20.234375 C 1.570312 -20.234375 1.289062 -20.335938 1.0625 -20.546875 C 0.832031 -20.753906 0.71875 -21.066406 0.71875 -21.484375 Z M 5.421875 -21.484375 C 5.421875 -21.910156 5.53125 -22.21875 5.75 -22.40625 C 5.976562 -22.601562 6.253906 -22.703125 6.578125 -22.703125 C 6.890625 -22.703125 7.160156 -22.601562 7.390625 -22.40625 C 7.628906 -22.21875 7.75 -21.910156 7.75 -21.484375 C 7.75 -21.066406 7.628906 -20.753906 7.390625 -20.546875 C 7.160156 -20.335938 6.890625 -20.234375 6.578125 -20.234375 C 6.253906 -20.234375 5.976562 -20.335938 5.75 -20.546875 C 5.53125 -20.753906 5.421875 -21.066406 5.421875 -21.484375 Z M 5.421875 -21.484375 "/></g></g></g><g fill="#ffffff" fill-opacity="1"><g transform="translate(288.710824, 244.499984)"><g><path d="M 2.953125 -7.875 L 2.953125 0 L 1 0 L 1 -17.5 L 2.953125 -17.5 L 2.953125 -9.625 L 7.25 -9.625 L 7.25 -17.5 L 9.203125 -17.5 L 9.203125 0 L 7.25 0 L 7.25 -7.875 Z M 2.953125 -7.875 "/></g></g></g><g fill="#ffffff" fill-opacity="1"><g transform="translate(302.159222, 244.499984)"><g><path d="M 5.625 -8.125 L 3.03125 0 L 1 0 L 1 -17.5 L 2.71875 -17.5 L 2.71875 -4.453125 L 4.53125 -9.96875 L 7.078125 -17.5 L 9.25 -17.5 L 9.25 0 L 7.5 0 L 7.5 -13.921875 Z M 5.625 -8.125 "/></g></g></g></svg>