<svg xmlns="http://www.w3.org/2000/svg" xmlns:xlink="http://www.w3.org/1999/xlink" width="500" zoomAndPan="magnify" viewBox="0 0 375 374.999991" height="500" preserveAspectRatio="xMidYMid meet" version="1.0"><defs><g/></defs><g fill="#ffffff" fill-opacity="1"><g transform="translate(120.215469, 162.974031)"><g><path d="M 45.21875 -34.53125 C 48.914062 -30.476562 50.765625 -25.53125 50.765625 -19.6875 C 50.765625 -13.84375 48.914062 -8.90625 45.21875 -4.875 C 41.53125 -0.851562 36.835938 1.15625 31.140625 1.15625 C 25.910156 1.15625 21.609375 -0.710938 18.234375 -4.453125 L 18.078125 -4.453125 L 18.078125 0 L 4.609375 0 L 4.609375 -66.140625 L 18.234375 -66.140625 L 18.234375 -35.6875 C 21.609375 -38.96875 25.910156 -40.609375 31.140625 -40.609375 C 36.835938 -40.609375 41.53125 -38.582031 45.21875 -34.53125 Z M 33.75 -13.03125 C 35.445312 -14.75 36.296875 -16.96875 36.296875 -19.6875 C 36.296875 -22.40625 35.410156 -24.632812 33.640625 -26.375 C 31.878906 -28.125 29.691406 -29 27.078125 -29 C 24.503906 -29 22.332031 -28.125 20.5625 -26.375 C 18.800781 -24.632812 17.921875 -22.40625 17.921875 -19.6875 C 17.921875 -17.019531 18.78125 -14.8125 20.5 -13.0625 C 22.21875 -11.320312 24.410156 -10.453125 27.078125 -10.453125 C 29.835938 -10.453125 32.0625 -11.3125 33.75 -13.03125 Z M 33.75 -13.03125 "/></g></g></g><g fill="#ffffff" fill-opacity="1"><g transform="translate(172.744955, 162.974031)"><g><path d="M 17.453125 -39.453125 L 17.453125 -20.6875 C 17.453125 -16.789062 18.039062 -14.019531 19.21875 -12.375 C 20.40625 -10.738281 22.40625 -9.921875 25.21875 -9.921875 C 28.039062 -9.921875 30.039062 -10.738281 31.21875 -12.375 C 32.40625 -14.019531 33 -16.789062 33 -20.6875 L 33 -39.453125 L 46.609375 -39.453125 L 46.609375 -17.375 C 46.609375 -10.8125 44.898438 -6.082031 41.484375 -3.1875 C 38.078125 -0.289062 32.65625 1.15625 25.21875 1.15625 C 17.789062 1.15625 12.367188 -0.289062 8.953125 -3.1875 C 5.546875 -6.082031 3.84375 -10.8125 3.84375 -17.375 L 3.84375 -39.453125 Z M 17.453125 -39.453125 "/></g></g></g><g fill="#ffffff" fill-opacity="1"><g transform="translate(223.197883, 162.974031)"><g><path d="M 7.296875 -4.875 C 3.609375 -8.90625 1.765625 -13.84375 1.765625 -19.6875 C 1.765625 -25.53125 3.609375 -30.476562 7.296875 -34.53125 C 10.992188 -38.582031 15.6875 -40.609375 21.375 -40.609375 C 26.601562 -40.609375 30.910156 -38.96875 34.296875 -35.6875 L 34.296875 -66.140625 L 47.90625 -66.140625 L 47.90625 0 L 34.453125 0 L 34.453125 -4.453125 L 34.296875 -4.453125 C 30.910156 -0.710938 26.601562 1.15625 21.375 1.15625 C 15.6875 1.15625 10.992188 -0.851562 7.296875 -4.875 Z M 18.875 -26.375 C 17.113281 -24.632812 16.234375 -22.40625 16.234375 -19.6875 C 16.234375 -16.96875 17.078125 -14.75 18.765625 -13.03125 C 20.453125 -11.3125 22.679688 -10.453125 25.453125 -10.453125 C 28.117188 -10.453125 30.3125 -11.320312 32.03125 -13.0625 C 33.75 -14.8125 34.609375 -17.019531 34.609375 -19.6875 C 34.609375 -22.40625 33.722656 -24.632812 31.953125 -26.375 C 30.179688 -28.125 28.015625 -29 25.453125 -29 C 22.835938 -29 20.644531 -28.125 18.875 -26.375 Z M 18.875 -26.375 "/></g></g></g><g fill="#ffffff" fill-opacity="1"><g transform="translate(127.414655, 208.847837)"><g><path d="M 44.53125 -17.84375 L 15.921875 -17.84375 C 15.921875 -15.070312 16.816406 -13.019531 18.609375 -11.6875 C 20.398438 -10.351562 22.347656 -9.6875 24.453125 -9.6875 C 26.660156 -9.6875 28.40625 -9.976562 29.6875 -10.5625 C 30.96875 -11.15625 32.425781 -12.328125 34.0625 -14.078125 L 43.90625 -9.15625 C 39.8125 -2.28125 32.992188 1.15625 23.453125 1.15625 C 17.503906 1.15625 12.398438 -0.878906 8.140625 -4.953125 C 3.890625 -9.035156 1.765625 -13.945312 1.765625 -19.6875 C 1.765625 -25.425781 3.890625 -30.347656 8.140625 -34.453125 C 12.398438 -38.554688 17.503906 -40.609375 23.453125 -40.609375 C 29.710938 -40.609375 34.800781 -38.800781 38.71875 -35.1875 C 42.644531 -31.570312 44.609375 -26.40625 44.609375 -19.6875 C 44.609375 -18.757812 44.582031 -18.144531 44.53125 -17.84375 Z M 16.296875 -25.375 L 31.296875 -25.375 C 30.992188 -27.425781 30.1875 -29.003906 28.875 -30.109375 C 27.570312 -31.210938 25.894531 -31.765625 23.84375 -31.765625 C 21.582031 -31.765625 19.785156 -31.171875 18.453125 -29.984375 C 17.117188 -28.804688 16.398438 -27.269531 16.296875 -25.375 Z M 16.296875 -25.375 "/></g></g></g><g fill="#ffffff" fill-opacity="1"><g transform="translate(173.791356, 208.847837)"><g><path d="M 4.609375 0 L 4.609375 -39.453125 L 18.234375 -39.453125 L 18.234375 -35.296875 L 18.375 -35.296875 C 21.914062 -38.835938 25.6875 -40.609375 29.6875 -40.609375 C 31.632812 -40.609375 33.566406 -40.347656 35.484375 -39.828125 C 37.410156 -39.316406 39.257812 -38.523438 41.03125 -37.453125 C 42.800781 -36.378906 44.234375 -34.851562 45.328125 -32.875 C 46.429688 -30.90625 46.984375 -28.613281 46.984375 -26 L 46.984375 0 L 33.375 0 L 33.375 -22.296875 C 33.375 -24.347656 32.71875 -26.144531 31.40625 -27.6875 C 30.101562 -29.226562 28.398438 -30 26.296875 -30 C 24.242188 -30 22.382812 -29.203125 20.71875 -27.609375 C 19.0625 -26.015625 18.234375 -24.242188 18.234375 -22.296875 L 18.234375 0 Z M 4.609375 0 "/></g></g></g><g fill="#ffffff" fill-opacity="1"><g transform="translate(224.628835, 208.847837)"><g><path d="M 2.84375 9.6875 L 14 4.234375 C 16.050781 7.617188 19.613281 9.3125 24.6875 9.3125 C 27.039062 9.3125 29.226562 8.550781 31.25 7.03125 C 33.28125 5.519531 34.296875 3.203125 34.296875 0.078125 L 34.296875 -2.84375 C 31.890625 -0.175781 27.582031 1.15625 21.375 1.15625 C 15.6875 1.15625 10.992188 -0.851562 7.296875 -4.875 C 3.609375 -8.90625 1.765625 -13.84375 1.765625 -19.6875 C 1.765625 -25.53125 3.609375 -30.476562 7.296875 -34.53125 C 10.992188 -38.582031 15.6875 -40.609375 21.375 -40.609375 C 26.457031 -40.609375 30.6875 -39.046875 34.0625 -35.921875 L 34.296875 -35.921875 L 34.296875 -39.453125 L 47.90625 -39.453125 L 47.90625 1.078125 C 47.90625 7.484375 45.773438 12.429688 41.515625 15.921875 C 37.265625 19.410156 31.65625 21.15625 24.6875 21.15625 C 13.40625 21.15625 6.125 17.332031 2.84375 9.6875 Z M 18.875 -26.375 C 17.113281 -24.632812 16.234375 -22.40625 16.234375 -19.6875 C 16.234375 -16.96875 17.078125 -14.75 18.765625 -13.03125 C 20.453125 -11.3125 22.679688 -10.453125 25.453125 -10.453125 C 28.117188 -10.453125 30.3125 -11.320312 32.03125 -13.0625 C 33.75 -14.8125 34.609375 -17.019531 34.609375 -19.6875 C 34.609375 -22.40625 33.722656 -24.632812 31.953125 -26.375 C 30.179688 -28.125 28.015625 -29 25.453125 -29 C 22.835938 -29 20.644531 -28.125 18.875 -26.375 Z M 18.875 -26.375 "/></g></g></g><g fill="#ffffff" fill-opacity="1"><g transform="translate(277.158322, 208.847837)"><g><path d="M 5.921875 -61.4375 C 7.515625 -63.03125 9.410156 -63.828125 11.609375 -63.828125 C 13.816406 -63.828125 15.710938 -63.03125 17.296875 -61.4375 C 18.890625 -59.851562 19.6875 -57.957031 19.6875 -55.75 C 19.6875 -53.550781 18.890625 -51.65625 17.296875 -50.0625 C 15.710938 -48.476562 13.816406 -47.6875 11.609375 -47.6875 C 9.410156 -47.6875 7.515625 -48.476562 5.921875 -50.0625 C 4.328125 -51.65625 3.53125 -53.550781 3.53125 -55.75 C 3.53125 -57.957031 4.328125 -59.851562 5.921875 -61.4375 Z M 4.609375 -39.453125 L 4.609375 0 L 18.234375 0 L 18.234375 -39.453125 Z M 4.609375 -39.453125 "/></g></g></g><g fill="#ffffff" fill-opacity="1"><g transform="translate(57.368317, 253.229934)"><g><path d="M 4.609375 0 L 4.609375 -39.453125 L 18.234375 -39.453125 L 18.234375 -35.296875 L 18.375 -35.296875 C 21.914062 -38.835938 25.6875 -40.609375 29.6875 -40.609375 C 31.632812 -40.609375 33.566406 -40.347656 35.484375 -39.828125 C 37.410156 -39.316406 39.257812 -38.523438 41.03125 -37.453125 C 42.800781 -36.378906 44.234375 -34.851562 45.328125 -32.875 C 46.429688 -30.90625 46.984375 -28.613281 46.984375 -26 L 46.984375 0 L 33.375 0 L 33.375 -22.296875 C 33.375 -24.347656 32.71875 -26.144531 31.40625 -27.6875 C 30.101562 -29.226562 28.398438 -30 26.296875 -30 C 24.242188 -30 22.382812 -29.203125 20.71875 -27.609375 C 19.0625 -26.015625 18.234375 -24.242188 18.234375 -22.296875 L 18.234375 0 Z M 4.609375 0 "/></g></g></g><g fill="#ffffff" fill-opacity="1"><g transform="translate(108.205796, 253.229934)"><g><path d="M 44.53125 -17.84375 L 15.921875 -17.84375 C 15.921875 -15.070312 16.816406 -13.019531 18.609375 -11.6875 C 20.398438 -10.351562 22.347656 -9.6875 24.453125 -9.6875 C 26.660156 -9.6875 28.40625 -9.976562 29.6875 -10.5625 C 30.96875 -11.15625 32.425781 -12.328125 34.0625 -14.078125 L 43.90625 -9.15625 C 39.8125 -2.28125 32.992188 1.15625 23.453125 1.15625 C 17.503906 1.15625 12.398438 -0.878906 8.140625 -4.953125 C 3.890625 -9.035156 1.765625 -13.945312 1.765625 -19.6875 C 1.765625 -25.425781 3.890625 -30.347656 8.140625 -34.453125 C 12.398438 -38.554688 17.503906 -40.609375 23.453125 -40.609375 C 29.710938 -40.609375 34.800781 -38.800781 38.71875 -35.1875 C 42.644531 -31.570312 44.609375 -26.40625 44.609375 -19.6875 C 44.609375 -18.757812 44.582031 -18.144531 44.53125 -17.84375 Z M 16.296875 -25.375 L 31.296875 -25.375 C 30.992188 -27.425781 30.1875 -29.003906 28.875 -30.109375 C 27.570312 -31.210938 25.894531 -31.765625 23.84375 -31.765625 C 21.582031 -31.765625 19.785156 -31.171875 18.453125 -29.984375 C 17.117188 -28.804688 16.398438 -27.269531 16.296875 -25.375 Z M 16.296875 -25.375 "/></g></g></g><g fill="#ffffff" fill-opacity="1"><g transform="translate(154.582497, 253.229934)"><g><path d="M 44.53125 -17.84375 L 15.921875 -17.84375 C 15.921875 -15.070312 16.816406 -13.019531 18.609375 -11.6875 C 20.398438 -10.351562 22.347656 -9.6875 24.453125 -9.6875 C 26.660156 -9.6875 28.40625 -9.976562 29.6875 -10.5625 C 30.96875 -11.15625 32.425781 -12.328125 34.0625 -14.078125 L 43.90625 -9.15625 C 39.8125 -2.28125 32.992188 1.15625 23.453125 1.15625 C 17.503906 1.15625 12.398438 -0.878906 8.140625 -4.953125 C 3.890625 -9.035156 1.765625 -13.945312 1.765625 -19.6875 C 1.765625 -25.425781 3.890625 -30.347656 8.140625 -34.453125 C 12.398438 -38.554688 17.503906 -40.609375 23.453125 -40.609375 C 29.710938 -40.609375 34.800781 -38.800781 38.71875 -35.1875 C 42.644531 -31.570312 44.609375 -26.40625 44.609375 -19.6875 C 44.609375 -18.757812 44.582031 -18.144531 44.53125 -17.84375 Z M 16.296875 -25.375 L 31.296875 -25.375 C 30.992188 -27.425781 30.1875 -29.003906 28.875 -30.109375 C 27.570312 -31.210938 25.894531 -31.765625 23.84375 -31.765625 C 21.582031 -31.765625 19.785156 -31.171875 18.453125 -29.984375 C 17.117188 -28.804688 16.398438 -27.269531 16.296875 -25.375 Z M 16.296875 -25.375 "/></g></g></g><g fill="#ffffff" fill-opacity="1"><g transform="translate(200.959198, 253.229934)"><g><path d="M 4.609375 0 L 4.609375 -39.453125 L 18.234375 -39.453125 L 18.234375 -33.765625 L 18.375 -33.765625 C 18.476562 -33.960938 18.644531 -34.21875 18.875 -34.53125 C 19.101562 -34.84375 19.601562 -35.378906 20.375 -36.140625 C 21.144531 -36.910156 21.96875 -37.601562 22.84375 -38.21875 C 23.71875 -38.832031 24.84375 -39.382812 26.21875 -39.875 C 27.601562 -40.363281 29.015625 -40.609375 30.453125 -40.609375 C 31.941406 -40.609375 33.398438 -40.398438 34.828125 -39.984375 C 36.265625 -39.578125 37.316406 -39.171875 37.984375 -38.765625 L 39.0625 -38.140625 L 33.375 -26.609375 C 31.6875 -28.046875 29.328125 -28.765625 26.296875 -28.765625 C 24.660156 -28.765625 23.25 -28.40625 22.0625 -27.6875 C 20.882812 -26.96875 20.050781 -26.09375 19.5625 -25.0625 C 19.082031 -24.039062 18.738281 -23.171875 18.53125 -22.453125 C 18.332031 -21.734375 18.234375 -21.171875 18.234375 -20.765625 L 18.234375 0 Z M 4.609375 0 "/></g></g></g><g fill="#ffffff" fill-opacity="1"><g transform="translate(93.269288, 274.303253)"><g><path d="M 3.578125 0 L 0.484375 0 L 0.484375 -0.625 L 1.484375 -0.859375 L 1.484375 -7.703125 L 0.484375 -7.9375 L 0.484375 -8.5625 L 3.578125 -8.5625 L 3.578125 -7.9375 L 2.5625 -7.703125 L 2.5625 -0.859375 L 3.578125 -0.625 Z M 3.578125 0 "/></g></g></g><g fill="#ffffff" fill-opacity="1"><g transform="translate(98.893649, 274.303253)"><g><path d="M 1.421875 -3.78125 L 1.421875 0 L 0.484375 0 L 0.484375 -8.40625 L 1.421875 -8.40625 L 1.421875 -4.625 L 3.484375 -4.625 L 3.484375 -8.40625 L 4.421875 -8.40625 L 4.421875 0 L 3.484375 0 L 3.484375 -3.78125 Z M 1.421875 -3.78125 "/></g></g></g><g fill="#ffffff" fill-opacity="1"><g transform="translate(105.345386, 274.303253)"><g><path d="M 4.578125 -3.953125 L 4.140625 -3.171875 L 4.140625 0 L 3.21875 0 L 3.21875 -3.171875 L 2.78125 -3.96875 L 1.171875 0 L 0.21875 0 L 2.140625 -4.84375 L 0.265625 -8.40625 L 1.203125 -8.40625 L 3.21875 -4.53125 L 3.21875 -8.40625 L 4.140625 -8.40625 L 4.140625 -4.53125 L 6.171875 -8.40625 L 7.109375 -8.40625 L 5.25 -4.859375 L 7.15625 0 L 6.1875 0 Z M 4.578125 -3.953125 "/></g></g></g><g fill="#ffffff" fill-opacity="1"><g transform="translate(114.255261, 274.303253)"><g><path d="M 3.46875 -4.6875 L 3.46875 -3.84375 L 1.421875 -3.84375 L 1.421875 -0.859375 L 3.9375 -0.859375 L 3.9375 0 L 0.484375 0 L 0.484375 -8.40625 L 3.9375 -8.40625 L 3.9375 -7.546875 L 1.421875 -7.546875 L 1.421875 -4.6875 Z M 3.46875 -4.6875 "/></g></g></g><g fill="#ffffff" fill-opacity="1"><g transform="translate(120.131434, 274.303253)"><g><path d="M 1.421875 -3.78125 L 1.421875 0 L 0.484375 0 L 0.484375 -8.40625 L 1.421875 -8.40625 L 1.421875 -4.625 L 3.484375 -4.625 L 3.484375 -8.40625 L 4.421875 -8.40625 L 4.421875 0 L 3.484375 0 L 3.484375 -3.78125 Z M 1.421875 -3.78125 "/></g></g></g><g fill="#ffffff" fill-opacity="1"><g transform="translate(126.583172, 274.303253)"><g><path d="M 3.46875 -4.6875 L 3.46875 -3.84375 L 1.421875 -3.84375 L 1.421875 -0.859375 L 3.9375 -0.859375 L 3.9375 0 L 0.484375 0 L 0.484375 -8.40625 L 3.9375 -8.40625 L 3.9375 -7.546875 L 1.421875 -7.546875 L 1.421875 -4.6875 Z M 3.46875 -4.6875 "/></g></g></g><g fill="#ffffff" fill-opacity="1"><g transform="translate(132.459347, 274.303253)"><g><path d="M 2.3125 -8.40625 C 2.976562 -8.40625 3.457031 -8.222656 3.75 -7.859375 C 4.050781 -7.492188 4.203125 -6.988281 4.203125 -6.34375 L 4.203125 -5.34375 C 4.203125 -4.664062 4.039062 -4.15625 3.71875 -3.8125 C 3.40625 -3.476562 2.914062 -3.3125 2.25 -3.3125 L 1.421875 -3.3125 L 1.421875 0 L 0.484375 0 L 0.484375 -8.40625 Z M 2.25 -4.15625 C 2.59375 -4.15625 2.847656 -4.238281 3.015625 -4.40625 C 3.191406 -4.582031 3.28125 -4.875 3.28125 -5.28125 L 3.28125 -6.390625 C 3.28125 -6.773438 3.203125 -7.0625 3.046875 -7.25 C 2.898438 -7.445312 2.65625 -7.546875 2.3125 -7.546875 L 1.421875 -7.546875 L 1.421875 -4.15625 Z M 2.25 -4.15625 "/></g></g></g><g fill="#ffffff" fill-opacity="1"><g transform="translate(138.467419, 274.303253)"><g><path d="M 1.421875 -3.78125 L 1.421875 0 L 0.484375 0 L 0.484375 -8.40625 L 1.421875 -8.40625 L 1.421875 -4.625 L 3.484375 -4.625 L 3.484375 -8.40625 L 4.421875 -8.40625 L 4.421875 0 L 3.484375 0 L 3.484375 -3.78125 Z M 1.421875 -3.78125 "/></g></g></g><g fill="#ffffff" fill-opacity="1"><g transform="translate(144.919158, 274.303253)"><g><path d="M 2.703125 -3.90625 L 1.453125 0 L 0.484375 0 L 0.484375 -8.40625 L 1.3125 -8.40625 L 1.3125 -2.140625 L 2.171875 -4.78125 L 3.390625 -8.40625 L 4.4375 -8.40625 L 4.4375 0 L 3.59375 0 L 3.59375 -6.6875 Z M 2.703125 -3.90625 "/></g></g></g><g fill="#ffffff" fill-opacity="1"><g transform="translate(151.382881, 274.303253)"><g><path d="M 3.796875 -10.125 C 3.796875 -9.757812 3.679688 -9.472656 3.453125 -9.265625 C 3.234375 -9.054688 2.921875 -8.953125 2.515625 -8.953125 C 2.097656 -8.953125 1.78125 -9.054688 1.5625 -9.265625 C 1.34375 -9.472656 1.226562 -9.757812 1.21875 -10.125 L 1.796875 -10.125 C 1.816406 -9.894531 1.890625 -9.734375 2.015625 -9.640625 C 2.140625 -9.554688 2.304688 -9.515625 2.515625 -9.515625 C 2.710938 -9.515625 2.875 -9.554688 3 -9.640625 C 3.132812 -9.734375 3.210938 -9.894531 3.234375 -10.125 Z M 2.71875 -3.96875 L 1.453125 0 L 0.484375 0 L 0.484375 -8.40625 L 1.3125 -8.40625 L 1.3125 -2.140625 L 2.09375 -4.59375 L 3.390625 -8.40625 L 4.4375 -8.40625 L 4.4375 0 L 3.59375 0 L 3.59375 -6.6875 Z M 2.71875 -3.96875 "/></g></g></g><g fill="#ffffff" fill-opacity="1"><g transform="translate(157.858596, 274.303253)"><g/></g></g><g fill="#ffffff" fill-opacity="1"><g transform="translate(161.276625, 274.303253)"><g><path d="M 2.296875 -8.484375 C 2.941406 -8.484375 3.414062 -8.289062 3.71875 -7.90625 C 4.03125 -7.519531 4.1875 -7.007812 4.1875 -6.375 L 4.1875 -5.609375 L 3.296875 -5.609375 L 3.296875 -6.421875 C 3.296875 -6.804688 3.21875 -7.101562 3.0625 -7.3125 C 2.90625 -7.519531 2.65625 -7.625 2.3125 -7.625 C 1.976562 -7.625 1.726562 -7.519531 1.5625 -7.3125 C 1.40625 -7.101562 1.328125 -6.804688 1.328125 -6.421875 L 1.328125 -1.984375 C 1.328125 -1.597656 1.40625 -1.296875 1.5625 -1.078125 C 1.726562 -0.867188 1.976562 -0.765625 2.3125 -0.765625 C 2.65625 -0.765625 2.90625 -0.867188 3.0625 -1.078125 C 3.21875 -1.296875 3.296875 -1.597656 3.296875 -1.984375 L 3.296875 -3.078125 L 4.1875 -3.078125 L 4.1875 -2.03125 C 4.1875 -1.382812 4.03125 -0.867188 3.71875 -0.484375 C 3.414062 -0.109375 2.941406 0.078125 2.296875 0.078125 C 1.648438 0.078125 1.171875 -0.109375 0.859375 -0.484375 C 0.554688 -0.867188 0.40625 -1.382812 0.40625 -2.03125 L 0.40625 -6.375 C 0.40625 -6.695312 0.441406 -6.984375 0.515625 -7.234375 C 0.597656 -7.492188 0.71875 -7.71875 0.875 -7.90625 C 1.03125 -8.09375 1.222656 -8.234375 1.453125 -8.328125 C 1.691406 -8.429688 1.972656 -8.484375 2.296875 -8.484375 Z M 2.296875 -8.484375 "/></g></g></g><g fill="#ffffff" fill-opacity="1"><g transform="translate(167.392613, 274.303253)"><g><path d="M 3 -1.84375 C 2.925781 -1.53125 2.835938 -1.253906 2.734375 -1.015625 C 2.640625 -0.773438 2.507812 -0.578125 2.34375 -0.421875 C 2.175781 -0.265625 1.960938 -0.148438 1.703125 -0.078125 C 1.453125 -0.00390625 1.132812 0.0234375 0.75 0.015625 L 0.75 -0.828125 C 1.113281 -0.804688 1.382812 -0.859375 1.5625 -0.984375 C 1.75 -1.109375 1.878906 -1.332031 1.953125 -1.65625 L 2.140625 -2.203125 L 0.21875 -8.40625 L 1.15625 -8.40625 L 2 -5.484375 L 2.578125 -3.375 L 3.078125 -5.484375 L 3.828125 -8.40625 L 4.796875 -8.40625 Z M 3 -1.84375 "/></g></g></g><g fill="#ffffff" fill-opacity="1"><g transform="translate(173.952267, 274.303253)"><g><path d="M 1.421875 -7.546875 L 1.421875 0 L 0.484375 0 L 0.484375 -8.40625 L 4.421875 -8.40625 L 4.421875 0 L 3.484375 0 L 3.484375 -7.546875 Z M 1.421875 -7.546875 "/></g></g></g><g fill="#ffffff" fill-opacity="1"><g transform="translate(180.404006, 274.303253)"><g><path d="M 2.3125 -8.40625 C 2.976562 -8.40625 3.457031 -8.222656 3.75 -7.859375 C 4.050781 -7.492188 4.203125 -6.988281 4.203125 -6.34375 L 4.203125 -5.34375 C 4.203125 -4.664062 4.039062 -4.15625 3.71875 -3.8125 C 3.40625 -3.476562 2.914062 -3.3125 2.25 -3.3125 L 1.421875 -3.3125 L 1.421875 0 L 0.484375 0 L 0.484375 -8.40625 Z M 2.25 -4.15625 C 2.59375 -4.15625 2.847656 -4.238281 3.015625 -4.40625 C 3.191406 -4.582031 3.28125 -4.875 3.28125 -5.28125 L 3.28125 -6.390625 C 3.28125 -6.773438 3.203125 -7.0625 3.046875 -7.25 C 2.898438 -7.445312 2.65625 -7.546875 2.3125 -7.546875 L 1.421875 -7.546875 L 1.421875 -4.15625 Z M 2.25 -4.15625 "/></g></g></g><g fill="#ffffff" fill-opacity="1"><g transform="translate(186.412078, 274.303253)"><g><path d="M 0.40625 -6.375 C 0.40625 -7.019531 0.5625 -7.53125 0.875 -7.90625 C 1.195312 -8.289062 1.679688 -8.484375 2.328125 -8.484375 C 2.972656 -8.484375 3.457031 -8.289062 3.78125 -7.90625 C 4.101562 -7.53125 4.265625 -7.019531 4.265625 -6.375 L 4.265625 -2.03125 C 4.265625 -1.382812 4.101562 -0.867188 3.78125 -0.484375 C 3.457031 -0.109375 2.972656 0.078125 2.328125 0.078125 C 1.679688 0.078125 1.195312 -0.109375 0.875 -0.484375 C 0.5625 -0.867188 0.40625 -1.382812 0.40625 -2.03125 Z M 1.328125 -1.984375 C 1.328125 -1.597656 1.410156 -1.296875 1.578125 -1.078125 C 1.742188 -0.867188 1.992188 -0.765625 2.328125 -0.765625 C 2.671875 -0.765625 2.921875 -0.867188 3.078125 -1.078125 C 3.242188 -1.296875 3.328125 -1.597656 3.328125 -1.984375 L 3.328125 -6.421875 C 3.328125 -6.804688 3.242188 -7.101562 3.078125 -7.3125 C 2.921875 -7.519531 2.671875 -7.625 2.328125 -7.625 C 1.992188 -7.625 1.742188 -7.519531 1.578125 -7.3125 C 1.410156 -7.101562 1.328125 -6.804688 1.328125 -6.421875 Z M 1.328125 -1.984375 "/></g></g></g><g fill="#ffffff" fill-opacity="1"><g transform="translate(192.635988, 274.303253)"><g><path d="M 2.359375 -8.40625 C 3.015625 -8.40625 3.484375 -8.25 3.765625 -7.9375 C 4.046875 -7.625 4.1875 -7.160156 4.1875 -6.546875 L 4.1875 -6.140625 C 4.1875 -5.691406 4.113281 -5.328125 3.96875 -5.046875 C 3.820312 -4.773438 3.566406 -4.582031 3.203125 -4.46875 C 3.609375 -4.363281 3.894531 -4.15625 4.0625 -3.84375 C 4.238281 -3.53125 4.328125 -3.140625 4.328125 -2.671875 L 4.328125 -1.96875 C 4.328125 -1.332031 4.171875 -0.84375 3.859375 -0.5 C 3.546875 -0.164062 3.0625 0 2.40625 0 L 0.484375 0 L 0.484375 -8.40625 Z M 2.140625 -4.84375 C 2.515625 -4.84375 2.796875 -4.914062 2.984375 -5.0625 C 3.171875 -5.21875 3.265625 -5.515625 3.265625 -5.953125 L 3.265625 -6.4375 C 3.265625 -6.820312 3.191406 -7.101562 3.046875 -7.28125 C 2.910156 -7.457031 2.675781 -7.546875 2.34375 -7.546875 L 1.421875 -7.546875 L 1.421875 -4.84375 Z M 2.40625 -0.859375 C 3.070312 -0.859375 3.40625 -1.234375 3.40625 -1.984375 L 3.40625 -2.734375 C 3.40625 -3.203125 3.3125 -3.523438 3.125 -3.703125 C 2.9375 -3.890625 2.640625 -3.984375 2.234375 -3.984375 L 1.421875 -3.984375 L 1.421875 -0.859375 Z M 2.40625 -0.859375 "/></g></g></g><g fill="#ffffff" fill-opacity="1"><g transform="translate(198.895872, 274.303253)"><g><path d="M 3.578125 0 L 0.484375 0 L 0.484375 -0.625 L 1.484375 -0.859375 L 1.484375 -7.703125 L 0.484375 -7.9375 L 0.484375 -8.5625 L 3.578125 -8.5625 L 3.578125 -7.9375 L 2.5625 -7.703125 L 2.5625 -0.859375 L 3.578125 -0.625 Z M 3.578125 0 "/></g></g></g><g fill="#ffffff" fill-opacity="1"><g transform="translate(204.520233, 274.303253)"><g><path d="M 4.625 1.15625 L 4.625 0 L 1.1875 0 L 1.1875 1.15625 L 0.28125 1.15625 L 0.28125 -0.828125 L 0.828125 -0.828125 C 0.972656 -0.984375 1.066406 -1.160156 1.109375 -1.359375 C 1.148438 -1.566406 1.179688 -1.796875 1.203125 -2.046875 L 1.53125 -8.40625 L 4.890625 -8.40625 L 4.890625 -0.828125 L 5.53125 -0.828125 L 5.53125 1.15625 Z M 2.109375 -2.0625 C 2.097656 -1.757812 2.066406 -1.507812 2.015625 -1.3125 C 1.960938 -1.125 1.867188 -0.960938 1.734375 -0.828125 L 3.953125 -0.828125 L 3.953125 -7.546875 L 2.390625 -7.546875 Z M 2.109375 -2.0625 "/></g></g></g><g fill="#ffffff" fill-opacity="1"><g transform="translate(211.94323, 274.303253)"><g/></g></g><g fill="#ffffff" fill-opacity="1"><g transform="translate(215.361253, 274.303253)"><g><path d="M 2.40625 -4.9375 C 3.0625 -4.9375 3.550781 -4.773438 3.875 -4.453125 C 4.207031 -4.140625 4.375 -3.644531 4.375 -2.96875 L 4.375 -2.046875 C 4.375 -1.390625 4.21875 -0.882812 3.90625 -0.53125 C 3.59375 -0.175781 3.109375 0 2.453125 0 L 0.484375 0 L 0.484375 -8.40625 L 4.03125 -8.40625 L 4.03125 -7.546875 L 1.421875 -7.546875 L 1.421875 -4.9375 Z M 2.453125 -0.859375 C 2.796875 -0.859375 3.046875 -0.945312 3.203125 -1.125 C 3.359375 -1.300781 3.4375 -1.585938 3.4375 -1.984375 L 3.4375 -3.03125 C 3.4375 -3.4375 3.347656 -3.710938 3.171875 -3.859375 C 3.003906 -4.015625 2.75 -4.09375 2.40625 -4.09375 L 1.421875 -4.09375 L 1.421875 -0.859375 Z M 2.453125 -0.859375 "/></g></g></g><g fill="#ffffff" fill-opacity="1"><g transform="translate(221.729052, 274.303253)"><g><path d="M 3 -1.84375 C 2.925781 -1.53125 2.835938 -1.253906 2.734375 -1.015625 C 2.640625 -0.773438 2.507812 -0.578125 2.34375 -0.421875 C 2.175781 -0.265625 1.960938 -0.148438 1.703125 -0.078125 C 1.453125 -0.00390625 1.132812 0.0234375 0.75 0.015625 L 0.75 -0.828125 C 1.113281 -0.804688 1.382812 -0.859375 1.5625 -0.984375 C 1.75 -1.109375 1.878906 -1.332031 1.953125 -1.65625 L 2.140625 -2.203125 L 0.21875 -8.40625 L 1.15625 -8.40625 L 2 -5.484375 L 2.578125 -3.375 L 3.078125 -5.484375 L 3.828125 -8.40625 L 4.796875 -8.40625 Z M 3 -1.84375 "/></g></g></g><g fill="#ffffff" fill-opacity="1"><g transform="translate(228.2887, 274.303253)"><g><path d="M 4.625 1.15625 L 4.625 0 L 1.1875 0 L 1.1875 1.15625 L 0.28125 1.15625 L 0.28125 -0.828125 L 0.828125 -0.828125 C 0.972656 -0.984375 1.066406 -1.160156 1.109375 -1.359375 C 1.148438 -1.566406 1.179688 -1.796875 1.203125 -2.046875 L 1.53125 -8.40625 L 4.890625 -8.40625 L 4.890625 -0.828125 L 5.53125 -0.828125 L 5.53125 1.15625 Z M 2.109375 -2.0625 C 2.097656 -1.757812 2.066406 -1.507812 2.015625 -1.3125 C 1.960938 -1.125 1.867188 -0.960938 1.734375 -0.828125 L 3.953125 -0.828125 L 3.953125 -7.546875 L 2.390625 -7.546875 Z M 2.109375 -2.0625 "/></g></g></g><g fill="#ffffff" fill-opacity="1"><g transform="translate(235.711698, 274.303253)"><g><path d="M 3.578125 0 L 0.484375 0 L 0.484375 -0.625 L 1.484375 -0.859375 L 1.484375 -7.703125 L 0.484375 -7.9375 L 0.484375 -8.5625 L 3.578125 -8.5625 L 3.578125 -7.9375 L 2.5625 -7.703125 L 2.5625 -0.859375 L 3.578125 -0.625 Z M 3.578125 0 "/></g></g></g><g fill="#ffffff" fill-opacity="1"><g transform="translate(241.336059, 274.303253)"><g><path d="M 2.359375 -8.40625 C 3.015625 -8.40625 3.484375 -8.25 3.765625 -7.9375 C 4.046875 -7.625 4.1875 -7.160156 4.1875 -6.546875 L 4.1875 -6.140625 C 4.1875 -5.691406 4.113281 -5.328125 3.96875 -5.046875 C 3.820312 -4.773438 3.566406 -4.582031 3.203125 -4.46875 C 3.609375 -4.363281 3.894531 -4.15625 4.0625 -3.84375 C 4.238281 -3.53125 4.328125 -3.140625 4.328125 -2.671875 L 4.328125 -1.96875 C 4.328125 -1.332031 4.171875 -0.84375 3.859375 -0.5 C 3.546875 -0.164062 3.0625 0 2.40625 0 L 0.484375 0 L 0.484375 -8.40625 Z M 2.140625 -4.84375 C 2.515625 -4.84375 2.796875 -4.914062 2.984375 -5.0625 C 3.171875 -5.21875 3.265625 -5.515625 3.265625 -5.953125 L 3.265625 -6.4375 C 3.265625 -6.820312 3.191406 -7.101562 3.046875 -7.28125 C 2.910156 -7.457031 2.675781 -7.546875 2.34375 -7.546875 L 1.421875 -7.546875 L 1.421875 -4.84375 Z M 2.40625 -0.859375 C 3.070312 -0.859375 3.40625 -1.234375 3.40625 -1.984375 L 3.40625 -2.734375 C 3.40625 -3.203125 3.3125 -3.523438 3.125 -3.703125 C 2.9375 -3.890625 2.640625 -3.984375 2.234375 -3.984375 L 1.421875 -3.984375 L 1.421875 -0.859375 Z M 2.40625 -0.859375 "/></g></g></g><g fill="#ffffff" fill-opacity="1"><g transform="translate(247.595943, 274.303253)"><g><path d="M 1.421875 -3.78125 L 1.421875 0 L 0.484375 0 L 0.484375 -8.40625 L 1.421875 -8.40625 L 1.421875 -4.625 L 3.484375 -4.625 L 3.484375 -8.40625 L 4.421875 -8.40625 L 4.421875 0 L 3.484375 0 L 3.484375 -3.78125 Z M 1.421875 -3.78125 "/></g></g></g><g fill="#ffffff" fill-opacity="1"><g transform="translate(254.047675, 274.303253)"><g><path d="M 2.703125 -3.90625 L 1.453125 0 L 0.484375 0 L 0.484375 -8.40625 L 1.3125 -8.40625 L 1.3125 -2.140625 L 2.171875 -4.78125 L 3.390625 -8.40625 L 4.4375 -8.40625 L 4.4375 0 L 3.59375 0 L 3.59375 -6.6875 Z M 2.703125 -3.90625 "/></g></g></g><g fill="#ffffff" fill-opacity="1"><g transform="translate(260.511392, 274.303253)"><g><path d="M 4.21875 1.125 L 4.21875 0 L 0.5625 0 L 0.5625 -8.40625 L 1.484375 -8.40625 L 1.484375 -0.859375 L 3.546875 -0.859375 L 3.546875 -8.40625 L 4.5 -8.40625 L 4.5 -0.828125 L 5.140625 -0.828125 L 5.140625 1.125 Z M 4.21875 1.125 "/></g></g></g><g fill="#ffffff" fill-opacity="1"><g transform="translate(267.526696, 274.303253)"><g><path d="M 1.765625 0 L 1.765625 -7.546875 L 0.21875 -7.546875 L 0.21875 -8.40625 L 4.25 -8.40625 L 4.25 -7.546875 L 2.703125 -7.546875 L 2.703125 0 Z M 1.765625 0 "/></g></g></g><g fill="#ffffff" fill-opacity="1"><g transform="translate(273.546753, 274.303253)"><g><path d="M 2.359375 -8.40625 C 3.015625 -8.40625 3.484375 -8.25 3.765625 -7.9375 C 4.046875 -7.625 4.1875 -7.160156 4.1875 -6.546875 L 4.1875 -6.140625 C 4.1875 -5.691406 4.113281 -5.328125 3.96875 -5.046875 C 3.820312 -4.773438 3.566406 -4.582031 3.203125 -4.46875 C 3.609375 -4.363281 3.894531 -4.15625 4.0625 -3.84375 C 4.238281 -3.53125 4.328125 -3.140625 4.328125 -2.671875 L 4.328125 -1.96875 C 4.328125 -1.332031 4.171875 -0.84375 3.859375 -0.5 C 3.546875 -0.164062 3.0625 0 2.40625 0 L 0.484375 0 L 0.484375 -8.40625 Z M 2.140625 -4.84375 C 2.515625 -4.84375 2.796875 -4.914062 2.984375 -5.0625 C 3.171875 -5.21875 3.265625 -5.515625 3.265625 -5.953125 L 3.265625 -6.4375 C 3.265625 -6.820312 3.191406 -7.101562 3.046875 -7.28125 C 2.910156 -7.457031 2.675781 -7.546875 2.34375 -7.546875 L 1.421875 -7.546875 L 1.421875 -4.84375 Z M 2.40625 -0.859375 C 3.070312 -0.859375 3.40625 -1.234375 3.40625 -1.984375 L 3.40625 -2.734375 C 3.40625 -3.203125 3.3125 -3.523438 3.125 -3.703125 C 2.9375 -3.890625 2.640625 -3.984375 2.234375 -3.984375 L 1.421875 -3.984375 L 1.421875 -0.859375 Z M 2.40625 -0.859375 "/></g></g></g><g fill="#ffffff" fill-opacity="1"><g transform="translate(279.806637, 274.303253)"><g><path d="M 1.421875 -1.6875 L 1.109375 0 L 0.234375 0 L 1.84375 -8.40625 L 3.203125 -8.40625 L 4.8125 0 L 3.875 0 L 3.546875 -1.6875 Z M 1.546875 -2.5 L 3.421875 -2.5 L 2.46875 -7.34375 Z M 1.546875 -2.5 "/></g></g></g></svg>