<svg xmlns="http://www.w3.org/2000/svg" xmlns:xlink="http://www.w3.org/1999/xlink" width="500" zoomAndPan="magnify" viewBox="0 0 375 374.999991" height="500" preserveAspectRatio="xMidYMid meet" version="1.0"><defs><g/><clipPath id="2cd04c4cf1"><path d="M 42.066406 230.359375 L 72.828125 230.359375 L 72.828125 265.882812 L 42.066406 265.882812 Z M 42.066406 230.359375 " clip-rule="nonzero"/></clipPath><clipPath id="581297275d"><path d="M 72.828125 265.882812 L 42.066406 248.121094 L 72.828125 230.359375 Z M 72.828125 265.882812 " clip-rule="nonzero"/></clipPath><clipPath id="f97f00ee87"><path d="M 152.371094 109.15625 L 183.132812 109.15625 L 183.132812 144.679688 L 152.371094 144.679688 Z M 152.371094 109.15625 " clip-rule="nonzero"/></clipPath><clipPath id="69a48c2ec4"><path d="M 152.371094 109.15625 L 183.132812 126.917969 L 152.371094 144.679688 Z M 152.371094 109.15625 " clip-rule="nonzero"/></clipPath></defs><path fill="#ffffff" d="M 118 133.316406 L 77.980469 133.316406 L 77.980469 239.984375 L 117.710938 239.984375 C 147.105469 239.984375 171.261719 216.042969 171.261719 186.429688 C 171.261719 157.253906 147.25 133.316406 118 133.316406 Z M 118 227.324219 L 91.078125 227.324219 L 91.078125 145.976562 L 117.710938 145.976562 C 140.195312 145.976562 158.457031 164.238281 158.457031 186.429688 C 158.457031 208.914062 140.339844 227.324219 118 227.324219 Z M 117.710938 147.648438 L 92.460938 147.648438 L 92.460938 225.648438 L 117.710938 225.648438 C 139.246094 225.648438 156.78125 208.113281 156.78125 186.429688 C 156.78125 165.113281 139.246094 147.648438 117.710938 147.648438 Z M 118 213.0625 L 105.195312 213.0625 L 105.195312 160.238281 L 118 160.238281 C 132.40625 160.238281 143.976562 172.386719 143.976562 186.429688 C 143.976562 201.128906 132.40625 213.0625 118 213.0625 Z M 118 213.0625 " fill-opacity="1" fill-rule="nonzero"/><path fill="#ffffff" d="M 32.464844 206.269531 C 32.464844 212.503906 37.554688 217.59375 43.851562 217.59375 C 50.085938 217.59375 55.175781 212.503906 55.175781 206.269531 C 55.175781 199.941406 50.085938 194.882812 43.851562 194.882812 C 37.554688 194.882812 32.464844 199.941406 32.464844 206.269531 Z M 52.441406 206.269531 C 52.441406 211.007812 48.589844 214.828125 43.851562 214.828125 C 39.046875 214.828125 35.199219 211.007812 35.199219 206.269531 C 35.199219 201.433594 39.046875 197.617188 43.851562 197.617188 C 48.589844 197.617188 52.441406 201.433594 52.441406 206.269531 Z M 35.515625 206.269531 C 35.515625 210.8125 39.214844 214.511719 43.851562 214.511719 C 48.394531 214.511719 52.078125 210.8125 52.078125 206.269531 C 52.078125 201.632812 48.394531 197.933594 43.851562 197.933594 C 39.214844 197.933594 35.515625 201.632812 35.515625 206.269531 Z M 49.347656 206.269531 C 49.347656 209.273438 46.855469 211.761719 43.851562 211.761719 C 40.785156 211.761719 38.292969 209.273438 38.292969 206.269531 C 38.292969 203.125 40.785156 200.679688 43.851562 200.679688 C 46.855469 200.679688 49.347656 203.125 49.347656 206.269531 Z M 49.347656 206.269531 " fill-opacity="1" fill-rule="nonzero"/><path fill="#ffffff" d="M 76.753906 208.972656 L 76.753906 206.207031 L 54.585938 206.207031 L 54.585938 208.972656 Z M 76.753906 205.890625 L 76.753906 203.15625 L 54.585938 203.15625 L 54.585938 205.890625 Z M 76.753906 205.890625 " fill-opacity="1" fill-rule="nonzero"/><path fill="#ffffff" d="M 32.464844 171.808594 C 32.464844 178.046875 37.554688 183.132812 43.851562 183.132812 C 50.085938 183.132812 55.175781 178.046875 55.175781 171.808594 C 55.175781 165.484375 50.085938 160.425781 43.851562 160.425781 C 37.554688 160.425781 32.464844 165.484375 32.464844 171.808594 Z M 52.441406 171.808594 C 52.441406 176.550781 48.589844 180.371094 43.851562 180.371094 C 39.046875 180.371094 35.199219 176.550781 35.199219 171.808594 C 35.199219 166.976562 39.046875 163.160156 43.851562 163.160156 C 48.589844 163.160156 52.441406 166.976562 52.441406 171.808594 Z M 35.515625 171.808594 C 35.515625 176.355469 39.214844 180.054688 43.851562 180.054688 C 48.394531 180.054688 52.078125 176.355469 52.078125 171.808594 C 52.078125 167.175781 48.394531 163.472656 43.851562 163.472656 C 39.214844 163.472656 35.515625 167.175781 35.515625 171.808594 Z M 49.347656 171.808594 C 49.347656 174.8125 46.855469 177.304688 43.851562 177.304688 C 40.785156 177.304688 38.292969 174.8125 38.292969 171.808594 C 38.292969 168.667969 40.785156 166.222656 43.851562 166.222656 C 46.855469 166.222656 49.347656 168.667969 49.347656 171.808594 Z M 49.347656 171.808594 " fill-opacity="1" fill-rule="nonzero"/><path fill="#ffffff" d="M 76.753906 174.511719 L 76.753906 171.746094 L 54.585938 171.746094 L 54.585938 174.511719 Z M 76.753906 171.433594 L 76.753906 168.699219 L 54.585938 168.699219 L 54.585938 171.433594 Z M 76.753906 171.433594 " fill-opacity="1" fill-rule="nonzero"/><path fill="#ffffff" d="M 13.921875 189.515625 C 13.921875 195.75 19.011719 200.839844 25.308594 200.839844 C 31.542969 200.839844 36.632812 195.75 36.632812 189.515625 C 36.632812 183.1875 31.542969 178.128906 25.308594 178.128906 C 19.011719 178.128906 13.921875 183.1875 13.921875 189.515625 Z M 33.898438 189.515625 C 33.898438 194.257812 30.050781 198.078125 25.308594 198.078125 C 20.507812 198.078125 16.65625 194.257812 16.65625 189.515625 C 16.65625 184.683594 20.507812 180.863281 25.308594 180.863281 C 30.050781 180.863281 33.898438 184.683594 33.898438 189.515625 Z M 16.972656 189.515625 C 16.972656 194.058594 20.671875 197.757812 25.308594 197.757812 C 29.855469 197.757812 33.535156 194.058594 33.535156 189.515625 C 33.535156 184.878906 29.855469 181.179688 25.308594 181.179688 C 20.671875 181.179688 16.972656 184.878906 16.972656 189.515625 Z M 30.804688 189.515625 C 30.804688 192.519531 28.3125 195.007812 25.308594 195.007812 C 22.242188 195.007812 19.75 192.519531 19.75 189.515625 C 19.75 186.371094 22.242188 183.929688 25.308594 183.929688 C 28.3125 183.929688 30.804688 186.371094 30.804688 189.515625 Z M 30.804688 189.515625 " fill-opacity="1" fill-rule="nonzero"/><path fill="#ffffff" d="M 58.210938 192.21875 L 58.210938 189.453125 L 36.042969 189.453125 L 36.042969 192.21875 Z M 58.210938 189.140625 L 58.210938 186.40625 L 36.042969 186.40625 L 36.042969 189.140625 Z M 58.210938 189.140625 " fill-opacity="1" fill-rule="nonzero"/><path fill="#ffffff" d="M 77.035156 192.21875 L 77.035156 189.453125 L 54.867188 189.453125 L 54.867188 192.21875 Z M 77.035156 189.136719 L 77.035156 186.402344 L 54.867188 186.402344 L 54.867188 189.136719 Z M 77.035156 189.136719 " fill-opacity="1" fill-rule="nonzero"/><path fill="#ffffff" d="M 69.597656 244.34375 L 141.308594 244.34375 L 141.308594 251.917969 L 69.597656 251.917969 Z M 69.597656 244.34375 " fill-opacity="1" fill-rule="nonzero"/><g clip-path="url(#2cd04c4cf1)"><g clip-path="url(#581297275d)"><path fill="#ffffff" d="M 42.066406 230.359375 L 72.828125 230.359375 L 72.828125 265.882812 L 42.066406 265.882812 Z M 42.066406 230.359375 " fill-opacity="1" fill-rule="nonzero"/></g></g><g clip-path="url(#f97f00ee87)"><g clip-path="url(#69a48c2ec4)"><path fill="#ffffff" d="M 152.371094 109.15625 L 183.132812 109.15625 L 183.132812 144.679688 L 152.371094 144.679688 Z M 152.371094 109.15625 " fill-opacity="1" fill-rule="nonzero"/></g></g><path fill="#ffffff" d="M 83.691406 123.046875 L 155.398438 123.046875 L 155.398438 130.625 L 83.691406 130.625 Z M 83.691406 123.046875 " fill-opacity="1" fill-rule="nonzero"/><path fill="#ffffff" d="M 159.554688 125.1875 L 168.617188 125.1875 L 168.617188 127.332031 L 159.554688 127.332031 Z M 159.554688 125.1875 " fill-opacity="1" fill-rule="nonzero"/><path fill="#ffffff" d="M 70.175781 249.796875 L 63.742188 249.796875 L 63.742188 256.089844 L 61.5625 256.089844 L 61.5625 249.796875 L 55.128906 249.796875 L 55.128906 247.761719 L 61.5625 247.761719 L 61.5625 241.425781 L 63.742188 241.425781 L 63.742188 247.761719 L 70.175781 247.761719 Z M 70.175781 249.796875 " fill-opacity="1" fill-rule="nonzero"/><g fill="#ffffff" fill-opacity="1"><g transform="translate(248.892058, 123.749992)"><g><path d="M 4.921875 -17.5 C 6.285156 -17.5 7.257812 -17.175781 7.84375 -16.53125 C 8.425781 -15.894531 8.71875 -14.925781 8.71875 -13.625 L 8.71875 -12.796875 C 8.71875 -11.867188 8.566406 -11.113281 8.265625 -10.53125 C 7.972656 -9.957031 7.441406 -9.554688 6.671875 -9.328125 C 7.523438 -9.085938 8.128906 -8.644531 8.484375 -8 C 8.847656 -7.351562 9.03125 -6.546875 9.03125 -5.578125 L 9.03125 -4.09375 C 9.03125 -2.78125 8.703125 -1.769531 8.046875 -1.0625 C 7.398438 -0.351562 6.394531 0 5.03125 0 L 1 0 L 1 -17.5 Z M 4.453125 -10.078125 C 5.234375 -10.078125 5.816406 -10.234375 6.203125 -10.546875 C 6.597656 -10.867188 6.796875 -11.488281 6.796875 -12.40625 L 6.796875 -13.421875 C 6.796875 -14.203125 6.648438 -14.78125 6.359375 -15.15625 C 6.066406 -15.53125 5.570312 -15.71875 4.875 -15.71875 L 2.953125 -15.71875 L 2.953125 -10.078125 Z M 5.03125 -1.78125 C 6.40625 -1.78125 7.09375 -2.570312 7.09375 -4.15625 L 7.09375 -5.703125 C 7.09375 -6.679688 6.894531 -7.359375 6.5 -7.734375 C 6.113281 -8.109375 5.5 -8.296875 4.65625 -8.296875 L 2.953125 -8.296875 L 2.953125 -1.78125 Z M 5.03125 -1.78125 "/></g></g></g><g fill="#ffffff" fill-opacity="1"><g transform="translate(261.940517, 123.749992)"><g><path d="M 7.453125 0 L 1 0 L 1 -1.296875 L 3.09375 -1.78125 L 3.09375 -16.046875 L 1 -16.546875 L 1 -17.84375 L 7.453125 -17.84375 L 7.453125 -16.546875 L 5.34375 -16.046875 L 5.34375 -1.78125 L 7.453125 -1.296875 Z M 7.453125 0 "/></g></g></g><g fill="#ffffff" fill-opacity="1"><g transform="translate(273.664187, 123.749992)"><g><path d="M 9.625 2.40625 L 9.625 0 L 2.46875 0 L 2.46875 2.40625 L 0.59375 2.40625 L 0.59375 -1.71875 L 1.71875 -1.71875 C 2.019531 -2.050781 2.21875 -2.425781 2.3125 -2.84375 C 2.40625 -3.257812 2.46875 -3.738281 2.5 -4.28125 L 3.171875 -17.5 L 10.203125 -17.5 L 10.203125 -1.71875 L 11.53125 -1.71875 L 11.53125 2.40625 Z M 4.40625 -4.296875 C 4.363281 -3.660156 4.289062 -3.144531 4.1875 -2.75 C 4.082031 -2.351562 3.882812 -2.007812 3.59375 -1.71875 L 8.21875 -1.71875 L 8.21875 -15.71875 L 4.96875 -15.71875 Z M 4.40625 -4.296875 "/></g></g></g><g fill="#ffffff" fill-opacity="1"><g transform="translate(289.145962, 123.749992)"><g/></g></g><g fill="#ffffff" fill-opacity="1"><g transform="translate(201.395967, 158.24999)"><g><path d="M 4.828125 -17.5 C 6.210938 -17.5 7.210938 -17.117188 7.828125 -16.359375 C 8.441406 -15.597656 8.75 -14.550781 8.75 -13.21875 L 8.75 -11.125 C 8.75 -9.726562 8.421875 -8.675781 7.765625 -7.96875 C 7.109375 -7.257812 6.078125 -6.90625 4.671875 -6.90625 L 2.953125 -6.90625 L 2.953125 0 L 1 0 L 1 -17.5 Z M 4.671875 -8.65625 C 5.410156 -8.65625 5.953125 -8.832031 6.296875 -9.1875 C 6.648438 -9.539062 6.828125 -10.144531 6.828125 -11 L 6.828125 -13.328125 C 6.828125 -14.128906 6.671875 -14.726562 6.359375 -15.125 C 6.054688 -15.519531 5.546875 -15.71875 4.828125 -15.71875 L 2.953125 -15.71875 L 2.953125 -8.65625 Z M 4.671875 -8.65625 "/></g></g></g><g fill="#ffffff" fill-opacity="1"><g transform="translate(213.91951, 158.24999)"><g><path d="M 0.84375 -13.28125 C 0.84375 -14.625 1.171875 -15.691406 1.828125 -16.484375 C 2.492188 -17.273438 3.5 -17.671875 4.84375 -17.671875 C 6.195312 -17.671875 7.207031 -17.273438 7.875 -16.484375 C 8.539062 -15.691406 8.875 -14.625 8.875 -13.28125 L 8.875 -4.21875 C 8.875 -2.882812 8.539062 -1.816406 7.875 -1.015625 C 7.207031 -0.222656 6.195312 0.171875 4.84375 0.171875 C 3.5 0.171875 2.492188 -0.222656 1.828125 -1.015625 C 1.171875 -1.816406 0.84375 -2.882812 0.84375 -4.21875 Z M 2.78125 -4.125 C 2.78125 -3.320312 2.945312 -2.695312 3.28125 -2.25 C 3.625 -1.8125 4.144531 -1.59375 4.84375 -1.59375 C 5.5625 -1.59375 6.085938 -1.8125 6.421875 -2.25 C 6.753906 -2.695312 6.921875 -3.320312 6.921875 -4.125 L 6.921875 -13.375 C 6.921875 -14.175781 6.753906 -14.796875 6.421875 -15.234375 C 6.085938 -15.679688 5.5625 -15.90625 4.84375 -15.90625 C 4.144531 -15.90625 3.625 -15.679688 3.28125 -15.234375 C 2.945312 -14.796875 2.78125 -14.175781 2.78125 -13.375 Z M 2.78125 -4.125 "/></g></g></g><g fill="#ffffff" fill-opacity="1"><g transform="translate(226.892976, 158.24999)"><g><path d="M 4.828125 -17.671875 C 6.171875 -17.671875 7.164062 -17.269531 7.8125 -16.46875 C 8.457031 -15.675781 8.78125 -14.613281 8.78125 -13.28125 L 8.78125 -12.828125 C 8.78125 -11.921875 8.597656 -11.15625 8.234375 -10.53125 C 7.878906 -9.90625 7.34375 -9.460938 6.625 -9.203125 C 7.375 -8.953125 7.921875 -8.507812 8.265625 -7.875 C 8.609375 -7.238281 8.78125 -6.476562 8.78125 -5.59375 L 8.78125 -4.21875 C 8.78125 -2.882812 8.457031 -1.816406 7.8125 -1.015625 C 7.164062 -0.222656 6.171875 0.171875 4.828125 0.171875 C 3.492188 0.171875 2.503906 -0.222656 1.859375 -1.015625 C 1.222656 -1.816406 0.90625 -2.882812 0.90625 -4.21875 L 0.90625 -5.921875 L 2.71875 -5.921875 L 2.71875 -4.125 C 2.71875 -3.320312 2.882812 -2.695312 3.21875 -2.25 C 3.550781 -1.8125 4.070312 -1.59375 4.78125 -1.59375 C 5.488281 -1.59375 6.003906 -1.816406 6.328125 -2.265625 C 6.660156 -2.722656 6.828125 -3.394531 6.828125 -4.28125 L 6.828125 -5.65625 C 6.828125 -7.382812 6.078125 -8.25 4.578125 -8.25 L 3.75 -8.25 L 3.75 -10 L 4.671875 -10 C 5.328125 -10 5.847656 -10.207031 6.234375 -10.625 C 6.628906 -11.039062 6.828125 -11.632812 6.828125 -12.40625 L 6.828125 -13.203125 C 6.828125 -14.097656 6.660156 -14.769531 6.328125 -15.21875 C 6.003906 -15.675781 5.488281 -15.90625 4.78125 -15.90625 C 4.070312 -15.90625 3.550781 -15.679688 3.21875 -15.234375 C 2.882812 -14.796875 2.71875 -14.175781 2.71875 -13.375 L 2.71875 -12.203125 L 0.921875 -12.203125 L 0.921875 -13.296875 C 0.921875 -14.648438 1.234375 -15.71875 1.859375 -16.5 C 2.484375 -17.28125 3.472656 -17.671875 4.828125 -17.671875 Z M 4.828125 -17.671875 "/></g></g></g><g fill="#ffffff" fill-opacity="1"><g transform="translate(239.816453, 158.24999)"><g><path d="M 4.828125 -17.5 C 6.210938 -17.5 7.210938 -17.117188 7.828125 -16.359375 C 8.441406 -15.597656 8.75 -14.550781 8.75 -13.21875 L 8.75 -11.125 C 8.75 -9.726562 8.421875 -8.675781 7.765625 -7.96875 C 7.109375 -7.257812 6.078125 -6.90625 4.671875 -6.90625 L 2.953125 -6.90625 L 2.953125 0 L 1 0 L 1 -17.5 Z M 4.671875 -8.65625 C 5.410156 -8.65625 5.953125 -8.832031 6.296875 -9.1875 C 6.648438 -9.539062 6.828125 -10.144531 6.828125 -11 L 6.828125 -13.328125 C 6.828125 -14.128906 6.671875 -14.726562 6.359375 -15.125 C 6.054688 -15.519531 5.546875 -15.71875 4.828125 -15.71875 L 2.953125 -15.71875 L 2.953125 -8.65625 Z M 4.671875 -8.65625 "/></g></g></g><g fill="#ffffff" fill-opacity="1"><g transform="translate(252.339996, 158.24999)"><g><path d="M 0.84375 -13.28125 C 0.84375 -14.625 1.171875 -15.691406 1.828125 -16.484375 C 2.492188 -17.273438 3.5 -17.671875 4.84375 -17.671875 C 6.195312 -17.671875 7.207031 -17.273438 7.875 -16.484375 C 8.539062 -15.691406 8.875 -14.625 8.875 -13.28125 L 8.875 -4.21875 C 8.875 -2.882812 8.539062 -1.816406 7.875 -1.015625 C 7.207031 -0.222656 6.195312 0.171875 4.84375 0.171875 C 3.5 0.171875 2.492188 -0.222656 1.828125 -1.015625 C 1.171875 -1.816406 0.84375 -2.882812 0.84375 -4.21875 Z M 2.78125 -4.125 C 2.78125 -3.320312 2.945312 -2.695312 3.28125 -2.25 C 3.625 -1.8125 4.144531 -1.59375 4.84375 -1.59375 C 5.5625 -1.59375 6.085938 -1.8125 6.421875 -2.25 C 6.753906 -2.695312 6.921875 -3.320312 6.921875 -4.125 L 6.921875 -13.375 C 6.921875 -14.175781 6.753906 -14.796875 6.421875 -15.234375 C 6.085938 -15.679688 5.5625 -15.90625 4.84375 -15.90625 C 4.144531 -15.90625 3.625 -15.679688 3.28125 -15.234375 C 2.945312 -14.796875 2.78125 -14.175781 2.78125 -13.375 Z M 2.78125 -4.125 "/></g></g></g><g fill="#ffffff" fill-opacity="1"><g transform="translate(265.313464, 158.24999)"><g><path d="M 5 -10.28125 C 6.363281 -10.28125 7.390625 -9.945312 8.078125 -9.28125 C 8.773438 -8.625 9.125 -7.585938 9.125 -6.171875 L 9.125 -4.25 C 9.125 -2.882812 8.796875 -1.832031 8.140625 -1.09375 C 7.492188 -0.363281 6.476562 0 5.09375 0 L 1.03125 0 L 1.03125 -17.5 L 8.40625 -17.5 L 8.40625 -15.71875 L 2.953125 -15.71875 L 2.953125 -10.28125 Z M 5.09375 -1.78125 C 5.8125 -1.78125 6.335938 -1.96875 6.671875 -2.34375 C 7.003906 -2.71875 7.171875 -3.3125 7.171875 -4.125 L 7.171875 -6.296875 C 7.171875 -7.148438 6.988281 -7.734375 6.625 -8.046875 C 6.257812 -8.367188 5.71875 -8.53125 5 -8.53125 L 2.953125 -8.53125 L 2.953125 -1.78125 Z M 5.09375 -1.78125 "/></g></g></g><g fill="#ffffff" fill-opacity="1"><g transform="translate(278.586881, 158.24999)"><g><path d="M 2.953125 -7.875 L 2.953125 0 L 1 0 L 1 -17.5 L 2.953125 -17.5 L 2.953125 -9.625 L 7.25 -9.625 L 7.25 -17.5 L 9.203125 -17.5 L 9.203125 0 L 7.25 0 L 7.25 -7.875 Z M 2.953125 -7.875 "/></g></g></g><g fill="#ffffff" fill-opacity="1"><g transform="translate(292.035279, 158.24999)"><g><path d="M 5.625 -8.125 L 3.03125 0 L 1 0 L 1 -17.5 L 2.71875 -17.5 L 2.71875 -4.453125 L 4.53125 -9.96875 L 7.078125 -17.5 L 9.25 -17.5 L 9.25 0 L 7.5 0 L 7.5 -13.921875 Z M 5.625 -8.125 "/></g></g></g><g fill="#ffffff" fill-opacity="1"><g transform="translate(305.508665, 158.24999)"><g><path d="M 3.96875 -7.59375 L 2.953125 -5.875 L 2.953125 0 L 1 0 L 1 -17.5 L 2.953125 -17.5 L 2.953125 -9.046875 L 7.59375 -17.5 L 9.578125 -17.5 L 5.15625 -9.53125 L 9.71875 0 L 7.71875 0 Z M 3.96875 -7.59375 "/></g></g></g><g fill="#ffffff" fill-opacity="1"><g transform="translate(318.982058, 158.24999)"><g><path d="M 7.453125 0 L 1 0 L 1 -1.296875 L 3.09375 -1.78125 L 3.09375 -16.046875 L 1 -16.546875 L 1 -17.84375 L 7.453125 -17.84375 L 7.453125 -16.546875 L 5.34375 -16.046875 L 5.34375 -1.78125 L 7.453125 -1.296875 Z M 7.453125 0 "/></g></g></g><g fill="#ffffff" fill-opacity="1"><g transform="translate(330.705724, 158.24999)"><g><path d="M 4.921875 -17.5 C 6.285156 -17.5 7.257812 -17.175781 7.84375 -16.53125 C 8.425781 -15.894531 8.71875 -14.925781 8.71875 -13.625 L 8.71875 -12.796875 C 8.71875 -11.867188 8.566406 -11.113281 8.265625 -10.53125 C 7.972656 -9.957031 7.441406 -9.554688 6.671875 -9.328125 C 7.523438 -9.085938 8.128906 -8.644531 8.484375 -8 C 8.847656 -7.351562 9.03125 -6.546875 9.03125 -5.578125 L 9.03125 -4.09375 C 9.03125 -2.78125 8.703125 -1.769531 8.046875 -1.0625 C 7.398438 -0.351562 6.394531 0 5.03125 0 L 1 0 L 1 -17.5 Z M 4.453125 -10.078125 C 5.234375 -10.078125 5.816406 -10.234375 6.203125 -10.546875 C 6.597656 -10.867188 6.796875 -11.488281 6.796875 -12.40625 L 6.796875 -13.421875 C 6.796875 -14.203125 6.648438 -14.78125 6.359375 -15.15625 C 6.066406 -15.53125 5.570312 -15.71875 4.875 -15.71875 L 2.953125 -15.71875 L 2.953125 -10.078125 Z M 5.03125 -1.78125 C 6.40625 -1.78125 7.09375 -2.570312 7.09375 -4.15625 L 7.09375 -5.703125 C 7.09375 -6.679688 6.894531 -7.359375 6.5 -7.734375 C 6.113281 -8.109375 5.5 -8.296875 4.65625 -8.296875 L 2.953125 -8.296875 L 2.953125 -1.78125 Z M 5.03125 -1.78125 "/></g></g></g><g fill="#ffffff" fill-opacity="1"><g transform="translate(184.099094, 192.749987)"><g><path d="M 2.953125 -15.71875 L 2.953125 0 L 1 0 L 1 -17.5 L 9.203125 -17.5 L 9.203125 0 L 7.25 0 L 7.25 -15.71875 Z M 2.953125 -15.71875 "/></g></g></g><g fill="#ffffff" fill-opacity="1"><g transform="translate(197.54749, 192.749987)"><g><path d="M 4.71875 -15.71875 L 4.328125 -4.34375 C 4.296875 -3.644531 4.21875 -3.03125 4.09375 -2.5 C 3.976562 -1.96875 3.785156 -1.515625 3.515625 -1.140625 C 3.253906 -0.765625 2.898438 -0.472656 2.453125 -0.265625 C 2.015625 -0.0664062 1.460938 0.03125 0.796875 0.03125 L 0.46875 0.03125 L 0.46875 -1.75 C 0.875 -1.75 1.203125 -1.796875 1.453125 -1.890625 C 1.703125 -1.992188 1.894531 -2.148438 2.03125 -2.359375 C 2.175781 -2.566406 2.273438 -2.828125 2.328125 -3.140625 C 2.378906 -3.460938 2.410156 -3.832031 2.421875 -4.25 L 2.90625 -17.5 L 10.03125 -17.5 L 10.03125 0 L 8.078125 0 L 8.078125 -15.71875 Z M 4.71875 -15.71875 "/></g></g></g><g fill="#ffffff" fill-opacity="1"><g transform="translate(211.895735, 192.749987)"><g><path d="M 2.96875 -3.53125 L 2.296875 0 L 0.5 0 L 3.84375 -17.5 L 6.671875 -17.5 L 10.03125 0 L 8.078125 0 L 7.40625 -3.53125 Z M 3.21875 -5.203125 L 7.125 -5.203125 L 5.15625 -15.296875 Z M 3.21875 -5.203125 "/></g></g></g><g fill="#ffffff" fill-opacity="1"><g transform="translate(225.694068, 192.749987)"><g><path d="M 3.671875 0 L 3.671875 -15.71875 L 0.453125 -15.71875 L 0.453125 -17.5 L 8.84375 -17.5 L 8.84375 -15.71875 L 5.625 -15.71875 L 5.625 0 Z M 3.671875 0 "/></g></g></g><g fill="#ffffff" fill-opacity="1"><g transform="translate(238.242605, 192.749987)"><g><path d="M 9.28125 -15.453125 C 10.695312 -15.453125 11.722656 -15.070312 12.359375 -14.3125 C 13.003906 -13.550781 13.328125 -12.472656 13.328125 -11.078125 L 13.328125 -6.296875 C 13.328125 -4.898438 13.003906 -3.820312 12.359375 -3.0625 C 11.722656 -2.300781 10.695312 -1.921875 9.28125 -1.921875 L 8.046875 -1.921875 L 8.046875 0 L 6.125 0 L 6.125 -1.921875 L 4.90625 -1.921875 C 3.488281 -1.921875 2.457031 -2.300781 1.8125 -3.0625 C 1.164062 -3.820312 0.84375 -4.898438 0.84375 -6.296875 L 0.84375 -11.078125 C 0.84375 -12.472656 1.164062 -13.550781 1.8125 -14.3125 C 2.457031 -15.070312 3.488281 -15.453125 4.90625 -15.453125 L 6.125 -15.453125 L 6.125 -17.5 L 8.046875 -17.5 L 8.046875 -15.453125 Z M 4.90625 -13.71875 C 4.15625 -13.71875 3.613281 -13.507812 3.28125 -13.09375 C 2.945312 -12.675781 2.78125 -12.046875 2.78125 -11.203125 L 2.78125 -6.171875 C 2.78125 -5.328125 2.945312 -4.691406 3.28125 -4.265625 C 3.613281 -3.835938 4.15625 -3.625 4.90625 -3.625 L 6.125 -3.625 L 6.125 -13.71875 Z M 9.28125 -3.625 C 10.707031 -3.625 11.421875 -4.472656 11.421875 -6.171875 L 11.421875 -11.203125 C 11.421875 -12.046875 11.25 -12.675781 10.90625 -13.09375 C 10.570312 -13.507812 10.03125 -13.71875 9.28125 -13.71875 L 8.046875 -13.71875 L 8.046875 -3.625 Z M 9.28125 -3.625 "/></g></g></g><g fill="#ffffff" fill-opacity="1"><g transform="translate(255.715363, 192.749987)"><g><path d="M 0.84375 -13.28125 C 0.84375 -14.625 1.171875 -15.691406 1.828125 -16.484375 C 2.492188 -17.273438 3.5 -17.671875 4.84375 -17.671875 C 6.195312 -17.671875 7.207031 -17.273438 7.875 -16.484375 C 8.539062 -15.691406 8.875 -14.625 8.875 -13.28125 L 8.875 -4.21875 C 8.875 -2.882812 8.539062 -1.816406 7.875 -1.015625 C 7.207031 -0.222656 6.195312 0.171875 4.84375 0.171875 C 3.5 0.171875 2.492188 -0.222656 1.828125 -1.015625 C 1.171875 -1.816406 0.84375 -2.882812 0.84375 -4.21875 Z M 2.78125 -4.125 C 2.78125 -3.320312 2.945312 -2.695312 3.28125 -2.25 C 3.625 -1.8125 4.144531 -1.59375 4.84375 -1.59375 C 5.5625 -1.59375 6.085938 -1.8125 6.421875 -2.25 C 6.753906 -2.695312 6.921875 -3.320312 6.921875 -4.125 L 6.921875 -13.375 C 6.921875 -14.175781 6.753906 -14.796875 6.421875 -15.234375 C 6.085938 -15.679688 5.5625 -15.90625 4.84375 -15.90625 C 4.144531 -15.90625 3.625 -15.679688 3.28125 -15.234375 C 2.945312 -14.796875 2.78125 -14.175781 2.78125 -13.375 Z M 2.78125 -4.125 "/></g></g></g><g fill="#ffffff" fill-opacity="1"><g transform="translate(268.68883, 192.749987)"><g><path d="M 4.828125 -17.5 C 6.210938 -17.5 7.210938 -17.117188 7.828125 -16.359375 C 8.441406 -15.597656 8.75 -14.550781 8.75 -13.21875 L 8.75 -11.125 C 8.75 -9.726562 8.421875 -8.675781 7.765625 -7.96875 C 7.109375 -7.257812 6.078125 -6.90625 4.671875 -6.90625 L 2.953125 -6.90625 L 2.953125 0 L 1 0 L 1 -17.5 Z M 4.671875 -8.65625 C 5.410156 -8.65625 5.953125 -8.832031 6.296875 -9.1875 C 6.648438 -9.539062 6.828125 -10.144531 6.828125 -11 L 6.828125 -13.328125 C 6.828125 -14.128906 6.671875 -14.726562 6.359375 -15.125 C 6.054688 -15.519531 5.546875 -15.71875 4.828125 -15.71875 L 2.953125 -15.71875 L 2.953125 -8.65625 Z M 4.671875 -8.65625 "/></g></g></g><g fill="#ffffff" fill-opacity="1"><g transform="translate(281.212368, 192.749987)"><g><path d="M 7.453125 -0.03125 L 5.578125 -0.03125 L 2.671875 -13.953125 L 2.671875 0 L 0.96875 0 L 0.96875 -17.5 L 3.703125 -17.5 L 6.578125 -3.53125 L 9.34375 -17.5 L 12.078125 -17.5 L 12.078125 0 L 10.21875 0 L 10.21875 -14.078125 Z M 7.453125 -0.03125 "/></g></g></g><g fill="#ffffff" fill-opacity="1"><g transform="translate(297.535304, 192.749987)"><g><path d="M 5.625 -8.125 L 3.03125 0 L 1 0 L 1 -17.5 L 2.71875 -17.5 L 2.71875 -4.453125 L 4.53125 -9.96875 L 7.078125 -17.5 L 9.25 -17.5 L 9.25 0 L 7.5 0 L 7.5 -13.921875 Z M 5.625 -8.125 "/></g></g></g><g fill="#ffffff" fill-opacity="1"><g transform="translate(311.008696, 192.749987)"><g/></g></g><g fill="#ffffff" fill-opacity="1"><g transform="translate(318.133089, 192.749987)"><g><path d="M 9.625 2.40625 L 9.625 0 L 2.46875 0 L 2.46875 2.40625 L 0.59375 2.40625 L 0.59375 -1.71875 L 1.71875 -1.71875 C 2.019531 -2.050781 2.21875 -2.425781 2.3125 -2.84375 C 2.40625 -3.257812 2.46875 -3.738281 2.5 -4.28125 L 3.171875 -17.5 L 10.203125 -17.5 L 10.203125 -1.71875 L 11.53125 -1.71875 L 11.53125 2.40625 Z M 4.40625 -4.296875 C 4.363281 -3.660156 4.289062 -3.144531 4.1875 -2.75 C 4.082031 -2.351562 3.882812 -2.007812 3.59375 -1.71875 L 8.21875 -1.71875 L 8.21875 -15.71875 L 4.96875 -15.71875 Z M 4.40625 -4.296875 "/></g></g></g><g fill="#ffffff" fill-opacity="1"><g transform="translate(333.606164, 192.749987)"><g><path d="M 4.71875 -15.71875 L 4.328125 -4.34375 C 4.296875 -3.644531 4.21875 -3.03125 4.09375 -2.5 C 3.976562 -1.96875 3.785156 -1.515625 3.515625 -1.140625 C 3.253906 -0.765625 2.898438 -0.472656 2.453125 -0.265625 C 2.015625 -0.0664062 1.460938 0.03125 0.796875 0.03125 L 0.46875 0.03125 L 0.46875 -1.75 C 0.875 -1.75 1.203125 -1.796875 1.453125 -1.890625 C 1.703125 -1.992188 1.894531 -2.148438 2.03125 -2.359375 C 2.175781 -2.566406 2.273438 -2.828125 2.328125 -3.140625 C 2.378906 -3.460938 2.410156 -3.832031 2.421875 -4.25 L 2.90625 -17.5 L 10.03125 -17.5 L 10.03125 0 L 8.078125 0 L 8.078125 -15.71875 Z M 4.71875 -15.71875 "/></g></g></g><g fill="#ffffff" fill-opacity="1"><g transform="translate(347.95441, 192.749987)"><g><path d="M 5.53125 -7.46875 C 4.707031 -7.46875 4.070312 -7.28125 3.625 -6.90625 C 3.1875 -6.53125 2.96875 -5.851562 2.96875 -4.875 L 2.96875 -2.125 C 2.96875 -1.539062 2.941406 -1.101562 2.890625 -0.8125 C 2.847656 -0.519531 2.769531 -0.25 2.65625 0 L 0.671875 0 C 0.828125 -0.300781 0.925781 -0.628906 0.96875 -0.984375 C 1.007812 -1.347656 1.03125 -1.71875 1.03125 -2.09375 L 1.03125 -4.828125 C 1.03125 -5.773438 1.191406 -6.5625 1.515625 -7.1875 C 1.835938 -7.8125 2.398438 -8.238281 3.203125 -8.46875 C 1.765625 -8.9375 1.046875 -10.140625 1.046875 -12.078125 L 1.046875 -13.5 C 1.046875 -14.800781 1.347656 -15.789062 1.953125 -16.46875 C 2.566406 -17.15625 3.566406 -17.5 4.953125 -17.5 L 8.84375 -17.5 L 8.84375 0 L 6.90625 0 L 6.90625 -7.46875 Z M 5 -15.71875 C 4.269531 -15.71875 3.75 -15.519531 3.4375 -15.125 C 3.125 -14.726562 2.96875 -14.128906 2.96875 -13.328125 L 2.96875 -11.65625 C 2.96875 -10.695312 3.1875 -10.054688 3.625 -9.734375 C 4.0625 -9.410156 4.660156 -9.25 5.421875 -9.25 L 6.90625 -9.25 L 6.90625 -15.71875 Z M 5 -15.71875 "/></g></g></g><g fill="#ffffff" fill-opacity="1"><g transform="translate(199.919405, 227.249985)"><g><path d="M 2.953125 -7.875 L 2.953125 0 L 1 0 L 1 -17.5 L 2.953125 -17.5 L 2.953125 -9.625 L 7.25 -9.625 L 7.25 -17.5 L 9.203125 -17.5 L 9.203125 0 L 7.25 0 L 7.25 -7.875 Z M 2.953125 -7.875 "/></g></g></g><g fill="#ffffff" fill-opacity="1"><g transform="translate(213.367801, 227.249985)"><g><path d="M 7.21875 -9.75 L 7.21875 -8 L 2.953125 -8 L 2.953125 -1.78125 L 8.203125 -1.78125 L 8.203125 0 L 1 0 L 1 -17.5 L 8.203125 -17.5 L 8.203125 -15.71875 L 2.953125 -15.71875 L 2.953125 -9.75 Z M 7.21875 -9.75 "/></g></g></g><g fill="#ffffff" fill-opacity="1"><g transform="translate(225.616387, 227.249985)"><g><path d="M 4.828125 -17.5 C 6.210938 -17.5 7.210938 -17.117188 7.828125 -16.359375 C 8.441406 -15.597656 8.75 -14.550781 8.75 -13.21875 L 8.75 -11.125 C 8.75 -9.726562 8.421875 -8.675781 7.765625 -7.96875 C 7.109375 -7.257812 6.078125 -6.90625 4.671875 -6.90625 L 2.953125 -6.90625 L 2.953125 0 L 1 0 L 1 -17.5 Z M 4.671875 -8.65625 C 5.410156 -8.65625 5.953125 -8.832031 6.296875 -9.1875 C 6.648438 -9.539062 6.828125 -10.144531 6.828125 -11 L 6.828125 -13.328125 C 6.828125 -14.128906 6.671875 -14.726562 6.359375 -15.125 C 6.054688 -15.519531 5.546875 -15.71875 4.828125 -15.71875 L 2.953125 -15.71875 L 2.953125 -8.65625 Z M 4.671875 -8.65625 "/></g></g></g><g fill="#ffffff" fill-opacity="1"><g transform="translate(238.139928, 227.249985)"><g><path d="M 6.25 -3.84375 C 6.101562 -3.195312 5.925781 -2.625 5.71875 -2.125 C 5.507812 -1.625 5.226562 -1.207031 4.875 -0.875 C 4.519531 -0.539062 4.082031 -0.296875 3.5625 -0.140625 C 3.039062 0.00390625 2.378906 0.0625 1.578125 0.03125 L 1.578125 -1.71875 C 2.328125 -1.6875 2.890625 -1.800781 3.265625 -2.0625 C 3.640625 -2.320312 3.910156 -2.785156 4.078125 -3.453125 L 4.46875 -4.59375 L 0.453125 -17.5 L 2.40625 -17.5 L 4.171875 -11.421875 L 5.375 -7.03125 L 6.40625 -11.421875 L 7.96875 -17.5 L 10 -17.5 Z M 6.25 -3.84375 "/></g></g></g><g fill="#ffffff" fill-opacity="1"><g transform="translate(251.813282, 227.249985)"><g><path d="M 5.34375 -7.546875 L 2.421875 0 L 0.578125 0 L 4.09375 -9.03125 L 0.796875 -17.5 L 2.828125 -17.5 L 5.53125 -10.5 L 8.25 -17.5 L 10.078125 -17.5 L 6.796875 -9.03125 L 10.296875 0 L 8.25 0 Z M 5.34375 -7.546875 "/></g></g></g><g fill="#ffffff" fill-opacity="1"><g transform="translate(265.936573, 227.249985)"><g><path d="M 0.84375 -13.28125 C 0.84375 -14.625 1.171875 -15.691406 1.828125 -16.484375 C 2.492188 -17.273438 3.5 -17.671875 4.84375 -17.671875 C 6.195312 -17.671875 7.207031 -17.273438 7.875 -16.484375 C 8.539062 -15.691406 8.875 -14.625 8.875 -13.28125 L 8.875 -4.21875 C 8.875 -2.882812 8.539062 -1.816406 7.875 -1.015625 C 7.207031 -0.222656 6.195312 0.171875 4.84375 0.171875 C 3.5 0.171875 2.492188 -0.222656 1.828125 -1.015625 C 1.171875 -1.816406 0.84375 -2.882812 0.84375 -4.21875 Z M 2.78125 -4.125 C 2.78125 -3.320312 2.945312 -2.695312 3.28125 -2.25 C 3.625 -1.8125 4.144531 -1.59375 4.84375 -1.59375 C 5.5625 -1.59375 6.085938 -1.8125 6.421875 -2.25 C 6.753906 -2.695312 6.921875 -3.320312 6.921875 -4.125 L 6.921875 -13.375 C 6.921875 -14.175781 6.753906 -14.796875 6.421875 -15.234375 C 6.085938 -15.679688 5.5625 -15.90625 4.84375 -15.90625 C 4.144531 -15.90625 3.625 -15.679688 3.28125 -15.234375 C 2.945312 -14.796875 2.78125 -14.175781 2.78125 -13.375 Z M 2.78125 -4.125 "/></g></g></g><g fill="#ffffff" fill-opacity="1"><g transform="translate(278.91004, 227.249985)"><g><path d="M 7.453125 -0.03125 L 5.578125 -0.03125 L 2.671875 -13.953125 L 2.671875 0 L 0.96875 0 L 0.96875 -17.5 L 3.703125 -17.5 L 6.578125 -3.53125 L 9.34375 -17.5 L 12.078125 -17.5 L 12.078125 0 L 10.21875 0 L 10.21875 -14.078125 Z M 7.453125 -0.03125 "/></g></g></g><g fill="#ffffff" fill-opacity="1"><g transform="translate(295.232976, 227.249985)"><g><path d="M 0.84375 -13.28125 C 0.84375 -14.625 1.171875 -15.691406 1.828125 -16.484375 C 2.492188 -17.273438 3.5 -17.671875 4.84375 -17.671875 C 6.195312 -17.671875 7.207031 -17.273438 7.875 -16.484375 C 8.539062 -15.691406 8.875 -14.625 8.875 -13.28125 L 8.875 -4.21875 C 8.875 -2.882812 8.539062 -1.816406 7.875 -1.015625 C 7.207031 -0.222656 6.195312 0.171875 4.84375 0.171875 C 3.5 0.171875 2.492188 -0.222656 1.828125 -1.015625 C 1.171875 -1.816406 0.84375 -2.882812 0.84375 -4.21875 Z M 2.78125 -4.125 C 2.78125 -3.320312 2.945312 -2.695312 3.28125 -2.25 C 3.625 -1.8125 4.144531 -1.59375 4.84375 -1.59375 C 5.5625 -1.59375 6.085938 -1.8125 6.421875 -2.25 C 6.753906 -2.695312 6.921875 -3.320312 6.921875 -4.125 L 6.921875 -13.375 C 6.921875 -14.175781 6.753906 -14.796875 6.421875 -15.234375 C 6.085938 -15.679688 5.5625 -15.90625 4.84375 -15.90625 C 4.144531 -15.90625 3.625 -15.679688 3.28125 -15.234375 C 2.945312 -14.796875 2.78125 -14.175781 2.78125 -13.375 Z M 2.78125 -4.125 "/></g></g></g><g fill="#ffffff" fill-opacity="1"><g transform="translate(308.206439, 227.249985)"><g><path d="M 4.78125 -17.671875 C 6.125 -17.671875 7.113281 -17.269531 7.75 -16.46875 C 8.394531 -15.675781 8.71875 -14.613281 8.71875 -13.28125 L 8.71875 -11.703125 L 6.875 -11.703125 L 6.875 -13.375 C 6.875 -14.175781 6.710938 -14.796875 6.390625 -15.234375 C 6.066406 -15.679688 5.546875 -15.90625 4.828125 -15.90625 C 4.128906 -15.90625 3.613281 -15.679688 3.28125 -15.234375 C 2.945312 -14.796875 2.78125 -14.175781 2.78125 -13.375 L 2.78125 -4.125 C 2.78125 -3.320312 2.945312 -2.695312 3.28125 -2.25 C 3.613281 -1.8125 4.128906 -1.59375 4.828125 -1.59375 C 5.546875 -1.59375 6.066406 -1.8125 6.390625 -2.25 C 6.710938 -2.695312 6.875 -3.320312 6.875 -4.125 L 6.875 -6.40625 L 8.71875 -6.40625 L 8.71875 -4.21875 C 8.71875 -2.882812 8.394531 -1.816406 7.75 -1.015625 C 7.113281 -0.222656 6.125 0.171875 4.78125 0.171875 C 3.445312 0.171875 2.457031 -0.222656 1.8125 -1.015625 C 1.164062 -1.816406 0.84375 -2.882812 0.84375 -4.21875 L 0.84375 -13.28125 C 0.84375 -13.945312 0.921875 -14.550781 1.078125 -15.09375 C 1.242188 -15.632812 1.488281 -16.09375 1.8125 -16.46875 C 2.132812 -16.851562 2.539062 -17.148438 3.03125 -17.359375 C 3.53125 -17.566406 4.113281 -17.671875 4.78125 -17.671875 Z M 4.78125 -17.671875 "/></g></g></g><g fill="#ffffff" fill-opacity="1"><g transform="translate(320.954938, 227.249985)"><g><path d="M 3.671875 0 L 3.671875 -15.71875 L 0.453125 -15.71875 L 0.453125 -17.5 L 8.84375 -17.5 L 8.84375 -15.71875 L 5.625 -15.71875 L 5.625 0 Z M 3.671875 0 "/></g></g></g><g fill="#ffffff" fill-opacity="1"><g transform="translate(333.503479, 227.249985)"><g><path d="M 7.453125 0 L 1 0 L 1 -1.296875 L 3.09375 -1.78125 L 3.09375 -16.046875 L 1 -16.546875 L 1 -17.84375 L 7.453125 -17.84375 L 7.453125 -16.546875 L 5.34375 -16.046875 L 5.34375 -1.78125 L 7.453125 -1.296875 Z M 7.453125 0 "/></g></g></g><g fill="#ffffff" fill-opacity="1"><g transform="translate(219.337372, 261.749983)"><g><path d="M 1 -17.5 L 5.34375 -17.5 C 6.726562 -17.5 7.757812 -17.128906 8.4375 -16.390625 C 9.113281 -15.660156 9.453125 -14.585938 9.453125 -13.171875 L 9.453125 -4.328125 C 9.453125 -2.910156 9.113281 -1.832031 8.4375 -1.09375 C 7.757812 -0.363281 6.726562 0 5.34375 0 L 1 0 Z M 3.75 -15 L 3.75 -2.5 L 5.296875 -2.5 C 5.734375 -2.5 6.078125 -2.625 6.328125 -2.875 C 6.578125 -3.125 6.703125 -3.566406 6.703125 -4.203125 L 6.703125 -13.296875 C 6.703125 -13.929688 6.578125 -14.375 6.328125 -14.625 C 6.078125 -14.875 5.734375 -15 5.296875 -15 Z M 3.75 -15 "/></g></g></g><g fill="#ffffff" fill-opacity="1"><g transform="translate(232.785769, 261.749983)"><g><path d="M 1 -17.5 L 3.75 -17.5 L 3.75 0 L 1 0 Z M 1 -17.5 "/></g></g></g><g fill="#ffffff" fill-opacity="1"><g transform="translate(240.785027, 261.749983)"><g><path d="M 0.65625 -13.296875 C 0.65625 -14.710938 0.988281 -15.800781 1.65625 -16.5625 C 2.332031 -17.320312 3.347656 -17.703125 4.703125 -17.703125 C 6.046875 -17.703125 7.054688 -17.320312 7.734375 -16.5625 C 8.410156 -15.800781 8.75 -14.710938 8.75 -13.296875 L 8.75 -12.75 L 6.15625 -12.75 L 6.15625 -13.46875 C 6.15625 -14.101562 6.03125 -14.550781 5.78125 -14.8125 C 5.539062 -15.070312 5.207031 -15.203125 4.78125 -15.203125 C 4.34375 -15.203125 4.003906 -15.070312 3.765625 -14.8125 C 3.523438 -14.550781 3.40625 -14.101562 3.40625 -13.46875 C 3.40625 -12.875 3.535156 -12.347656 3.796875 -11.890625 C 4.066406 -11.429688 4.398438 -10.992188 4.796875 -10.578125 C 5.203125 -10.171875 5.632812 -9.765625 6.09375 -9.359375 C 6.550781 -8.953125 6.976562 -8.503906 7.375 -8.015625 C 7.769531 -7.535156 8.101562 -6.988281 8.375 -6.375 C 8.644531 -5.757812 8.78125 -5.035156 8.78125 -4.203125 C 8.78125 -2.785156 8.429688 -1.695312 7.734375 -0.9375 C 7.046875 -0.175781 6.023438 0.203125 4.671875 0.203125 C 3.328125 0.203125 2.304688 -0.175781 1.609375 -0.9375 C 0.921875 -1.695312 0.578125 -2.785156 0.578125 -4.203125 L 0.578125 -5.28125 L 3.171875 -5.28125 L 3.171875 -4.03125 C 3.171875 -3.394531 3.300781 -2.953125 3.5625 -2.703125 C 3.820312 -2.453125 4.164062 -2.328125 4.59375 -2.328125 C 5.03125 -2.328125 5.378906 -2.453125 5.640625 -2.703125 C 5.898438 -2.953125 6.03125 -3.394531 6.03125 -4.03125 C 6.03125 -4.625 5.894531 -5.148438 5.625 -5.609375 C 5.351562 -6.066406 5.019531 -6.5 4.625 -6.90625 C 4.226562 -7.320312 3.800781 -7.734375 3.34375 -8.140625 C 2.882812 -8.546875 2.453125 -8.988281 2.046875 -9.46875 C 1.648438 -9.957031 1.316406 -10.507812 1.046875 -11.125 C 0.785156 -11.738281 0.65625 -12.460938 0.65625 -13.296875 Z M 0.65625 -13.296875 "/></g></g></g><g fill="#ffffff" fill-opacity="1"><g transform="translate(253.383549, 261.749983)"><g><path d="M 8.96875 -6.53125 L 8.96875 -4.203125 C 8.96875 -2.785156 8.625 -1.695312 7.9375 -0.9375 C 7.25 -0.175781 6.226562 0.203125 4.875 0.203125 C 3.519531 0.203125 2.5 -0.175781 1.8125 -0.9375 C 1.125 -1.695312 0.78125 -2.785156 0.78125 -4.203125 L 0.78125 -13.296875 C 0.78125 -14.710938 1.125 -15.800781 1.8125 -16.5625 C 2.5 -17.320312 3.519531 -17.703125 4.875 -17.703125 C 6.226562 -17.703125 7.25 -17.320312 7.9375 -16.5625 C 8.625 -15.800781 8.96875 -14.710938 8.96875 -13.296875 L 8.96875 -11.59375 L 6.375 -11.59375 L 6.375 -13.46875 C 6.375 -14.101562 6.242188 -14.550781 5.984375 -14.8125 C 5.722656 -15.070312 5.378906 -15.203125 4.953125 -15.203125 C 4.515625 -15.203125 4.164062 -15.070312 3.90625 -14.8125 C 3.65625 -14.550781 3.53125 -14.101562 3.53125 -13.46875 L 3.53125 -4.03125 C 3.53125 -3.394531 3.65625 -2.953125 3.90625 -2.703125 C 4.164062 -2.453125 4.515625 -2.328125 4.953125 -2.328125 C 5.378906 -2.328125 5.722656 -2.453125 5.984375 -2.703125 C 6.242188 -2.953125 6.375 -3.394531 6.375 -4.03125 L 6.375 -6.53125 Z M 8.96875 -6.53125 "/></g></g></g><g fill="#ffffff" fill-opacity="1"><g transform="translate(266.282024, 261.749983)"><g><path d="M 3.625 -17.5 L 3.625 -4 C 3.625 -3.363281 3.753906 -2.921875 4.015625 -2.671875 C 4.273438 -2.421875 4.617188 -2.296875 5.046875 -2.296875 C 5.484375 -2.296875 5.828125 -2.421875 6.078125 -2.671875 C 6.335938 -2.921875 6.46875 -3.363281 6.46875 -4 L 6.46875 -17.5 L 9.078125 -17.5 L 9.078125 -4.171875 C 9.078125 -2.753906 8.726562 -1.664062 8.03125 -0.90625 C 7.34375 -0.15625 6.320312 0.21875 4.96875 0.21875 C 3.625 0.21875 2.601562 -0.15625 1.90625 -0.90625 C 1.21875 -1.664062 0.875 -2.753906 0.875 -4.171875 L 0.875 -17.5 Z M 3.625 -17.5 "/></g></g></g><g fill="#ffffff" fill-opacity="1"><g transform="translate(279.48046, 261.749983)"><g><path d="M 0.65625 -13.296875 C 0.65625 -14.710938 0.988281 -15.800781 1.65625 -16.5625 C 2.332031 -17.320312 3.347656 -17.703125 4.703125 -17.703125 C 6.046875 -17.703125 7.054688 -17.320312 7.734375 -16.5625 C 8.410156 -15.800781 8.75 -14.710938 8.75 -13.296875 L 8.75 -12.75 L 6.15625 -12.75 L 6.15625 -13.46875 C 6.15625 -14.101562 6.03125 -14.550781 5.78125 -14.8125 C 5.539062 -15.070312 5.207031 -15.203125 4.78125 -15.203125 C 4.34375 -15.203125 4.003906 -15.070312 3.765625 -14.8125 C 3.523438 -14.550781 3.40625 -14.101562 3.40625 -13.46875 C 3.40625 -12.875 3.535156 -12.347656 3.796875 -11.890625 C 4.066406 -11.429688 4.398438 -10.992188 4.796875 -10.578125 C 5.203125 -10.171875 5.632812 -9.765625 6.09375 -9.359375 C 6.550781 -8.953125 6.976562 -8.503906 7.375 -8.015625 C 7.769531 -7.535156 8.101562 -6.988281 8.375 -6.375 C 8.644531 -5.757812 8.78125 -5.035156 8.78125 -4.203125 C 8.78125 -2.785156 8.429688 -1.695312 7.734375 -0.9375 C 7.046875 -0.175781 6.023438 0.203125 4.671875 0.203125 C 3.328125 0.203125 2.304688 -0.175781 1.609375 -0.9375 C 0.921875 -1.695312 0.578125 -2.785156 0.578125 -4.203125 L 0.578125 -5.28125 L 3.171875 -5.28125 L 3.171875 -4.03125 C 3.171875 -3.394531 3.300781 -2.953125 3.5625 -2.703125 C 3.820312 -2.453125 4.164062 -2.328125 4.59375 -2.328125 C 5.03125 -2.328125 5.378906 -2.453125 5.640625 -2.703125 C 5.898438 -2.953125 6.03125 -3.394531 6.03125 -4.03125 C 6.03125 -4.625 5.894531 -5.148438 5.625 -5.609375 C 5.351562 -6.066406 5.019531 -6.5 4.625 -6.90625 C 4.226562 -7.320312 3.800781 -7.734375 3.34375 -8.140625 C 2.882812 -8.546875 2.453125 -8.988281 2.046875 -9.46875 C 1.648438 -9.957031 1.316406 -10.507812 1.046875 -11.125 C 0.785156 -11.738281 0.65625 -12.460938 0.65625 -13.296875 Z M 0.65625 -13.296875 "/></g></g></g><g fill="#ffffff" fill-opacity="1"><g transform="translate(292.078986, 261.749983)"><g><path d="M 0.65625 -13.296875 C 0.65625 -14.710938 0.988281 -15.800781 1.65625 -16.5625 C 2.332031 -17.320312 3.347656 -17.703125 4.703125 -17.703125 C 6.046875 -17.703125 7.054688 -17.320312 7.734375 -16.5625 C 8.410156 -15.800781 8.75 -14.710938 8.75 -13.296875 L 8.75 -12.75 L 6.15625 -12.75 L 6.15625 -13.46875 C 6.15625 -14.101562 6.03125 -14.550781 5.78125 -14.8125 C 5.539062 -15.070312 5.207031 -15.203125 4.78125 -15.203125 C 4.34375 -15.203125 4.003906 -15.070312 3.765625 -14.8125 C 3.523438 -14.550781 3.40625 -14.101562 3.40625 -13.46875 C 3.40625 -12.875 3.535156 -12.347656 3.796875 -11.890625 C 4.066406 -11.429688 4.398438 -10.992188 4.796875 -10.578125 C 5.203125 -10.171875 5.632812 -9.765625 6.09375 -9.359375 C 6.550781 -8.953125 6.976562 -8.503906 7.375 -8.015625 C 7.769531 -7.535156 8.101562 -6.988281 8.375 -6.375 C 8.644531 -5.757812 8.78125 -5.035156 8.78125 -4.203125 C 8.78125 -2.785156 8.429688 -1.695312 7.734375 -0.9375 C 7.046875 -0.175781 6.023438 0.203125 4.671875 0.203125 C 3.328125 0.203125 2.304688 -0.175781 1.609375 -0.9375 C 0.921875 -1.695312 0.578125 -2.785156 0.578125 -4.203125 L 0.578125 -5.28125 L 3.171875 -5.28125 L 3.171875 -4.03125 C 3.171875 -3.394531 3.300781 -2.953125 3.5625 -2.703125 C 3.820312 -2.453125 4.164062 -2.328125 4.59375 -2.328125 C 5.03125 -2.328125 5.378906 -2.453125 5.640625 -2.703125 C 5.898438 -2.953125 6.03125 -3.394531 6.03125 -4.03125 C 6.03125 -4.625 5.894531 -5.148438 5.625 -5.609375 C 5.351562 -6.066406 5.019531 -6.5 4.625 -6.90625 C 4.226562 -7.320312 3.800781 -7.734375 3.34375 -8.140625 C 2.882812 -8.546875 2.453125 -8.988281 2.046875 -9.46875 C 1.648438 -9.957031 1.316406 -10.507812 1.046875 -11.125 C 0.785156 -11.738281 0.65625 -12.460938 0.65625 -13.296875 Z M 0.65625 -13.296875 "/></g></g></g><g fill="#ffffff" fill-opacity="1"><g transform="translate(304.677511, 261.749983)"><g><path d="M 1 -17.5 L 3.75 -17.5 L 3.75 0 L 1 0 Z M 1 -17.5 "/></g></g></g><g fill="#ffffff" fill-opacity="1"><g transform="translate(312.676771, 261.749983)"><g><path d="M 3.53125 -4.03125 C 3.53125 -3.394531 3.65625 -2.945312 3.90625 -2.6875 C 4.164062 -2.425781 4.515625 -2.296875 4.953125 -2.296875 C 5.378906 -2.296875 5.722656 -2.425781 5.984375 -2.6875 C 6.242188 -2.945312 6.375 -3.394531 6.375 -4.03125 L 6.375 -13.46875 C 6.375 -14.101562 6.242188 -14.550781 5.984375 -14.8125 C 5.722656 -15.070312 5.378906 -15.203125 4.953125 -15.203125 C 4.515625 -15.203125 4.164062 -15.070312 3.90625 -14.8125 C 3.65625 -14.550781 3.53125 -14.101562 3.53125 -13.46875 Z M 0.78125 -13.296875 C 0.78125 -14.710938 1.132812 -15.800781 1.84375 -16.5625 C 2.5625 -17.320312 3.597656 -17.703125 4.953125 -17.703125 C 6.296875 -17.703125 7.328125 -17.320312 8.046875 -16.5625 C 8.765625 -15.800781 9.125 -14.710938 9.125 -13.296875 L 9.125 -4.203125 C 9.125 -2.785156 8.765625 -1.695312 8.046875 -0.9375 C 7.328125 -0.175781 6.296875 0.203125 4.953125 0.203125 C 3.597656 0.203125 2.5625 -0.175781 1.84375 -0.9375 C 1.132812 -1.695312 0.78125 -2.785156 0.78125 -4.203125 Z M 0.78125 -13.296875 "/></g></g></g></svg>