<svg xmlns="http://www.w3.org/2000/svg" xmlns:xlink="http://www.w3.org/1999/xlink" width="500" zoomAndPan="magnify" viewBox="0 0 375 374.999991" height="500" preserveAspectRatio="xMidYMid meet" version="1.0"><defs><g/><clipPath id="e8b2ce56b5"><path d="M 39.929688 71.773438 L 156 71.773438 L 156 265.273438 L 39.929688 265.273438 Z M 39.929688 71.773438 " clip-rule="nonzero"/></clipPath><clipPath id="665974868b"><path d="M 176.496094 266.75 L 181.828125 266.75 L 181.828125 272.902344 L 176.496094 272.902344 Z M 176.496094 266.75 " clip-rule="nonzero"/></clipPath><clipPath id="c505ef9b12"><path d="M 181.828125 272.902344 L 176.496094 269.828125 L 181.828125 266.75 Z M 181.828125 272.902344 " clip-rule="nonzero"/></clipPath><clipPath id="a1a43211a9"><path d="M 195.605469 245.753906 L 200.933594 245.753906 L 200.933594 251.910156 L 195.605469 251.910156 Z M 195.605469 245.753906 " clip-rule="nonzero"/></clipPath><clipPath id="4a45900654"><path d="M 195.605469 245.753906 L 200.933594 248.832031 L 195.605469 251.910156 Z M 195.605469 245.753906 " clip-rule="nonzero"/></clipPath></defs><g clip-path="url(#e8b2ce56b5)"><path fill="#ffffff" d="M 155.929688 86.269531 C 138.699219 95.667969 127.09375 112.839844 124.796875 132.335938 L 119.953125 173.476562 C 119.964844 173.476562 119.976562 173.472656 119.988281 173.46875 C 125.195312 172.296875 130.363281 175.570312 131.535156 180.773438 C 132.707031 185.980469 129.4375 191.152344 124.230469 192.324219 L 119.15625 193.464844 C 118.585938 192.292969 117.980469 191.132812 117.316406 189.988281 C 107.773438 173.589844 103.066406 154.824219 103.738281 135.863281 L 105.285156 92.128906 C 105.546875 84.652344 102.921875 77.363281 97.953125 71.773438 C 92.984375 77.363281 90.359375 84.652344 90.625 92.128906 L 92.171875 135.863281 C 92.839844 154.824219 88.132812 173.589844 78.589844 189.988281 C 77.925781 191.132812 77.320312 192.292969 76.75 193.464844 L 71.675781 192.324219 C 66.46875 191.152344 63.199219 185.980469 64.371094 180.773438 C 65.542969 175.570312 70.714844 172.296875 75.917969 173.46875 C 75.929688 173.472656 75.941406 173.476562 75.953125 173.476562 L 71.109375 132.335938 C 68.816406 112.839844 57.210938 95.667969 39.976562 86.269531 L 39.976562 226.378906 L 72.269531 226.378906 C 74.527344 238.582031 81.039062 250 91.363281 258.246094 C 94.089844 259.925781 96.351562 262.257812 97.953125 265.03125 C 99.554688 262.257812 101.820312 259.925781 104.542969 258.246094 C 114.871094 250 121.382812 238.582031 123.636719 226.378906 L 155.929688 226.378906 Z M 130.59375 165.53125 L 134.398438 133.425781 C 135.585938 123.417969 139.714844 113.992188 146.269531 106.335938 L 146.269531 178.066406 L 140.816406 178.066406 C 139.453125 172.785156 135.875 168.113281 130.59375 165.53125 Z M 114.863281 216.714844 L 102.785156 216.714844 C 102.785156 211.066406 106.699219 206.171875 112.210938 204.933594 L 113.175781 204.714844 C 114.308594 208.648438 114.863281 212.691406 114.863281 216.714844 Z M 82.730469 204.714844 L 83.695312 204.933594 C 89.207031 206.171875 93.121094 211.066406 93.121094 216.714844 L 81.042969 216.714844 C 81.042969 212.691406 81.601562 208.648438 82.730469 204.714844 Z M 97.953125 168.628906 C 100.476562 177.808594 104.179688 186.621094 108.964844 194.847656 C 109.125 195.121094 109.269531 195.398438 109.421875 195.671875 C 104.785156 196.871094 100.816406 199.511719 97.953125 203.054688 C 95.09375 199.511719 91.121094 196.871094 86.488281 195.671875 C 86.636719 195.398438 86.785156 195.121094 86.941406 194.847656 C 91.730469 186.621094 95.429688 177.808594 97.953125 168.628906 Z M 61.507812 133.425781 L 65.316406 165.53125 C 60.03125 168.113281 56.457031 172.785156 55.089844 178.066406 L 49.640625 178.066406 L 49.640625 106.335938 C 56.191406 113.992188 60.324219 123.417969 61.507812 133.425781 Z M 49.640625 187.726562 L 55.082031 187.726562 C 55.402344 188.964844 55.851562 190.1875 56.433594 191.378906 C 59.007812 196.648438 63.832031 200.464844 69.554688 201.75 L 73.296875 202.59375 C 72.015625 207.238281 71.382812 211.988281 71.386719 216.714844 L 49.640625 216.714844 Z M 82.136719 226.378906 L 93.121094 226.378906 L 93.121094 246.792969 C 87.535156 240.957031 83.84375 233.871094 82.136719 226.378906 Z M 102.785156 246.792969 L 102.785156 226.378906 L 113.769531 226.378906 C 112.0625 233.871094 108.375 240.957031 102.785156 246.792969 Z M 124.519531 216.714844 C 124.523438 211.988281 123.894531 207.238281 122.609375 202.59375 L 126.351562 201.75 C 132.074219 200.464844 136.902344 196.648438 139.476562 191.378906 C 140.058594 190.1875 140.503906 188.964844 140.824219 187.726562 L 146.269531 187.726562 L 146.269531 216.714844 Z M 124.519531 216.714844 " fill-opacity="1" fill-rule="nonzero"/></g><path fill="#ffffff" d="M 189.652344 249.941406 L 182.71875 249.941406 L 182.71875 268.417969 L 189.601562 268.417969 C 194.691406 268.417969 198.878906 264.269531 198.878906 259.140625 C 198.878906 254.085938 194.71875 249.941406 189.652344 249.941406 Z M 189.652344 266.222656 L 184.988281 266.222656 L 184.988281 252.132812 L 189.601562 252.132812 C 193.496094 252.132812 196.660156 255.296875 196.660156 259.140625 C 196.660156 263.035156 193.519531 266.222656 189.652344 266.222656 Z M 189.601562 252.421875 L 185.226562 252.421875 L 185.226562 265.933594 L 189.601562 265.933594 C 193.332031 265.933594 196.371094 262.898438 196.371094 259.140625 C 196.371094 255.449219 193.332031 252.421875 189.601562 252.421875 Z M 189.652344 263.753906 L 187.433594 263.753906 L 187.433594 254.605469 L 189.652344 254.605469 C 192.148438 254.605469 194.152344 256.707031 194.152344 259.140625 C 194.152344 261.6875 192.148438 263.753906 189.652344 263.753906 Z M 189.652344 263.753906 " fill-opacity="1" fill-rule="nonzero"/><path fill="#ffffff" d="M 174.835938 262.578125 C 174.835938 263.65625 175.714844 264.539062 176.804688 264.539062 C 177.886719 264.539062 178.769531 263.65625 178.769531 262.578125 C 178.769531 261.480469 177.886719 260.605469 176.804688 260.605469 C 175.714844 260.605469 174.835938 261.480469 174.835938 262.578125 Z M 178.292969 262.578125 C 178.292969 263.398438 177.628906 264.0625 176.804688 264.0625 C 175.976562 264.0625 175.308594 263.398438 175.308594 262.578125 C 175.308594 261.742188 175.976562 261.078125 176.804688 261.078125 C 177.628906 261.078125 178.292969 261.742188 178.292969 262.578125 Z M 175.363281 262.578125 C 175.363281 263.363281 176.003906 264.003906 176.804688 264.003906 C 177.59375 264.003906 178.230469 263.363281 178.230469 262.578125 C 178.230469 261.773438 177.59375 261.132812 176.804688 261.132812 C 176.003906 261.132812 175.363281 261.773438 175.363281 262.578125 Z M 177.757812 262.578125 C 177.757812 263.097656 177.328125 263.53125 176.804688 263.53125 C 176.277344 263.53125 175.84375 263.097656 175.84375 262.578125 C 175.84375 262.035156 176.277344 261.609375 176.804688 261.609375 C 177.328125 261.609375 177.757812 262.035156 177.757812 262.578125 Z M 177.757812 262.578125 " fill-opacity="1" fill-rule="nonzero"/><path fill="#ffffff" d="M 182.507812 263.046875 L 182.507812 262.566406 L 178.667969 262.566406 L 178.667969 263.046875 Z M 182.507812 262.511719 L 182.507812 262.039062 L 178.667969 262.039062 L 178.667969 262.511719 Z M 182.507812 262.511719 " fill-opacity="1" fill-rule="nonzero"/><path fill="#ffffff" d="M 174.835938 256.609375 C 174.835938 257.6875 175.714844 258.570312 176.804688 258.570312 C 177.886719 258.570312 178.769531 257.6875 178.769531 256.609375 C 178.769531 255.511719 177.886719 254.636719 176.804688 254.636719 C 175.714844 254.636719 174.835938 255.511719 174.835938 256.609375 Z M 178.292969 256.609375 C 178.292969 257.429688 177.628906 258.089844 176.804688 258.089844 C 175.976562 258.089844 175.308594 257.429688 175.308594 256.609375 C 175.308594 255.769531 175.976562 255.109375 176.804688 255.109375 C 177.628906 255.109375 178.292969 255.769531 178.292969 256.609375 Z M 175.363281 256.609375 C 175.363281 257.394531 176.003906 258.035156 176.804688 258.035156 C 177.59375 258.035156 178.230469 257.394531 178.230469 256.609375 C 178.230469 255.804688 177.59375 255.164062 176.804688 255.164062 C 176.003906 255.164062 175.363281 255.804688 175.363281 256.609375 Z M 177.757812 256.609375 C 177.757812 257.128906 177.328125 257.558594 176.804688 257.558594 C 176.277344 257.558594 175.84375 257.128906 175.84375 256.609375 C 175.84375 256.0625 176.277344 255.640625 176.804688 255.640625 C 177.328125 255.640625 177.757812 256.0625 177.757812 256.609375 Z M 177.757812 256.609375 " fill-opacity="1" fill-rule="nonzero"/><path fill="#ffffff" d="M 182.507812 257.078125 L 182.507812 256.597656 L 178.667969 256.597656 L 178.667969 257.078125 Z M 182.507812 256.542969 L 182.507812 256.070312 L 178.667969 256.070312 L 178.667969 256.542969 Z M 182.507812 256.542969 " fill-opacity="1" fill-rule="nonzero"/><path fill="#ffffff" d="M 171.621094 259.675781 C 171.621094 260.753906 172.503906 261.636719 173.59375 261.636719 C 174.675781 261.636719 175.554688 260.753906 175.554688 259.675781 C 175.554688 258.578125 174.675781 257.703125 173.59375 257.703125 C 172.503906 257.703125 171.621094 258.578125 171.621094 259.675781 Z M 175.082031 259.675781 C 175.082031 260.496094 174.414062 261.160156 173.59375 261.160156 C 172.761719 261.160156 172.097656 260.496094 172.097656 259.675781 C 172.097656 258.839844 172.761719 258.175781 173.59375 258.175781 C 174.414062 258.175781 175.082031 258.839844 175.082031 259.675781 Z M 172.152344 259.675781 C 172.152344 260.460938 172.792969 261.101562 173.59375 261.101562 C 174.382812 261.101562 175.019531 260.460938 175.019531 259.675781 C 175.019531 258.871094 174.382812 258.230469 173.59375 258.230469 C 172.792969 258.230469 172.152344 258.871094 172.152344 259.675781 Z M 174.546875 259.675781 C 174.546875 260.195312 174.117188 260.628906 173.59375 260.628906 C 173.0625 260.628906 172.632812 260.195312 172.632812 259.675781 C 172.632812 259.132812 173.0625 258.707031 173.59375 258.707031 C 174.117188 258.707031 174.546875 259.132812 174.546875 259.675781 Z M 174.546875 259.675781 " fill-opacity="1" fill-rule="nonzero"/><path fill="#ffffff" d="M 179.292969 260.144531 L 179.292969 259.664062 L 175.453125 259.664062 L 175.453125 260.144531 Z M 179.292969 259.609375 L 179.292969 259.136719 L 175.453125 259.136719 L 175.453125 259.609375 Z M 179.292969 259.609375 " fill-opacity="1" fill-rule="nonzero"/><path fill="#ffffff" d="M 182.554688 260.144531 L 182.554688 259.664062 L 178.714844 259.664062 L 178.714844 260.144531 Z M 182.554688 259.609375 L 182.554688 259.136719 L 178.714844 259.136719 L 178.714844 259.609375 Z M 182.554688 259.609375 " fill-opacity="1" fill-rule="nonzero"/><path fill="#ffffff" d="M 181.265625 269.171875 L 193.6875 269.171875 L 193.6875 270.484375 L 181.265625 270.484375 Z M 181.265625 269.171875 " fill-opacity="1" fill-rule="nonzero"/><g clip-path="url(#665974868b)"><g clip-path="url(#c505ef9b12)"><path fill="#ffffff" d="M 176.496094 266.75 L 181.828125 266.75 L 181.828125 272.902344 L 176.496094 272.902344 Z M 176.496094 266.75 " fill-opacity="1" fill-rule="nonzero"/></g></g><g clip-path="url(#a1a43211a9)"><g clip-path="url(#4a45900654)"><path fill="#ffffff" d="M 195.605469 245.753906 L 200.933594 245.753906 L 200.933594 251.910156 L 195.605469 251.910156 Z M 195.605469 245.753906 " fill-opacity="1" fill-rule="nonzero"/></g></g><path fill="#ffffff" d="M 183.707031 248.160156 L 196.128906 248.160156 L 196.128906 249.472656 L 183.707031 249.472656 Z M 183.707031 248.160156 " fill-opacity="1" fill-rule="nonzero"/><path fill="#ffffff" d="M 196.847656 248.53125 L 198.417969 248.53125 L 198.417969 248.902344 L 196.847656 248.902344 Z M 196.847656 248.53125 " fill-opacity="1" fill-rule="nonzero"/><path fill="#ffffff" d="M 181.367188 270.117188 L 180.253906 270.117188 L 180.253906 271.207031 L 179.875 271.207031 L 179.875 270.117188 L 178.761719 270.117188 L 178.761719 269.765625 L 179.875 269.765625 L 179.875 268.667969 L 180.253906 268.667969 L 180.253906 269.765625 L 181.367188 269.765625 Z M 181.367188 270.117188 " fill-opacity="1" fill-rule="nonzero"/><g fill="#ffffff" fill-opacity="1"><g transform="translate(83.9839, 297.226081)"><g><path d="M 3.40625 -11.5625 C 4.351562 -11.5625 5.035156 -11.335938 5.453125 -10.890625 C 5.878906 -10.453125 6.09375 -9.789062 6.09375 -8.90625 L 6.09375 -8.484375 C 6.09375 -7.890625 6 -7.398438 5.8125 -7.015625 C 5.625 -6.628906 5.328125 -6.34375 4.921875 -6.15625 C 5.421875 -5.96875 5.769531 -5.660156 5.96875 -5.234375 C 6.175781 -4.816406 6.28125 -4.300781 6.28125 -3.6875 L 6.28125 -2.734375 C 6.28125 -1.847656 6.046875 -1.171875 5.578125 -0.703125 C 5.117188 -0.234375 4.429688 0 3.515625 0 L 0.65625 0 L 0.65625 -11.5625 Z M 2.484375 -5.203125 L 2.484375 -1.65625 L 3.515625 -1.65625 C 3.828125 -1.65625 4.0625 -1.734375 4.21875 -1.890625 C 4.375 -2.054688 4.453125 -2.359375 4.453125 -2.796875 L 4.453125 -3.796875 C 4.453125 -4.335938 4.363281 -4.707031 4.1875 -4.90625 C 4.007812 -5.101562 3.707031 -5.203125 3.28125 -5.203125 Z M 2.484375 -9.90625 L 2.484375 -6.859375 L 3.1875 -6.859375 C 3.53125 -6.859375 3.796875 -6.941406 3.984375 -7.109375 C 4.179688 -7.285156 4.28125 -7.609375 4.28125 -8.078125 L 4.28125 -8.71875 C 4.28125 -9.132812 4.203125 -9.4375 4.046875 -9.625 C 3.898438 -9.8125 3.671875 -9.90625 3.359375 -9.90625 Z M 2.484375 -9.90625 "/></g></g></g><g fill="#ffffff" fill-opacity="1"><g transform="translate(92.830503, 297.226081)"><g><path d="M 5.890625 0 L 0.53125 0 L 0.53125 -1.421875 L 1.96875 -2.078125 L 1.96875 -9.71875 L 0.53125 -10.375 L 0.53125 -11.796875 L 5.890625 -11.796875 L 5.890625 -10.375 L 4.453125 -9.71875 L 4.453125 -2.078125 L 5.890625 -1.421875 Z M 5.890625 0 "/></g></g></g><g fill="#ffffff" fill-opacity="1"><g transform="translate(101.396571, 297.226081)"><g><path d="M 5.90625 1.546875 L 5.90625 0 L 2.03125 0 L 2.03125 1.546875 L 0.265625 1.546875 L 0.265625 -1.625 L 0.96875 -1.625 C 1.125 -1.820312 1.234375 -2.035156 1.296875 -2.265625 C 1.359375 -2.492188 1.398438 -2.78125 1.421875 -3.125 L 1.828125 -11.5625 L 6.921875 -11.5625 L 6.921875 -1.625 L 7.71875 -1.625 L 7.71875 1.546875 Z M 3.203125 -3.15625 C 3.179688 -2.71875 3.128906 -2.382812 3.046875 -2.15625 C 2.960938 -1.9375 2.84375 -1.757812 2.6875 -1.625 L 5.078125 -1.625 L 5.078125 -9.90625 L 3.53125 -9.90625 Z M 3.203125 -3.15625 "/></g></g></g><g fill="#ffffff" fill-opacity="1"><g transform="translate(111.596345, 297.226081)"><g/></g></g><g fill="#ffffff" fill-opacity="1"><g transform="translate(116.30093, 297.226081)"><g><path d="M 3.34375 -11.5625 C 4.25 -11.5625 4.925781 -11.316406 5.375 -10.828125 C 5.820312 -10.347656 6.046875 -9.640625 6.046875 -8.703125 L 6.046875 -7.203125 C 6.046875 -6.265625 5.820312 -5.550781 5.375 -5.0625 C 4.925781 -4.582031 4.25 -4.34375 3.34375 -4.34375 L 2.484375 -4.34375 L 2.484375 0 L 0.65625 0 L 0.65625 -11.5625 Z M 2.484375 -9.90625 L 2.484375 -6 L 3.34375 -6 C 3.625 -6 3.84375 -6.070312 4 -6.21875 C 4.15625 -6.375 4.234375 -6.660156 4.234375 -7.078125 L 4.234375 -8.8125 C 4.234375 -9.238281 4.15625 -9.523438 4 -9.671875 C 3.84375 -9.828125 3.625 -9.90625 3.34375 -9.90625 Z M 2.484375 -9.90625 "/></g></g></g><g fill="#ffffff" fill-opacity="1"><g transform="translate(124.668975, 297.226081)"><g><path d="M 2.328125 -2.65625 C 2.328125 -2.238281 2.410156 -1.941406 2.578125 -1.765625 C 2.753906 -1.597656 2.984375 -1.515625 3.265625 -1.515625 C 3.554688 -1.515625 3.785156 -1.597656 3.953125 -1.765625 C 4.128906 -1.941406 4.21875 -2.238281 4.21875 -2.65625 L 4.21875 -8.90625 C 4.21875 -9.320312 4.128906 -9.613281 3.953125 -9.78125 C 3.785156 -9.957031 3.554688 -10.046875 3.265625 -10.046875 C 2.984375 -10.046875 2.753906 -9.957031 2.578125 -9.78125 C 2.410156 -9.613281 2.328125 -9.320312 2.328125 -8.90625 Z M 0.515625 -8.78125 C 0.515625 -9.71875 0.75 -10.4375 1.21875 -10.9375 C 1.695312 -11.4375 2.378906 -11.6875 3.265625 -11.6875 C 4.160156 -11.6875 4.84375 -11.4375 5.3125 -10.9375 C 5.789062 -10.4375 6.03125 -9.71875 6.03125 -8.78125 L 6.03125 -2.78125 C 6.03125 -1.84375 5.789062 -1.125 5.3125 -0.625 C 4.84375 -0.125 4.160156 0.125 3.265625 0.125 C 2.378906 0.125 1.695312 -0.125 1.21875 -0.625 C 0.75 -1.125 0.515625 -1.84375 0.515625 -2.78125 Z M 0.515625 -8.78125 "/></g></g></g><g fill="#ffffff" fill-opacity="1"><g transform="translate(133.350554, 297.226081)"><g><path d="M 4.15625 -8.71875 C 4.15625 -9.238281 4.070312 -9.585938 3.90625 -9.765625 C 3.738281 -9.953125 3.507812 -10.046875 3.21875 -10.046875 C 2.9375 -10.046875 2.707031 -9.957031 2.53125 -9.78125 C 2.351562 -9.613281 2.265625 -9.320312 2.265625 -8.90625 L 2.265625 -7.953125 L 0.59375 -7.953125 L 0.59375 -8.8125 C 0.59375 -9.75 0.816406 -10.460938 1.265625 -10.953125 C 1.710938 -11.441406 2.378906 -11.6875 3.265625 -11.6875 C 4.160156 -11.6875 4.835938 -11.4375 5.296875 -10.9375 C 5.753906 -10.4375 5.984375 -9.71875 5.984375 -8.78125 L 5.984375 -8.484375 C 5.984375 -7.253906 5.554688 -6.460938 4.703125 -6.109375 C 5.171875 -5.910156 5.5 -5.601562 5.6875 -5.1875 C 5.882812 -4.78125 5.984375 -4.28125 5.984375 -3.6875 L 5.984375 -2.78125 C 5.984375 -1.84375 5.753906 -1.125 5.296875 -0.625 C 4.835938 -0.125 4.160156 0.125 3.265625 0.125 C 2.378906 0.125 1.707031 -0.125 1.25 -0.625 C 0.789062 -1.125 0.5625 -1.84375 0.5625 -2.78125 L 0.5625 -4.046875 L 2.28125 -4.046875 L 2.28125 -2.65625 C 2.28125 -2.238281 2.363281 -1.941406 2.53125 -1.765625 C 2.707031 -1.597656 2.9375 -1.515625 3.21875 -1.515625 C 3.507812 -1.515625 3.738281 -1.601562 3.90625 -1.78125 C 4.070312 -1.957031 4.15625 -2.304688 4.15625 -2.828125 L 4.15625 -3.734375 C 4.15625 -4.273438 4.0625 -4.65625 3.875 -4.875 C 3.6875 -5.09375 3.382812 -5.203125 2.96875 -5.203125 L 2.53125 -5.203125 L 2.53125 -6.859375 L 3.078125 -6.859375 C 3.410156 -6.859375 3.671875 -6.941406 3.859375 -7.109375 C 4.054688 -7.285156 4.15625 -7.609375 4.15625 -8.078125 Z M 4.15625 -8.71875 "/></g></g></g><g fill="#ffffff" fill-opacity="1"><g transform="translate(142.032133, 297.226081)"><g><path d="M 3.34375 -11.5625 C 4.25 -11.5625 4.925781 -11.316406 5.375 -10.828125 C 5.820312 -10.347656 6.046875 -9.640625 6.046875 -8.703125 L 6.046875 -7.203125 C 6.046875 -6.265625 5.820312 -5.550781 5.375 -5.0625 C 4.925781 -4.582031 4.25 -4.34375 3.34375 -4.34375 L 2.484375 -4.34375 L 2.484375 0 L 0.65625 0 L 0.65625 -11.5625 Z M 2.484375 -9.90625 L 2.484375 -6 L 3.34375 -6 C 3.625 -6 3.84375 -6.070312 4 -6.21875 C 4.15625 -6.375 4.234375 -6.660156 4.234375 -7.078125 L 4.234375 -8.8125 C 4.234375 -9.238281 4.15625 -9.523438 4 -9.671875 C 3.84375 -9.828125 3.625 -9.90625 3.34375 -9.90625 Z M 2.484375 -9.90625 "/></g></g></g><g fill="#ffffff" fill-opacity="1"><g transform="translate(150.400177, 297.226081)"><g><path d="M 2.328125 -2.65625 C 2.328125 -2.238281 2.410156 -1.941406 2.578125 -1.765625 C 2.753906 -1.597656 2.984375 -1.515625 3.265625 -1.515625 C 3.554688 -1.515625 3.785156 -1.597656 3.953125 -1.765625 C 4.128906 -1.941406 4.21875 -2.238281 4.21875 -2.65625 L 4.21875 -8.90625 C 4.21875 -9.320312 4.128906 -9.613281 3.953125 -9.78125 C 3.785156 -9.957031 3.554688 -10.046875 3.265625 -10.046875 C 2.984375 -10.046875 2.753906 -9.957031 2.578125 -9.78125 C 2.410156 -9.613281 2.328125 -9.320312 2.328125 -8.90625 Z M 0.515625 -8.78125 C 0.515625 -9.71875 0.75 -10.4375 1.21875 -10.9375 C 1.695312 -11.4375 2.378906 -11.6875 3.265625 -11.6875 C 4.160156 -11.6875 4.84375 -11.4375 5.3125 -10.9375 C 5.789062 -10.4375 6.03125 -9.71875 6.03125 -8.78125 L 6.03125 -2.78125 C 6.03125 -1.84375 5.789062 -1.125 5.3125 -0.625 C 4.84375 -0.125 4.160156 0.125 3.265625 0.125 C 2.378906 0.125 1.695312 -0.125 1.21875 -0.625 C 0.75 -1.125 0.515625 -1.84375 0.515625 -2.78125 Z M 0.515625 -8.78125 "/></g></g></g><g fill="#ffffff" fill-opacity="1"><g transform="translate(159.081756, 297.226081)"><g><path d="M 0.671875 0 L 0.671875 -11.5625 L 5.765625 -11.5625 L 5.765625 -9.90625 L 2.5 -9.90625 L 2.5 -6.953125 L 3.546875 -6.953125 C 4.460938 -6.953125 5.148438 -6.707031 5.609375 -6.21875 C 6.066406 -5.738281 6.296875 -5.03125 6.296875 -4.09375 L 6.296875 -2.859375 C 6.296875 -1.921875 6.066406 -1.207031 5.609375 -0.71875 C 5.148438 -0.238281 4.460938 0 3.546875 0 Z M 3.546875 -1.65625 C 3.835938 -1.65625 4.0625 -1.726562 4.21875 -1.875 C 4.382812 -2.03125 4.46875 -2.316406 4.46875 -2.734375 L 4.46875 -4.21875 C 4.46875 -4.632812 4.382812 -4.914062 4.21875 -5.0625 C 4.0625 -5.21875 3.835938 -5.296875 3.546875 -5.296875 L 2.5 -5.296875 L 2.5 -1.65625 Z M 3.546875 -1.65625 "/></g></g></g><g fill="#ffffff" fill-opacity="1"><g transform="translate(168.076879, 297.226081)"><g><path d="M 2.484375 0 L 0.65625 0 L 0.65625 -11.5625 L 2.484375 -11.5625 L 2.484375 -6.609375 L 4.546875 -6.609375 L 4.546875 -11.5625 L 6.390625 -11.5625 L 6.390625 0 L 4.546875 0 L 4.546875 -4.953125 L 2.484375 -4.953125 Z M 2.484375 0 "/></g></g></g><g fill="#ffffff" fill-opacity="1"><g transform="translate(177.270024, 297.226081)"><g><path d="M 2.53125 0 L 0.65625 0 L 0.65625 -11.5625 L 2.28125 -11.5625 L 2.28125 -4.25 L 2.9375 -6.78125 L 4.421875 -11.5625 L 6.421875 -11.5625 L 6.421875 0 L 4.796875 0 L 4.796875 -8.140625 L 4.046875 -5.296875 Z M 2.53125 0 "/></g></g></g><g fill="#ffffff" fill-opacity="1"><g transform="translate(186.46317, 297.226081)"><g><path d="M 3.03125 -4.609375 L 2.484375 -3.546875 L 2.484375 0 L 0.65625 0 L 0.65625 -11.5625 L 2.484375 -11.5625 L 2.484375 -6.53125 L 4.859375 -11.5625 L 6.671875 -11.5625 L 4.140625 -6.40625 L 6.671875 0 L 4.8125 0 Z M 3.03125 -4.609375 "/></g></g></g><g fill="#ffffff" fill-opacity="1"><g transform="translate(195.441785, 297.226081)"><g><path d="M 5.890625 0 L 0.53125 0 L 0.53125 -1.421875 L 1.96875 -2.078125 L 1.96875 -9.71875 L 0.53125 -10.375 L 0.53125 -11.796875 L 5.890625 -11.796875 L 5.890625 -10.375 L 4.453125 -9.71875 L 4.453125 -2.078125 L 5.890625 -1.421875 Z M 5.890625 0 "/></g></g></g><g fill="#ffffff" fill-opacity="1"><g transform="translate(204.007853, 297.226081)"><g><path d="M 3.40625 -11.5625 C 4.351562 -11.5625 5.035156 -11.335938 5.453125 -10.890625 C 5.878906 -10.453125 6.09375 -9.789062 6.09375 -8.90625 L 6.09375 -8.484375 C 6.09375 -7.890625 6 -7.398438 5.8125 -7.015625 C 5.625 -6.628906 5.328125 -6.34375 4.921875 -6.15625 C 5.421875 -5.96875 5.769531 -5.660156 5.96875 -5.234375 C 6.175781 -4.816406 6.28125 -4.300781 6.28125 -3.6875 L 6.28125 -2.734375 C 6.28125 -1.847656 6.046875 -1.171875 5.578125 -0.703125 C 5.117188 -0.234375 4.429688 0 3.515625 0 L 0.65625 0 L 0.65625 -11.5625 Z M 2.484375 -5.203125 L 2.484375 -1.65625 L 3.515625 -1.65625 C 3.828125 -1.65625 4.0625 -1.734375 4.21875 -1.890625 C 4.375 -2.054688 4.453125 -2.359375 4.453125 -2.796875 L 4.453125 -3.796875 C 4.453125 -4.335938 4.363281 -4.707031 4.1875 -4.90625 C 4.007812 -5.101562 3.707031 -5.203125 3.28125 -5.203125 Z M 2.484375 -9.90625 L 2.484375 -6.859375 L 3.1875 -6.859375 C 3.53125 -6.859375 3.796875 -6.941406 3.984375 -7.109375 C 4.179688 -7.285156 4.28125 -7.609375 4.28125 -8.078125 L 4.28125 -8.71875 C 4.28125 -9.132812 4.203125 -9.4375 4.046875 -9.625 C 3.898438 -9.8125 3.671875 -9.90625 3.359375 -9.90625 Z M 2.484375 -9.90625 "/></g></g></g><g fill="#ffffff" fill-opacity="1"><g transform="translate(212.854456, 297.226081)"><g/></g></g><g fill="#ffffff" fill-opacity="1"><g transform="translate(217.559041, 297.226081)"><g><path d="M 0.65625 -11.5625 L 3.53125 -11.5625 C 4.445312 -11.5625 5.128906 -11.316406 5.578125 -10.828125 C 6.023438 -10.347656 6.25 -9.640625 6.25 -8.703125 L 6.25 -2.859375 C 6.25 -1.921875 6.023438 -1.207031 5.578125 -0.71875 C 5.128906 -0.238281 4.445312 0 3.53125 0 L 0.65625 0 Z M 2.484375 -9.90625 L 2.484375 -1.65625 L 3.5 -1.65625 C 3.789062 -1.65625 4.015625 -1.734375 4.171875 -1.890625 C 4.335938 -2.054688 4.421875 -2.351562 4.421875 -2.78125 L 4.421875 -8.78125 C 4.421875 -9.195312 4.335938 -9.488281 4.171875 -9.65625 C 4.015625 -9.820312 3.789062 -9.90625 3.5 -9.90625 Z M 2.484375 -9.90625 "/></g></g></g><g fill="#ffffff" fill-opacity="1"><g transform="translate(226.438643, 297.226081)"><g><path d="M 0.65625 -11.5625 L 2.484375 -11.5625 L 2.484375 0 L 0.65625 0 Z M 0.65625 -11.5625 "/></g></g></g><g fill="#ffffff" fill-opacity="1"><g transform="translate(231.720793, 297.226081)"><g><path d="M 0.421875 -8.78125 C 0.421875 -9.71875 0.644531 -10.4375 1.09375 -10.9375 C 1.539062 -11.4375 2.210938 -11.6875 3.109375 -11.6875 C 3.992188 -11.6875 4.660156 -11.4375 5.109375 -10.9375 C 5.554688 -10.4375 5.78125 -9.71875 5.78125 -8.78125 L 5.78125 -8.421875 L 4.0625 -8.421875 L 4.0625 -8.90625 C 4.0625 -9.320312 3.976562 -9.613281 3.8125 -9.78125 C 3.65625 -9.957031 3.4375 -10.046875 3.15625 -10.046875 C 2.863281 -10.046875 2.640625 -9.957031 2.484375 -9.78125 C 2.328125 -9.613281 2.25 -9.320312 2.25 -8.90625 C 2.25 -8.507812 2.335938 -8.160156 2.515625 -7.859375 C 2.691406 -7.554688 2.910156 -7.269531 3.171875 -7 C 3.429688 -6.726562 3.710938 -6.457031 4.015625 -6.1875 C 4.316406 -5.914062 4.597656 -5.617188 4.859375 -5.296875 C 5.128906 -4.984375 5.351562 -4.617188 5.53125 -4.203125 C 5.707031 -3.796875 5.796875 -3.320312 5.796875 -2.78125 C 5.796875 -1.84375 5.566406 -1.125 5.109375 -0.625 C 4.648438 -0.125 3.976562 0.125 3.09375 0.125 C 2.195312 0.125 1.519531 -0.125 1.0625 -0.625 C 0.601562 -1.125 0.375 -1.84375 0.375 -2.78125 L 0.375 -3.484375 L 2.09375 -3.484375 L 2.09375 -2.65625 C 2.09375 -2.238281 2.175781 -1.945312 2.34375 -1.78125 C 2.519531 -1.613281 2.75 -1.53125 3.03125 -1.53125 C 3.320312 -1.53125 3.550781 -1.613281 3.71875 -1.78125 C 3.894531 -1.945312 3.984375 -2.238281 3.984375 -2.65625 C 3.984375 -3.050781 3.894531 -3.398438 3.71875 -3.703125 C 3.539062 -4.003906 3.316406 -4.289062 3.046875 -4.5625 C 2.785156 -4.832031 2.503906 -5.101562 2.203125 -5.375 C 1.898438 -5.644531 1.613281 -5.9375 1.34375 -6.25 C 1.082031 -6.570312 0.863281 -6.9375 0.6875 -7.34375 C 0.507812 -7.75 0.421875 -8.226562 0.421875 -8.78125 Z M 0.421875 -8.78125 "/></g></g></g><g fill="#ffffff" fill-opacity="1"><g transform="translate(240.039324, 297.226081)"><g><path d="M 5.921875 -4.3125 L 5.921875 -2.78125 C 5.921875 -1.84375 5.691406 -1.125 5.234375 -0.625 C 4.785156 -0.125 4.113281 0.125 3.21875 0.125 C 2.320312 0.125 1.644531 -0.125 1.1875 -0.625 C 0.738281 -1.125 0.515625 -1.84375 0.515625 -2.78125 L 0.515625 -8.78125 C 0.515625 -9.71875 0.738281 -10.4375 1.1875 -10.9375 C 1.644531 -11.4375 2.320312 -11.6875 3.21875 -11.6875 C 4.113281 -11.6875 4.785156 -11.4375 5.234375 -10.9375 C 5.691406 -10.4375 5.921875 -9.71875 5.921875 -8.78125 L 5.921875 -7.65625 L 4.21875 -7.65625 L 4.21875 -8.90625 C 4.21875 -9.320312 4.128906 -9.613281 3.953125 -9.78125 C 3.785156 -9.957031 3.554688 -10.046875 3.265625 -10.046875 C 2.984375 -10.046875 2.753906 -9.957031 2.578125 -9.78125 C 2.410156 -9.613281 2.328125 -9.320312 2.328125 -8.90625 L 2.328125 -2.65625 C 2.328125 -2.238281 2.410156 -1.945312 2.578125 -1.78125 C 2.753906 -1.613281 2.984375 -1.53125 3.265625 -1.53125 C 3.554688 -1.53125 3.785156 -1.613281 3.953125 -1.78125 C 4.128906 -1.945312 4.21875 -2.238281 4.21875 -2.65625 L 4.21875 -4.3125 Z M 5.921875 -4.3125 "/></g></g></g><g fill="#ffffff" fill-opacity="1"><g transform="translate(248.555879, 297.226081)"><g><path d="M 2.390625 -11.5625 L 2.390625 -2.640625 C 2.390625 -2.222656 2.472656 -1.929688 2.640625 -1.765625 C 2.816406 -1.597656 3.050781 -1.515625 3.34375 -1.515625 C 3.625 -1.515625 3.847656 -1.597656 4.015625 -1.765625 C 4.191406 -1.929688 4.28125 -2.222656 4.28125 -2.640625 L 4.28125 -11.5625 L 6 -11.5625 L 6 -2.765625 C 6 -1.828125 5.769531 -1.101562 5.3125 -0.59375 C 4.851562 -0.09375 4.175781 0.15625 3.28125 0.15625 C 2.394531 0.15625 1.722656 -0.09375 1.265625 -0.59375 C 0.804688 -1.101562 0.578125 -1.828125 0.578125 -2.765625 L 0.578125 -11.5625 Z M 2.390625 -11.5625 "/></g></g></g><g fill="#ffffff" fill-opacity="1"><g transform="translate(257.270466, 297.226081)"><g><path d="M 0.421875 -8.78125 C 0.421875 -9.71875 0.644531 -10.4375 1.09375 -10.9375 C 1.539062 -11.4375 2.210938 -11.6875 3.109375 -11.6875 C 3.992188 -11.6875 4.660156 -11.4375 5.109375 -10.9375 C 5.554688 -10.4375 5.78125 -9.71875 5.78125 -8.78125 L 5.78125 -8.421875 L 4.0625 -8.421875 L 4.0625 -8.90625 C 4.0625 -9.320312 3.976562 -9.613281 3.8125 -9.78125 C 3.65625 -9.957031 3.4375 -10.046875 3.15625 -10.046875 C 2.863281 -10.046875 2.640625 -9.957031 2.484375 -9.78125 C 2.328125 -9.613281 2.25 -9.320312 2.25 -8.90625 C 2.25 -8.507812 2.335938 -8.160156 2.515625 -7.859375 C 2.691406 -7.554688 2.910156 -7.269531 3.171875 -7 C 3.429688 -6.726562 3.710938 -6.457031 4.015625 -6.1875 C 4.316406 -5.914062 4.597656 -5.617188 4.859375 -5.296875 C 5.128906 -4.984375 5.351562 -4.617188 5.53125 -4.203125 C 5.707031 -3.796875 5.796875 -3.320312 5.796875 -2.78125 C 5.796875 -1.84375 5.566406 -1.125 5.109375 -0.625 C 4.648438 -0.125 3.976562 0.125 3.09375 0.125 C 2.195312 0.125 1.519531 -0.125 1.0625 -0.625 C 0.601562 -1.125 0.375 -1.84375 0.375 -2.78125 L 0.375 -3.484375 L 2.09375 -3.484375 L 2.09375 -2.65625 C 2.09375 -2.238281 2.175781 -1.945312 2.34375 -1.78125 C 2.519531 -1.613281 2.75 -1.53125 3.03125 -1.53125 C 3.320312 -1.53125 3.550781 -1.613281 3.71875 -1.78125 C 3.894531 -1.945312 3.984375 -2.238281 3.984375 -2.65625 C 3.984375 -3.050781 3.894531 -3.398438 3.71875 -3.703125 C 3.539062 -4.003906 3.316406 -4.289062 3.046875 -4.5625 C 2.785156 -4.832031 2.503906 -5.101562 2.203125 -5.375 C 1.898438 -5.644531 1.613281 -5.9375 1.34375 -6.25 C 1.082031 -6.570312 0.863281 -6.9375 0.6875 -7.34375 C 0.507812 -7.75 0.421875 -8.226562 0.421875 -8.78125 Z M 0.421875 -8.78125 "/></g></g></g><g fill="#ffffff" fill-opacity="1"><g transform="translate(265.588988, 297.226081)"><g><path d="M 0.421875 -8.78125 C 0.421875 -9.71875 0.644531 -10.4375 1.09375 -10.9375 C 1.539062 -11.4375 2.210938 -11.6875 3.109375 -11.6875 C 3.992188 -11.6875 4.660156 -11.4375 5.109375 -10.9375 C 5.554688 -10.4375 5.78125 -9.71875 5.78125 -8.78125 L 5.78125 -8.421875 L 4.0625 -8.421875 L 4.0625 -8.90625 C 4.0625 -9.320312 3.976562 -9.613281 3.8125 -9.78125 C 3.65625 -9.957031 3.4375 -10.046875 3.15625 -10.046875 C 2.863281 -10.046875 2.640625 -9.957031 2.484375 -9.78125 C 2.328125 -9.613281 2.25 -9.320312 2.25 -8.90625 C 2.25 -8.507812 2.335938 -8.160156 2.515625 -7.859375 C 2.691406 -7.554688 2.910156 -7.269531 3.171875 -7 C 3.429688 -6.726562 3.710938 -6.457031 4.015625 -6.1875 C 4.316406 -5.914062 4.597656 -5.617188 4.859375 -5.296875 C 5.128906 -4.984375 5.351562 -4.617188 5.53125 -4.203125 C 5.707031 -3.796875 5.796875 -3.320312 5.796875 -2.78125 C 5.796875 -1.84375 5.566406 -1.125 5.109375 -0.625 C 4.648438 -0.125 3.976562 0.125 3.09375 0.125 C 2.195312 0.125 1.519531 -0.125 1.0625 -0.625 C 0.601562 -1.125 0.375 -1.84375 0.375 -2.78125 L 0.375 -3.484375 L 2.09375 -3.484375 L 2.09375 -2.65625 C 2.09375 -2.238281 2.175781 -1.945312 2.34375 -1.78125 C 2.519531 -1.613281 2.75 -1.53125 3.03125 -1.53125 C 3.320312 -1.53125 3.550781 -1.613281 3.71875 -1.78125 C 3.894531 -1.945312 3.984375 -2.238281 3.984375 -2.65625 C 3.984375 -3.050781 3.894531 -3.398438 3.71875 -3.703125 C 3.539062 -4.003906 3.316406 -4.289062 3.046875 -4.5625 C 2.785156 -4.832031 2.503906 -5.101562 2.203125 -5.375 C 1.898438 -5.644531 1.613281 -5.9375 1.34375 -6.25 C 1.082031 -6.570312 0.863281 -6.9375 0.6875 -7.34375 C 0.507812 -7.75 0.421875 -8.226562 0.421875 -8.78125 Z M 0.421875 -8.78125 "/></g></g></g><g fill="#ffffff" fill-opacity="1"><g transform="translate(273.90753, 297.226081)"><g><path d="M 0.65625 -11.5625 L 2.484375 -11.5625 L 2.484375 0 L 0.65625 0 Z M 0.65625 -11.5625 "/></g></g></g><g fill="#ffffff" fill-opacity="1"><g transform="translate(279.18968, 297.226081)"><g><path d="M 2.328125 -2.65625 C 2.328125 -2.238281 2.410156 -1.941406 2.578125 -1.765625 C 2.753906 -1.597656 2.984375 -1.515625 3.265625 -1.515625 C 3.554688 -1.515625 3.785156 -1.597656 3.953125 -1.765625 C 4.128906 -1.941406 4.21875 -2.238281 4.21875 -2.65625 L 4.21875 -8.90625 C 4.21875 -9.320312 4.128906 -9.613281 3.953125 -9.78125 C 3.785156 -9.957031 3.554688 -10.046875 3.265625 -10.046875 C 2.984375 -10.046875 2.753906 -9.957031 2.578125 -9.78125 C 2.410156 -9.613281 2.328125 -9.320312 2.328125 -8.90625 Z M 0.515625 -8.78125 C 0.515625 -9.71875 0.75 -10.4375 1.21875 -10.9375 C 1.695312 -11.4375 2.378906 -11.6875 3.265625 -11.6875 C 4.160156 -11.6875 4.84375 -11.4375 5.3125 -10.9375 C 5.789062 -10.4375 6.03125 -9.71875 6.03125 -8.78125 L 6.03125 -2.78125 C 6.03125 -1.84375 5.789062 -1.125 5.3125 -0.625 C 4.84375 -0.125 4.160156 0.125 3.265625 0.125 C 2.378906 0.125 1.695312 -0.125 1.21875 -0.625 C 0.75 -1.125 0.515625 -1.84375 0.515625 -2.78125 Z M 0.515625 -8.78125 "/></g></g></g><g fill="#ffffff" fill-opacity="1"><g transform="translate(187.499992, 121.613956)"><g><path d="M 4.8125 -17.84375 C 6.175781 -17.84375 7.179688 -17.4375 7.828125 -16.625 C 8.484375 -15.820312 8.8125 -14.75 8.8125 -13.40625 L 8.8125 -11.8125 L 6.9375 -11.8125 L 6.9375 -13.5 C 6.9375 -14.3125 6.769531 -14.9375 6.4375 -15.375 C 6.113281 -15.820312 5.59375 -16.046875 4.875 -16.046875 C 4.164062 -16.046875 3.640625 -15.820312 3.296875 -15.375 C 2.960938 -14.9375 2.796875 -14.3125 2.796875 -13.5 L 2.796875 -4.15625 C 2.796875 -3.351562 2.960938 -2.726562 3.296875 -2.28125 C 3.640625 -1.832031 4.164062 -1.609375 4.875 -1.609375 C 5.59375 -1.609375 6.113281 -1.832031 6.4375 -2.28125 C 6.769531 -2.726562 6.9375 -3.351562 6.9375 -4.15625 L 6.9375 -6.453125 L 8.8125 -6.453125 L 8.8125 -4.265625 C 8.8125 -2.921875 8.484375 -1.84375 7.828125 -1.03125 C 7.179688 -0.226562 6.175781 0.171875 4.8125 0.171875 C 3.46875 0.171875 2.472656 -0.226562 1.828125 -1.03125 C 1.179688 -1.84375 0.859375 -2.921875 0.859375 -4.265625 L 0.859375 -13.40625 C 0.859375 -14.070312 0.9375 -14.675781 1.09375 -15.21875 C 1.257812 -15.769531 1.503906 -16.238281 1.828125 -16.625 C 2.160156 -17.007812 2.570312 -17.304688 3.0625 -17.515625 C 3.5625 -17.734375 4.144531 -17.84375 4.8125 -17.84375 Z M 4.8125 -17.84375 "/></g></g></g><g fill="#ffffff" fill-opacity="1"><g transform="translate(200.364461, 121.613956)"><g><path d="M 2.984375 -15.875 L 2.984375 0 L 1.015625 0 L 1.015625 -17.671875 L 9.28125 -17.671875 L 9.28125 0 L 7.3125 0 L 7.3125 -15.875 Z M 2.984375 -15.875 "/></g></g></g><g fill="#ffffff" fill-opacity="1"><g transform="translate(213.935078, 121.613956)"><g><path d="M 7.515625 0 L 1.015625 0 L 1.015625 -1.3125 L 3.125 -1.796875 L 3.125 -16.203125 L 1.015625 -16.703125 L 1.015625 -18.015625 L 7.515625 -18.015625 L 7.515625 -16.703125 L 5.40625 -16.203125 L 5.40625 -1.796875 L 7.515625 -1.3125 Z M 7.515625 0 "/></g></g></g><g fill="#ffffff" fill-opacity="1"><g transform="translate(225.76555, 121.613956)"><g><path d="M 4.765625 -15.875 L 4.359375 -4.390625 C 4.328125 -3.679688 4.253906 -3.054688 4.140625 -2.515625 C 4.023438 -1.984375 3.832031 -1.523438 3.5625 -1.140625 C 3.289062 -0.765625 2.929688 -0.472656 2.484375 -0.265625 C 2.035156 -0.0664062 1.476562 0.03125 0.8125 0.03125 L 0.484375 0.03125 L 0.484375 -1.765625 C 0.878906 -1.765625 1.203125 -1.8125 1.453125 -1.90625 C 1.710938 -2.007812 1.910156 -2.164062 2.046875 -2.375 C 2.191406 -2.59375 2.289062 -2.859375 2.34375 -3.171875 C 2.394531 -3.492188 2.429688 -3.867188 2.453125 -4.296875 L 2.921875 -17.671875 L 10.125 -17.671875 L 10.125 0 L 8.15625 0 L 8.15625 -15.875 Z M 4.765625 -15.875 "/></g></g></g><g fill="#ffffff" fill-opacity="1"><g transform="translate(240.244071, 121.613956)"><g><path d="M 4.71875 -10.703125 C 6.132812 -10.703125 7.171875 -10.34375 7.828125 -9.625 C 8.492188 -8.90625 8.828125 -7.84375 8.828125 -6.4375 L 8.828125 -4.3125 C 8.828125 -2.96875 8.507812 -1.910156 7.875 -1.140625 C 7.25 -0.378906 6.25 0 4.875 0 L 1.015625 0 L 1.015625 -17.671875 L 2.984375 -17.671875 L 2.984375 -10.703125 Z M 4.875 -1.796875 C 5.59375 -1.796875 6.109375 -1.992188 6.421875 -2.390625 C 6.734375 -2.796875 6.890625 -3.40625 6.890625 -4.21875 L 6.890625 -6.5625 C 6.890625 -7.414062 6.710938 -8.023438 6.359375 -8.390625 C 6.003906 -8.753906 5.457031 -8.9375 4.71875 -8.9375 L 2.984375 -8.9375 L 2.984375 -1.796875 Z M 4.875 -1.796875 "/></g></g></g><g fill="#ffffff" fill-opacity="1"><g transform="translate(253.133754, 121.613956)"><g><path d="M 2.984375 -7.953125 L 2.984375 0 L 1.015625 0 L 1.015625 -17.671875 L 2.984375 -17.671875 L 2.984375 -9.71875 L 7.3125 -9.71875 L 7.3125 -17.671875 L 9.28125 -17.671875 L 9.28125 0 L 7.3125 0 L 7.3125 -7.953125 Z M 2.984375 -7.953125 "/></g></g></g><g fill="#ffffff" fill-opacity="1"><g transform="translate(266.704369, 121.613956)"><g><path d="M 0.859375 -13.40625 C 0.859375 -14.757812 1.1875 -15.835938 1.84375 -16.640625 C 2.507812 -17.441406 3.523438 -17.84375 4.890625 -17.84375 C 6.253906 -17.84375 7.269531 -17.441406 7.9375 -16.640625 C 8.613281 -15.835938 8.953125 -14.757812 8.953125 -13.40625 L 8.953125 -4.265625 C 8.953125 -2.921875 8.613281 -1.84375 7.9375 -1.03125 C 7.269531 -0.226562 6.253906 0.171875 4.890625 0.171875 C 3.523438 0.171875 2.507812 -0.226562 1.84375 -1.03125 C 1.1875 -1.84375 0.859375 -2.921875 0.859375 -4.265625 Z M 2.796875 -4.15625 C 2.796875 -3.351562 2.96875 -2.726562 3.3125 -2.28125 C 3.65625 -1.832031 4.179688 -1.609375 4.890625 -1.609375 C 5.617188 -1.609375 6.148438 -1.832031 6.484375 -2.28125 C 6.816406 -2.726562 6.984375 -3.351562 6.984375 -4.15625 L 6.984375 -13.5 C 6.984375 -14.3125 6.816406 -14.9375 6.484375 -15.375 C 6.148438 -15.820312 5.617188 -16.046875 4.890625 -16.046875 C 4.179688 -16.046875 3.65625 -15.820312 3.3125 -15.375 C 2.96875 -14.9375 2.796875 -14.3125 2.796875 -13.5 Z M 2.796875 -4.15625 "/></g></g></g><g fill="#ffffff" fill-opacity="1"><g transform="translate(279.795809, 121.613956)"><g><path d="M 3.703125 0 L 3.703125 -15.875 L 0.453125 -15.875 L 0.453125 -17.671875 L 8.9375 -17.671875 L 8.9375 -15.875 L 5.671875 -15.875 L 5.671875 0 Z M 3.703125 0 "/></g></g></g><g fill="#ffffff" fill-opacity="1"><g transform="translate(292.458519, 121.613956)"><g><path d="M 3 -3.5625 L 2.328125 0 L 0.5 0 L 3.890625 -17.671875 L 6.734375 -17.671875 L 10.125 0 L 8.15625 0 L 7.46875 -3.5625 Z M 3.25 -5.25 L 7.1875 -5.25 L 5.203125 -15.4375 Z M 3.25 -5.25 "/></g></g></g><g fill="#ffffff" fill-opacity="1"><g transform="translate(187.499992, 155.933377)"><g><path d="M 7.515625 0 L 1.015625 0 L 1.015625 -1.3125 L 3.125 -1.796875 L 3.125 -16.203125 L 1.015625 -16.703125 L 1.015625 -18.015625 L 7.515625 -18.015625 L 7.515625 -16.703125 L 5.40625 -16.203125 L 5.40625 -1.796875 L 7.515625 -1.3125 Z M 7.515625 0 "/></g></g></g><g fill="#ffffff" fill-opacity="1"><g transform="translate(199.330461, 155.933377)"><g><path d="M 2.984375 -7.953125 L 2.984375 0 L 1.015625 0 L 1.015625 -17.671875 L 2.984375 -17.671875 L 2.984375 -9.71875 L 7.3125 -9.71875 L 7.3125 -17.671875 L 9.28125 -17.671875 L 9.28125 0 L 7.3125 0 L 7.3125 -7.953125 Z M 2.984375 -7.953125 "/></g></g></g><g fill="#ffffff" fill-opacity="1"><g transform="translate(212.901079, 155.933377)"><g><path d="M 9.640625 -8.328125 L 8.703125 -6.65625 L 8.703125 0 L 6.765625 0 L 6.765625 -6.65625 L 5.859375 -8.359375 L 2.46875 0 L 0.453125 0 L 4.484375 -10.171875 L 0.5625 -17.671875 L 2.53125 -17.671875 L 6.765625 -9.53125 L 6.765625 -17.671875 L 8.703125 -17.671875 L 8.703125 -9.53125 L 12.96875 -17.671875 L 14.9375 -17.671875 L 11.03125 -10.21875 L 15.046875 0 L 13.015625 0 Z M 9.640625 -8.328125 "/></g></g></g><g fill="#ffffff" fill-opacity="1"><g transform="translate(231.641713, 155.933377)"><g><path d="M 7.296875 -9.84375 L 7.296875 -8.078125 L 2.984375 -8.078125 L 2.984375 -1.796875 L 8.28125 -1.796875 L 8.28125 0 L 1.015625 0 L 1.015625 -17.671875 L 8.28125 -17.671875 L 8.28125 -15.875 L 2.984375 -15.875 L 2.984375 -9.84375 Z M 7.296875 -9.84375 "/></g></g></g><g fill="#ffffff" fill-opacity="1"><g transform="translate(244.001788, 155.933377)"><g><path d="M 2.984375 -7.953125 L 2.984375 0 L 1.015625 0 L 1.015625 -17.671875 L 2.984375 -17.671875 L 2.984375 -9.71875 L 7.3125 -9.71875 L 7.3125 -17.671875 L 9.28125 -17.671875 L 9.28125 0 L 7.3125 0 L 7.3125 -7.953125 Z M 2.984375 -7.953125 "/></g></g></g><g fill="#ffffff" fill-opacity="1"><g transform="translate(257.572404, 155.933377)"><g><path d="M 7.296875 -9.84375 L 7.296875 -8.078125 L 2.984375 -8.078125 L 2.984375 -1.796875 L 8.28125 -1.796875 L 8.28125 0 L 1.015625 0 L 1.015625 -17.671875 L 8.28125 -17.671875 L 8.28125 -15.875 L 2.984375 -15.875 L 2.984375 -9.84375 Z M 7.296875 -9.84375 "/></g></g></g><g fill="#ffffff" fill-opacity="1"><g transform="translate(269.932478, 155.933377)"><g><path d="M 4.875 -17.671875 C 6.269531 -17.671875 7.273438 -17.285156 7.890625 -16.515625 C 8.515625 -15.753906 8.828125 -14.695312 8.828125 -13.34375 L 8.828125 -11.234375 C 8.828125 -9.816406 8.492188 -8.75 7.828125 -8.03125 C 7.171875 -7.320312 6.132812 -6.96875 4.71875 -6.96875 L 2.984375 -6.96875 L 2.984375 0 L 1.015625 0 L 1.015625 -17.671875 Z M 4.71875 -8.734375 C 5.457031 -8.734375 6.003906 -8.910156 6.359375 -9.265625 C 6.710938 -9.628906 6.890625 -10.242188 6.890625 -11.109375 L 6.890625 -13.453125 C 6.890625 -14.253906 6.734375 -14.859375 6.421875 -15.265625 C 6.109375 -15.671875 5.59375 -15.875 4.875 -15.875 L 2.984375 -15.875 L 2.984375 -8.734375 Z M 4.71875 -8.734375 "/></g></g></g><g fill="#ffffff" fill-opacity="1"><g transform="translate(282.569973, 155.933377)"><g><path d="M 7.515625 0 L 1.015625 0 L 1.015625 -1.3125 L 3.125 -1.796875 L 3.125 -16.203125 L 1.015625 -16.703125 L 1.015625 -18.015625 L 7.515625 -18.015625 L 7.515625 -16.703125 L 5.40625 -16.203125 L 5.40625 -1.796875 L 7.515625 -1.3125 Z M 7.515625 0 "/></g></g></g><g fill="#ffffff" fill-opacity="1"><g transform="translate(294.40044, 155.933377)"><g><path d="M 4.96875 -17.671875 C 6.351562 -17.671875 7.335938 -17.34375 7.921875 -16.6875 C 8.515625 -16.039062 8.8125 -15.0625 8.8125 -13.75 L 8.8125 -12.921875 C 8.8125 -11.972656 8.65625 -11.207031 8.34375 -10.625 C 8.039062 -10.050781 7.503906 -9.644531 6.734375 -9.40625 C 7.597656 -9.175781 8.207031 -8.734375 8.5625 -8.078125 C 8.925781 -7.421875 9.109375 -6.601562 9.109375 -5.625 L 9.109375 -4.140625 C 9.109375 -2.804688 8.78125 -1.78125 8.125 -1.0625 C 7.46875 -0.351562 6.453125 0 5.078125 0 L 1.015625 0 L 1.015625 -17.671875 Z M 4.484375 -10.171875 C 5.273438 -10.171875 5.867188 -10.328125 6.265625 -10.640625 C 6.660156 -10.960938 6.859375 -11.585938 6.859375 -12.515625 L 6.859375 -13.546875 C 6.859375 -14.335938 6.710938 -14.921875 6.421875 -15.296875 C 6.128906 -15.679688 5.628906 -15.875 4.921875 -15.875 L 2.984375 -15.875 L 2.984375 -10.171875 Z M 5.078125 -1.796875 C 6.472656 -1.796875 7.171875 -2.59375 7.171875 -4.1875 L 7.171875 -5.75 C 7.171875 -6.75 6.972656 -7.4375 6.578125 -7.8125 C 6.179688 -8.1875 5.550781 -8.375 4.6875 -8.375 L 2.984375 -8.375 L 2.984375 -1.796875 Z M 5.078125 -1.796875 "/></g></g></g><g fill="#ffffff" fill-opacity="1"><g transform="translate(187.499992, 190.252798)"><g><path d="M 5.046875 -10.375 C 6.421875 -10.375 7.457031 -10.039062 8.15625 -9.375 C 8.851562 -8.707031 9.203125 -7.660156 9.203125 -6.234375 L 9.203125 -4.296875 C 9.203125 -2.910156 8.875 -1.847656 8.21875 -1.109375 C 7.570312 -0.367188 6.546875 0 5.140625 0 L 1.03125 0 L 1.03125 -17.671875 L 8.484375 -17.671875 L 8.484375 -15.875 L 2.984375 -15.875 L 2.984375 -10.375 Z M 5.140625 -1.796875 C 5.867188 -1.796875 6.398438 -1.984375 6.734375 -2.359375 C 7.078125 -2.734375 7.25 -3.332031 7.25 -4.15625 L 7.25 -6.359375 C 7.25 -7.210938 7.0625 -7.800781 6.6875 -8.125 C 6.3125 -8.445312 5.765625 -8.609375 5.046875 -8.609375 L 2.984375 -8.609375 L 2.984375 -1.796875 Z M 5.140625 -1.796875 "/></g></g></g><g fill="#ffffff" fill-opacity="1"><g transform="translate(200.894069, 190.252798)"><g><path d="M 6.3125 -3.890625 C 6.15625 -3.234375 5.972656 -2.648438 5.765625 -2.140625 C 5.554688 -1.640625 5.273438 -1.21875 4.921875 -0.875 C 4.566406 -0.539062 4.125 -0.296875 3.59375 -0.140625 C 3.0625 0.00390625 2.394531 0.0625 1.59375 0.03125 L 1.59375 -1.734375 C 2.34375 -1.703125 2.90625 -1.816406 3.28125 -2.078125 C 3.664062 -2.335938 3.941406 -2.804688 4.109375 -3.484375 L 4.515625 -4.640625 L 0.453125 -17.671875 L 2.421875 -17.671875 L 4.21875 -11.53125 L 5.421875 -7.09375 L 6.453125 -11.53125 L 8.046875 -17.671875 L 10.09375 -17.671875 Z M 6.3125 -3.890625 "/></g></g></g><g fill="#ffffff" fill-opacity="1"><g transform="translate(214.691659, 190.252798)"><g><path d="M 9.71875 2.421875 L 9.71875 0 L 2.5 0 L 2.5 2.421875 L 0.609375 2.421875 L 0.609375 -1.734375 L 1.734375 -1.734375 C 2.046875 -2.078125 2.242188 -2.457031 2.328125 -2.875 C 2.421875 -3.289062 2.488281 -3.769531 2.53125 -4.3125 L 3.203125 -17.671875 L 10.296875 -17.671875 L 10.296875 -1.734375 L 11.640625 -1.734375 L 11.640625 2.421875 Z M 4.4375 -4.34375 C 4.40625 -3.695312 4.332031 -3.171875 4.21875 -2.765625 C 4.113281 -2.367188 3.921875 -2.023438 3.640625 -1.734375 L 8.296875 -1.734375 L 8.296875 -15.875 L 5.015625 -15.875 Z M 4.4375 -4.34375 "/></g></g></g><g fill="#ffffff" fill-opacity="1"><g transform="translate(230.305063, 190.252798)"><g><path d="M 7.515625 0 L 1.015625 0 L 1.015625 -1.3125 L 3.125 -1.796875 L 3.125 -16.203125 L 1.015625 -16.703125 L 1.015625 -18.015625 L 7.515625 -18.015625 L 7.515625 -16.703125 L 5.40625 -16.203125 L 5.40625 -1.796875 L 7.515625 -1.3125 Z M 7.515625 0 "/></g></g></g><g fill="#ffffff" fill-opacity="1"><g transform="translate(242.13553, 190.252798)"><g><path d="M 4.96875 -17.671875 C 6.351562 -17.671875 7.335938 -17.34375 7.921875 -16.6875 C 8.515625 -16.039062 8.8125 -15.0625 8.8125 -13.75 L 8.8125 -12.921875 C 8.8125 -11.972656 8.65625 -11.207031 8.34375 -10.625 C 8.039062 -10.050781 7.503906 -9.644531 6.734375 -9.40625 C 7.597656 -9.175781 8.207031 -8.734375 8.5625 -8.078125 C 8.925781 -7.421875 9.109375 -6.601562 9.109375 -5.625 L 9.109375 -4.140625 C 9.109375 -2.804688 8.78125 -1.78125 8.125 -1.0625 C 7.46875 -0.351562 6.453125 0 5.078125 0 L 1.015625 0 L 1.015625 -17.671875 Z M 4.484375 -10.171875 C 5.273438 -10.171875 5.867188 -10.328125 6.265625 -10.640625 C 6.660156 -10.960938 6.859375 -11.585938 6.859375 -12.515625 L 6.859375 -13.546875 C 6.859375 -14.335938 6.710938 -14.921875 6.421875 -15.296875 C 6.128906 -15.679688 5.628906 -15.875 4.921875 -15.875 L 2.984375 -15.875 L 2.984375 -10.171875 Z M 5.078125 -1.796875 C 6.472656 -1.796875 7.171875 -2.59375 7.171875 -4.1875 L 7.171875 -5.75 C 7.171875 -6.75 6.972656 -7.4375 6.578125 -7.8125 C 6.179688 -8.1875 5.550781 -8.375 4.6875 -8.375 L 2.984375 -8.375 L 2.984375 -1.796875 Z M 5.078125 -1.796875 "/></g></g></g><g fill="#ffffff" fill-opacity="1"><g transform="translate(255.302632, 190.252798)"><g><path d="M 7.296875 -9.84375 L 7.296875 -8.078125 L 2.984375 -8.078125 L 2.984375 -1.796875 L 8.28125 -1.796875 L 8.28125 0 L 1.015625 0 L 1.015625 -17.671875 L 8.28125 -17.671875 L 8.28125 -15.875 L 2.984375 -15.875 L 2.984375 -9.84375 Z M 7.296875 -9.84375 "/></g></g></g><g fill="#ffffff" fill-opacity="1"><g transform="translate(267.662706, 190.252798)"><g><path d="M 4.765625 -15.875 L 4.359375 -4.390625 C 4.328125 -3.679688 4.253906 -3.054688 4.140625 -2.515625 C 4.023438 -1.984375 3.832031 -1.523438 3.5625 -1.140625 C 3.289062 -0.765625 2.929688 -0.472656 2.484375 -0.265625 C 2.035156 -0.0664062 1.476562 0.03125 0.8125 0.03125 L 0.484375 0.03125 L 0.484375 -1.765625 C 0.878906 -1.765625 1.203125 -1.8125 1.453125 -1.90625 C 1.710938 -2.007812 1.910156 -2.164062 2.046875 -2.375 C 2.191406 -2.59375 2.289062 -2.859375 2.34375 -3.171875 C 2.394531 -3.492188 2.429688 -3.867188 2.453125 -4.296875 L 2.921875 -17.671875 L 10.125 -17.671875 L 10.125 0 L 8.15625 0 L 8.15625 -15.875 Z M 4.765625 -15.875 "/></g></g></g><g fill="#ffffff" fill-opacity="1"><g transform="translate(282.141228, 190.252798)"><g><path d="M 4.71875 -10.703125 C 6.132812 -10.703125 7.171875 -10.34375 7.828125 -9.625 C 8.492188 -8.90625 8.828125 -7.84375 8.828125 -6.4375 L 8.828125 -4.3125 C 8.828125 -2.96875 8.507812 -1.910156 7.875 -1.140625 C 7.25 -0.378906 6.25 0 4.875 0 L 1.015625 0 L 1.015625 -17.671875 L 2.984375 -17.671875 L 2.984375 -10.703125 Z M 4.875 -1.796875 C 5.59375 -1.796875 6.109375 -1.992188 6.421875 -2.390625 C 6.734375 -2.796875 6.890625 -3.40625 6.890625 -4.21875 L 6.890625 -6.5625 C 6.890625 -7.414062 6.710938 -8.023438 6.359375 -8.390625 C 6.003906 -8.753906 5.457031 -8.9375 4.71875 -8.9375 L 2.984375 -8.9375 L 2.984375 -1.796875 Z M 4.875 -1.796875 "/></g></g></g><g fill="#ffffff" fill-opacity="1"><g transform="translate(295.03091, 190.252798)"><g><path d="M 2.984375 -7.953125 L 2.984375 0 L 1.015625 0 L 1.015625 -17.671875 L 2.984375 -17.671875 L 2.984375 -9.71875 L 7.3125 -9.71875 L 7.3125 -17.671875 L 9.28125 -17.671875 L 9.28125 0 L 7.3125 0 L 7.3125 -7.953125 Z M 2.984375 -7.953125 "/></g></g></g><g fill="#ffffff" fill-opacity="1"><g transform="translate(308.601526, 190.252798)"><g><path d="M 5.671875 -8.203125 L 3.046875 0 L 1.015625 0 L 1.015625 -17.671875 L 2.75 -17.671875 L 2.75 -4.484375 L 4.5625 -10.0625 L 7.140625 -17.671875 L 9.34375 -17.671875 L 9.34375 0 L 7.578125 0 L 7.578125 -14.0625 Z M 5.671875 -8.203125 "/></g></g></g><g fill="#ffffff" fill-opacity="1"><g transform="translate(322.197365, 190.252798)"><g><path d="M 4.015625 -7.671875 L 2.984375 -5.9375 L 2.984375 0 L 1.015625 0 L 1.015625 -17.671875 L 2.984375 -17.671875 L 2.984375 -9.140625 L 7.671875 -17.671875 L 9.671875 -17.671875 L 5.203125 -9.609375 L 9.8125 0 L 7.796875 0 Z M 4.015625 -7.671875 "/></g></g></g><g fill="#ffffff" fill-opacity="1"><g transform="translate(335.793197, 190.252798)"><g><path d="M 7.515625 0 L 1.015625 0 L 1.015625 -1.3125 L 3.125 -1.796875 L 3.125 -16.203125 L 1.015625 -16.703125 L 1.015625 -18.015625 L 7.515625 -18.015625 L 7.515625 -16.703125 L 5.40625 -16.203125 L 5.40625 -1.796875 L 7.515625 -1.3125 Z M 7.515625 0 "/></g></g></g><g fill="#ffffff" fill-opacity="1"><g transform="translate(347.623664, 190.252798)"><g><path d="M 4.96875 -17.671875 C 6.351562 -17.671875 7.335938 -17.34375 7.921875 -16.6875 C 8.515625 -16.039062 8.8125 -15.0625 8.8125 -13.75 L 8.8125 -12.921875 C 8.8125 -11.972656 8.65625 -11.207031 8.34375 -10.625 C 8.039062 -10.050781 7.503906 -9.644531 6.734375 -9.40625 C 7.597656 -9.175781 8.207031 -8.734375 8.5625 -8.078125 C 8.925781 -7.421875 9.109375 -6.601562 9.109375 -5.625 L 9.109375 -4.140625 C 9.109375 -2.804688 8.78125 -1.78125 8.125 -1.0625 C 7.46875 -0.351562 6.453125 0 5.078125 0 L 1.015625 0 L 1.015625 -17.671875 Z M 4.484375 -10.171875 C 5.273438 -10.171875 5.867188 -10.328125 6.265625 -10.640625 C 6.660156 -10.960938 6.859375 -11.585938 6.859375 -12.515625 L 6.859375 -13.546875 C 6.859375 -14.335938 6.710938 -14.921875 6.421875 -15.296875 C 6.128906 -15.679688 5.628906 -15.875 4.921875 -15.875 L 2.984375 -15.875 L 2.984375 -10.171875 Z M 5.078125 -1.796875 C 6.472656 -1.796875 7.171875 -2.59375 7.171875 -4.1875 L 7.171875 -5.75 C 7.171875 -6.75 6.972656 -7.4375 6.578125 -7.8125 C 6.179688 -8.1875 5.550781 -8.375 4.6875 -8.375 L 2.984375 -8.375 L 2.984375 -1.796875 Z M 5.078125 -1.796875 "/></g></g></g><g fill="#ffffff" fill-opacity="1"><g transform="translate(187.499992, 224.572219)"><g><path d="M 6.3125 -3.890625 C 6.15625 -3.234375 5.972656 -2.648438 5.765625 -2.140625 C 5.554688 -1.640625 5.273438 -1.21875 4.921875 -0.875 C 4.566406 -0.539062 4.125 -0.296875 3.59375 -0.140625 C 3.0625 0.00390625 2.394531 0.0625 1.59375 0.03125 L 1.59375 -1.734375 C 2.34375 -1.703125 2.90625 -1.816406 3.28125 -2.078125 C 3.664062 -2.335938 3.941406 -2.804688 4.109375 -3.484375 L 4.515625 -4.640625 L 0.453125 -17.671875 L 2.421875 -17.671875 L 4.21875 -11.53125 L 5.421875 -7.09375 L 6.453125 -11.53125 L 8.046875 -17.671875 L 10.09375 -17.671875 Z M 6.3125 -3.890625 "/></g></g></g><g fill="#ffffff" fill-opacity="1"><g transform="translate(201.297582, 224.572219)"><g><path d="M 4.015625 -7.671875 L 2.984375 -5.9375 L 2.984375 0 L 1.015625 0 L 1.015625 -17.671875 L 2.984375 -17.671875 L 2.984375 -9.140625 L 7.671875 -17.671875 L 9.671875 -17.671875 L 5.203125 -9.609375 L 9.8125 0 L 7.796875 0 Z M 4.015625 -7.671875 "/></g></g></g><g fill="#ffffff" fill-opacity="1"><g transform="translate(214.893416, 224.572219)"><g><path d="M 4.875 -17.671875 C 6.269531 -17.671875 7.273438 -17.285156 7.890625 -16.515625 C 8.515625 -15.753906 8.828125 -14.695312 8.828125 -13.34375 L 8.828125 -11.234375 C 8.828125 -9.816406 8.492188 -8.75 7.828125 -8.03125 C 7.171875 -7.320312 6.132812 -6.96875 4.71875 -6.96875 L 2.984375 -6.96875 L 2.984375 0 L 1.015625 0 L 1.015625 -17.671875 Z M 4.71875 -8.734375 C 5.457031 -8.734375 6.003906 -8.910156 6.359375 -9.265625 C 6.710938 -9.628906 6.890625 -10.242188 6.890625 -11.109375 L 6.890625 -13.453125 C 6.890625 -14.253906 6.734375 -14.859375 6.421875 -15.265625 C 6.109375 -15.671875 5.59375 -15.875 4.875 -15.875 L 2.984375 -15.875 L 2.984375 -8.734375 Z M 4.71875 -8.734375 "/></g></g></g><g fill="#ffffff" fill-opacity="1"><g transform="translate(227.530914, 224.572219)"><g><path d="M 3 -3.5625 L 2.328125 0 L 0.5 0 L 3.890625 -17.671875 L 6.734375 -17.671875 L 10.125 0 L 8.15625 0 L 7.46875 -3.5625 Z M 3.25 -5.25 L 7.1875 -5.25 L 5.203125 -15.4375 Z M 3.25 -5.25 "/></g></g></g><g fill="#ffffff" fill-opacity="1"><g transform="translate(241.454612, 224.572219)"><g><path d="M 7.515625 0 L 1.015625 0 L 1.015625 -1.3125 L 3.125 -1.796875 L 3.125 -16.203125 L 1.015625 -16.703125 L 1.015625 -18.015625 L 7.515625 -18.015625 L 7.515625 -16.703125 L 5.40625 -16.203125 L 5.40625 -1.796875 L 7.515625 -1.3125 Z M 0.734375 -21.671875 C 0.734375 -22.109375 0.84375 -22.421875 1.0625 -22.609375 C 1.289062 -22.804688 1.578125 -22.90625 1.921875 -22.90625 C 2.234375 -22.90625 2.503906 -22.804688 2.734375 -22.609375 C 2.972656 -22.421875 3.09375 -22.109375 3.09375 -21.671875 C 3.09375 -21.242188 2.972656 -20.925781 2.734375 -20.71875 C 2.503906 -20.507812 2.234375 -20.40625 1.921875 -20.40625 C 1.578125 -20.40625 1.289062 -20.507812 1.0625 -20.71875 C 0.84375 -20.925781 0.734375 -21.242188 0.734375 -21.671875 Z M 5.46875 -21.671875 C 5.46875 -22.109375 5.582031 -22.421875 5.8125 -22.609375 C 6.039062 -22.804688 6.316406 -22.90625 6.640625 -22.90625 C 6.953125 -22.90625 7.222656 -22.804688 7.453125 -22.609375 C 7.691406 -22.421875 7.8125 -22.109375 7.8125 -21.671875 C 7.8125 -21.242188 7.691406 -20.925781 7.453125 -20.71875 C 7.222656 -20.507812 6.953125 -20.40625 6.640625 -20.40625 C 6.316406 -20.40625 6.039062 -20.507812 5.8125 -20.71875 C 5.582031 -20.925781 5.46875 -21.242188 5.46875 -21.671875 Z M 5.46875 -21.671875 "/></g></g></g><g fill="#ffffff" fill-opacity="1"><g transform="translate(253.28508, 224.572219)"><g><path d="M 2.984375 -7.953125 L 2.984375 0 L 1.015625 0 L 1.015625 -17.671875 L 2.984375 -17.671875 L 2.984375 -9.71875 L 7.3125 -9.71875 L 7.3125 -17.671875 L 9.28125 -17.671875 L 9.28125 0 L 7.3125 0 L 7.3125 -7.953125 Z M 2.984375 -7.953125 "/></g></g></g><g fill="#ffffff" fill-opacity="1"><g transform="translate(266.855695, 224.572219)"><g><path d="M 5.671875 -8.203125 L 3.046875 0 L 1.015625 0 L 1.015625 -17.671875 L 2.75 -17.671875 L 2.75 -4.484375 L 4.5625 -10.0625 L 7.140625 -17.671875 L 9.34375 -17.671875 L 9.34375 0 L 7.578125 0 L 7.578125 -14.0625 Z M 5.671875 -8.203125 "/></g></g></g></svg>