<svg xmlns="http://www.w3.org/2000/svg" xmlns:xlink="http://www.w3.org/1999/xlink" width="500" zoomAndPan="magnify" viewBox="0 0 375 374.999991" height="500" preserveAspectRatio="xMidYMid meet" version="1.0"><defs><g/><clipPath id="4f0f950149"><path d="M 60.871094 230.359375 L 91.632812 230.359375 L 91.632812 265.882812 L 60.871094 265.882812 Z M 60.871094 230.359375 " clip-rule="nonzero"/></clipPath><clipPath id="c997b54eb6"><path d="M 91.632812 265.882812 L 60.871094 248.121094 L 91.632812 230.359375 Z M 91.632812 265.882812 " clip-rule="nonzero"/></clipPath><clipPath id="244aa75ccd"><path d="M 171.175781 109.15625 L 201.9375 109.15625 L 201.9375 144.679688 L 171.175781 144.679688 Z M 171.175781 109.15625 " clip-rule="nonzero"/></clipPath><clipPath id="bb2bb959ed"><path d="M 171.175781 109.15625 L 201.9375 126.917969 L 171.175781 144.679688 Z M 171.175781 109.15625 " clip-rule="nonzero"/></clipPath></defs><path fill="#ffffff" d="M 136.804688 133.316406 L 96.785156 133.316406 L 96.785156 239.984375 L 136.511719 239.984375 C 165.910156 239.984375 190.0625 216.042969 190.0625 186.429688 C 190.0625 157.253906 166.054688 133.316406 136.804688 133.316406 Z M 136.804688 227.324219 L 109.882812 227.324219 L 109.882812 145.976562 L 136.511719 145.976562 C 158.996094 145.976562 177.257812 164.238281 177.257812 186.429688 C 177.257812 208.914062 159.140625 227.324219 136.804688 227.324219 Z M 136.511719 147.648438 L 111.265625 147.648438 L 111.265625 225.648438 L 136.511719 225.648438 C 158.050781 225.648438 175.585938 208.113281 175.585938 186.429688 C 175.585938 165.113281 158.050781 147.648438 136.511719 147.648438 Z M 136.804688 213.0625 L 123.996094 213.0625 L 123.996094 160.238281 L 136.804688 160.238281 C 151.210938 160.238281 162.78125 172.386719 162.78125 186.429688 C 162.78125 201.128906 151.210938 213.0625 136.804688 213.0625 Z M 136.804688 213.0625 " fill-opacity="1" fill-rule="nonzero"/><path fill="#ffffff" d="M 51.269531 206.269531 C 51.269531 212.503906 56.355469 217.59375 62.652344 217.59375 C 68.890625 217.59375 73.976562 212.503906 73.976562 206.269531 C 73.976562 199.941406 68.890625 194.882812 62.652344 194.882812 C 56.355469 194.882812 51.269531 199.941406 51.269531 206.269531 Z M 71.246094 206.269531 C 71.246094 211.007812 67.394531 214.828125 62.652344 214.828125 C 57.851562 214.828125 54.003906 211.007812 54.003906 206.269531 C 54.003906 201.433594 57.851562 197.617188 62.652344 197.617188 C 67.394531 197.617188 71.246094 201.433594 71.246094 206.269531 Z M 54.316406 206.269531 C 54.316406 210.8125 58.019531 214.511719 62.652344 214.511719 C 67.199219 214.511719 70.882812 210.8125 70.882812 206.269531 C 70.882812 201.632812 67.199219 197.933594 62.652344 197.933594 C 58.019531 197.933594 54.316406 201.632812 54.316406 206.269531 Z M 68.152344 206.269531 C 68.152344 209.273438 65.660156 211.761719 62.652344 211.761719 C 59.585938 211.761719 57.097656 209.273438 57.097656 206.269531 C 57.097656 203.125 59.585938 200.679688 62.652344 200.679688 C 65.660156 200.679688 68.152344 203.125 68.152344 206.269531 Z M 68.152344 206.269531 " fill-opacity="1" fill-rule="nonzero"/><path fill="#ffffff" d="M 95.558594 208.972656 L 95.558594 206.207031 L 73.390625 206.207031 L 73.390625 208.972656 Z M 95.558594 205.890625 L 95.558594 203.15625 L 73.390625 203.15625 L 73.390625 205.890625 Z M 95.558594 205.890625 " fill-opacity="1" fill-rule="nonzero"/><path fill="#ffffff" d="M 51.269531 171.808594 C 51.269531 178.046875 56.355469 183.132812 62.652344 183.132812 C 68.890625 183.132812 73.976562 178.046875 73.976562 171.808594 C 73.976562 165.484375 68.890625 160.425781 62.652344 160.425781 C 56.355469 160.425781 51.269531 165.484375 51.269531 171.808594 Z M 71.246094 171.808594 C 71.246094 176.550781 67.394531 180.371094 62.652344 180.371094 C 57.851562 180.371094 54.003906 176.550781 54.003906 171.808594 C 54.003906 166.976562 57.851562 163.160156 62.652344 163.160156 C 67.394531 163.160156 71.246094 166.976562 71.246094 171.808594 Z M 54.316406 171.808594 C 54.316406 176.355469 58.019531 180.054688 62.652344 180.054688 C 67.199219 180.054688 70.882812 176.355469 70.882812 171.808594 C 70.882812 167.175781 67.199219 163.472656 62.652344 163.472656 C 58.019531 163.472656 54.316406 167.175781 54.316406 171.808594 Z M 68.152344 171.808594 C 68.152344 174.8125 65.660156 177.304688 62.652344 177.304688 C 59.585938 177.304688 57.097656 174.8125 57.097656 171.808594 C 57.097656 168.667969 59.585938 166.222656 62.652344 166.222656 C 65.660156 166.222656 68.152344 168.667969 68.152344 171.808594 Z M 68.152344 171.808594 " fill-opacity="1" fill-rule="nonzero"/><path fill="#ffffff" d="M 95.558594 174.511719 L 95.558594 171.746094 L 73.390625 171.746094 L 73.390625 174.511719 Z M 95.558594 171.433594 L 95.558594 168.699219 L 73.390625 168.699219 L 73.390625 171.433594 Z M 95.558594 171.433594 " fill-opacity="1" fill-rule="nonzero"/><path fill="#ffffff" d="M 32.726562 189.515625 C 32.726562 195.75 37.816406 200.839844 44.113281 200.839844 C 50.347656 200.839844 55.4375 195.75 55.4375 189.515625 C 55.4375 183.1875 50.347656 178.128906 44.113281 178.128906 C 37.816406 178.128906 32.726562 183.1875 32.726562 189.515625 Z M 52.703125 189.515625 C 52.703125 194.257812 48.851562 198.078125 44.113281 198.078125 C 39.3125 198.078125 35.460938 194.257812 35.460938 189.515625 C 35.460938 184.683594 39.3125 180.863281 44.113281 180.863281 C 48.851562 180.863281 52.703125 184.683594 52.703125 189.515625 Z M 35.777344 189.515625 C 35.777344 194.058594 39.476562 197.757812 44.113281 197.757812 C 48.65625 197.757812 52.339844 194.058594 52.339844 189.515625 C 52.339844 184.878906 48.65625 181.179688 44.113281 181.179688 C 39.476562 181.179688 35.777344 184.878906 35.777344 189.515625 Z M 49.609375 189.515625 C 49.609375 192.519531 47.117188 195.007812 44.113281 195.007812 C 41.046875 195.007812 38.554688 192.519531 38.554688 189.515625 C 38.554688 186.371094 41.046875 183.929688 44.113281 183.929688 C 47.117188 183.929688 49.609375 186.371094 49.609375 189.515625 Z M 49.609375 189.515625 " fill-opacity="1" fill-rule="nonzero"/><path fill="#ffffff" d="M 77.015625 192.21875 L 77.015625 189.453125 L 54.847656 189.453125 L 54.847656 192.21875 Z M 77.015625 189.140625 L 77.015625 186.40625 L 54.847656 186.40625 L 54.847656 189.140625 Z M 77.015625 189.140625 " fill-opacity="1" fill-rule="nonzero"/><path fill="#ffffff" d="M 95.839844 192.21875 L 95.839844 189.453125 L 73.671875 189.453125 L 73.671875 192.21875 Z M 95.839844 189.136719 L 95.839844 186.402344 L 73.671875 186.402344 L 73.671875 189.136719 Z M 95.839844 189.136719 " fill-opacity="1" fill-rule="nonzero"/><path fill="#ffffff" d="M 88.402344 244.34375 L 160.113281 244.34375 L 160.113281 251.917969 L 88.402344 251.917969 Z M 88.402344 244.34375 " fill-opacity="1" fill-rule="nonzero"/><g clip-path="url(#4f0f950149)"><g clip-path="url(#c997b54eb6)"><path fill="#ffffff" d="M 60.871094 230.359375 L 91.632812 230.359375 L 91.632812 265.882812 L 60.871094 265.882812 Z M 60.871094 230.359375 " fill-opacity="1" fill-rule="nonzero"/></g></g><g clip-path="url(#244aa75ccd)"><g clip-path="url(#bb2bb959ed)"><path fill="#ffffff" d="M 171.175781 109.15625 L 201.9375 109.15625 L 201.9375 144.679688 L 171.175781 144.679688 Z M 171.175781 109.15625 " fill-opacity="1" fill-rule="nonzero"/></g></g><path fill="#ffffff" d="M 102.496094 123.046875 L 174.203125 123.046875 L 174.203125 130.625 L 102.496094 130.625 Z M 102.496094 123.046875 " fill-opacity="1" fill-rule="nonzero"/><path fill="#ffffff" d="M 178.355469 125.1875 L 187.421875 125.1875 L 187.421875 127.332031 L 178.355469 127.332031 Z M 178.355469 125.1875 " fill-opacity="1" fill-rule="nonzero"/><path fill="#ffffff" d="M 88.980469 249.796875 L 82.546875 249.796875 L 82.546875 256.089844 L 80.363281 256.089844 L 80.363281 249.796875 L 73.933594 249.796875 L 73.933594 247.761719 L 80.363281 247.761719 L 80.363281 241.425781 L 82.546875 241.425781 L 82.546875 247.761719 L 88.980469 247.761719 Z M 88.980469 249.796875 " fill-opacity="1" fill-rule="nonzero"/><g fill="#ffffff" fill-opacity="1"><g transform="translate(216.130229, 123.541074)"><g><path d="M 4.8125 -17.84375 C 6.175781 -17.84375 7.179688 -17.4375 7.828125 -16.625 C 8.484375 -15.820312 8.8125 -14.75 8.8125 -13.40625 L 8.8125 -11.8125 L 6.9375 -11.8125 L 6.9375 -13.5 C 6.9375 -14.3125 6.769531 -14.9375 6.4375 -15.375 C 6.113281 -15.820312 5.59375 -16.046875 4.875 -16.046875 C 4.164062 -16.046875 3.640625 -15.820312 3.296875 -15.375 C 2.960938 -14.9375 2.796875 -14.3125 2.796875 -13.5 L 2.796875 -4.15625 C 2.796875 -3.351562 2.960938 -2.726562 3.296875 -2.28125 C 3.640625 -1.832031 4.164062 -1.609375 4.875 -1.609375 C 5.59375 -1.609375 6.113281 -1.832031 6.4375 -2.28125 C 6.769531 -2.726562 6.9375 -3.351562 6.9375 -4.15625 L 6.9375 -6.453125 L 8.8125 -6.453125 L 8.8125 -4.265625 C 8.8125 -2.921875 8.484375 -1.84375 7.828125 -1.03125 C 7.179688 -0.226562 6.175781 0.171875 4.8125 0.171875 C 3.46875 0.171875 2.472656 -0.226562 1.828125 -1.03125 C 1.179688 -1.84375 0.859375 -2.921875 0.859375 -4.265625 L 0.859375 -13.40625 C 0.859375 -14.070312 0.9375 -14.675781 1.09375 -15.21875 C 1.257812 -15.769531 1.503906 -16.238281 1.828125 -16.625 C 2.160156 -17.007812 2.570312 -17.304688 3.0625 -17.515625 C 3.5625 -17.734375 4.144531 -17.84375 4.8125 -17.84375 Z M 4.8125 -17.84375 "/></g></g></g><g fill="#ffffff" fill-opacity="1"><g transform="translate(228.994697, 123.541074)"><g><path d="M 0.859375 -13.40625 C 0.859375 -14.757812 1.1875 -15.835938 1.84375 -16.640625 C 2.507812 -17.441406 3.523438 -17.84375 4.890625 -17.84375 C 6.253906 -17.84375 7.269531 -17.441406 7.9375 -16.640625 C 8.613281 -15.835938 8.953125 -14.757812 8.953125 -13.40625 L 8.953125 -4.265625 C 8.953125 -2.921875 8.613281 -1.84375 7.9375 -1.03125 C 7.269531 -0.226562 6.253906 0.171875 4.890625 0.171875 C 3.523438 0.171875 2.507812 -0.226562 1.84375 -1.03125 C 1.1875 -1.84375 0.859375 -2.921875 0.859375 -4.265625 Z M 2.796875 -4.15625 C 2.796875 -3.351562 2.96875 -2.726562 3.3125 -2.28125 C 3.65625 -1.832031 4.179688 -1.609375 4.890625 -1.609375 C 5.617188 -1.609375 6.148438 -1.832031 6.484375 -2.28125 C 6.816406 -2.726562 6.984375 -3.351562 6.984375 -4.15625 L 6.984375 -13.5 C 6.984375 -14.3125 6.816406 -14.9375 6.484375 -15.375 C 6.148438 -15.820312 5.617188 -16.046875 4.890625 -16.046875 C 4.179688 -16.046875 3.65625 -15.820312 3.3125 -15.375 C 2.96875 -14.9375 2.796875 -14.3125 2.796875 -13.5 Z M 2.796875 -4.15625 "/></g></g></g><g fill="#ffffff" fill-opacity="1"><g transform="translate(242.086139, 123.541074)"><g><path d="M 8.875 2.375 L 8.875 0 L 1.1875 0 L 1.1875 -17.671875 L 3.125 -17.671875 L 3.125 -1.796875 L 7.46875 -1.796875 L 7.46875 -17.671875 L 9.46875 -17.671875 L 9.46875 -1.734375 L 10.796875 -1.734375 L 10.796875 2.375 Z M 8.875 2.375 "/></g></g></g><g fill="#ffffff" fill-opacity="1"><g transform="translate(256.842084, 123.541074)"><g><path d="M 7.515625 0 L 1.015625 0 L 1.015625 -1.3125 L 3.125 -1.796875 L 3.125 -16.203125 L 1.015625 -16.703125 L 1.015625 -18.015625 L 7.515625 -18.015625 L 7.515625 -16.703125 L 5.40625 -16.203125 L 5.40625 -1.796875 L 7.515625 -1.3125 Z M 7.515625 0 "/></g></g></g><g fill="#ffffff" fill-opacity="1"><g transform="translate(268.672551, 123.541074)"><g><path d="M 3 -3.5625 L 2.328125 0 L 0.5 0 L 3.890625 -17.671875 L 6.734375 -17.671875 L 10.125 0 L 8.15625 0 L 7.46875 -3.5625 Z M 3.25 -5.25 L 7.1875 -5.25 L 5.203125 -15.4375 Z M 3.25 -5.25 "/></g></g></g><g fill="#ffffff" fill-opacity="1"><g transform="translate(282.596249, 123.541074)"><g><path d="M 4.765625 -15.875 L 4.359375 -4.390625 C 4.328125 -3.679688 4.253906 -3.054688 4.140625 -2.515625 C 4.023438 -1.984375 3.832031 -1.523438 3.5625 -1.140625 C 3.289062 -0.765625 2.929688 -0.472656 2.484375 -0.265625 C 2.035156 -0.0664062 1.476562 0.03125 0.8125 0.03125 L 0.484375 0.03125 L 0.484375 -1.765625 C 0.878906 -1.765625 1.203125 -1.8125 1.453125 -1.90625 C 1.710938 -2.007812 1.910156 -2.164062 2.046875 -2.375 C 2.191406 -2.59375 2.289062 -2.859375 2.34375 -3.171875 C 2.394531 -3.492188 2.429688 -3.867188 2.453125 -4.296875 L 2.921875 -17.671875 L 10.125 -17.671875 L 10.125 0 L 8.15625 0 L 8.15625 -15.875 Z M 4.765625 -15.875 "/></g></g></g><g fill="#ffffff" fill-opacity="1"><g transform="translate(297.074771, 123.541074)"><g><path d="M 4.71875 -10.703125 C 6.132812 -10.703125 7.171875 -10.34375 7.828125 -9.625 C 8.492188 -8.90625 8.828125 -7.84375 8.828125 -6.4375 L 8.828125 -4.3125 C 8.828125 -2.96875 8.507812 -1.910156 7.875 -1.140625 C 7.25 -0.378906 6.25 0 4.875 0 L 1.015625 0 L 1.015625 -17.671875 L 2.984375 -17.671875 L 2.984375 -10.703125 Z M 4.875 -1.796875 C 5.59375 -1.796875 6.109375 -1.992188 6.421875 -2.390625 C 6.734375 -2.796875 6.890625 -3.40625 6.890625 -4.21875 L 6.890625 -6.5625 C 6.890625 -7.414062 6.710938 -8.023438 6.359375 -8.390625 C 6.003906 -8.753906 5.457031 -8.9375 4.71875 -8.9375 L 2.984375 -8.9375 L 2.984375 -1.796875 Z M 4.875 -1.796875 "/></g></g></g><g fill="#ffffff" fill-opacity="1"><g transform="translate(309.964453, 123.541074)"><g><path d="M 2.984375 -7.953125 L 2.984375 0 L 1.015625 0 L 1.015625 -17.671875 L 2.984375 -17.671875 L 2.984375 -9.71875 L 7.3125 -9.71875 L 7.3125 -17.671875 L 9.28125 -17.671875 L 9.28125 0 L 7.3125 0 L 7.3125 -7.953125 Z M 2.984375 -7.953125 "/></g></g></g><g fill="#ffffff" fill-opacity="1"><g transform="translate(323.535069, 123.541074)"><g><path d="M 3 -3.5625 L 2.328125 0 L 0.5 0 L 3.890625 -17.671875 L 6.734375 -17.671875 L 10.125 0 L 8.15625 0 L 7.46875 -3.5625 Z M 3.25 -5.25 L 7.1875 -5.25 L 5.203125 -15.4375 Z M 3.25 -5.25 "/></g></g></g><g fill="#ffffff" fill-opacity="1"><g transform="translate(337.466931, 123.541074)"><g/></g></g><g fill="#ffffff" fill-opacity="1"><g transform="translate(216.130229, 157.860495)"><g><path d="M 2.984375 -15.875 L 2.984375 0 L 1.015625 0 L 1.015625 -17.671875 L 9.28125 -17.671875 L 9.28125 0 L 7.3125 0 L 7.3125 -15.875 Z M 2.984375 -15.875 "/></g></g></g><g fill="#ffffff" fill-opacity="1"><g transform="translate(229.700846, 157.860495)"><g><path d="M 4.765625 -15.875 L 4.359375 -4.390625 C 4.328125 -3.679688 4.253906 -3.054688 4.140625 -2.515625 C 4.023438 -1.984375 3.832031 -1.523438 3.5625 -1.140625 C 3.289062 -0.765625 2.929688 -0.472656 2.484375 -0.265625 C 2.035156 -0.0664062 1.476562 0.03125 0.8125 0.03125 L 0.484375 0.03125 L 0.484375 -1.765625 C 0.878906 -1.765625 1.203125 -1.8125 1.453125 -1.90625 C 1.710938 -2.007812 1.910156 -2.164062 2.046875 -2.375 C 2.191406 -2.59375 2.289062 -2.859375 2.34375 -3.171875 C 2.394531 -3.492188 2.429688 -3.867188 2.453125 -4.296875 L 2.921875 -17.671875 L 10.125 -17.671875 L 10.125 0 L 8.15625 0 L 8.15625 -15.875 Z M 4.765625 -15.875 "/></g></g></g><g fill="#ffffff" fill-opacity="1"><g transform="translate(244.17937, 157.860495)"><g><path d="M 3 -3.5625 L 2.328125 0 L 0.5 0 L 3.890625 -17.671875 L 6.734375 -17.671875 L 10.125 0 L 8.15625 0 L 7.46875 -3.5625 Z M 3.25 -5.25 L 7.1875 -5.25 L 5.203125 -15.4375 Z M 3.25 -5.25 "/></g></g></g><g fill="#ffffff" fill-opacity="1"><g transform="translate(258.103072, 157.860495)"><g><path d="M 3.703125 0 L 3.703125 -15.875 L 0.453125 -15.875 L 0.453125 -17.671875 L 8.9375 -17.671875 L 8.9375 -15.875 L 5.671875 -15.875 L 5.671875 0 Z M 3.703125 0 "/></g></g></g><g fill="#ffffff" fill-opacity="1"><g transform="translate(270.765782, 157.860495)"><g><path d="M 9.359375 -15.59375 C 10.785156 -15.59375 11.820312 -15.207031 12.46875 -14.4375 C 13.125 -13.675781 13.453125 -12.585938 13.453125 -11.171875 L 13.453125 -6.359375 C 13.453125 -4.941406 13.125 -3.847656 12.46875 -3.078125 C 11.820312 -2.316406 10.785156 -1.9375 9.359375 -1.9375 L 8.125 -1.9375 L 8.125 0 L 6.1875 0 L 6.1875 -1.9375 L 4.953125 -1.9375 C 3.515625 -1.9375 2.472656 -2.316406 1.828125 -3.078125 C 1.179688 -3.847656 0.859375 -4.941406 0.859375 -6.359375 L 0.859375 -11.171875 C 0.859375 -12.585938 1.179688 -13.675781 1.828125 -14.4375 C 2.472656 -15.207031 3.515625 -15.59375 4.953125 -15.59375 L 6.1875 -15.59375 L 6.1875 -17.671875 L 8.125 -17.671875 L 8.125 -15.59375 Z M 4.953125 -13.859375 C 4.191406 -13.859375 3.640625 -13.644531 3.296875 -13.21875 C 2.960938 -12.800781 2.796875 -12.164062 2.796875 -11.3125 L 2.796875 -6.234375 C 2.796875 -5.378906 2.960938 -4.734375 3.296875 -4.296875 C 3.640625 -3.867188 4.191406 -3.65625 4.953125 -3.65625 L 6.1875 -3.65625 L 6.1875 -13.859375 Z M 9.359375 -3.65625 C 10.804688 -3.65625 11.53125 -4.515625 11.53125 -6.234375 L 11.53125 -11.3125 C 11.53125 -12.164062 11.359375 -12.800781 11.015625 -13.21875 C 10.671875 -13.644531 10.117188 -13.859375 9.359375 -13.859375 L 8.125 -13.859375 L 8.125 -3.65625 Z M 9.359375 -3.65625 "/></g></g></g><g fill="#ffffff" fill-opacity="1"><g transform="translate(288.39675, 157.860495)"><g><path d="M 0.859375 -13.40625 C 0.859375 -14.757812 1.1875 -15.835938 1.84375 -16.640625 C 2.507812 -17.441406 3.523438 -17.84375 4.890625 -17.84375 C 6.253906 -17.84375 7.269531 -17.441406 7.9375 -16.640625 C 8.613281 -15.835938 8.953125 -14.757812 8.953125 -13.40625 L 8.953125 -4.265625 C 8.953125 -2.921875 8.613281 -1.84375 7.9375 -1.03125 C 7.269531 -0.226562 6.253906 0.171875 4.890625 0.171875 C 3.523438 0.171875 2.507812 -0.226562 1.84375 -1.03125 C 1.1875 -1.84375 0.859375 -2.921875 0.859375 -4.265625 Z M 2.796875 -4.15625 C 2.796875 -3.351562 2.96875 -2.726562 3.3125 -2.28125 C 3.65625 -1.832031 4.179688 -1.609375 4.890625 -1.609375 C 5.617188 -1.609375 6.148438 -1.832031 6.484375 -2.28125 C 6.816406 -2.726562 6.984375 -3.351562 6.984375 -4.15625 L 6.984375 -13.5 C 6.984375 -14.3125 6.816406 -14.9375 6.484375 -15.375 C 6.148438 -15.820312 5.617188 -16.046875 4.890625 -16.046875 C 4.179688 -16.046875 3.65625 -15.820312 3.3125 -15.375 C 2.96875 -14.9375 2.796875 -14.3125 2.796875 -13.5 Z M 2.796875 -4.15625 "/></g></g></g><g fill="#ffffff" fill-opacity="1"><g transform="translate(301.488189, 157.860495)"><g><path d="M 4.875 -17.671875 C 6.269531 -17.671875 7.273438 -17.285156 7.890625 -16.515625 C 8.515625 -15.753906 8.828125 -14.695312 8.828125 -13.34375 L 8.828125 -11.234375 C 8.828125 -9.816406 8.492188 -8.75 7.828125 -8.03125 C 7.171875 -7.320312 6.132812 -6.96875 4.71875 -6.96875 L 2.984375 -6.96875 L 2.984375 0 L 1.015625 0 L 1.015625 -17.671875 Z M 4.71875 -8.734375 C 5.457031 -8.734375 6.003906 -8.910156 6.359375 -9.265625 C 6.710938 -9.628906 6.890625 -10.242188 6.890625 -11.109375 L 6.890625 -13.453125 C 6.890625 -14.253906 6.734375 -14.859375 6.421875 -15.265625 C 6.109375 -15.671875 5.59375 -15.875 4.875 -15.875 L 2.984375 -15.875 L 2.984375 -8.734375 Z M 4.71875 -8.734375 "/></g></g></g><g fill="#ffffff" fill-opacity="1"><g transform="translate(314.125684, 157.860495)"><g><path d="M 7.515625 -0.03125 L 5.625 -0.03125 L 2.703125 -14.078125 L 2.703125 0 L 0.984375 0 L 0.984375 -17.671875 L 3.734375 -17.671875 L 6.640625 -3.5625 L 9.4375 -17.671875 L 12.1875 -17.671875 L 12.1875 0 L 10.328125 0 L 10.328125 -14.203125 Z M 7.515625 -0.03125 "/></g></g></g><g fill="#ffffff" fill-opacity="1"><g transform="translate(330.596558, 157.860495)"><g><path d="M 3 -3.5625 L 2.328125 0 L 0.5 0 L 3.890625 -17.671875 L 6.734375 -17.671875 L 10.125 0 L 8.15625 0 L 7.46875 -3.5625 Z M 3.25 -5.25 L 7.1875 -5.25 L 5.203125 -15.4375 Z M 3.25 -5.25 "/></g></g></g><g fill="#ffffff" fill-opacity="1"><g transform="translate(344.535562, 157.860495)"><g/></g></g><g fill="#ffffff" fill-opacity="1"><g transform="translate(216.130229, 192.179916)"><g><path d="M 9.71875 2.421875 L 9.71875 0 L 2.5 0 L 2.5 2.421875 L 0.609375 2.421875 L 0.609375 -1.734375 L 1.734375 -1.734375 C 2.046875 -2.078125 2.242188 -2.457031 2.328125 -2.875 C 2.421875 -3.289062 2.488281 -3.769531 2.53125 -4.3125 L 3.203125 -17.671875 L 10.296875 -17.671875 L 10.296875 -1.734375 L 11.640625 -1.734375 L 11.640625 2.421875 Z M 4.4375 -4.34375 C 4.40625 -3.695312 4.332031 -3.171875 4.21875 -2.765625 C 4.113281 -2.367188 3.921875 -2.023438 3.640625 -1.734375 L 8.296875 -1.734375 L 8.296875 -15.875 L 5.015625 -15.875 Z M 4.4375 -4.34375 "/></g></g></g><g fill="#ffffff" fill-opacity="1"><g transform="translate(231.743631, 192.179916)"><g><path d="M 4.765625 -15.875 L 4.359375 -4.390625 C 4.328125 -3.679688 4.253906 -3.054688 4.140625 -2.515625 C 4.023438 -1.984375 3.832031 -1.523438 3.5625 -1.140625 C 3.289062 -0.765625 2.929688 -0.472656 2.484375 -0.265625 C 2.035156 -0.0664062 1.476562 0.03125 0.8125 0.03125 L 0.484375 0.03125 L 0.484375 -1.765625 C 0.878906 -1.765625 1.203125 -1.8125 1.453125 -1.90625 C 1.710938 -2.007812 1.910156 -2.164062 2.046875 -2.375 C 2.191406 -2.59375 2.289062 -2.859375 2.34375 -3.171875 C 2.394531 -3.492188 2.429688 -3.867188 2.453125 -4.296875 L 2.921875 -17.671875 L 10.125 -17.671875 L 10.125 0 L 8.15625 0 L 8.15625 -15.875 Z M 4.765625 -15.875 "/></g></g></g><g fill="#ffffff" fill-opacity="1"><g transform="translate(246.222154, 192.179916)"><g><path d="M 5.578125 -7.546875 C 4.753906 -7.546875 4.117188 -7.351562 3.671875 -6.96875 C 3.222656 -6.59375 3 -5.910156 3 -4.921875 L 3 -2.140625 C 3 -1.554688 2.972656 -1.113281 2.921875 -0.8125 C 2.867188 -0.519531 2.785156 -0.25 2.671875 0 L 0.6875 0 C 0.832031 -0.300781 0.925781 -0.632812 0.96875 -1 C 1.007812 -1.363281 1.03125 -1.738281 1.03125 -2.125 L 1.03125 -4.875 C 1.03125 -5.832031 1.191406 -6.625 1.515625 -7.25 C 1.847656 -7.882812 2.421875 -8.316406 3.234375 -8.546875 C 1.785156 -9.023438 1.0625 -10.238281 1.0625 -12.1875 L 1.0625 -13.625 C 1.0625 -14.9375 1.367188 -15.9375 1.984375 -16.625 C 2.597656 -17.320312 3.601562 -17.671875 5 -17.671875 L 8.9375 -17.671875 L 8.9375 0 L 6.96875 0 L 6.96875 -7.546875 Z M 5.046875 -15.875 C 4.304688 -15.875 3.78125 -15.671875 3.46875 -15.265625 C 3.15625 -14.859375 3 -14.253906 3 -13.453125 L 3 -11.765625 C 3 -10.804688 3.21875 -10.160156 3.65625 -9.828125 C 4.09375 -9.503906 4.695312 -9.34375 5.46875 -9.34375 L 6.96875 -9.34375 L 6.96875 -15.875 Z M 5.046875 -15.875 "/></g></g></g><g fill="#ffffff" fill-opacity="1"><g transform="translate(259.451998, 192.179916)"><g/></g></g><g fill="#ffffff" fill-opacity="1"><g transform="translate(216.130229, 226.499337)"><g><path d="M 2.984375 -7.953125 L 2.984375 0 L 1.015625 0 L 1.015625 -17.671875 L 2.984375 -17.671875 L 2.984375 -9.71875 L 7.3125 -9.71875 L 7.3125 -17.671875 L 9.28125 -17.671875 L 9.28125 0 L 7.3125 0 L 7.3125 -7.953125 Z M 2.984375 -7.953125 "/></g></g></g><g fill="#ffffff" fill-opacity="1"><g transform="translate(229.700846, 226.499337)"><g><path d="M 7.296875 -9.84375 L 7.296875 -8.078125 L 2.984375 -8.078125 L 2.984375 -1.796875 L 8.28125 -1.796875 L 8.28125 0 L 1.015625 0 L 1.015625 -17.671875 L 8.28125 -17.671875 L 8.28125 -15.875 L 2.984375 -15.875 L 2.984375 -9.84375 Z M 7.296875 -9.84375 "/></g></g></g><g fill="#ffffff" fill-opacity="1"><g transform="translate(242.060923, 226.499337)"><g><path d="M 4.875 -17.671875 C 6.269531 -17.671875 7.273438 -17.285156 7.890625 -16.515625 C 8.515625 -15.753906 8.828125 -14.695312 8.828125 -13.34375 L 8.828125 -11.234375 C 8.828125 -9.816406 8.492188 -8.75 7.828125 -8.03125 C 7.171875 -7.320312 6.132812 -6.96875 4.71875 -6.96875 L 2.984375 -6.96875 L 2.984375 0 L 1.015625 0 L 1.015625 -17.671875 Z M 4.71875 -8.734375 C 5.457031 -8.734375 6.003906 -8.910156 6.359375 -9.265625 C 6.710938 -9.628906 6.890625 -10.242188 6.890625 -11.109375 L 6.890625 -13.453125 C 6.890625 -14.253906 6.734375 -14.859375 6.421875 -15.265625 C 6.109375 -15.671875 5.59375 -15.875 4.875 -15.875 L 2.984375 -15.875 L 2.984375 -8.734375 Z M 4.71875 -8.734375 "/></g></g></g><g fill="#ffffff" fill-opacity="1"><g transform="translate(254.698421, 226.499337)"><g><path d="M 6.3125 -3.890625 C 6.15625 -3.234375 5.972656 -2.648438 5.765625 -2.140625 C 5.554688 -1.640625 5.273438 -1.21875 4.921875 -0.875 C 4.566406 -0.539062 4.125 -0.296875 3.59375 -0.140625 C 3.0625 0.00390625 2.394531 0.0625 1.59375 0.03125 L 1.59375 -1.734375 C 2.34375 -1.703125 2.90625 -1.816406 3.28125 -2.078125 C 3.664062 -2.335938 3.941406 -2.804688 4.109375 -3.484375 L 4.515625 -4.640625 L 0.453125 -17.671875 L 2.421875 -17.671875 L 4.21875 -11.53125 L 5.421875 -7.09375 L 6.453125 -11.53125 L 8.046875 -17.671875 L 10.09375 -17.671875 Z M 6.3125 -3.890625 "/></g></g></g><g fill="#ffffff" fill-opacity="1"><g transform="translate(268.49601, 226.499337)"><g><path d="M 5.40625 -7.625 L 2.453125 0 L 0.578125 0 L 4.140625 -9.109375 L 0.8125 -17.671875 L 2.84375 -17.671875 L 5.578125 -10.59375 L 8.328125 -17.671875 L 10.171875 -17.671875 L 6.859375 -9.109375 L 10.390625 0 L 8.328125 0 Z M 5.40625 -7.625 "/></g></g></g><g fill="#ffffff" fill-opacity="1"><g transform="translate(282.747559, 226.499337)"><g><path d="M 0.859375 -13.40625 C 0.859375 -14.757812 1.1875 -15.835938 1.84375 -16.640625 C 2.507812 -17.441406 3.523438 -17.84375 4.890625 -17.84375 C 6.253906 -17.84375 7.269531 -17.441406 7.9375 -16.640625 C 8.613281 -15.835938 8.953125 -14.757812 8.953125 -13.40625 L 8.953125 -4.265625 C 8.953125 -2.921875 8.613281 -1.84375 7.9375 -1.03125 C 7.269531 -0.226562 6.253906 0.171875 4.890625 0.171875 C 3.523438 0.171875 2.507812 -0.226562 1.84375 -1.03125 C 1.1875 -1.84375 0.859375 -2.921875 0.859375 -4.265625 Z M 2.796875 -4.15625 C 2.796875 -3.351562 2.96875 -2.726562 3.3125 -2.28125 C 3.65625 -1.832031 4.179688 -1.609375 4.890625 -1.609375 C 5.617188 -1.609375 6.148438 -1.832031 6.484375 -2.28125 C 6.816406 -2.726562 6.984375 -3.351562 6.984375 -4.15625 L 6.984375 -13.5 C 6.984375 -14.3125 6.816406 -14.9375 6.484375 -15.375 C 6.148438 -15.820312 5.617188 -16.046875 4.890625 -16.046875 C 4.179688 -16.046875 3.65625 -15.820312 3.3125 -15.375 C 2.96875 -14.9375 2.796875 -14.3125 2.796875 -13.5 Z M 2.796875 -4.15625 "/></g></g></g><g fill="#ffffff" fill-opacity="1"><g transform="translate(295.838998, 226.499337)"><g><path d="M 7.515625 -0.03125 L 5.625 -0.03125 L 2.703125 -14.078125 L 2.703125 0 L 0.984375 0 L 0.984375 -17.671875 L 3.734375 -17.671875 L 6.640625 -3.5625 L 9.4375 -17.671875 L 12.1875 -17.671875 L 12.1875 0 L 10.328125 0 L 10.328125 -14.203125 Z M 7.515625 -0.03125 "/></g></g></g><g fill="#ffffff" fill-opacity="1"><g transform="translate(312.309872, 226.499337)"><g><path d="M 0.859375 -13.40625 C 0.859375 -14.757812 1.1875 -15.835938 1.84375 -16.640625 C 2.507812 -17.441406 3.523438 -17.84375 4.890625 -17.84375 C 6.253906 -17.84375 7.269531 -17.441406 7.9375 -16.640625 C 8.613281 -15.835938 8.953125 -14.757812 8.953125 -13.40625 L 8.953125 -4.265625 C 8.953125 -2.921875 8.613281 -1.84375 7.9375 -1.03125 C 7.269531 -0.226562 6.253906 0.171875 4.890625 0.171875 C 3.523438 0.171875 2.507812 -0.226562 1.84375 -1.03125 C 1.1875 -1.84375 0.859375 -2.921875 0.859375 -4.265625 Z M 2.796875 -4.15625 C 2.796875 -3.351562 2.96875 -2.726562 3.3125 -2.28125 C 3.65625 -1.832031 4.179688 -1.609375 4.890625 -1.609375 C 5.617188 -1.609375 6.148438 -1.832031 6.484375 -2.28125 C 6.816406 -2.726562 6.984375 -3.351562 6.984375 -4.15625 L 6.984375 -13.5 C 6.984375 -14.3125 6.816406 -14.9375 6.484375 -15.375 C 6.148438 -15.820312 5.617188 -16.046875 4.890625 -16.046875 C 4.179688 -16.046875 3.65625 -15.820312 3.3125 -15.375 C 2.96875 -14.9375 2.796875 -14.3125 2.796875 -13.5 Z M 2.796875 -4.15625 "/></g></g></g><g fill="#ffffff" fill-opacity="1"><g transform="translate(325.401312, 226.499337)"><g><path d="M 4.8125 -17.84375 C 6.175781 -17.84375 7.179688 -17.4375 7.828125 -16.625 C 8.484375 -15.820312 8.8125 -14.75 8.8125 -13.40625 L 8.8125 -11.8125 L 6.9375 -11.8125 L 6.9375 -13.5 C 6.9375 -14.3125 6.769531 -14.9375 6.4375 -15.375 C 6.113281 -15.820312 5.59375 -16.046875 4.875 -16.046875 C 4.164062 -16.046875 3.640625 -15.820312 3.296875 -15.375 C 2.960938 -14.9375 2.796875 -14.3125 2.796875 -13.5 L 2.796875 -4.15625 C 2.796875 -3.351562 2.960938 -2.726562 3.296875 -2.28125 C 3.640625 -1.832031 4.164062 -1.609375 4.875 -1.609375 C 5.59375 -1.609375 6.113281 -1.832031 6.4375 -2.28125 C 6.769531 -2.726562 6.9375 -3.351562 6.9375 -4.15625 L 6.9375 -6.453125 L 8.8125 -6.453125 L 8.8125 -4.265625 C 8.8125 -2.921875 8.484375 -1.84375 7.828125 -1.03125 C 7.179688 -0.226562 6.175781 0.171875 4.8125 0.171875 C 3.46875 0.171875 2.472656 -0.226562 1.828125 -1.03125 C 1.179688 -1.84375 0.859375 -2.921875 0.859375 -4.265625 L 0.859375 -13.40625 C 0.859375 -14.070312 0.9375 -14.675781 1.09375 -15.21875 C 1.257812 -15.769531 1.503906 -16.238281 1.828125 -16.625 C 2.160156 -17.007812 2.570312 -17.304688 3.0625 -17.515625 C 3.5625 -17.734375 4.144531 -17.84375 4.8125 -17.84375 Z M 4.8125 -17.84375 "/></g></g></g><g fill="#ffffff" fill-opacity="1"><g transform="translate(338.265778, 226.499337)"><g><path d="M 3.703125 0 L 3.703125 -15.875 L 0.453125 -15.875 L 0.453125 -17.671875 L 8.9375 -17.671875 L 8.9375 -15.875 L 5.671875 -15.875 L 5.671875 0 Z M 3.703125 0 "/></g></g></g><g fill="#ffffff" fill-opacity="1"><g transform="translate(350.928496, 226.499337)"><g><path d="M 7.515625 0 L 1.015625 0 L 1.015625 -1.3125 L 3.125 -1.796875 L 3.125 -16.203125 L 1.015625 -16.703125 L 1.015625 -18.015625 L 7.515625 -18.015625 L 7.515625 -16.703125 L 5.40625 -16.203125 L 5.40625 -1.796875 L 7.515625 -1.3125 Z M 7.515625 0 "/></g></g></g><g fill="#ffffff" fill-opacity="1"><g transform="translate(216.130229, 260.818758)"><g><path d="M 5.140625 -17.671875 C 6.523438 -17.671875 7.539062 -17.273438 8.1875 -16.484375 C 8.832031 -15.703125 9.15625 -14.628906 9.15625 -13.265625 L 9.15625 -4.359375 C 9.15625 -3.003906 8.832031 -1.9375 8.1875 -1.15625 C 7.539062 -0.382812 6.523438 0 5.140625 0 L 1.015625 0 L 1.015625 -17.671875 Z M 5.125 -1.796875 C 5.832031 -1.796875 6.359375 -2.007812 6.703125 -2.4375 C 7.046875 -2.863281 7.21875 -3.484375 7.21875 -4.296875 L 7.21875 -13.375 C 7.21875 -14.175781 7.046875 -14.789062 6.703125 -15.21875 C 6.359375 -15.65625 5.820312 -15.875 5.09375 -15.875 L 2.984375 -15.875 L 2.984375 -1.796875 Z M 5.125 -1.796875 "/></g></g></g><g fill="#ffffff" fill-opacity="1"><g transform="translate(229.398211, 260.818758)"><g><path d="M 2.984375 -17.671875 L 2.984375 0 L 1.015625 0 L 1.015625 -17.671875 Z M 2.984375 -17.671875 "/></g></g></g><g fill="#ffffff" fill-opacity="1"><g transform="translate(236.663935, 260.818758)"><g><path d="M 4.71875 -17.84375 C 6.0625 -17.84375 7.050781 -17.441406 7.6875 -16.640625 C 8.332031 -15.835938 8.65625 -14.765625 8.65625 -13.421875 L 8.65625 -12.9375 L 6.78125 -12.9375 L 6.78125 -13.53125 C 6.78125 -14.332031 6.617188 -14.953125 6.296875 -15.390625 C 5.984375 -15.828125 5.472656 -16.046875 4.765625 -16.046875 C 4.054688 -16.046875 3.539062 -15.828125 3.21875 -15.390625 C 2.90625 -14.953125 2.75 -14.335938 2.75 -13.546875 C 2.75 -12.890625 2.894531 -12.316406 3.1875 -11.828125 C 3.488281 -11.347656 3.859375 -10.898438 4.296875 -10.484375 C 4.734375 -10.066406 5.207031 -9.660156 5.71875 -9.265625 C 6.226562 -8.878906 6.703125 -8.445312 7.140625 -7.96875 C 7.578125 -7.5 7.941406 -6.960938 8.234375 -6.359375 C 8.535156 -5.765625 8.6875 -5.054688 8.6875 -4.234375 C 8.6875 -2.890625 8.359375 -1.816406 7.703125 -1.015625 C 7.054688 -0.222656 6.050781 0.171875 4.6875 0.171875 C 3.332031 0.171875 2.332031 -0.222656 1.6875 -1.015625 C 1.050781 -1.816406 0.734375 -2.890625 0.734375 -4.234375 L 0.734375 -5.25 L 2.578125 -5.25 L 2.578125 -4.140625 C 2.578125 -3.328125 2.742188 -2.703125 3.078125 -2.265625 C 3.410156 -1.828125 3.929688 -1.609375 4.640625 -1.609375 C 5.347656 -1.609375 5.867188 -1.828125 6.203125 -2.265625 C 6.546875 -2.703125 6.71875 -3.328125 6.71875 -4.140625 C 6.71875 -4.796875 6.566406 -5.363281 6.265625 -5.84375 C 5.972656 -6.320312 5.609375 -6.765625 5.171875 -7.171875 C 4.734375 -7.585938 4.257812 -7.992188 3.75 -8.390625 C 3.25 -8.785156 2.78125 -9.21875 2.34375 -9.6875 C 1.90625 -10.15625 1.539062 -10.6875 1.25 -11.28125 C 0.957031 -11.882812 0.8125 -12.597656 0.8125 -13.421875 C 0.8125 -14.785156 1.128906 -15.863281 1.765625 -16.65625 C 2.398438 -17.445312 3.382812 -17.84375 4.71875 -17.84375 Z M 4.71875 -17.84375 "/></g></g></g><g fill="#ffffff" fill-opacity="1"><g transform="translate(249.326647, 260.818758)"><g><path d="M 4.8125 -17.84375 C 6.175781 -17.84375 7.179688 -17.4375 7.828125 -16.625 C 8.484375 -15.820312 8.8125 -14.75 8.8125 -13.40625 L 8.8125 -11.8125 L 6.9375 -11.8125 L 6.9375 -13.5 C 6.9375 -14.3125 6.769531 -14.9375 6.4375 -15.375 C 6.113281 -15.820312 5.59375 -16.046875 4.875 -16.046875 C 4.164062 -16.046875 3.640625 -15.820312 3.296875 -15.375 C 2.960938 -14.9375 2.796875 -14.3125 2.796875 -13.5 L 2.796875 -4.15625 C 2.796875 -3.351562 2.960938 -2.726562 3.296875 -2.28125 C 3.640625 -1.832031 4.164062 -1.609375 4.875 -1.609375 C 5.59375 -1.609375 6.113281 -1.832031 6.4375 -2.28125 C 6.769531 -2.726562 6.9375 -3.351562 6.9375 -4.15625 L 6.9375 -6.453125 L 8.8125 -6.453125 L 8.8125 -4.265625 C 8.8125 -2.921875 8.484375 -1.84375 7.828125 -1.03125 C 7.179688 -0.226562 6.175781 0.171875 4.8125 0.171875 C 3.46875 0.171875 2.472656 -0.226562 1.828125 -1.03125 C 1.179688 -1.84375 0.859375 -2.921875 0.859375 -4.265625 L 0.859375 -13.40625 C 0.859375 -14.070312 0.9375 -14.675781 1.09375 -15.21875 C 1.257812 -15.769531 1.503906 -16.238281 1.828125 -16.625 C 2.160156 -17.007812 2.570312 -17.304688 3.0625 -17.515625 C 3.5625 -17.734375 4.144531 -17.84375 4.8125 -17.84375 Z M 4.8125 -17.84375 "/></g></g></g><g fill="#ffffff" fill-opacity="1"><g transform="translate(262.191116, 260.818758)"><g><path d="M 2.875 -4.15625 C 2.875 -3.351562 3.035156 -2.726562 3.359375 -2.28125 C 3.691406 -1.832031 4.222656 -1.609375 4.953125 -1.609375 C 5.648438 -1.609375 6.160156 -1.832031 6.484375 -2.28125 C 6.816406 -2.726562 6.984375 -3.351562 6.984375 -4.15625 L 6.984375 -17.671875 L 8.828125 -17.671875 L 8.828125 -4.265625 C 8.828125 -2.921875 8.507812 -1.835938 7.875 -1.015625 C 7.238281 -0.203125 6.238281 0.203125 4.875 0.203125 C 3.519531 0.203125 2.523438 -0.203125 1.890625 -1.015625 C 1.253906 -1.835938 0.9375 -2.921875 0.9375 -4.265625 L 0.9375 -17.671875 L 2.875 -17.671875 Z M 2.875 -4.15625 "/></g></g></g><g fill="#ffffff" fill-opacity="1"><g transform="translate(275.232124, 260.818758)"><g><path d="M 4.71875 -17.84375 C 6.0625 -17.84375 7.050781 -17.441406 7.6875 -16.640625 C 8.332031 -15.835938 8.65625 -14.765625 8.65625 -13.421875 L 8.65625 -12.9375 L 6.78125 -12.9375 L 6.78125 -13.53125 C 6.78125 -14.332031 6.617188 -14.953125 6.296875 -15.390625 C 5.984375 -15.828125 5.472656 -16.046875 4.765625 -16.046875 C 4.054688 -16.046875 3.539062 -15.828125 3.21875 -15.390625 C 2.90625 -14.953125 2.75 -14.335938 2.75 -13.546875 C 2.75 -12.890625 2.894531 -12.316406 3.1875 -11.828125 C 3.488281 -11.347656 3.859375 -10.898438 4.296875 -10.484375 C 4.734375 -10.066406 5.207031 -9.660156 5.71875 -9.265625 C 6.226562 -8.878906 6.703125 -8.445312 7.140625 -7.96875 C 7.578125 -7.5 7.941406 -6.960938 8.234375 -6.359375 C 8.535156 -5.765625 8.6875 -5.054688 8.6875 -4.234375 C 8.6875 -2.890625 8.359375 -1.816406 7.703125 -1.015625 C 7.054688 -0.222656 6.050781 0.171875 4.6875 0.171875 C 3.332031 0.171875 2.332031 -0.222656 1.6875 -1.015625 C 1.050781 -1.816406 0.734375 -2.890625 0.734375 -4.234375 L 0.734375 -5.25 L 2.578125 -5.25 L 2.578125 -4.140625 C 2.578125 -3.328125 2.742188 -2.703125 3.078125 -2.265625 C 3.410156 -1.828125 3.929688 -1.609375 4.640625 -1.609375 C 5.347656 -1.609375 5.867188 -1.828125 6.203125 -2.265625 C 6.546875 -2.703125 6.71875 -3.328125 6.71875 -4.140625 C 6.71875 -4.796875 6.566406 -5.363281 6.265625 -5.84375 C 5.972656 -6.320312 5.609375 -6.765625 5.171875 -7.171875 C 4.734375 -7.585938 4.257812 -7.992188 3.75 -8.390625 C 3.25 -8.785156 2.78125 -9.21875 2.34375 -9.6875 C 1.90625 -10.15625 1.539062 -10.6875 1.25 -11.28125 C 0.957031 -11.882812 0.8125 -12.597656 0.8125 -13.421875 C 0.8125 -14.785156 1.128906 -15.863281 1.765625 -16.65625 C 2.398438 -17.445312 3.382812 -17.84375 4.71875 -17.84375 Z M 4.71875 -17.84375 "/></g></g></g><g fill="#ffffff" fill-opacity="1"><g transform="translate(287.894834, 260.818758)"><g><path d="M 4.71875 -17.84375 C 6.0625 -17.84375 7.050781 -17.441406 7.6875 -16.640625 C 8.332031 -15.835938 8.65625 -14.765625 8.65625 -13.421875 L 8.65625 -12.9375 L 6.78125 -12.9375 L 6.78125 -13.53125 C 6.78125 -14.332031 6.617188 -14.953125 6.296875 -15.390625 C 5.984375 -15.828125 5.472656 -16.046875 4.765625 -16.046875 C 4.054688 -16.046875 3.539062 -15.828125 3.21875 -15.390625 C 2.90625 -14.953125 2.75 -14.335938 2.75 -13.546875 C 2.75 -12.890625 2.894531 -12.316406 3.1875 -11.828125 C 3.488281 -11.347656 3.859375 -10.898438 4.296875 -10.484375 C 4.734375 -10.066406 5.207031 -9.660156 5.71875 -9.265625 C 6.226562 -8.878906 6.703125 -8.445312 7.140625 -7.96875 C 7.578125 -7.5 7.941406 -6.960938 8.234375 -6.359375 C 8.535156 -5.765625 8.6875 -5.054688 8.6875 -4.234375 C 8.6875 -2.890625 8.359375 -1.816406 7.703125 -1.015625 C 7.054688 -0.222656 6.050781 0.171875 4.6875 0.171875 C 3.332031 0.171875 2.332031 -0.222656 1.6875 -1.015625 C 1.050781 -1.816406 0.734375 -2.890625 0.734375 -4.234375 L 0.734375 -5.25 L 2.578125 -5.25 L 2.578125 -4.140625 C 2.578125 -3.328125 2.742188 -2.703125 3.078125 -2.265625 C 3.410156 -1.828125 3.929688 -1.609375 4.640625 -1.609375 C 5.347656 -1.609375 5.867188 -1.828125 6.203125 -2.265625 C 6.546875 -2.703125 6.71875 -3.328125 6.71875 -4.140625 C 6.71875 -4.796875 6.566406 -5.363281 6.265625 -5.84375 C 5.972656 -6.320312 5.609375 -6.765625 5.171875 -7.171875 C 4.734375 -7.585938 4.257812 -7.992188 3.75 -8.390625 C 3.25 -8.785156 2.78125 -9.21875 2.34375 -9.6875 C 1.90625 -10.15625 1.539062 -10.6875 1.25 -11.28125 C 0.957031 -11.882812 0.8125 -12.597656 0.8125 -13.421875 C 0.8125 -14.785156 1.128906 -15.863281 1.765625 -16.65625 C 2.398438 -17.445312 3.382812 -17.84375 4.71875 -17.84375 Z M 4.71875 -17.84375 "/></g></g></g><g fill="#ffffff" fill-opacity="1"><g transform="translate(300.557544, 260.818758)"><g><path d="M 2.984375 -17.671875 L 2.984375 0 L 1.015625 0 L 1.015625 -17.671875 Z M 2.984375 -17.671875 "/></g></g></g><g fill="#ffffff" fill-opacity="1"><g transform="translate(307.823266, 260.818758)"><g><path d="M 0.859375 -13.40625 C 0.859375 -14.757812 1.1875 -15.835938 1.84375 -16.640625 C 2.507812 -17.441406 3.523438 -17.84375 4.890625 -17.84375 C 6.253906 -17.84375 7.269531 -17.441406 7.9375 -16.640625 C 8.613281 -15.835938 8.953125 -14.757812 8.953125 -13.40625 L 8.953125 -4.265625 C 8.953125 -2.921875 8.613281 -1.84375 7.9375 -1.03125 C 7.269531 -0.226562 6.253906 0.171875 4.890625 0.171875 C 3.523438 0.171875 2.507812 -0.226562 1.84375 -1.03125 C 1.1875 -1.84375 0.859375 -2.921875 0.859375 -4.265625 Z M 2.796875 -4.15625 C 2.796875 -3.351562 2.96875 -2.726562 3.3125 -2.28125 C 3.65625 -1.832031 4.179688 -1.609375 4.890625 -1.609375 C 5.617188 -1.609375 6.148438 -1.832031 6.484375 -2.28125 C 6.816406 -2.726562 6.984375 -3.351562 6.984375 -4.15625 L 6.984375 -13.5 C 6.984375 -14.3125 6.816406 -14.9375 6.484375 -15.375 C 6.148438 -15.820312 5.617188 -16.046875 4.890625 -16.046875 C 4.179688 -16.046875 3.65625 -15.820312 3.3125 -15.375 C 2.96875 -14.9375 2.796875 -14.3125 2.796875 -13.5 Z M 2.796875 -4.15625 "/></g></g></g><g fill="#ffffff" fill-opacity="1"><g transform="translate(133.14193, 60.066301)"><g><path d="M 2.984375 -15.875 L 2.984375 0 L 1.015625 0 L 1.015625 -17.671875 L 9.28125 -17.671875 L 9.28125 0 L 7.3125 0 L 7.3125 -15.875 Z M 2.984375 -15.875 "/></g></g></g><g fill="#ffffff" fill-opacity="1"><g transform="translate(146.712548, 60.066301)"><g><path d="M 3 -3.5625 L 2.328125 0 L 0.5 0 L 3.890625 -17.671875 L 6.734375 -17.671875 L 10.125 0 L 8.15625 0 L 7.46875 -3.5625 Z M 3.25 -5.25 L 7.1875 -5.25 L 5.203125 -15.4375 Z M 3.25 -5.25 "/></g></g></g><g fill="#ffffff" fill-opacity="1"><g transform="translate(160.636248, 60.066301)"><g><path d="M 4.875 -17.671875 C 6.269531 -17.671875 7.273438 -17.285156 7.890625 -16.515625 C 8.515625 -15.753906 8.828125 -14.695312 8.828125 -13.34375 L 8.828125 -11.234375 C 8.828125 -9.816406 8.492188 -8.75 7.828125 -8.03125 C 7.171875 -7.320312 6.132812 -6.96875 4.71875 -6.96875 L 2.984375 -6.96875 L 2.984375 0 L 1.015625 0 L 1.015625 -17.671875 Z M 4.71875 -8.734375 C 5.457031 -8.734375 6.003906 -8.910156 6.359375 -9.265625 C 6.710938 -9.628906 6.890625 -10.242188 6.890625 -11.109375 L 6.890625 -13.453125 C 6.890625 -14.253906 6.734375 -14.859375 6.421875 -15.265625 C 6.109375 -15.671875 5.59375 -15.875 4.875 -15.875 L 2.984375 -15.875 L 2.984375 -8.734375 Z M 4.71875 -8.734375 "/></g></g></g><g fill="#ffffff" fill-opacity="1"><g transform="translate(173.273746, 60.066301)"><g><path d="M 3.703125 0 L 3.703125 -15.875 L 0.453125 -15.875 L 0.453125 -17.671875 L 8.9375 -17.671875 L 8.9375 -15.875 L 5.671875 -15.875 L 5.671875 0 Z M 3.703125 0 "/></g></g></g><g fill="#ffffff" fill-opacity="1"><g transform="translate(185.936456, 60.066301)"><g><path d="M 2.984375 -7.953125 L 2.984375 0 L 1.015625 0 L 1.015625 -17.671875 L 2.984375 -17.671875 L 2.984375 -9.71875 L 7.3125 -9.71875 L 7.3125 -17.671875 L 9.28125 -17.671875 L 9.28125 0 L 7.3125 0 L 7.3125 -7.953125 Z M 2.984375 -7.953125 "/></g></g></g><g fill="#ffffff" fill-opacity="1"><g transform="translate(199.507072, 60.066301)"><g><path d="M 7.296875 -9.84375 L 7.296875 -8.078125 L 2.984375 -8.078125 L 2.984375 -1.796875 L 8.28125 -1.796875 L 8.28125 0 L 1.015625 0 L 1.015625 -17.671875 L 8.28125 -17.671875 L 8.28125 -15.875 L 2.984375 -15.875 L 2.984375 -9.84375 Z M 7.296875 -9.84375 "/></g></g></g><g fill="#ffffff" fill-opacity="1"><g transform="translate(211.867147, 60.066301)"><g><path d="M 4.875 -17.671875 C 6.269531 -17.671875 7.273438 -17.285156 7.890625 -16.515625 C 8.515625 -15.753906 8.828125 -14.695312 8.828125 -13.34375 L 8.828125 -11.234375 C 8.828125 -9.816406 8.492188 -8.75 7.828125 -8.03125 C 7.171875 -7.320312 6.132812 -6.96875 4.71875 -6.96875 L 2.984375 -6.96875 L 2.984375 0 L 1.015625 0 L 1.015625 -17.671875 Z M 4.71875 -8.734375 C 5.457031 -8.734375 6.003906 -8.910156 6.359375 -9.265625 C 6.710938 -9.628906 6.890625 -10.242188 6.890625 -11.109375 L 6.890625 -13.453125 C 6.890625 -14.253906 6.734375 -14.859375 6.421875 -15.265625 C 6.109375 -15.671875 5.59375 -15.875 4.875 -15.875 L 2.984375 -15.875 L 2.984375 -8.734375 Z M 4.71875 -8.734375 "/></g></g></g><g fill="#ffffff" fill-opacity="1"><g transform="translate(224.504641, 60.066301)"><g><path d="M 5.671875 -8.203125 L 3.046875 0 L 1.015625 0 L 1.015625 -17.671875 L 2.75 -17.671875 L 2.75 -4.484375 L 4.5625 -10.0625 L 7.140625 -17.671875 L 9.34375 -17.671875 L 9.34375 0 L 7.578125 0 L 7.578125 -14.0625 Z M 5.671875 -8.203125 "/></g></g></g></svg>