<svg xmlns="http://www.w3.org/2000/svg" xmlns:xlink="http://www.w3.org/1999/xlink" width="500" zoomAndPan="magnify" viewBox="0 0 375 374.999991" height="500" preserveAspectRatio="xMidYMid meet" version="1.0"><defs><g/></defs><g fill="#ffffff" fill-opacity="1"><g transform="translate(103.846514, 152.425742)"><g><path d="M 64.671875 -49.375 C 69.953125 -43.582031 72.59375 -36.507812 72.59375 -28.15625 C 72.59375 -19.800781 69.953125 -12.742188 64.671875 -6.984375 C 59.390625 -1.222656 52.679688 1.65625 44.546875 1.65625 C 37.066406 1.65625 30.90625 -1.019531 26.0625 -6.375 L 25.84375 -6.375 L 25.84375 0 L 6.59375 0 L 6.59375 -94.59375 L 26.0625 -94.59375 L 26.0625 -51.03125 C 30.90625 -55.726562 37.066406 -58.078125 44.546875 -58.078125 C 52.679688 -58.078125 59.390625 -55.175781 64.671875 -49.375 Z M 48.28125 -18.640625 C 50.695312 -21.097656 51.90625 -24.269531 51.90625 -28.15625 C 51.90625 -32.039062 50.640625 -35.226562 48.109375 -37.71875 C 45.585938 -40.21875 42.457031 -41.46875 38.71875 -41.46875 C 35.050781 -41.46875 31.953125 -40.21875 29.421875 -37.71875 C 26.890625 -35.226562 25.625 -32.039062 25.625 -28.15625 C 25.625 -24.34375 26.851562 -21.1875 29.3125 -18.6875 C 31.769531 -16.195312 34.90625 -14.953125 38.71875 -14.953125 C 42.675781 -14.953125 45.863281 -16.179688 48.28125 -18.640625 Z M 48.28125 -18.640625 "/></g></g></g><g fill="#ffffff" fill-opacity="1"><g transform="translate(178.968261, 152.425742)"><g><path d="M 24.96875 -56.421875 L 24.96875 -29.578125 C 24.96875 -24.015625 25.8125 -20.054688 27.5 -17.703125 C 29.1875 -15.359375 32.046875 -14.1875 36.078125 -14.1875 C 40.109375 -14.1875 42.96875 -15.359375 44.65625 -17.703125 C 46.34375 -20.054688 47.1875 -24.015625 47.1875 -29.578125 L 47.1875 -56.421875 L 66.65625 -56.421875 L 66.65625 -24.859375 C 66.65625 -15.472656 64.210938 -8.707031 59.328125 -4.5625 C 54.453125 -0.414062 46.695312 1.65625 36.0625 1.65625 C 25.4375 1.65625 17.6875 -0.414062 12.8125 -4.5625 C 7.9375 -8.707031 5.5 -15.472656 5.5 -24.859375 L 5.5 -56.421875 Z M 24.96875 -56.421875 "/></g></g></g><g fill="#ffffff" fill-opacity="1"><g transform="translate(251.120347, 152.425742)"><g><path d="M 10.453125 -6.984375 C 5.171875 -12.742188 2.53125 -19.800781 2.53125 -28.15625 C 2.53125 -36.507812 5.171875 -43.582031 10.453125 -49.375 C 15.734375 -55.175781 22.441406 -58.078125 30.578125 -58.078125 C 38.054688 -58.078125 44.210938 -55.726562 49.046875 -51.03125 L 49.046875 -94.59375 L 68.515625 -94.59375 L 68.515625 0 L 49.265625 0 L 49.265625 -6.375 L 49.046875 -6.375 C 44.210938 -1.019531 38.054688 1.65625 30.578125 1.65625 C 22.441406 1.65625 15.734375 -1.222656 10.453125 -6.984375 Z M 27 -37.71875 C 24.46875 -35.226562 23.203125 -32.039062 23.203125 -28.15625 C 23.203125 -24.269531 24.410156 -21.097656 26.828125 -18.640625 C 29.253906 -16.179688 32.445312 -14.953125 36.40625 -14.953125 C 40.21875 -14.953125 43.351562 -16.195312 45.8125 -18.6875 C 48.269531 -21.1875 49.5 -24.34375 49.5 -28.15625 C 49.5 -32.039062 48.234375 -35.226562 45.703125 -37.71875 C 43.171875 -40.21875 40.070312 -41.46875 36.40625 -41.46875 C 32.664062 -41.46875 29.53125 -40.21875 27 -37.71875 Z M 27 -37.71875 "/></g></g></g><g fill="#ffffff" fill-opacity="1"><g transform="translate(114.141983, 218.029277)"><g><path d="M 63.6875 -25.515625 L 22.765625 -25.515625 C 22.765625 -21.554688 24.046875 -18.625 26.609375 -16.71875 C 29.179688 -14.8125 31.96875 -13.859375 34.96875 -13.859375 C 38.125 -13.859375 40.617188 -14.28125 42.453125 -15.125 C 44.285156 -15.96875 46.375 -17.632812 48.71875 -20.125 L 62.796875 -13.09375 C 56.929688 -3.257812 47.179688 1.65625 33.546875 1.65625 C 25.035156 1.65625 17.738281 -1.257812 11.65625 -7.09375 C 5.570312 -12.925781 2.53125 -19.945312 2.53125 -28.15625 C 2.53125 -36.363281 5.570312 -43.398438 11.65625 -49.265625 C 17.738281 -55.140625 25.035156 -58.078125 33.546875 -58.078125 C 42.492188 -58.078125 49.769531 -55.488281 55.375 -50.3125 C 60.988281 -45.144531 63.796875 -37.757812 63.796875 -28.15625 C 63.796875 -26.832031 63.757812 -25.953125 63.6875 -25.515625 Z M 23.3125 -36.296875 L 44.765625 -36.296875 C 44.328125 -39.222656 43.171875 -41.472656 41.296875 -43.046875 C 39.429688 -44.628906 37.03125 -45.421875 34.09375 -45.421875 C 30.863281 -45.421875 28.296875 -44.578125 26.390625 -42.890625 C 24.484375 -41.203125 23.457031 -39.003906 23.3125 -36.296875 Z M 23.3125 -36.296875 "/></g></g></g><g fill="#ffffff" fill-opacity="1"><g transform="translate(180.46471, 218.029277)"><g><path d="M 6.59375 0 L 6.59375 -56.421875 L 26.0625 -56.421875 L 26.0625 -50.484375 L 26.28125 -50.484375 C 31.34375 -55.546875 36.734375 -58.078125 42.453125 -58.078125 C 45.242188 -58.078125 48.007812 -57.707031 50.75 -56.96875 C 53.5 -56.238281 56.140625 -55.101562 58.671875 -53.5625 C 61.203125 -52.019531 63.253906 -49.835938 64.828125 -47.015625 C 66.410156 -44.191406 67.203125 -40.910156 67.203125 -37.171875 L 67.203125 0 L 47.734375 0 L 47.734375 -31.890625 C 47.734375 -34.828125 46.796875 -37.394531 44.921875 -39.59375 C 43.054688 -41.789062 40.617188 -42.890625 37.609375 -42.890625 C 34.679688 -42.890625 32.023438 -41.753906 29.640625 -39.484375 C 27.253906 -37.210938 26.0625 -34.679688 26.0625 -31.890625 L 26.0625 0 Z M 6.59375 0 "/></g></g></g><g fill="#ffffff" fill-opacity="1"><g transform="translate(253.166739, 218.029277)"><g><path d="M 4.0625 13.859375 L 20.015625 6.046875 C 22.953125 10.890625 28.050781 13.3125 35.3125 13.3125 C 38.675781 13.3125 41.804688 12.226562 44.703125 10.0625 C 47.597656 7.894531 49.046875 4.578125 49.046875 0.109375 L 49.046875 -4.0625 C 45.609375 -0.25 39.453125 1.65625 30.578125 1.65625 C 22.441406 1.65625 15.734375 -1.222656 10.453125 -6.984375 C 5.171875 -12.742188 2.53125 -19.800781 2.53125 -28.15625 C 2.53125 -36.507812 5.171875 -43.582031 10.453125 -49.375 C 15.734375 -55.175781 22.441406 -58.078125 30.578125 -58.078125 C 37.835938 -58.078125 43.882812 -55.835938 48.71875 -51.359375 L 49.046875 -51.359375 L 49.046875 -56.421875 L 68.515625 -56.421875 L 68.515625 1.546875 C 68.515625 10.703125 65.472656 17.773438 59.390625 22.765625 C 53.304688 27.753906 45.28125 30.25 35.3125 30.25 C 19.175781 30.25 8.757812 24.785156 4.0625 13.859375 Z M 27 -37.71875 C 24.46875 -35.226562 23.203125 -32.039062 23.203125 -28.15625 C 23.203125 -24.269531 24.410156 -21.097656 26.828125 -18.640625 C 29.253906 -16.179688 32.445312 -14.953125 36.40625 -14.953125 C 40.21875 -14.953125 43.351562 -16.195312 45.8125 -18.6875 C 48.269531 -21.1875 49.5 -24.34375 49.5 -28.15625 C 49.5 -32.039062 48.234375 -35.226562 45.703125 -37.71875 C 43.171875 -40.21875 40.070312 -41.46875 36.40625 -41.46875 C 32.664062 -41.46875 29.53125 -40.21875 27 -37.71875 Z M 27 -37.71875 "/></g></g></g><g fill="#ffffff" fill-opacity="1"><g transform="translate(328.288485, 218.029277)"><g><path d="M 8.46875 -87.875 C 10.738281 -90.144531 13.453125 -91.28125 16.609375 -91.28125 C 19.765625 -91.28125 22.476562 -90.144531 24.75 -87.875 C 27.019531 -85.601562 28.15625 -82.890625 28.15625 -79.734375 C 28.15625 -76.585938 27.019531 -73.875 24.75 -71.59375 C 22.476562 -69.320312 19.765625 -68.1875 16.609375 -68.1875 C 13.453125 -68.1875 10.738281 -69.320312 8.46875 -71.59375 C 6.195312 -73.875 5.0625 -76.585938 5.0625 -79.734375 C 5.0625 -82.890625 6.195312 -85.601562 8.46875 -87.875 Z M 6.59375 -56.421875 L 6.59375 0 L 26.0625 0 L 26.0625 -56.421875 Z M 6.59375 -56.421875 "/></g></g></g><g fill="#ffffff" fill-opacity="1"><g transform="translate(13.969613, 281.499577)"><g><path d="M 6.59375 0 L 6.59375 -56.421875 L 26.0625 -56.421875 L 26.0625 -50.484375 L 26.28125 -50.484375 C 31.34375 -55.546875 36.734375 -58.078125 42.453125 -58.078125 C 45.242188 -58.078125 48.007812 -57.707031 50.75 -56.96875 C 53.5 -56.238281 56.140625 -55.101562 58.671875 -53.5625 C 61.203125 -52.019531 63.253906 -49.835938 64.828125 -47.015625 C 66.410156 -44.191406 67.203125 -40.910156 67.203125 -37.171875 L 67.203125 0 L 47.734375 0 L 47.734375 -31.890625 C 47.734375 -34.828125 46.796875 -37.394531 44.921875 -39.59375 C 43.054688 -41.789062 40.617188 -42.890625 37.609375 -42.890625 C 34.679688 -42.890625 32.023438 -41.753906 29.640625 -39.484375 C 27.253906 -37.210938 26.0625 -34.679688 26.0625 -31.890625 L 26.0625 0 Z M 6.59375 0 "/></g></g></g><g fill="#ffffff" fill-opacity="1"><g transform="translate(86.671642, 281.499577)"><g><path d="M 63.6875 -25.515625 L 22.765625 -25.515625 C 22.765625 -21.554688 24.046875 -18.625 26.609375 -16.71875 C 29.179688 -14.8125 31.96875 -13.859375 34.96875 -13.859375 C 38.125 -13.859375 40.617188 -14.28125 42.453125 -15.125 C 44.285156 -15.96875 46.375 -17.632812 48.71875 -20.125 L 62.796875 -13.09375 C 56.929688 -3.257812 47.179688 1.65625 33.546875 1.65625 C 25.035156 1.65625 17.738281 -1.257812 11.65625 -7.09375 C 5.570312 -12.925781 2.53125 -19.945312 2.53125 -28.15625 C 2.53125 -36.363281 5.570312 -43.398438 11.65625 -49.265625 C 17.738281 -55.140625 25.035156 -58.078125 33.546875 -58.078125 C 42.492188 -58.078125 49.769531 -55.488281 55.375 -50.3125 C 60.988281 -45.144531 63.796875 -37.757812 63.796875 -28.15625 C 63.796875 -26.832031 63.757812 -25.953125 63.6875 -25.515625 Z M 23.3125 -36.296875 L 44.765625 -36.296875 C 44.328125 -39.222656 43.171875 -41.472656 41.296875 -43.046875 C 39.429688 -44.628906 37.03125 -45.421875 34.09375 -45.421875 C 30.863281 -45.421875 28.296875 -44.578125 26.390625 -42.890625 C 24.484375 -41.203125 23.457031 -39.003906 23.3125 -36.296875 Z M 23.3125 -36.296875 "/></g></g></g><g fill="#ffffff" fill-opacity="1"><g transform="translate(152.994369, 281.499577)"><g><path d="M 63.6875 -25.515625 L 22.765625 -25.515625 C 22.765625 -21.554688 24.046875 -18.625 26.609375 -16.71875 C 29.179688 -14.8125 31.96875 -13.859375 34.96875 -13.859375 C 38.125 -13.859375 40.617188 -14.28125 42.453125 -15.125 C 44.285156 -15.96875 46.375 -17.632812 48.71875 -20.125 L 62.796875 -13.09375 C 56.929688 -3.257812 47.179688 1.65625 33.546875 1.65625 C 25.035156 1.65625 17.738281 -1.257812 11.65625 -7.09375 C 5.570312 -12.925781 2.53125 -19.945312 2.53125 -28.15625 C 2.53125 -36.363281 5.570312 -43.398438 11.65625 -49.265625 C 17.738281 -55.140625 25.035156 -58.078125 33.546875 -58.078125 C 42.492188 -58.078125 49.769531 -55.488281 55.375 -50.3125 C 60.988281 -45.144531 63.796875 -37.757812 63.796875 -28.15625 C 63.796875 -26.832031 63.757812 -25.953125 63.6875 -25.515625 Z M 23.3125 -36.296875 L 44.765625 -36.296875 C 44.328125 -39.222656 43.171875 -41.472656 41.296875 -43.046875 C 39.429688 -44.628906 37.03125 -45.421875 34.09375 -45.421875 C 30.863281 -45.421875 28.296875 -44.578125 26.390625 -42.890625 C 24.484375 -41.203125 23.457031 -39.003906 23.3125 -36.296875 Z M 23.3125 -36.296875 "/></g></g></g><g fill="#ffffff" fill-opacity="1"><g transform="translate(219.317095, 281.499577)"><g><path d="M 6.59375 0 L 6.59375 -56.421875 L 26.0625 -56.421875 L 26.0625 -48.28125 L 26.28125 -48.28125 C 26.425781 -48.570312 26.664062 -48.9375 27 -49.375 C 27.332031 -49.820312 28.046875 -50.59375 29.140625 -51.6875 C 30.242188 -52.789062 31.414062 -53.78125 32.65625 -54.65625 C 33.90625 -55.539062 35.519531 -56.332031 37.5 -57.03125 C 39.476562 -57.726562 41.492188 -58.078125 43.546875 -58.078125 C 45.679688 -58.078125 47.773438 -57.78125 49.828125 -57.1875 C 51.878906 -56.601562 53.378906 -56.019531 54.328125 -55.4375 L 55.875 -54.546875 L 47.734375 -38.046875 C 45.316406 -40.109375 41.941406 -41.140625 37.609375 -41.140625 C 35.265625 -41.140625 33.25 -40.625 31.5625 -39.59375 C 29.875 -38.5625 28.679688 -37.3125 27.984375 -35.84375 C 27.296875 -34.382812 26.800781 -33.140625 26.5 -32.109375 C 26.207031 -31.085938 26.0625 -30.285156 26.0625 -29.703125 L 26.0625 0 Z M 6.59375 0 "/></g></g></g><g fill="#ffffff" fill-opacity="1"><g transform="translate(20.697745, 305.211602)"><g><path d="M 5.953125 0 L 0.796875 0 L 0.796875 -1.046875 L 2.484375 -1.421875 L 2.484375 -12.84375 L 0.796875 -13.234375 L 0.796875 -14.28125 L 5.953125 -14.28125 L 5.953125 -13.234375 L 4.28125 -12.84375 L 4.28125 -1.421875 L 5.953125 -1.046875 Z M 5.953125 0 "/></g></g></g><g fill="#ffffff" fill-opacity="1"><g transform="translate(30.075077, 305.211602)"><g><path d="M 2.359375 -6.296875 L 2.359375 0 L 0.796875 0 L 0.796875 -14 L 2.359375 -14 L 2.359375 -7.703125 L 5.796875 -7.703125 L 5.796875 -14 L 7.359375 -14 L 7.359375 0 L 5.796875 0 L 5.796875 -6.296875 Z M 2.359375 -6.296875 "/></g></g></g><g fill="#ffffff" fill-opacity="1"><g transform="translate(40.831867, 305.211602)"><g><path d="M 7.640625 -6.59375 L 6.90625 -5.28125 L 6.90625 0 L 5.359375 0 L 5.359375 -5.28125 L 4.640625 -6.625 L 1.953125 0 L 0.359375 0 L 3.5625 -8.0625 L 0.4375 -14 L 2 -14 L 5.359375 -7.5625 L 5.359375 -14 L 6.90625 -14 L 6.90625 -7.5625 L 10.28125 -14 L 11.84375 -14 L 8.734375 -8.09375 L 11.921875 0 L 10.3125 0 Z M 7.640625 -6.59375 "/></g></g></g><g fill="#ffffff" fill-opacity="1"><g transform="translate(55.687038, 305.211602)"><g><path d="M 5.78125 -7.796875 L 5.78125 -6.40625 L 2.359375 -6.40625 L 2.359375 -1.421875 L 6.5625 -1.421875 L 6.5625 0 L 0.796875 0 L 0.796875 -14 L 6.5625 -14 L 6.5625 -12.578125 L 2.359375 -12.578125 L 2.359375 -7.796875 Z M 5.78125 -7.796875 "/></g></g></g><g fill="#ffffff" fill-opacity="1"><g transform="translate(65.484207, 305.211602)"><g><path d="M 2.359375 -6.296875 L 2.359375 0 L 0.796875 0 L 0.796875 -14 L 2.359375 -14 L 2.359375 -7.703125 L 5.796875 -7.703125 L 5.796875 -14 L 7.359375 -14 L 7.359375 0 L 5.796875 0 L 5.796875 -6.296875 Z M 2.359375 -6.296875 "/></g></g></g><g fill="#ffffff" fill-opacity="1"><g transform="translate(76.241, 305.211602)"><g><path d="M 5.78125 -7.796875 L 5.78125 -6.40625 L 2.359375 -6.40625 L 2.359375 -1.421875 L 6.5625 -1.421875 L 6.5625 0 L 0.796875 0 L 0.796875 -14 L 6.5625 -14 L 6.5625 -12.578125 L 2.359375 -12.578125 L 2.359375 -7.796875 Z M 5.78125 -7.796875 "/></g></g></g><g fill="#ffffff" fill-opacity="1"><g transform="translate(86.038172, 305.211602)"><g><path d="M 3.859375 -14 C 4.960938 -14 5.757812 -13.695312 6.25 -13.09375 C 6.75 -12.488281 7 -11.648438 7 -10.578125 L 7 -8.90625 C 7 -7.78125 6.734375 -6.929688 6.203125 -6.359375 C 5.679688 -5.796875 4.859375 -5.515625 3.734375 -5.515625 L 2.359375 -5.515625 L 2.359375 0 L 0.796875 0 L 0.796875 -14 Z M 3.734375 -6.921875 C 4.328125 -6.921875 4.757812 -7.0625 5.03125 -7.34375 C 5.3125 -7.632812 5.453125 -8.117188 5.453125 -8.796875 L 5.453125 -10.65625 C 5.453125 -11.300781 5.328125 -11.78125 5.078125 -12.09375 C 4.835938 -12.414062 4.429688 -12.578125 3.859375 -12.578125 L 2.359375 -12.578125 L 2.359375 -6.921875 Z M 3.734375 -6.921875 "/></g></g></g><g fill="#ffffff" fill-opacity="1"><g transform="translate(96.055254, 305.211602)"><g><path d="M 2.359375 -6.296875 L 2.359375 0 L 0.796875 0 L 0.796875 -14 L 2.359375 -14 L 2.359375 -7.703125 L 5.796875 -7.703125 L 5.796875 -14 L 7.359375 -14 L 7.359375 0 L 5.796875 0 L 5.796875 -6.296875 Z M 2.359375 -6.296875 "/></g></g></g><g fill="#ffffff" fill-opacity="1"><g transform="translate(106.812047, 305.211602)"><g><path d="M 4.5 -6.5 L 2.421875 0 L 0.796875 0 L 0.796875 -14 L 2.1875 -14 L 2.1875 -3.5625 L 3.625 -7.984375 L 5.65625 -14 L 7.40625 -14 L 7.40625 0 L 6 0 L 6 -11.140625 Z M 4.5 -6.5 "/></g></g></g><g fill="#ffffff" fill-opacity="1"><g transform="translate(117.588822, 305.211602)"><g><path d="M 6.34375 -16.875 C 6.34375 -16.257812 6.148438 -15.78125 5.765625 -15.4375 C 5.390625 -15.09375 4.863281 -14.921875 4.1875 -14.921875 C 3.5 -14.921875 2.972656 -15.09375 2.609375 -15.4375 C 2.242188 -15.78125 2.046875 -16.257812 2.015625 -16.875 L 3 -16.875 C 3.03125 -16.488281 3.148438 -16.222656 3.359375 -16.078125 C 3.578125 -15.929688 3.851562 -15.859375 4.1875 -15.859375 C 4.519531 -15.859375 4.796875 -15.929688 5.015625 -16.078125 C 5.234375 -16.222656 5.351562 -16.488281 5.375 -16.875 Z M 4.546875 -6.625 L 2.421875 0 L 0.796875 0 L 0.796875 -14 L 2.1875 -14 L 2.1875 -3.5625 L 3.5 -7.65625 L 5.65625 -14 L 7.40625 -14 L 7.40625 0 L 6 0 L 6 -11.140625 Z M 4.546875 -6.625 "/></g></g></g><g fill="#ffffff" fill-opacity="1"><g transform="translate(128.385589, 305.211602)"><g/></g></g><g fill="#ffffff" fill-opacity="1"><g transform="translate(134.084369, 305.211602)"><g><path d="M 3.8125 -14.140625 C 4.894531 -14.140625 5.691406 -13.816406 6.203125 -13.171875 C 6.722656 -12.535156 6.984375 -11.6875 6.984375 -10.625 L 6.984375 -9.359375 L 5.5 -9.359375 L 5.5 -10.703125 C 5.5 -11.335938 5.367188 -11.832031 5.109375 -12.1875 C 4.847656 -12.539062 4.429688 -12.71875 3.859375 -12.71875 C 3.296875 -12.71875 2.878906 -12.539062 2.609375 -12.1875 C 2.347656 -11.832031 2.21875 -11.335938 2.21875 -10.703125 L 2.21875 -3.296875 C 2.21875 -2.660156 2.347656 -2.164062 2.609375 -1.8125 C 2.878906 -1.457031 3.296875 -1.28125 3.859375 -1.28125 C 4.429688 -1.28125 4.847656 -1.457031 5.109375 -1.8125 C 5.367188 -2.164062 5.5 -2.660156 5.5 -3.296875 L 5.5 -5.125 L 6.984375 -5.125 L 6.984375 -3.375 C 6.984375 -2.3125 6.722656 -1.457031 6.203125 -0.8125 C 5.691406 -0.175781 4.894531 0.140625 3.8125 0.140625 C 2.75 0.140625 1.960938 -0.175781 1.453125 -0.8125 C 0.941406 -1.457031 0.6875 -2.3125 0.6875 -3.375 L 0.6875 -10.625 C 0.6875 -11.15625 0.75 -11.632812 0.875 -12.0625 C 1 -12.5 1.191406 -12.867188 1.453125 -13.171875 C 1.710938 -13.484375 2.035156 -13.722656 2.421875 -13.890625 C 2.816406 -14.054688 3.28125 -14.140625 3.8125 -14.140625 Z M 3.8125 -14.140625 "/></g></g></g><g fill="#ffffff" fill-opacity="1"><g transform="translate(144.281374, 305.211602)"><g><path d="M 5 -3.078125 C 4.875 -2.554688 4.726562 -2.09375 4.5625 -1.6875 C 4.394531 -1.289062 4.171875 -0.957031 3.890625 -0.6875 C 3.617188 -0.425781 3.269531 -0.234375 2.84375 -0.109375 C 2.425781 0.00390625 1.898438 0.046875 1.265625 0.015625 L 1.265625 -1.375 C 1.859375 -1.351562 2.304688 -1.441406 2.609375 -1.640625 C 2.910156 -1.847656 3.128906 -2.222656 3.265625 -2.765625 L 3.578125 -3.6875 L 0.359375 -14 L 1.921875 -14 L 3.34375 -9.140625 L 4.296875 -5.625 L 5.125 -9.140625 L 6.375 -14 L 8 -14 Z M 5 -3.078125 "/></g></g></g><g fill="#ffffff" fill-opacity="1"><g transform="translate(155.218092, 305.211602)"><g><path d="M 2.359375 -12.578125 L 2.359375 0 L 0.796875 0 L 0.796875 -14 L 7.359375 -14 L 7.359375 0 L 5.796875 0 L 5.796875 -12.578125 Z M 2.359375 -12.578125 "/></g></g></g><g fill="#ffffff" fill-opacity="1"><g transform="translate(165.974885, 305.211602)"><g><path d="M 3.859375 -14 C 4.960938 -14 5.757812 -13.695312 6.25 -13.09375 C 6.75 -12.488281 7 -11.648438 7 -10.578125 L 7 -8.90625 C 7 -7.78125 6.734375 -6.929688 6.203125 -6.359375 C 5.679688 -5.796875 4.859375 -5.515625 3.734375 -5.515625 L 2.359375 -5.515625 L 2.359375 0 L 0.796875 0 L 0.796875 -14 Z M 3.734375 -6.921875 C 4.328125 -6.921875 4.757812 -7.0625 5.03125 -7.34375 C 5.3125 -7.632812 5.453125 -8.117188 5.453125 -8.796875 L 5.453125 -10.65625 C 5.453125 -11.300781 5.328125 -11.78125 5.078125 -12.09375 C 4.835938 -12.414062 4.429688 -12.578125 3.859375 -12.578125 L 2.359375 -12.578125 L 2.359375 -6.921875 Z M 3.734375 -6.921875 "/></g></g></g><g fill="#ffffff" fill-opacity="1"><g transform="translate(175.991967, 305.211602)"><g><path d="M 0.6875 -10.625 C 0.6875 -11.695312 0.945312 -12.550781 1.46875 -13.1875 C 2 -13.820312 2.800781 -14.140625 3.875 -14.140625 C 4.957031 -14.140625 5.765625 -13.820312 6.296875 -13.1875 C 6.828125 -12.550781 7.09375 -11.695312 7.09375 -10.625 L 7.09375 -3.375 C 7.09375 -2.3125 6.828125 -1.457031 6.296875 -0.8125 C 5.765625 -0.175781 4.957031 0.140625 3.875 0.140625 C 2.800781 0.140625 2 -0.175781 1.46875 -0.8125 C 0.945312 -1.457031 0.6875 -2.3125 0.6875 -3.375 Z M 2.21875 -3.296875 C 2.21875 -2.660156 2.351562 -2.164062 2.625 -1.8125 C 2.90625 -1.457031 3.320312 -1.28125 3.875 -1.28125 C 4.445312 -1.28125 4.867188 -1.457031 5.140625 -1.8125 C 5.410156 -2.164062 5.546875 -2.660156 5.546875 -3.296875 L 5.546875 -10.703125 C 5.546875 -11.335938 5.410156 -11.832031 5.140625 -12.1875 C 4.867188 -12.539062 4.445312 -12.71875 3.875 -12.71875 C 3.320312 -12.71875 2.90625 -12.539062 2.625 -12.1875 C 2.351562 -11.832031 2.21875 -11.335938 2.21875 -10.703125 Z M 2.21875 -3.296875 "/></g></g></g><g fill="#ffffff" fill-opacity="1"><g transform="translate(186.368907, 305.211602)"><g><path d="M 3.9375 -14 C 5.03125 -14 5.8125 -13.738281 6.28125 -13.21875 C 6.75 -12.707031 6.984375 -11.9375 6.984375 -10.90625 L 6.984375 -10.234375 C 6.984375 -9.492188 6.863281 -8.890625 6.625 -8.421875 C 6.382812 -7.960938 5.957031 -7.640625 5.34375 -7.453125 C 6.019531 -7.273438 6.5 -6.925781 6.78125 -6.40625 C 7.070312 -5.882812 7.21875 -5.234375 7.21875 -4.453125 L 7.21875 -3.28125 C 7.21875 -2.226562 6.957031 -1.414062 6.4375 -0.84375 C 5.914062 -0.28125 5.109375 0 4.015625 0 L 0.796875 0 L 0.796875 -14 Z M 3.5625 -8.0625 C 4.1875 -8.0625 4.65625 -8.1875 4.96875 -8.4375 C 5.28125 -8.6875 5.4375 -9.179688 5.4375 -9.921875 L 5.4375 -10.734375 C 5.4375 -11.367188 5.316406 -11.832031 5.078125 -12.125 C 4.847656 -12.425781 4.457031 -12.578125 3.90625 -12.578125 L 2.359375 -12.578125 L 2.359375 -8.0625 Z M 4.015625 -1.421875 C 5.128906 -1.421875 5.6875 -2.050781 5.6875 -3.3125 L 5.6875 -4.5625 C 5.6875 -5.34375 5.523438 -5.882812 5.203125 -6.1875 C 4.890625 -6.488281 4.394531 -6.640625 3.71875 -6.640625 L 2.359375 -6.640625 L 2.359375 -1.421875 Z M 4.015625 -1.421875 "/></g></g></g><g fill="#ffffff" fill-opacity="1"><g transform="translate(196.805826, 305.211602)"><g><path d="M 5.953125 0 L 0.796875 0 L 0.796875 -1.046875 L 2.484375 -1.421875 L 2.484375 -12.84375 L 0.796875 -13.234375 L 0.796875 -14.28125 L 5.953125 -14.28125 L 5.953125 -13.234375 L 4.28125 -12.84375 L 4.28125 -1.421875 L 5.953125 -1.046875 Z M 5.953125 0 "/></g></g></g><g fill="#ffffff" fill-opacity="1"><g transform="translate(206.183158, 305.211602)"><g><path d="M 7.703125 1.921875 L 7.703125 0 L 1.984375 0 L 1.984375 1.921875 L 0.484375 1.921875 L 0.484375 -1.375 L 1.375 -1.375 C 1.613281 -1.644531 1.769531 -1.945312 1.84375 -2.28125 C 1.914062 -2.613281 1.96875 -2.992188 2 -3.421875 L 2.546875 -14 L 8.15625 -14 L 8.15625 -1.375 L 9.21875 -1.375 L 9.21875 1.921875 Z M 3.515625 -3.4375 C 3.492188 -2.9375 3.4375 -2.523438 3.34375 -2.203125 C 3.257812 -1.878906 3.101562 -1.601562 2.875 -1.375 L 6.578125 -1.375 L 6.578125 -12.578125 L 3.984375 -12.578125 Z M 3.515625 -3.4375 "/></g></g></g><g fill="#ffffff" fill-opacity="1"><g transform="translate(218.559302, 305.211602)"><g/></g></g><g fill="#ffffff" fill-opacity="1"><g transform="translate(224.25807, 305.211602)"><g><path d="M 4 -8.21875 C 5.09375 -8.21875 5.914062 -7.953125 6.46875 -7.421875 C 7.019531 -6.898438 7.296875 -6.070312 7.296875 -4.9375 L 7.296875 -3.40625 C 7.296875 -2.3125 7.035156 -1.46875 6.515625 -0.875 C 5.992188 -0.289062 5.179688 0 4.078125 0 L 0.8125 0 L 0.8125 -14 L 6.71875 -14 L 6.71875 -12.578125 L 2.359375 -12.578125 L 2.359375 -8.21875 Z M 4.078125 -1.421875 C 4.648438 -1.421875 5.066406 -1.566406 5.328125 -1.859375 C 5.597656 -2.160156 5.734375 -2.640625 5.734375 -3.296875 L 5.734375 -5.046875 C 5.734375 -5.722656 5.585938 -6.1875 5.296875 -6.4375 C 5.003906 -6.6875 4.570312 -6.8125 4 -6.8125 L 2.359375 -6.8125 L 2.359375 -1.421875 Z M 4.078125 -1.421875 "/></g></g></g><g fill="#ffffff" fill-opacity="1"><g transform="translate(234.874914, 305.211602)"><g><path d="M 5 -3.078125 C 4.875 -2.554688 4.726562 -2.09375 4.5625 -1.6875 C 4.394531 -1.289062 4.171875 -0.957031 3.890625 -0.6875 C 3.617188 -0.425781 3.269531 -0.234375 2.84375 -0.109375 C 2.425781 0.00390625 1.898438 0.046875 1.265625 0.015625 L 1.265625 -1.375 C 1.859375 -1.351562 2.304688 -1.441406 2.609375 -1.640625 C 2.910156 -1.847656 3.128906 -2.222656 3.265625 -2.765625 L 3.578125 -3.6875 L 0.359375 -14 L 1.921875 -14 L 3.34375 -9.140625 L 4.296875 -5.625 L 5.125 -9.140625 L 6.375 -14 L 8 -14 Z M 5 -3.078125 "/></g></g></g><g fill="#ffffff" fill-opacity="1"><g transform="translate(245.811619, 305.211602)"><g><path d="M 7.703125 1.921875 L 7.703125 0 L 1.984375 0 L 1.984375 1.921875 L 0.484375 1.921875 L 0.484375 -1.375 L 1.375 -1.375 C 1.613281 -1.644531 1.769531 -1.945312 1.84375 -2.28125 C 1.914062 -2.613281 1.96875 -2.992188 2 -3.421875 L 2.546875 -14 L 8.15625 -14 L 8.15625 -1.375 L 9.21875 -1.375 L 9.21875 1.921875 Z M 3.515625 -3.4375 C 3.492188 -2.9375 3.4375 -2.523438 3.34375 -2.203125 C 3.257812 -1.878906 3.101562 -1.601562 2.875 -1.375 L 6.578125 -1.375 L 6.578125 -12.578125 L 3.984375 -12.578125 Z M 3.515625 -3.4375 "/></g></g></g><g fill="#ffffff" fill-opacity="1"><g transform="translate(258.187765, 305.211602)"><g><path d="M 5.953125 0 L 0.796875 0 L 0.796875 -1.046875 L 2.484375 -1.421875 L 2.484375 -12.84375 L 0.796875 -13.234375 L 0.796875 -14.28125 L 5.953125 -14.28125 L 5.953125 -13.234375 L 4.28125 -12.84375 L 4.28125 -1.421875 L 5.953125 -1.046875 Z M 5.953125 0 "/></g></g></g><g fill="#ffffff" fill-opacity="1"><g transform="translate(267.565097, 305.211602)"><g><path d="M 3.9375 -14 C 5.03125 -14 5.8125 -13.738281 6.28125 -13.21875 C 6.75 -12.707031 6.984375 -11.9375 6.984375 -10.90625 L 6.984375 -10.234375 C 6.984375 -9.492188 6.863281 -8.890625 6.625 -8.421875 C 6.382812 -7.960938 5.957031 -7.640625 5.34375 -7.453125 C 6.019531 -7.273438 6.5 -6.925781 6.78125 -6.40625 C 7.070312 -5.882812 7.21875 -5.234375 7.21875 -4.453125 L 7.21875 -3.28125 C 7.21875 -2.226562 6.957031 -1.414062 6.4375 -0.84375 C 5.914062 -0.28125 5.109375 0 4.015625 0 L 0.796875 0 L 0.796875 -14 Z M 3.5625 -8.0625 C 4.1875 -8.0625 4.65625 -8.1875 4.96875 -8.4375 C 5.28125 -8.6875 5.4375 -9.179688 5.4375 -9.921875 L 5.4375 -10.734375 C 5.4375 -11.367188 5.316406 -11.832031 5.078125 -12.125 C 4.847656 -12.425781 4.457031 -12.578125 3.90625 -12.578125 L 2.359375 -12.578125 L 2.359375 -8.0625 Z M 4.015625 -1.421875 C 5.128906 -1.421875 5.6875 -2.050781 5.6875 -3.3125 L 5.6875 -4.5625 C 5.6875 -5.34375 5.523438 -5.882812 5.203125 -6.1875 C 4.890625 -6.488281 4.394531 -6.640625 3.71875 -6.640625 L 2.359375 -6.640625 L 2.359375 -1.421875 Z M 4.015625 -1.421875 "/></g></g></g><g fill="#ffffff" fill-opacity="1"><g transform="translate(278.002016, 305.211602)"><g><path d="M 2.359375 -6.296875 L 2.359375 0 L 0.796875 0 L 0.796875 -14 L 2.359375 -14 L 2.359375 -7.703125 L 5.796875 -7.703125 L 5.796875 -14 L 7.359375 -14 L 7.359375 0 L 5.796875 0 L 5.796875 -6.296875 Z M 2.359375 -6.296875 "/></g></g></g><g fill="#ffffff" fill-opacity="1"><g transform="translate(288.758798, 305.211602)"><g><path d="M 4.5 -6.5 L 2.421875 0 L 0.796875 0 L 0.796875 -14 L 2.1875 -14 L 2.1875 -3.5625 L 3.625 -7.984375 L 5.65625 -14 L 7.40625 -14 L 7.40625 0 L 6 0 L 6 -11.140625 Z M 4.5 -6.5 "/></g></g></g><g fill="#ffffff" fill-opacity="1"><g transform="translate(299.535561, 305.211602)"><g><path d="M 7.046875 1.875 L 7.046875 0 L 0.9375 0 L 0.9375 -14 L 2.484375 -14 L 2.484375 -1.421875 L 5.921875 -1.421875 L 5.921875 -14 L 7.5 -14 L 7.5 -1.375 L 8.5625 -1.375 L 8.5625 1.875 Z M 7.046875 1.875 "/></g></g></g><g fill="#ffffff" fill-opacity="1"><g transform="translate(311.231972, 305.211602)"><g><path d="M 2.9375 0 L 2.9375 -12.578125 L 0.359375 -12.578125 L 0.359375 -14 L 7.078125 -14 L 7.078125 -12.578125 L 4.5 -12.578125 L 4.5 0 Z M 2.9375 0 "/></g></g></g><g fill="#ffffff" fill-opacity="1"><g transform="translate(321.269035, 305.211602)"><g><path d="M 3.9375 -14 C 5.03125 -14 5.8125 -13.738281 6.28125 -13.21875 C 6.75 -12.707031 6.984375 -11.9375 6.984375 -10.90625 L 6.984375 -10.234375 C 6.984375 -9.492188 6.863281 -8.890625 6.625 -8.421875 C 6.382812 -7.960938 5.957031 -7.640625 5.34375 -7.453125 C 6.019531 -7.273438 6.5 -6.925781 6.78125 -6.40625 C 7.070312 -5.882812 7.21875 -5.234375 7.21875 -4.453125 L 7.21875 -3.28125 C 7.21875 -2.226562 6.957031 -1.414062 6.4375 -0.84375 C 5.914062 -0.28125 5.109375 0 4.015625 0 L 0.796875 0 L 0.796875 -14 Z M 3.5625 -8.0625 C 4.1875 -8.0625 4.65625 -8.1875 4.96875 -8.4375 C 5.28125 -8.6875 5.4375 -9.179688 5.4375 -9.921875 L 5.4375 -10.734375 C 5.4375 -11.367188 5.316406 -11.832031 5.078125 -12.125 C 4.847656 -12.425781 4.457031 -12.578125 3.90625 -12.578125 L 2.359375 -12.578125 L 2.359375 -8.0625 Z M 4.015625 -1.421875 C 5.128906 -1.421875 5.6875 -2.050781 5.6875 -3.3125 L 5.6875 -4.5625 C 5.6875 -5.34375 5.523438 -5.882812 5.203125 -6.1875 C 4.890625 -6.488281 4.394531 -6.640625 3.71875 -6.640625 L 2.359375 -6.640625 L 2.359375 -1.421875 Z M 4.015625 -1.421875 "/></g></g></g><g fill="#ffffff" fill-opacity="1"><g transform="translate(331.705954, 305.211602)"><g><path d="M 2.375 -2.8125 L 1.84375 0 L 0.40625 0 L 3.078125 -14 L 5.34375 -14 L 8.015625 0 L 6.453125 0 L 5.921875 -2.8125 Z M 2.578125 -4.15625 L 5.703125 -4.15625 L 4.125 -12.234375 Z M 2.578125 -4.15625 "/></g></g></g></svg>