<svg xmlns="http://www.w3.org/2000/svg" xmlns:xlink="http://www.w3.org/1999/xlink" width="500" zoomAndPan="magnify" viewBox="0 0 375 374.999991" height="500" preserveAspectRatio="xMidYMid meet" version="1.0"><defs><g/><clipPath id="ca6f5b9b3c"><path d="M 155.023438 187.5 L 220.273438 187.5 L 220.273438 252.75 L 155.023438 252.75 Z M 155.023438 187.5 " clip-rule="nonzero"/></clipPath><clipPath id="ee7cd26c89"><path d="M 178 104 L 253 104 L 253 183.90625 L 178 183.90625 Z M 178 104 " clip-rule="nonzero"/></clipPath><clipPath id="2d401db74a"><path d="M 234 135 L 259.5 135 L 259.5 173 L 234 173 Z M 234 135 " clip-rule="nonzero"/></clipPath><clipPath id="47634dcbbd"><path d="M 240 146 L 259.5 146 L 259.5 174 L 240 174 Z M 240 146 " clip-rule="nonzero"/></clipPath><clipPath id="246d80e35c"><path d="M 115.5 97 L 259.5 97 L 259.5 175 L 115.5 175 Z M 115.5 97 " clip-rule="nonzero"/></clipPath><clipPath id="0e88965a78"><path d="M 155 33.90625 L 180 33.90625 L 180 55 L 155 55 Z M 155 33.90625 " clip-rule="nonzero"/></clipPath></defs><g clip-path="url(#ca6f5b9b3c)"><path fill="#ffc300" d="M 220.273438 241.417969 C 220.273438 247.652344 215.175781 252.75 208.941406 252.75 L 166.355469 252.75 C 160.125 252.75 155.023438 247.652344 155.023438 241.417969 L 155.023438 198.832031 C 155.023438 192.597656 160.125 187.5 166.355469 187.5 L 208.941406 187.5 C 215.175781 187.5 220.277344 192.597656 220.277344 198.832031 L 220.277344 241.417969 Z M 220.273438 241.417969 " fill-opacity="1" fill-rule="nonzero"/></g><path fill="#ffffff" d="M 201.90625 249.738281 L 196.921875 249.738281 C 196.332031 249.738281 195.855469 249.257812 195.855469 248.667969 C 195.855469 248.078125 196.332031 247.601562 196.921875 247.601562 L 201.90625 247.601562 C 202.5 247.601562 202.976562 248.078125 202.976562 248.667969 C 202.976562 249.257812 202.496094 249.738281 201.90625 249.738281 Z M 191.9375 249.738281 L 186.953125 249.738281 C 186.363281 249.738281 185.882812 249.257812 185.882812 248.667969 C 185.882812 248.078125 186.363281 247.601562 186.953125 247.601562 L 191.9375 247.601562 C 192.527344 247.601562 193.007812 248.078125 193.007812 248.667969 C 193.003906 249.257812 192.527344 249.738281 191.9375 249.738281 Z M 181.96875 249.738281 L 176.984375 249.738281 C 176.390625 249.738281 175.914062 249.257812 175.914062 248.667969 C 175.914062 248.078125 176.394531 247.601562 176.984375 247.601562 L 181.96875 247.601562 C 182.558594 247.601562 183.035156 248.078125 183.035156 248.667969 C 183.035156 249.257812 182.558594 249.738281 181.96875 249.738281 Z M 171.996094 249.738281 L 169.019531 249.738281 C 168.277344 249.738281 167.535156 249.660156 166.8125 249.511719 C 166.234375 249.394531 165.863281 248.828125 165.980469 248.25 C 166.101562 247.671875 166.664062 247.304688 167.242188 247.421875 C 167.824219 247.539062 168.421875 247.601562 169.019531 247.601562 L 171.996094 247.601562 C 172.585938 247.601562 173.066406 248.078125 173.066406 248.667969 C 173.066406 249.257812 172.585938 249.738281 171.996094 249.738281 Z M 206.890625 249.71875 C 206.332031 249.71875 205.859375 249.28125 205.824219 248.714844 C 205.789062 248.125 206.238281 247.621094 206.824219 247.582031 C 208.304688 247.492188 209.75 247.019531 211.003906 246.21875 C 211.503906 245.902344 212.164062 246.050781 212.480469 246.546875 C 212.796875 247.042969 212.652344 247.703125 212.152344 248.023438 C 210.59375 249.015625 208.796875 249.601562 206.957031 249.714844 C 206.9375 249.71875 206.914062 249.71875 206.890625 249.71875 Z M 162.597656 247.363281 C 162.355469 247.363281 162.109375 247.277344 161.90625 247.105469 C 160.5 245.90625 159.410156 244.363281 158.753906 242.648438 C 158.542969 242.097656 158.820312 241.480469 159.371094 241.269531 C 159.921875 241.058594 160.539062 241.335938 160.75 241.886719 C 161.277344 243.269531 162.15625 244.511719 163.292969 245.480469 C 163.742188 245.863281 163.796875 246.539062 163.414062 246.988281 C 163.199219 247.234375 162.902344 247.363281 162.597656 247.363281 Z M 214.957031 244.597656 C 214.785156 244.597656 214.605469 244.554688 214.441406 244.460938 C 213.925781 244.175781 213.738281 243.527344 214.023438 243.011719 C 214.746094 241.710938 215.125 240.238281 215.125 238.753906 L 215.125 236.824219 C 215.125 236.234375 215.601562 235.753906 216.191406 235.753906 C 216.78125 235.753906 217.261719 236.234375 217.261719 236.824219 L 217.261719 238.753906 C 217.261719 240.601562 216.789062 242.429688 215.894531 244.046875 C 215.699219 244.398438 215.335938 244.597656 214.957031 244.597656 Z M 159.105469 238.429688 C 158.515625 238.429688 158.039062 237.953125 158.039062 237.363281 L 158.039062 232.375 C 158.039062 231.785156 158.515625 231.308594 159.105469 231.308594 C 159.695312 231.308594 160.175781 231.785156 160.175781 232.375 L 160.175781 237.363281 C 160.175781 237.953125 159.695312 238.429688 159.105469 238.429688 Z M 216.191406 232.90625 C 215.601562 232.90625 215.125 232.429688 215.125 231.835938 L 215.125 226.851562 C 215.125 226.261719 215.601562 225.785156 216.191406 225.785156 C 216.78125 225.785156 217.261719 226.261719 217.261719 226.851562 L 217.261719 231.835938 C 217.261719 232.429688 216.78125 232.90625 216.191406 232.90625 Z M 159.105469 228.460938 C 158.515625 228.460938 158.039062 227.980469 158.039062 227.390625 L 158.039062 222.40625 C 158.039062 221.816406 158.515625 221.339844 159.105469 221.339844 C 159.695312 221.339844 160.175781 221.816406 160.175781 222.40625 L 160.175781 227.390625 C 160.175781 227.980469 159.695312 228.460938 159.105469 228.460938 Z M 216.191406 222.9375 C 215.601562 222.9375 215.125 222.457031 215.125 221.867188 L 215.125 216.882812 C 215.125 216.292969 215.601562 215.8125 216.191406 215.8125 C 216.78125 215.8125 217.261719 216.292969 217.261719 216.882812 L 217.261719 221.867188 C 217.261719 222.457031 216.78125 222.9375 216.191406 222.9375 Z M 159.105469 218.488281 C 158.515625 218.488281 158.039062 218.011719 158.039062 217.421875 L 158.039062 212.4375 C 158.039062 211.847656 158.515625 211.367188 159.105469 211.367188 C 159.695312 211.367188 160.175781 211.847656 160.175781 212.4375 L 160.175781 217.421875 C 160.175781 218.011719 159.695312 218.488281 159.105469 218.488281 Z M 216.191406 212.964844 C 215.601562 212.964844 215.125 212.488281 215.125 211.898438 L 215.125 206.914062 C 215.125 206.324219 215.601562 205.84375 216.191406 205.84375 C 216.78125 205.84375 217.261719 206.324219 217.261719 206.914062 L 217.261719 211.898438 C 217.261719 212.488281 216.78125 212.964844 216.191406 212.964844 Z M 159.105469 208.519531 C 158.515625 208.519531 158.039062 208.042969 158.039062 207.449219 L 158.039062 202.464844 C 158.039062 201.875 158.515625 201.398438 159.105469 201.398438 C 159.695312 201.398438 160.175781 201.875 160.175781 202.464844 L 160.175781 207.449219 C 160.175781 208.042969 159.695312 208.519531 159.105469 208.519531 Z M 216.191406 202.996094 C 215.601562 202.996094 215.125 202.515625 215.125 201.925781 L 215.125 201.5 C 215.125 200.125 214.816406 198.808594 214.203125 197.582031 C 213.9375 197.050781 214.152344 196.410156 214.679688 196.148438 C 215.207031 195.882812 215.851562 196.097656 216.113281 196.628906 C 216.875 198.152344 217.261719 199.792969 217.261719 201.5 L 217.261719 201.925781 C 217.261719 202.515625 216.78125 202.996094 216.191406 202.996094 Z M 159.914062 198.660156 C 159.769531 198.660156 159.628906 198.632812 159.488281 198.574219 C 158.949219 198.339844 158.699219 197.710938 158.933594 197.167969 C 159.664062 195.480469 160.816406 193.988281 162.273438 192.847656 C 162.738281 192.484375 163.40625 192.566406 163.773438 193.03125 C 164.136719 193.496094 164.054688 194.167969 163.589844 194.53125 C 162.414062 195.449219 161.480469 196.65625 160.894531 198.015625 C 160.71875 198.417969 160.324219 198.660156 159.914062 198.660156 Z M 211.933594 194.4375 C 211.722656 194.4375 211.507812 194.375 211.324219 194.246094 C 210.101562 193.390625 208.679688 192.859375 207.207031 192.703125 C 206.621094 192.640625 206.195312 192.113281 206.253906 191.527344 C 206.316406 190.941406 206.839844 190.511719 207.429688 190.578125 C 209.261719 190.769531 211.03125 191.433594 212.546875 192.496094 C 213.03125 192.832031 213.148438 193.5 212.8125 193.980469 C 212.601562 194.277344 212.273438 194.4375 211.933594 194.4375 Z M 167.445312 192.78125 C 166.929688 192.78125 166.476562 192.40625 166.390625 191.882812 C 166.296875 191.296875 166.695312 190.75 167.277344 190.65625 C 167.847656 190.5625 168.4375 190.515625 169.019531 190.515625 L 172.425781 190.515625 C 173.015625 190.515625 173.492188 190.996094 173.492188 191.585938 C 173.492188 192.175781 173.015625 192.652344 172.425781 192.652344 L 169.019531 192.652344 C 168.550781 192.652344 168.078125 192.691406 167.617188 192.765625 C 167.558594 192.773438 167.503906 192.78125 167.445312 192.78125 Z M 202.335938 192.652344 L 197.351562 192.652344 C 196.761719 192.652344 196.28125 192.175781 196.28125 191.585938 C 196.28125 190.996094 196.761719 190.515625 197.351562 190.515625 L 202.335938 190.515625 C 202.925781 190.515625 203.402344 190.996094 203.402344 191.585938 C 203.402344 192.175781 202.925781 192.652344 202.335938 192.652344 Z M 192.363281 192.652344 L 187.378906 192.652344 C 186.789062 192.652344 186.3125 192.175781 186.3125 191.585938 C 186.3125 190.996094 186.789062 190.515625 187.378906 190.515625 L 192.363281 190.515625 C 192.957031 190.515625 193.433594 190.996094 193.433594 191.585938 C 193.433594 192.175781 192.957031 192.652344 192.363281 192.652344 Z M 182.394531 192.652344 L 177.410156 192.652344 C 176.820312 192.652344 176.339844 192.175781 176.339844 191.585938 C 176.339844 190.996094 176.820312 190.515625 177.410156 190.515625 L 182.394531 190.515625 C 182.984375 190.515625 183.464844 190.996094 183.464844 191.585938 C 183.464844 192.175781 182.984375 192.652344 182.394531 192.652344 Z M 182.394531 192.652344 " fill-opacity="1" fill-rule="nonzero"/><path fill="#4b1d00" d="M 201.011719 232.023438 C 200.789062 231.84375 200.507812 231.75 200.214844 231.777344 C 200.105469 231.777344 190.027344 232.277344 186.777344 232.3125 C 186.8125 232.277344 186.84375 232.230469 186.871094 232.203125 C 187.972656 230.824219 189.167969 229.542969 190.324219 228.296875 C 191.554688 226.96875 192.835938 225.601562 194.027344 224.089844 C 196.980469 220.324219 200.296875 215.285156 199.710938 209.644531 C 199.074219 203.777344 193.164062 201.152344 187.582031 201.152344 C 184.503906 201.152344 181.535156 201.925781 179.21875 203.316406 C 179.179688 203.355469 174.132812 206.804688 173.980469 207.855469 C 173.941406 208.117188 174.042969 208.414062 174.246094 208.609375 C 174.558594 208.925781 175.144531 209.328125 175.878906 209.839844 C 176.617188 210.355469 178.632812 212.414062 179.027344 212.535156 C 179.433594 212.675781 179.890625 212.589844 180.183594 212.304688 L 180.554688 211.941406 C 180.832031 211.667969 181.132812 211.378906 181.449219 211.105469 C 183.527344 209.320312 185.875 207.667969 188.863281 208.007812 C 189.992188 208.136719 190.761719 208.601562 191.210938 209.433594 C 192.34375 211.539062 191.273438 215.457031 190.058594 217.136719 C 188.375 219.460938 186.492188 221.734375 184.707031 223.847656 C 181.953125 227.101562 179.632812 229.738281 177.398438 232.160156 C 176.277344 233.382812 174.734375 236.402344 175.625 238.066406 C 175.972656 238.703125 176.664062 239.078125 177.511719 239.078125 C 178.402344 239.085938 179.378906 239.09375 180.402344 239.09375 C 186.867188 239.09375 199.140625 238.898438 200.59375 238.484375 C 201.035156 238.363281 201.335938 238 201.335938 237.609375 L 201.335938 232.695312 C 201.335938 232.441406 201.214844 232.203125 201.011719 232.023438 Z M 201.011719 232.023438 " fill-opacity="1" fill-rule="evenodd"/><g clip-path="url(#ee7cd26c89)"><path fill="#ffcb24" d="M 227.859375 157.285156 C 223.335938 155.042969 219 157.492188 219.066406 162.164062 C 219.09375 164.535156 220.265625 167.082031 222.105469 168.671875 C 224.691406 170.894531 228.167969 171.796875 231.394531 172.351562 C 233.398438 166.5625 233.3125 160.011719 227.859375 157.285156 Z M 227.859375 157.285156 C 223.335938 155.042969 219 157.492188 219.066406 162.164062 C 219.09375 164.535156 220.265625 167.082031 222.105469 168.671875 C 224.691406 170.894531 228.167969 171.796875 231.394531 172.351562 C 233.398438 166.5625 233.3125 160.011719 227.859375 157.285156 Z M 227.859375 157.285156 C 223.335938 155.042969 219 157.492188 219.066406 162.164062 C 219.09375 164.535156 220.265625 167.082031 222.105469 168.671875 C 224.691406 170.894531 228.167969 171.796875 231.394531 172.351562 C 233.398438 166.5625 233.3125 160.011719 227.859375 157.285156 Z M 242.144531 162.847656 C 242.558594 164.375 243.289062 166.089844 243.492188 167.714844 C 245.453125 164.800781 248.296875 158.882812 250.09375 152.707031 C 250.6875 150.671875 251.179688 148.605469 251.566406 146.515625 C 244.890625 148.316406 240.308594 156.074219 242.144531 162.847656 Z M 252.441406 129.84375 C 252.203125 129.554688 251.933594 129.292969 251.609375 129.074219 C 249.785156 127.820312 246.570312 128.945312 246.496094 131.171875 C 246.433594 132.746094 247.789062 133.984375 249.066406 134.46875 C 250.203125 134.894531 251.453125 134.933594 252.652344 134.90625 C 252.652344 133.21875 252.582031 131.527344 252.441406 129.84375 Z M 201.75 126.988281 C 201.546875 121.5 198.457031 116.09375 192.621094 113.070312 C 188.460938 116.207031 184.910156 120.332031 180.355469 123.257812 C 179.6875 123.6875 179.007812 124.113281 178.328125 124.523438 C 179.128906 126.148438 179.933594 127.699219 180.742188 129.171875 C 182.226562 126.832031 185.039062 125.269531 187.738281 126.167969 C 190.121094 126.957031 191.777344 129.285156 192.171875 132.398438 L 201.78125 127.113281 C 201.765625 127.074219 201.75 127.03125 201.75 126.988281 Z M 187.554688 126.714844 C 185.023438 125.875 182.390625 127.46875 181.0625 129.746094 C 182.386719 132.132812 183.707031 134.324219 185.023438 136.332031 L 185.800781 135.898438 C 185.800781 135.15625 185.964844 134.289062 186.640625 133.976562 C 187.140625 133.753906 187.863281 133.878906 188.441406 134.457031 L 191.65625 132.691406 C 191.636719 132.652344 191.625 132.617188 191.621094 132.582031 C 191.269531 129.632812 189.75 127.441406 187.554688 126.714844 Z M 248.679688 141.160156 C 243.15625 145.238281 236.601562 147.988281 229.976562 146.066406 L 230 145.929688 L 229.054688 145.757812 C 227.046875 145.03125 225.28125 143.882812 223.945312 142.390625 C 220.746094 138.824219 220.382812 133.140625 223.132812 129.722656 C 225.472656 126.804688 229.375 125.792969 232.515625 124.433594 C 227.449219 120.566406 228.402344 112.714844 234.5625 112.191406 C 236.21875 112.0625 237.703125 112.628906 238.632812 113.753906 C 240.550781 116.074219 239.707031 119.628906 237.773438 121.722656 C 236.632812 122.960938 235.210938 123.828125 233.6875 124.542969 C 237.835938 127.066406 245.234375 126.96875 251.347656 122.511719 C 249.738281 115.097656 246.527344 108.515625 239.5 105.753906 C 239.226562 105.753906 235.789062 103.863281 228.6875 104.34375 C 228.464844 105.941406 226.875 107.292969 225.59375 108.191406 C 224.113281 109.230469 222.445312 109.945312 220.789062 110.660156 C 219.078125 111.394531 217.324219 112.140625 215.476562 112.269531 C 213.671875 112.390625 211.15625 111.832031 210.632812 109.9375 C 210.402344 109.089844 210.203125 108.226562 210.019531 107.355469 C 207.230469 107.851562 204.445312 108.355469 201.660156 108.859375 C 198.359375 109.453125 195.628906 110.878906 193.136719 112.6875 C 198.949219 115.8125 202.058594 121.28125 202.320312 126.816406 L 209.519531 122.863281 C 208.472656 121.738281 206.976562 121.019531 205.445312 121.058594 C 205.074219 121.089844 205.035156 120.5 205.429688 120.484375 C 207.183594 120.429688 208.878906 121.273438 210.039062 122.578125 L 223.882812 114.957031 L 227.777344 122.042969 L 210.058594 131.792969 C 209.59375 132.8125 209.089844 134.375 209.015625 135.625 C 210.195312 131.429688 215.085938 131.703125 216.671875 134.414062 C 217.832031 136.425781 216.976562 139.273438 214.917969 140.339844 C 213.164062 141.25 210.796875 140.691406 209.503906 139.195312 C 209.6875 140.15625 210.414062 142.203125 210.5 142.398438 L 209.839844 142.28125 C 209.289062 140.753906 208.851562 139.492188 208.769531 137.96875 C 208.019531 136.027344 208.636719 133.832031 209.261719 132.230469 L 194.542969 140.324219 C 196.21875 141.4375 198.058594 142.304688 200.035156 142.851562 L 198.359375 152.085938 C 203.851562 156.730469 206.230469 157.527344 206.417969 157.65625 C 175.144531 168.785156 185.539062 165.085938 183.367188 165.859375 C 183.398438 168.46875 183.242188 170.894531 183.125 172.628906 C 183.03125 174.117188 182.714844 175.699219 182.792969 177.148438 C 182.878906 178.855469 182.859375 179.496094 180.875 180 C 179.824219 180.269531 178.097656 181.917969 179.097656 183.089844 C 179.800781 183.90625 181.957031 183.464844 182.9375 183.464844 C 233.835938 183.433594 228.992188 183.523438 234.429688 183.402344 C 237.152344 183.347656 239.890625 183.300781 242.570312 183.488281 C 242.890625 180.535156 242.511719 177.300781 242.472656 174.316406 C 242.472656 173.703125 242.339844 172.625 242.296875 171.824219 C 239.914062 174.335938 234.960938 173.523438 231.769531 173 C 230.785156 175.960938 228.5 178.417969 228.09375 181.382812 C 228.027344 181.769531 227.476562 181.671875 227.519531 181.304688 C 227.945312 178.300781 229.921875 176.261719 231.195312 172.902344 C 227.925781 172.339844 224.398438 171.402344 221.730469 169.109375 C 219.746094 167.390625 218.515625 164.746094 218.492188 162.167969 C 218.425781 157.085938 223.148438 154.378906 227.96875 156.703125 C 233.804688 159.480469 234.054688 166.347656 231.972656 172.449219 C 235.269531 172.996094 240.347656 173.765625 242.265625 170.949219 C 242.28125 169.890625 242.441406 169.371094 242.972656 168.503906 C 242.945312 166.726562 242.121094 164.9375 241.585938 163 C 239.664062 155.914062 244.472656 147.664062 251.683594 145.890625 C 252.179688 143.082031 252.488281 140.238281 252.605469 137.386719 C 251.53125 138.925781 250.0625 140.140625 248.679688 141.160156 Z M 209.339844 137.839844 C 210.53125 140.8125 215.355469 141.296875 216.457031 137.539062 C 217.964844 132.289062 209.066406 130.605469 209.339844 137.839844 Z M 238.191406 114.121094 C 237.457031 113.238281 236.328125 112.75 235.035156 112.75 C 229.0625 112.75 227.996094 120.546875 233.125 124.167969 C 234.707031 123.449219 236.195312 122.582031 237.351562 121.328125 C 239.074219 119.457031 239.882812 116.171875 238.191406 114.121094 Z M 248.867188 135.007812 C 247.398438 134.449219 245.851562 133.011719 245.917969 131.15625 C 246.007812 128.386719 250.070312 126.855469 252.355469 128.933594 C 252.074219 126.09375 251.542969 123.320312 251.476562 123.121094 C 245.007812 127.730469 237.292969 127.625 233.0625 124.828125 C 229.445312 126.378906 225.796875 127.328125 223.582031 130.082031 C 221.003906 133.292969 221.359375 138.640625 224.371094 142.007812 C 227.234375 145.210938 231.90625 146.515625 236.351562 145.996094 C 240.230469 145.527344 244.148438 143.792969 248.339844 140.691406 C 249.917969 139.527344 251.621094 138.101562 252.636719 136.234375 C 252.648438 135.980469 252.648438 135.722656 252.648438 135.476562 C 251.402344 135.519531 250.085938 135.46875 248.867188 135.007812 Z M 227.859375 157.285156 C 223.335938 155.042969 219 157.492188 219.066406 162.164062 C 219.09375 164.535156 220.265625 167.082031 222.105469 168.671875 C 224.691406 170.894531 228.167969 171.796875 231.394531 172.351562 C 233.398438 166.5625 233.3125 160.011719 227.859375 157.285156 Z M 227.859375 157.285156 C 223.335938 155.042969 219 157.492188 219.066406 162.164062 C 219.09375 164.535156 220.265625 167.082031 222.105469 168.671875 C 224.691406 170.894531 228.167969 171.796875 231.394531 172.351562 C 233.398438 166.5625 233.3125 160.011719 227.859375 157.285156 Z M 227.859375 157.285156 L 225.6875 168.824219 C 224.722656 168.789062 223.246094 168.496094 221.464844 168.046875 C 221.664062 168.273438 221.882812 168.480469 222.105469 168.671875 C 224.691406 170.894531 228.167969 171.796875 231.394531 172.351562 C 233.398438 166.5625 233.3125 160.011719 227.859375 157.285156 Z M 227.859375 157.285156 " fill-opacity="1" fill-rule="nonzero"/></g><path fill="#ffcb24" d="M 253.210938 134.878906 C 251.875 134.921875 250.449219 134.984375 249.066406 134.46875 C 246.335938 133.433594 245.4375 130.28125 248.066406 128.964844 C 251.449219 127.273438 254.425781 130.796875 253.210938 134.878906 Z M 253.210938 134.878906 " fill-opacity="1" fill-rule="nonzero"/><path fill="#ffcb24" d="M 232.515625 124.433594 C 232.292969 124.53125 232.070312 124.621094 231.84375 124.707031 L 231.730469 123.761719 C 231.867188 123.898438 232.175781 124.171875 232.515625 124.433594 Z M 232.515625 124.433594 " fill-opacity="1" fill-rule="nonzero"/><path fill="#ffcb24" d="M 231.613281 122.78125 L 230.703125 114.976562 C 232.296875 112.527344 236.328125 111.886719 238.191406 114.121094 C 239.882812 116.171875 239.074219 119.457031 237.351562 121.328125 C 236.195312 122.582031 234.707031 123.449219 233.125 124.167969 C 232.527344 123.746094 232.0625 123.3125 231.613281 122.78125 Z M 231.613281 122.78125 " fill-opacity="1" fill-rule="nonzero"/><path fill="#ffcb24" d="M 230.605469 114.144531 L 229.476562 104.527344 C 233.390625 104.550781 236.605469 104.8125 239.464844 105.742188 C 239.476562 105.746094 239.488281 105.753906 239.5 105.753906 C 242.847656 106.84375 245.71875 108.851562 248.679688 112.464844 C 250.683594 114.902344 252.367188 117.589844 253.75 120.429688 C 247.804688 126.523438 238.777344 127.636719 233.6875 124.542969 C 235.210938 123.828125 236.632812 122.960938 237.773438 121.722656 C 239.707031 119.628906 240.550781 116.074219 238.632812 113.753906 C 236.691406 111.394531 232.625 111.800781 230.605469 114.144531 Z M 230.605469 114.144531 " fill-opacity="1" fill-rule="nonzero"/><path fill="#ffcb24" d="M 253.820312 134.851562 C 254.339844 132.855469 254.011719 130.378906 252.355469 128.933594 C 250.078125 126.863281 246.007812 128.378906 245.917969 131.15625 C 245.851562 133.011719 247.398438 134.449219 248.867188 135.007812 C 250.148438 135.492188 251.617188 135.535156 253.003906 135.464844 C 252.109375 137.652344 250.222656 139.300781 248.339844 140.691406 C 244.25 143.71875 239.398438 146.15625 234.351562 146.109375 L 231.910156 125.308594 C 232.300781 125.15625 232.679688 124.992188 233.0625 124.828125 C 238.226562 128.238281 247.65625 127.34375 254.019531 120.980469 C 256.105469 125.378906 257.535156 130.300781 258.230469 134.613281 Z M 253.820312 134.851562 " fill-opacity="1" fill-rule="nonzero"/><g clip-path="url(#2d401db74a)"><path fill="#ffcb24" d="M 259.296875 146.367188 C 248.242188 142.382812 239.019531 153.539062 241.585938 163 C 242.117188 164.929688 242.945312 166.726562 242.972656 168.503906 C 242.992188 171.007812 241.332031 172.421875 238.863281 172.835938 C 238.371094 172.683594 237.894531 172.515625 237.417969 172.320312 L 234.417969 146.691406 C 239.613281 146.691406 244.5 144.246094 248.679688 141.160156 C 250.0625 140.140625 251.53125 138.925781 252.605469 137.386719 C 253.101562 136.671875 253.484375 135.890625 253.636719 135.433594 C 253.699219 135.433594 258.265625 135.1875 258.328125 135.183594 C 258.933594 138.886719 259.21875 142.617188 259.296875 146.367188 Z M 259.296875 146.367188 " fill-opacity="1" fill-rule="nonzero"/></g><g clip-path="url(#47634dcbbd)"><path fill="#ffcb24" d="M 259.128906 156.503906 C 258.96875 159.65625 259.46875 163.105469 257.878906 165.894531 C 256.929688 167.5625 255.679688 169.054688 254.207031 170.273438 C 252.816406 171.429688 251.144531 171.90625 249.460938 172.515625 C 246.402344 173.632812 243.042969 173.8125 240.078125 173.140625 C 242.523438 172.363281 243.832031 170.433594 243.492188 167.714844 C 243.289062 166.09375 242.558594 164.382812 242.144531 162.847656 C 239.664062 153.691406 248.6875 142.957031 259.308594 146.984375 C 259.371094 150.15625 259.277344 153.335938 259.128906 156.503906 Z M 259.128906 156.503906 " fill-opacity="1" fill-rule="nonzero"/></g><path fill="#ffcb24" d="M 227.859375 157.285156 L 225.6875 168.824219 C 224.722656 168.789062 223.246094 168.496094 221.464844 168.046875 C 220.007812 166.476562 219.089844 164.257812 219.066406 162.164062 C 219 157.523438 223.296875 155.027344 227.859375 157.285156 Z M 227.859375 157.285156 " fill-opacity="1" fill-rule="nonzero"/><path fill="#ffcb24" d="M 230 145.929688 C 227.167969 160.933594 228.203125 155.460938 227.96875 156.703125 C 223.113281 154.363281 218.429688 157.121094 218.492188 162.167969 C 218.507812 164.160156 219.25 166.191406 220.492188 167.792969 C 213.214844 165.839844 203.167969 162.121094 197.164062 159.914062 C 202.136719 133.507812 200.421875 142.613281 200.792969 140.644531 C 202.222656 140.902344 224.257812 144.890625 230 145.929688 Z M 230 145.929688 " fill-opacity="1" fill-rule="nonzero"/><path fill="#000000" d="M 225.523438 81.609375 C 226.273438 80.410156 226.691406 79.035156 226.734375 77.621094 C 226.738281 77.464844 226.613281 77.332031 226.457031 77.324219 C 226.296875 77.320312 226.164062 77.445312 226.160156 77.605469 C 226.117188 78.914062 225.730469 80.191406 225.035156 81.300781 C 224.832031 81.628906 225.328125 81.925781 225.523438 81.609375 Z M 225.523438 81.609375 " fill-opacity="1" fill-rule="nonzero"/><path fill="#000000" d="M 205.015625 76.683594 C 206.53125 77.671875 208.066406 78.003906 208.441406 77.429688 C 208.820312 76.851562 207.894531 75.582031 206.378906 74.59375 C 204.859375 73.605469 203.324219 73.269531 202.949219 73.847656 C 202.574219 74.425781 203.5 75.691406 205.015625 76.683594 Z M 205.015625 76.683594 " fill-opacity="1" fill-rule="nonzero"/><path fill="#000000" d="M 192.617188 78.679688 C 192.390625 85.871094 194.367188 97.148438 200.289062 101.042969 C 202.730469 102.648438 205.875 103.066406 208.808594 102.402344 C 208.71875 102.558594 208.753906 102.378906 209.320312 105.308594 C 209.636719 106.949219 209.921875 108.410156 210.355469 110.015625 C 210.902344 111.996094 213.453125 112.691406 215.496094 112.558594 C 217.421875 112.425781 219.203125 111.65625 220.96875 110.898438 C 222.59375 110.195312 224.273438 109.46875 225.761719 108.429688 C 227.734375 107.042969 228.789062 105.71875 228.972656 104.394531 C 229.171875 103.203125 228.328125 99.058594 227.9375 95.941406 C 229.289062 98.164062 231.269531 99.992188 233.621094 100.921875 C 237.203125 102.335938 241.527344 101.511719 244.425781 98.980469 C 247.328125 96.453125 248.722656 92.355469 248.109375 88.554688 C 247.164062 82.679688 241.855469 78.15625 235.511719 78.910156 C 236.636719 75.320312 236.3125 72.351562 235.28125 70.207031 C 234.019531 67.570312 231.15625 65.597656 228.253906 65.945312 C 228.890625 63.167969 227.671875 60.054688 225.316406 58.449219 C 222.960938 56.839844 219.621094 56.839844 217.265625 58.445312 C 211.667969 54.023438 203.277344 54.820312 198.695312 60.890625 C 194.578125 63.609375 192.347656 68.078125 192.378906 72.59375 L 192.753906 72.503906 C 192.914062 72.488281 193.078125 72.480469 193.238281 72.46875 C 193.03125 73.621094 192.890625 74.804688 192.785156 75.992188 C 190.113281 77.546875 189.957031 79.378906 192.617188 78.679688 Z M 197.207031 72.527344 C 197.40625 70.527344 198.269531 68.746094 199.28125 67.011719 C 198.386719 68.941406 198.234375 70.980469 198.65625 73.066406 C 200.230469 72.488281 202.050781 72.160156 203.730469 72.152344 C 202.164062 69.03125 202.433594 65.007812 204.507812 62.207031 C 204.542969 62.199219 204.578125 62.191406 204.613281 62.1875 C 203.773438 65.40625 204.285156 69 205.679688 72.019531 C 207.507812 71.328125 209.328125 71.207031 211.257812 71.519531 C 210.6875 69.3125 210.644531 66.984375 211.085938 64.753906 C 212.019531 65.550781 213.050781 66.355469 213.472656 67.429688 C 213.875 68.464844 213.929688 69.59375 214.113281 70.691406 C 214.691406 74.113281 216.351562 73.886719 217.546875 74.917969 C 219.316406 76.445312 218.652344 79.179688 219.128906 81.222656 C 219.378906 82.308594 220.03125 83.386719 221.082031 83.75 C 221.375 80.992188 221.820312 77.601562 224.214844 75.890625 C 225.070312 75.4375 226.101562 75.214844 227.328125 75.25 C 229.863281 75.324219 231.953125 77.652344 230.765625 80.398438 C 230.074219 82.066406 227.421875 84.210938 226.101562 84.800781 C 225.984375 84.855469 225.914062 84.984375 225.9375 85.113281 C 226.339844 87.542969 226.882812 92.03125 227.285156 95.351562 C 227.65625 98.671875 228.25 101.121094 228.425781 103.804688 C 228.53125 105.5 226.820312 106.980469 225.429688 107.957031 C 223.976562 108.972656 222.304688 109.691406 220.675781 110.394531 C 219.003906 111.113281 217.273438 111.855469 215.457031 111.980469 C 213.582031 112.105469 211.363281 111.496094 210.914062 109.863281 C 209.980469 106.429688 209.507812 102.488281 209.210938 102.300781 C 213.828125 101.09375 217.277344 97.320312 219.117188 92.960938 C 219.179688 92.816406 219.109375 92.644531 218.964844 92.582031 C 218.816406 92.523438 218.648438 92.589844 218.585938 92.738281 C 217.003906 96.480469 214.402344 99.394531 211.25 100.9375 C 207.742188 102.652344 203.5625 102.507812 200.605469 100.5625 C 194.824219 96.761719 192.949219 85.539062 193.207031 78.492188 C 193.539062 78.371094 193.882812 78.21875 194.234375 78.035156 C 195.832031 77.179688 196.863281 76 196.539062 75.390625 C 196.238281 74.824219 194.871094 74.964844 193.394531 75.671875 C 193.5 74.574219 193.636719 73.488281 193.835938 72.429688 C 194.960938 72.375 196.105469 72.40625 197.207031 72.527344 Z M 197.207031 72.527344 " fill-opacity="1" fill-rule="nonzero"/><path fill="#000000" d="M 204.808594 79.789062 C 204.773438 78.898438 204.34375 78.1875 203.851562 78.207031 C 203.359375 78.226562 202.984375 78.964844 203.019531 79.859375 C 203.054688 80.75 203.480469 81.460938 203.976562 81.441406 C 204.46875 81.421875 204.839844 80.683594 204.808594 79.789062 Z M 204.808594 79.789062 " fill-opacity="1" fill-rule="nonzero"/><path fill="#000000" d="M 195.3125 80.097656 C 194.820312 80.117188 194.445312 80.855469 194.480469 81.75 C 194.515625 82.644531 194.941406 83.351562 195.4375 83.332031 C 195.929688 83.3125 196.300781 82.574219 196.269531 81.683594 C 196.234375 80.789062 195.804688 80.082031 195.3125 80.097656 Z M 195.3125 80.097656 " fill-opacity="1" fill-rule="nonzero"/><path fill="#000000" d="M 198.992188 86.582031 C 199.644531 87.542969 200.957031 87.085938 200.617188 86.589844 C 200.527344 86.457031 200.347656 86.421875 200.214844 86.511719 C 199.988281 86.667969 199.625 86.492188 199.46875 86.257812 C 199.1875 85.847656 199.25 85.824219 198.808594 79.671875 C 198.796875 79.515625 198.660156 79.402344 198.5 79.40625 C 198.339844 79.417969 198.222656 79.554688 198.234375 79.714844 C 198.664062 85.757812 198.59375 86 198.992188 86.582031 Z M 198.992188 86.582031 " fill-opacity="1" fill-rule="nonzero"/><path fill="#000000" d="M 205.601562 86.550781 C 205.714844 87.464844 205.054688 88.4375 204.164062 88.671875 C 203.792969 88.769531 203.941406 89.328125 204.308594 89.230469 C 205.484375 88.921875 206.324219 87.6875 206.175781 86.480469 C 206.128906 86.097656 205.554688 86.171875 205.601562 86.550781 Z M 205.601562 86.550781 " fill-opacity="1" fill-rule="nonzero"/><path fill="#000000" d="M 154.859375 133.222656 L 173.789062 127.324219 C 174.039062 127.246094 174.0625 126.898438 173.824219 126.789062 C 173.765625 126.761719 167.871094 123.832031 164.710938 106.359375 C 164.683594 106.210938 164.546875 106.109375 164.402344 106.121094 L 144.839844 107.785156 C 144.671875 107.800781 144.554688 107.957031 144.582031 108.121094 C 144.699219 108.851562 147.5625 126.105469 154.570312 133.148438 C 154.644531 133.226562 154.757812 133.253906 154.859375 133.222656 Z M 164.191406 106.71875 C 166.875 121.320312 171.425781 125.804688 173.019531 126.960938 L 154.855469 132.617188 C 148.566406 126.136719 145.625 110.707031 145.203125 108.335938 Z M 164.191406 106.71875 " fill-opacity="1" fill-rule="nonzero"/><path fill="#000000" d="M 177.195312 136.746094 C 177.152344 136.59375 176.996094 136.503906 176.839844 136.546875 L 140.371094 146.664062 C 140.007812 146.761719 140.152344 147.320312 140.523438 147.21875 L 176.996094 137.101562 C 177.148438 137.058594 177.238281 136.902344 177.195312 136.746094 Z M 177.195312 136.746094 " fill-opacity="1" fill-rule="nonzero"/><g clip-path="url(#246d80e35c)"><path fill="#000000" d="M 258.871094 162.238281 C 258.71875 162.1875 258.554688 162.269531 258.503906 162.417969 C 257.929688 164.136719 256.859375 167.335938 254.804688 168.753906 C 249.304688 172.546875 242.480469 171.863281 235.984375 170.738281 C 221.273438 168.195312 208.5625 164.617188 197.132812 159.800781 C 198.203125 154.460938 199.242188 148.371094 200.277344 143 C 200.289062 142.976562 200.304688 142.957031 200.3125 142.929688 C 200.324219 142.886719 200.324219 142.84375 200.316406 142.800781 C 200.453125 142.097656 200.589844 141.390625 200.730469 140.6875 L 230.195312 146.019531 C 230.371094 146.054688 230.535156 145.914062 230.535156 145.734375 C 230.5 139.898438 230.558594 133.617188 230.523438 127.753906 C 230.523438 127.367188 229.945312 127.375 229.949219 127.757812 C 229.980469 133.476562 229.925781 139.589844 229.953125 145.390625 L 200.554688 140.070312 C 200.398438 140.042969 200.25 140.140625 200.222656 140.296875 C 200.074219 141.019531 199.933594 141.746094 199.792969 142.472656 C 198.167969 141.992188 196.601562 141.273438 195.117188 140.335938 C 206.769531 133.925781 184.402344 146.230469 227.921875 122.292969 L 230.328125 120.96875 C 231.789062 120.167969 232.320312 118.332031 231.519531 116.875 L 230.257812 114.585938 C 229.457031 113.125 227.621094 112.59375 226.164062 113.394531 L 223.835938 114.675781 C 223.722656 114.695312 225.257812 113.882812 193.460938 131.367188 C 193.273438 127.699219 193.648438 124.039062 194.582031 120.484375 C 194.621094 120.332031 194.527344 120.171875 194.375 120.132812 C 194.222656 120.089844 194.0625 120.183594 194.023438 120.335938 C 193.050781 124.042969 192.671875 127.855469 192.894531 131.675781 L 188.472656 134.109375 C 188.40625 134.054688 188.339844 133.988281 188.269531 133.945312 C 187.71875 133.566406 187.046875 133.480469 186.519531 133.714844 C 185.769531 134.0625 185.546875 134.910156 185.519531 135.730469 L 185.125 135.949219 C 177.660156 124.472656 172.289062 111.003906 168.496094 97.679688 C 168.460938 97.554688 168.355469 97.476562 168.21875 97.46875 L 116.015625 97.953125 C 115.859375 97.957031 115.734375 98.082031 115.730469 98.238281 C 115.726562 98.429688 115.484375 117.675781 125.332031 137.980469 C 123.167969 138.628906 119.988281 140.347656 119.859375 142.585938 C 119.808594 143.445312 120.371094 144.386719 121.203125 144.703125 C 120.699219 145.285156 120.480469 146.097656 120.65625 146.855469 C 120.855469 147.699219 121.738281 148.46875 122.585938 148.804688 C 121.488281 150.410156 122.417969 152.730469 124.628906 152.921875 C 123.734375 154.703125 125.167969 156.628906 127.066406 156.628906 C 127.070312 156.628906 127.074219 156.628906 127.078125 156.628906 C 130.054688 156.613281 132.945312 155.75 135.519531 154.121094 C 142.171875 162.378906 150.398438 169.199219 159.96875 174.394531 C 160.011719 174.417969 160.0625 174.429688 160.109375 174.429688 C 160.140625 174.429688 160.171875 174.421875 160.203125 174.410156 L 198.226562 160.875 C 209.355469 165.433594 221.691406 168.851562 235.886719 171.308594 C 242.570312 172.464844 249.488281 173.121094 255.132812 169.226562 C 257.34375 167.703125 258.453125 164.386719 259.050781 162.601562 C 259.101562 162.453125 259.019531 162.289062 258.871094 162.238281 Z M 223.769531 115.347656 L 227.386719 121.929688 C 226.492188 122.421875 232.320312 119.214844 194.5625 139.984375 C 193.941406 139.566406 193.335938 139.109375 192.75 138.617188 C 221.757812 122.789062 221.835938 122.570312 221.902344 122.378906 C 221.953125 122.226562 221.871094 122.0625 221.71875 122.011719 C 221.605469 121.972656 221.484375 122.011719 221.410156 122.097656 C 221.042969 122.382812 216.691406 124.894531 192.285156 138.210938 C 191.640625 137.636719 191.019531 137.015625 190.421875 136.351562 C 220.074219 120.179688 220.15625 119.949219 220.21875 119.765625 C 220.269531 119.613281 220.191406 119.449219 220.039062 119.398438 C 219.925781 119.359375 219.804688 119.394531 219.730469 119.480469 C 219.105469 119.96875 208.304688 125.945312 190.03125 135.90625 C 189.542969 135.332031 189.183594 134.847656 188.90625 134.53125 Z M 186.757812 134.242188 C 187.167969 134.058594 187.640625 134.214844 187.949219 134.425781 C 189.042969 135.136719 192.164062 140.839844 199.683594 143.042969 C 198.859375 147.316406 198.1875 151.203125 197.335938 155.71875 C 193.679688 155.628906 190.339844 155.257812 187.144531 154.570312 C 183.617188 153.8125 184 154.28125 179.394531 153.222656 C 177.097656 152.695312 176.628906 152.695312 176.09375 152.335938 C 175.683594 152.066406 175.417969 151.628906 175.417969 151.21875 C 175.417969 150.703125 175.832031 150.328125 176.214844 150.199219 C 176.640625 150.058594 177.542969 149.988281 177.484375 149.996094 C 177.546875 150 178.34375 149.871094 179.871094 150.144531 C 181.300781 150.402344 186.484375 151.453125 187.253906 151.453125 C 187.609375 151.453125 187.644531 150.921875 187.289062 150.878906 C 184.835938 150.570312 182.378906 150.011719 179.972656 149.578125 C 178.109375 149.242188 175.566406 149.507812 174.449219 147.941406 C 174.0625 147.394531 174.058594 146.480469 174.445312 145.90625 C 174.640625 145.617188 175.011719 145.304688 175.667969 145.457031 C 176.894531 145.726562 186.238281 147.824219 187.484375 147.824219 C 187.839844 147.824219 187.875 147.300781 187.523438 147.25 C 183.515625 146.699219 179.246094 145.613281 175.800781 144.894531 L 175.460938 144.820312 C 174.789062 144.683594 174.078125 144.46875 173.894531 143.917969 C 173.707031 143.371094 174.15625 142.730469 174.695312 142.476562 C 175.308594 142.191406 176.050781 142.242188 176.707031 142.285156 C 177.644531 142.34375 177.191406 142.308594 187.238281 144.53125 C 187.613281 144.617188 187.730469 144.046875 187.363281 143.964844 C 177.203125 141.71875 177.460938 141.832031 176.972656 141.496094 C 176.246094 141.011719 176.292969 140.160156 177.113281 139.773438 C 177.472656 139.597656 177.90625 139.5625 178.289062 139.53125 C 181.425781 139.308594 184.519531 139.851562 187.746094 141.191406 C 187.992188 141.289062 188.234375 141.035156 188.117188 140.796875 C 187.308594 139.148438 186.121094 137.613281 186.089844 135.898438 C 186.089844 135.296875 186.207031 134.492188 186.757812 134.242188 Z M 166.882812 155.207031 L 163.261719 148.625 L 173.40625 143.046875 C 173.144531 143.671875 173.269531 144.300781 173.800781 144.75 L 168.429688 147.671875 C 168.09375 147.851562 168.367188 148.363281 168.703125 148.179688 L 174.371094 145.097656 C 174.390625 145.105469 174.40625 145.113281 174.425781 145.121094 C 173.488281 145.761719 173.347656 147.289062 173.9375 148.203125 C 171.550781 149.507812 170.109375 150.285156 170.109375 150.285156 C 169.777344 150.464844 170.046875 150.976562 170.382812 150.792969 C 170.382812 150.792969 171.867188 149.992188 174.3125 148.65625 C 174.808594 149.148438 175.441406 149.445312 176.125 149.628906 C 175.488281 149.8125 175.0625 150.273438 174.90625 150.796875 C 170.761719 153.078125 167.738281 154.738281 166.882812 155.207031 Z M 160.96875 155.394531 C 160.566406 154.652344 160.117188 153.824219 159.738281 153.140625 L 162.839844 149.085938 L 166.261719 155.277344 Z M 176.308594 141.683594 C 176.175781 141.679688 176.039062 141.675781 175.898438 141.675781 L 176.179688 141.523438 C 176.21875 141.578125 176.261719 141.632812 176.308594 141.683594 Z M 185.550781 136.375 C 185.621094 136.964844 185.804688 137.535156 186.042969 138.085938 L 183.75 139.335938 C 182.78125 139.132812 181.820312 139.007812 180.859375 138.949219 Z M 187.242188 140.367188 C 186.351562 140.027344 185.46875 139.753906 184.589844 139.535156 L 186.289062 138.609375 C 186.605469 139.246094 186.929688 139.796875 187.242188 140.367188 Z M 120.917969 143.835938 C 118.285156 141.15625 126.824219 136.304688 131.238281 138.78125 C 132.269531 139.359375 132.292969 140.28125 131.765625 140.632812 C 128.273438 141.242188 124.867188 142.480469 121.863281 144.234375 C 121.851562 144.234375 121.839844 144.230469 121.828125 144.230469 C 121.507812 144.246094 121.183594 144.101562 120.917969 143.835938 Z M 121.21875 146.722656 C 121.066406 146.074219 121.300781 145.367188 121.792969 144.921875 C 122.136719 144.800781 125.65625 142.367188 131.488281 141.269531 C 131.570312 141.304688 131.632812 141.300781 132.054688 141.304688 C 132.617188 141.3125 133.203125 141.320312 133.671875 141.511719 C 134.304688 141.765625 134.753906 142.257812 134.8125 142.761719 C 134.875 143.308594 134.386719 143.925781 133.6875 143.933594 C 129.4375 144.125 125.945312 145.570312 123.007812 148.335938 C 122.269531 148.121094 121.382812 147.429688 121.21875 146.722656 Z M 123.28125 148.863281 C 126.132812 146.128906 129.535156 144.707031 133.683594 144.515625 C 134.253906 144.597656 134.929688 145.136719 135.511719 145.417969 C 135.964844 145.636719 136.46875 146.070312 136.535156 146.636719 C 136.621094 147.351562 135.960938 147.921875 135.210938 147.792969 C 135.097656 147.769531 134.992188 147.820312 134.925781 147.910156 C 131.660156 148.042969 128.507812 149.460938 125.0625 152.351562 C 122.859375 152.480469 122.027344 150.113281 123.28125 148.863281 Z M 127.066406 156.054688 C 126.28125 156.054688 125.496094 155.582031 125.144531 154.902344 C 124.804688 154.238281 124.898438 153.390625 125.378906 152.839844 C 128.867188 149.898438 132.023438 148.511719 135.304688 148.476562 C 135.808594 148.746094 136.410156 149.152344 136.867188 149.542969 C 137.371094 149.980469 137.65625 150.511719 137.648438 151.007812 C 137.632812 151.789062 136.902344 152.429688 136.355469 152.84375 C 131.730469 156.34375 127.007812 156.0625 127.066406 156.054688 Z M 160.132812 173.824219 C 150.6875 168.683594 142.574219 161.945312 135.996094 153.796875 C 136.996094 153.117188 138.199219 152.277344 138.222656 151.019531 C 138.246094 149.773438 137.136719 148.921875 136.082031 148.257812 C 137.503906 147.695312 137.53125 145.753906 135.761719 144.898438 C 135.441406 144.742188 134.988281 144.4375 134.605469 144.238281 C 135.90625 143.398438 135.539062 141.644531 133.886719 140.976562 C 133.4375 140.796875 132.945312 140.75 132.453125 140.734375 C 132.929688 140.007812 132.679688 138.929688 131.523438 138.277344 C 129.871094 137.355469 127.8125 137.355469 125.898438 137.828125 C 116.710938 118.949219 116.316406 100.972656 116.308594 98.527344 L 168.003906 98.046875 C 171.777344 111.253906 177.132812 124.707031 184.617188 136.226562 L 179.726562 138.914062 C 178.917969 138.910156 177.558594 138.914062 176.863281 139.253906 C 176.195312 139.570312 175.730469 140.246094 175.929688 141 L 168.796875 144.925781 C 168.730469 144.941406 150.820312 150.3125 148.28125 151.078125 C 148.128906 151.121094 148.039062 151.28125 148.085938 151.433594 C 148.132812 151.59375 148.300781 151.675781 148.445312 151.628906 C 150.824219 150.914062 166.320312 146.269531 166.390625 146.246094 L 162.730469 148.261719 C 162.671875 148.292969 157.210938 155.496094 157.164062 155.554688 L 152.703125 157.023438 C 152.34375 157.140625 152.511719 157.691406 152.882812 157.570312 L 157.507812 156.046875 L 166.625 155.847656 C 166.710938 155.898438 166.8125 155.902344 166.898438 155.855469 C 166.9375 155.839844 171.722656 153.207031 174.867188 151.480469 C 174.953125 151.992188 175.292969 152.5 175.777344 152.816406 C 176.25 153.132812 176.777344 153.246094 177.320312 153.359375 C 180.125 153.910156 180.070312 154.117188 183.925781 154.617188 C 175.273438 158.308594 166.277344 161.335938 157.15625 163.601562 C 157.003906 163.640625 156.90625 163.796875 156.945312 163.949219 C 156.980469 164.082031 157.097656 164.167969 157.226562 164.167969 C 157.25 164.167969 157.273438 164.167969 157.296875 164.160156 C 166.757812 161.808594 176.09375 158.648438 185.042969 154.773438 C 187.707031 155.175781 190.558594 156.121094 197.230469 156.289062 C 197 157.5 196.765625 158.710938 196.523438 159.917969 C 196.496094 160.054688 196.566406 160.1875 196.691406 160.242188 C 196.9375 160.34375 197.1875 160.445312 197.429688 160.546875 Z M 160.132812 173.824219 " fill-opacity="1" fill-rule="nonzero"/></g><path fill="#000000" d="M 160.851562 127.070312 L 161.4375 128.699219 C 161.566406 129.058594 162.109375 128.867188 161.980469 128.503906 L 161.394531 126.875 C 167.097656 124.710938 166.832031 118.625 160.664062 118.921875 C 159.105469 119 157.554688 119.421875 155.988281 119.421875 C 154.6875 119.414062 152.988281 118.949219 152.46875 117.65625 C 152.027344 116.558594 152.632812 115.257812 153.34375 114.40625 C 155.253906 112.121094 158.90625 111.316406 161.488281 112.609375 C 161.628906 112.683594 161.804688 112.625 161.875 112.480469 C 161.945312 112.339844 161.886719 112.164062 161.746094 112.09375 C 160.175781 111.308594 158.242188 111.234375 156.476562 111.757812 C 156.566406 111.566406 156.476562 111.597656 155.78125 109.386719 C 155.730469 109.238281 155.570312 109.152344 155.417969 109.203125 C 155.265625 109.253906 155.183594 109.417969 155.234375 109.570312 C 155.992188 111.753906 155.875 111.777344 156.09375 111.886719 C 152.625 113.105469 151.21875 116.085938 151.933594 117.871094 C 152.558594 119.425781 154.507812 119.988281 155.984375 120 C 157.496094 120.023438 159.132812 119.578125 160.695312 119.5 C 166.027344 119.226562 166.242188 124.089844 161.671875 126.148438 C 159.390625 127.179688 156.632812 127.203125 154.476562 126.207031 C 154.332031 126.140625 154.160156 126.203125 154.09375 126.347656 C 154.027344 126.492188 154.089844 126.664062 154.234375 126.730469 C 156.101562 127.59375 158.515625 127.796875 160.851562 127.070312 Z M 160.851562 127.070312 " fill-opacity="1" fill-rule="nonzero"/><path fill="#000000" d="M 167.199219 61.519531 C 161.4375 61.519531 156.75 66.207031 156.75 71.964844 C 156.75 77.726562 161.4375 82.414062 167.199219 82.414062 C 174.832031 82.414062 179.949219 74.414062 176.613281 67.464844 L 180.773438 63.835938 C 180.894531 63.730469 180.90625 63.546875 180.800781 63.429688 C 180.699219 63.308594 180.515625 63.296875 180.394531 63.398438 L 176.347656 66.929688 C 174.566406 63.707031 171.132812 61.519531 167.199219 61.519531 Z M 167.199219 81.835938 C 161.757812 81.835938 157.328125 77.40625 157.328125 71.964844 C 157.328125 66.523438 161.757812 62.09375 167.199219 62.09375 C 170.960938 62.09375 174.238281 64.214844 175.902344 67.316406 L 168.859375 73.457031 L 166.097656 69.90625 C 166 69.78125 165.820312 69.757812 165.691406 69.855469 C 165.566406 69.953125 165.542969 70.132812 165.640625 70.261719 L 168.589844 74.054688 C 168.691406 74.183594 168.882812 74.203125 169.007812 74.09375 L 176.160156 67.855469 C 179.183594 74.421875 174.332031 81.835938 167.199219 81.835938 Z M 167.199219 81.835938 " fill-opacity="1" fill-rule="nonzero"/><g clip-path="url(#0e88965a78)"><path fill="#000000" d="M 166.148438 54.773438 C 174.074219 54.773438 179.105469 46.246094 175.316406 39.328125 L 179.148438 35.988281 C 179.269531 35.882812 179.28125 35.703125 179.175781 35.582031 C 179.070312 35.460938 178.890625 35.449219 178.769531 35.554688 L 175.015625 38.828125 C 173.167969 35.863281 169.890625 33.878906 166.148438 33.878906 C 160.386719 33.878906 155.699219 38.566406 155.699219 44.328125 C 155.699219 50.085938 160.386719 54.773438 166.148438 54.773438 Z M 166.148438 34.457031 C 169.714844 34.457031 172.839844 36.367188 174.574219 39.210938 L 167.230469 45.613281 L 164.472656 42.058594 C 164.375 41.933594 164.191406 41.910156 164.066406 42.007812 C 163.941406 42.105469 163.917969 42.289062 164.015625 42.414062 L 166.964844 46.207031 C 167.066406 46.339844 167.257812 46.355469 167.382812 46.246094 L 174.871094 39.71875 C 178.332031 46.242188 173.589844 54.195312 166.148438 54.195312 C 160.707031 54.195312 156.277344 49.769531 156.277344 44.328125 C 156.277344 38.882812 160.707031 34.457031 166.148438 34.457031 Z M 166.148438 34.457031 " fill-opacity="1" fill-rule="nonzero"/></g><path fill="#000000" d="M 141.765625 110.542969 C 141.722656 110.390625 141.5625 110.304688 141.40625 110.351562 C 136.996094 111.667969 132.425781 112.414062 127.820312 112.566406 C 127.445312 112.578125 127.457031 113.144531 127.832031 113.144531 C 129.046875 113.023438 134.371094 113.054688 141.574219 110.902344 C 141.726562 110.859375 141.8125 110.699219 141.765625 110.542969 Z M 141.765625 110.542969 " fill-opacity="1" fill-rule="nonzero"/><path fill="#000000" d="M 133.886719 121.710938 L 142.8125 119.851562 C 143.183594 119.773438 143.074219 119.210938 142.695312 119.285156 L 133.769531 121.148438 C 133.398438 121.226562 133.503906 121.789062 133.886719 121.710938 Z M 133.886719 121.710938 " fill-opacity="1" fill-rule="nonzero"/><path fill="#000000" d="M 145.355469 127.90625 L 133.710938 131.429688 C 133.351562 131.539062 133.503906 132.09375 133.878906 131.984375 L 145.523438 128.457031 C 145.886719 128.347656 145.726562 127.796875 145.355469 127.90625 Z M 145.355469 127.90625 " fill-opacity="1" fill-rule="nonzero"/><path fill="#ffffff" d="M 44.949219 302.324219 L 330.050781 302.324219 L 330.050781 306.074219 L 44.949219 306.074219 Z M 44.949219 302.324219 " fill-opacity="1" fill-rule="nonzero"/><g fill="#ffffff" fill-opacity="1"><g transform="translate(44.947267, 300.073399)"><g><path d="M 9.96875 -26.921875 C 11.25 -26.453125 12.253906 -25.710938 12.984375 -24.703125 C 13.753906 -23.609375 14.140625 -22.398438 14.140625 -21.078125 L 14.140625 -6.203125 C 14.140625 -4.484375 13.53125 -3.015625 12.3125 -1.796875 C 11.664062 -1.191406 10.882812 -0.707031 9.96875 -0.34375 C 9.351562 -0.113281 8.664062 0 7.90625 0 C 7.207031 0 6.519531 -0.113281 5.84375 -0.34375 C 4.59375 -0.84375 3.609375 -1.597656 2.890625 -2.609375 C 2.109375 -3.671875 1.71875 -4.867188 1.71875 -6.203125 L 1.71875 -21.078125 C 1.71875 -22.765625 2.328125 -24.222656 3.546875 -25.453125 C 4.171875 -26.117188 4.9375 -26.609375 5.84375 -26.921875 C 6.519531 -27.160156 7.207031 -27.28125 7.90625 -27.28125 C 8.664062 -27.28125 9.351562 -27.160156 9.96875 -26.921875 Z M 9.96875 -6.203125 L 9.96875 -21.078125 C 9.96875 -21.648438 9.773438 -22.132812 9.390625 -22.53125 C 8.972656 -22.9375 8.476562 -23.140625 7.90625 -23.140625 C 7.363281 -23.140625 6.882812 -22.9375 6.46875 -22.53125 C 6.050781 -22.113281 5.84375 -21.628906 5.84375 -21.078125 L 5.84375 -6.203125 C 5.84375 -5.648438 6.050781 -5.164062 6.46875 -4.75 C 6.851562 -4.332031 7.332031 -4.125 7.90625 -4.125 C 8.425781 -4.125 8.921875 -4.332031 9.390625 -4.75 C 9.773438 -5.144531 9.96875 -5.628906 9.96875 -6.203125 Z M 9.96875 -6.203125 "/></g></g></g><g fill="#ffffff" fill-opacity="1"><g transform="translate(60.801213, 300.073399)"><g><path d="M 14.109375 -27.28125 L 14.109375 -6.203125 C 14.109375 -4.640625 13.585938 -3.257812 12.546875 -2.0625 C 12.628906 -1.988281 12.703125 -1.910156 12.765625 -1.828125 C 12.828125 -1.753906 12.898438 -1.664062 12.984375 -1.5625 C 13.734375 -0.5 14.109375 0.707031 14.109375 2.0625 L 9.96875 2.0625 C 9.96875 1.488281 9.765625 0.992188 9.359375 0.578125 C 8.960938 0.191406 8.476562 0 7.90625 0 C 7.15625 0 6.46875 -0.113281 5.84375 -0.34375 C 4.625 -0.789062 3.625 -1.535156 2.84375 -2.578125 C 2.144531 -3.554688 1.769531 -4.6875 1.71875 -5.96875 L 1.71875 -27.28125 L 5.84375 -27.28125 L 5.84375 -6.203125 C 5.84375 -5.648438 6.039062 -5.15625 6.4375 -4.71875 C 6.875 -4.320312 7.363281 -4.125 7.90625 -4.125 C 8.476562 -4.125 8.960938 -4.332031 9.359375 -4.75 C 9.765625 -5.164062 9.96875 -5.648438 9.96875 -6.203125 L 9.96875 -27.28125 Z M 14.109375 -27.28125 "/></g></g></g><g fill="#ffffff" fill-opacity="1"><g transform="translate(76.616204, 300.073399)"><g><path d="M 5.84375 -27.28125 L 1.71875 -27.28125 L 1.71875 0 L 5.84375 0 Z M 5.84375 -27.28125 "/></g></g></g><g fill="#ffffff" fill-opacity="1"><g transform="translate(84.173126, 300.073399)"><g><path d="M 9.96875 -27.28125 L 14.109375 -27.28125 L 14.109375 0 L 9.96875 0 L 9.96875 -9.8125 L 5.84375 -9.8125 L 5.84375 0 L 1.71875 0 L 1.71875 -27.28125 L 5.84375 -27.28125 L 5.84375 -13.953125 L 9.96875 -13.953125 Z M 9.96875 -27.28125 "/></g></g></g><g fill="#ffffff" fill-opacity="1"><g transform="translate(99.988116, 300.073399)"><g><path d="M 14.109375 -27.28125 L 14.109375 -16.015625 C 14.109375 -14.398438 13.585938 -13.023438 12.546875 -11.890625 C 12.679688 -11.753906 12.828125 -11.582031 12.984375 -11.375 C 13.367188 -10.851562 13.648438 -10.285156 13.828125 -9.671875 C 14.015625 -9.066406 14.109375 -8.425781 14.109375 -7.75 L 14.109375 0 L 9.96875 0 L 9.96875 -7.75 C 9.96875 -8.320312 9.773438 -8.816406 9.390625 -9.234375 C 8.972656 -9.617188 8.476562 -9.8125 7.90625 -9.8125 L 5.84375 -9.8125 L 5.84375 0 L 1.71875 0 L 1.71875 -27.28125 L 5.84375 -27.28125 L 5.84375 -13.953125 L 7.90625 -13.953125 C 8.476562 -13.953125 8.972656 -14.160156 9.390625 -14.578125 C 9.773438 -14.960938 9.96875 -15.441406 9.96875 -16.015625 L 9.96875 -27.28125 Z M 14.109375 -27.28125 "/></g></g></g><g fill="#ffffff" fill-opacity="1"><g transform="translate(115.803106, 300.073399)"><g><path d="M 12.984375 -24.703125 C 13.734375 -23.585938 14.109375 -22.378906 14.109375 -21.078125 L 14.109375 0 L 9.96875 0 L 9.96875 -11.0625 L 5.84375 -11.0625 L 5.84375 0 L 1.71875 0 L 1.71875 -21.078125 C 1.71875 -22.765625 2.328125 -24.222656 3.546875 -25.453125 C 3.859375 -25.765625 4.207031 -26.046875 4.59375 -26.296875 C 4.988281 -26.554688 5.40625 -26.765625 5.84375 -26.921875 C 6.46875 -27.160156 7.15625 -27.28125 7.90625 -27.28125 C 8.664062 -27.28125 9.351562 -27.160156 9.96875 -26.921875 C 10.59375 -26.710938 11.148438 -26.421875 11.640625 -26.046875 C 12.140625 -25.671875 12.585938 -25.222656 12.984375 -24.703125 Z M 5.84375 -15.203125 L 9.96875 -15.203125 L 9.96875 -21.078125 C 9.96875 -21.648438 9.773438 -22.132812 9.390625 -22.53125 C 9.003906 -22.9375 8.507812 -23.140625 7.90625 -23.140625 C 7.28125 -23.140625 6.800781 -22.9375 6.46875 -22.53125 C 6.050781 -22.132812 5.84375 -21.648438 5.84375 -21.078125 Z M 5.84375 -15.203125 "/></g></g></g><g fill="#ffffff" fill-opacity="1"><g transform="translate(131.618097, 300.073399)"><g/></g></g><g fill="#ffffff" fill-opacity="1"><g transform="translate(143.304047, 300.073399)"><g><path d="M 9.96875 -26.921875 C 11.25 -26.453125 12.253906 -25.710938 12.984375 -24.703125 C 13.753906 -23.609375 14.140625 -22.398438 14.140625 -21.078125 L 14.140625 -6.203125 C 14.140625 -4.484375 13.53125 -3.015625 12.3125 -1.796875 C 11.664062 -1.191406 10.882812 -0.707031 9.96875 -0.34375 C 9.351562 -0.113281 8.664062 0 7.90625 0 C 7.207031 0 6.519531 -0.113281 5.84375 -0.34375 C 4.59375 -0.84375 3.609375 -1.597656 2.890625 -2.609375 C 2.109375 -3.671875 1.71875 -4.867188 1.71875 -6.203125 L 1.71875 -21.078125 C 1.71875 -22.765625 2.328125 -24.222656 3.546875 -25.453125 C 4.171875 -26.117188 4.9375 -26.609375 5.84375 -26.921875 C 6.519531 -27.160156 7.207031 -27.28125 7.90625 -27.28125 C 8.664062 -27.28125 9.351562 -27.160156 9.96875 -26.921875 Z M 9.96875 -6.203125 L 9.96875 -21.078125 C 9.96875 -21.648438 9.773438 -22.132812 9.390625 -22.53125 C 8.972656 -22.9375 8.476562 -23.140625 7.90625 -23.140625 C 7.363281 -23.140625 6.882812 -22.9375 6.46875 -22.53125 C 6.050781 -22.113281 5.84375 -21.628906 5.84375 -21.078125 L 5.84375 -6.203125 C 5.84375 -5.648438 6.050781 -5.164062 6.46875 -4.75 C 6.851562 -4.332031 7.332031 -4.125 7.90625 -4.125 C 8.425781 -4.125 8.921875 -4.332031 9.390625 -4.75 C 9.773438 -5.144531 9.96875 -5.628906 9.96875 -6.203125 Z M 9.96875 -6.203125 "/></g></g></g><g fill="#ffffff" fill-opacity="1"><g transform="translate(159.157993, 300.073399)"><g><path d="M 6.46875 -22.53125 C 6.050781 -22.132812 5.84375 -21.648438 5.84375 -21.078125 L 5.84375 -17.453125 L 7.90625 -17.453125 C 8.632812 -17.453125 9.320312 -17.335938 9.96875 -17.109375 C 10.414062 -16.953125 10.832031 -16.75 11.21875 -16.5 C 11.613281 -16.257812 11.976562 -15.984375 12.3125 -15.671875 C 13.507812 -14.472656 14.109375 -13.003906 14.109375 -11.265625 L 14.109375 -6.203125 C 14.109375 -4.847656 13.734375 -3.640625 12.984375 -2.578125 C 12.203125 -1.535156 11.195312 -0.789062 9.96875 -0.34375 C 9.320312 -0.113281 8.632812 0 7.90625 0 L 1.71875 0 L 1.71875 -21.3125 C 1.738281 -22.53125 2.113281 -23.660156 2.84375 -24.703125 C 3.625 -25.710938 4.625 -26.453125 5.84375 -26.921875 C 6.519531 -27.160156 7.207031 -27.28125 7.90625 -27.28125 L 14.109375 -27.28125 L 14.109375 -23.140625 L 7.90625 -23.140625 C 7.332031 -23.140625 6.851562 -22.9375 6.46875 -22.53125 Z M 7.90625 -13.328125 L 5.84375 -13.328125 L 5.84375 -4.125 L 7.90625 -4.125 C 8.476562 -4.125 8.972656 -4.332031 9.390625 -4.75 C 9.773438 -5.144531 9.96875 -5.628906 9.96875 -6.203125 L 9.96875 -11.265625 C 9.96875 -11.835938 9.773438 -12.316406 9.390625 -12.703125 C 8.972656 -13.117188 8.476562 -13.328125 7.90625 -13.328125 Z M 7.90625 -13.328125 "/></g></g></g><g fill="#ffffff" fill-opacity="1"><g transform="translate(174.972983, 300.073399)"><g><path d="M 3.390625 -27.234375 L 7.5625 -27.234375 L 7.5625 -23.109375 L 5.84375 -18.984375 L 1.71875 -18.984375 L 3.390625 -23.109375 Z M 3.390625 -27.234375 "/></g></g></g><g fill="#ffffff" fill-opacity="1"><g transform="translate(184.243841, 300.073399)"><g><path d="M 14.109375 -17.453125 L 9.96875 -17.453125 L 9.96875 -21.078125 C 9.96875 -21.648438 9.765625 -22.132812 9.359375 -22.53125 C 9.171875 -22.726562 8.953125 -22.875 8.703125 -22.96875 C 8.460938 -23.0625 8.195312 -23.117188 7.90625 -23.140625 C 7.332031 -23.140625 6.851562 -22.9375 6.46875 -22.53125 C 6.050781 -22.132812 5.84375 -21.648438 5.84375 -21.078125 L 5.84375 -15.203125 L 14.109375 -15.203125 L 14.109375 -11.0625 L 5.84375 -11.0625 L 5.84375 -6.203125 C 5.84375 -5.628906 6.050781 -5.144531 6.46875 -4.75 C 6.851562 -4.332031 7.332031 -4.125 7.90625 -4.125 C 8.476562 -4.125 8.960938 -4.332031 9.359375 -4.75 C 9.765625 -5.144531 9.96875 -5.628906 9.96875 -6.203125 L 9.96875 -9.8125 L 14.109375 -9.8125 L 14.109375 -6.203125 C 14.109375 -4.484375 13.507812 -3.023438 12.3125 -1.828125 C 11.632812 -1.148438 10.851562 -0.65625 9.96875 -0.34375 C 9.320312 -0.113281 8.632812 0 7.90625 0 C 7.207031 0 6.519531 -0.113281 5.84375 -0.34375 C 4.625 -0.8125 3.625 -1.554688 2.84375 -2.578125 C 2.09375 -3.691406 1.71875 -4.898438 1.71875 -6.203125 L 1.71875 -21.078125 C 1.71875 -22.378906 2.09375 -23.585938 2.84375 -24.703125 C 3.625 -25.710938 4.625 -26.453125 5.84375 -26.921875 C 6.519531 -27.160156 7.207031 -27.28125 7.90625 -27.28125 C 8.632812 -27.28125 9.320312 -27.160156 9.96875 -26.921875 C 10.851562 -26.609375 11.632812 -26.117188 12.3125 -25.453125 C 13.507812 -24.253906 14.109375 -22.796875 14.109375 -21.078125 Z M 14.109375 -17.453125 "/></g></g></g><g fill="#ffffff" fill-opacity="1"><g transform="translate(200.058832, 300.073399)"><g><path d="M 21.234375 -24.703125 C 21.992188 -23.640625 22.375 -22.429688 22.375 -21.078125 L 22.375 0 L 18.234375 0 L 18.234375 -21.078125 C 18.234375 -21.648438 18.039062 -22.132812 17.65625 -22.53125 C 17.238281 -22.9375 16.742188 -23.140625 16.171875 -23.140625 C 15.597656 -23.140625 15.117188 -22.9375 14.734375 -22.53125 C 14.316406 -22.113281 14.109375 -21.628906 14.109375 -21.078125 L 14.109375 0 L 9.96875 0 L 9.96875 -21.078125 C 9.96875 -21.648438 9.773438 -22.132812 9.390625 -22.53125 C 8.972656 -22.9375 8.476562 -23.140625 7.90625 -23.140625 C 7.332031 -23.140625 6.851562 -22.9375 6.46875 -22.53125 C 6.050781 -22.132812 5.84375 -21.648438 5.84375 -21.078125 L 5.84375 0 L 1.71875 0 L 1.71875 -21.078125 C 1.71875 -22.765625 2.328125 -24.222656 3.546875 -25.453125 C 4.171875 -26.117188 4.9375 -26.609375 5.84375 -26.921875 C 6.519531 -27.160156 7.207031 -27.28125 7.90625 -27.28125 C 8.632812 -27.28125 9.320312 -27.160156 9.96875 -26.921875 C 10.363281 -26.765625 10.734375 -26.585938 11.078125 -26.390625 C 11.429688 -26.203125 11.753906 -25.96875 12.046875 -25.6875 C 12.640625 -26.195312 13.328125 -26.609375 14.109375 -26.921875 C 14.785156 -27.160156 15.472656 -27.28125 16.171875 -27.28125 C 16.898438 -27.28125 17.585938 -27.160156 18.234375 -26.921875 C 19.453125 -26.484375 20.453125 -25.742188 21.234375 -24.703125 Z M 21.234375 -24.703125 "/></g></g></g><g fill="#ffffff" fill-opacity="1"><g transform="translate(224.1319, 300.073399)"><g><path d="M 5.84375 -27.28125 L 1.71875 -27.28125 L 1.71875 0 L 5.84375 0 Z M 5.84375 -27.28125 "/></g></g></g><g fill="#ffffff" fill-opacity="1"><g transform="translate(231.688823, 300.073399)"><g><path d="M 14.109375 -21.078125 L 14.109375 -16.015625 C 14.109375 -14.398438 13.585938 -13.023438 12.546875 -11.890625 C 12.679688 -11.753906 12.828125 -11.582031 12.984375 -11.375 C 13.367188 -10.851562 13.648438 -10.285156 13.828125 -9.671875 C 14.015625 -9.066406 14.109375 -8.425781 14.109375 -7.75 L 14.109375 -6.203125 C 14.109375 -4.453125 13.507812 -2.984375 12.3125 -1.796875 C 11.976562 -1.484375 11.613281 -1.203125 11.21875 -0.953125 C 10.832031 -0.703125 10.414062 -0.5 9.96875 -0.34375 C 9.320312 -0.113281 8.632812 0 7.90625 0 L 1.71875 0 L 1.71875 -27.28125 L 7.90625 -27.28125 C 8.632812 -27.28125 9.320312 -27.160156 9.96875 -26.921875 C 11.195312 -26.484375 12.203125 -25.742188 12.984375 -24.703125 C 13.734375 -23.640625 14.109375 -22.429688 14.109375 -21.078125 Z M 5.84375 -23.140625 L 5.84375 -13.953125 L 7.90625 -13.953125 C 8.476562 -13.953125 8.972656 -14.160156 9.390625 -14.578125 C 9.773438 -14.960938 9.96875 -15.441406 9.96875 -16.015625 L 9.96875 -21.078125 C 9.96875 -21.648438 9.773438 -22.132812 9.390625 -22.53125 C 8.972656 -22.9375 8.476562 -23.140625 7.90625 -23.140625 Z M 9.96875 -6.203125 L 9.96875 -7.75 C 9.96875 -8.320312 9.773438 -8.816406 9.390625 -9.234375 C 9.003906 -9.617188 8.550781 -9.8125 8.03125 -9.8125 L 5.84375 -9.8125 L 5.84375 -4.125 L 7.90625 -4.125 C 8.476562 -4.125 8.972656 -4.332031 9.390625 -4.75 C 9.773438 -5.144531 9.96875 -5.628906 9.96875 -6.203125 Z M 9.96875 -6.203125 "/></g></g></g><g fill="#ffffff" fill-opacity="1"><g transform="translate(247.503813, 300.073399)"><g/></g></g><g fill="#ffffff" fill-opacity="1"><g transform="translate(259.189763, 300.073399)"><g><path d="M 12.984375 -24.703125 C 13.734375 -23.640625 14.109375 -22.429688 14.109375 -21.078125 L 14.109375 -16.015625 C 14.109375 -14.273438 13.507812 -12.804688 12.3125 -11.609375 C 11.976562 -11.296875 11.613281 -11.015625 11.21875 -10.765625 C 10.832031 -10.523438 10.414062 -10.328125 9.96875 -10.171875 C 9.320312 -9.929688 8.632812 -9.8125 7.90625 -9.8125 L 5.84375 -9.8125 L 5.84375 0 L 1.71875 0 L 1.71875 -27.28125 L 7.90625 -27.28125 C 8.632812 -27.28125 9.320312 -27.160156 9.96875 -26.921875 C 11.195312 -26.484375 12.203125 -25.742188 12.984375 -24.703125 Z M 9.96875 -16.015625 L 9.96875 -21.078125 C 9.96875 -21.648438 9.773438 -22.132812 9.390625 -22.53125 C 8.972656 -22.9375 8.476562 -23.140625 7.90625 -23.140625 L 5.84375 -23.140625 L 5.84375 -13.953125 L 7.90625 -13.953125 C 8.476562 -13.953125 8.972656 -14.160156 9.390625 -14.578125 C 9.773438 -14.960938 9.96875 -15.441406 9.96875 -16.015625 Z M 9.96875 -16.015625 "/></g></g></g><g fill="#ffffff" fill-opacity="1"><g transform="translate(275.004765, 300.073399)"><g><path d="M 9.96875 -26.921875 C 11.25 -26.453125 12.253906 -25.710938 12.984375 -24.703125 C 13.753906 -23.609375 14.140625 -22.398438 14.140625 -21.078125 L 14.140625 -6.203125 C 14.140625 -4.484375 13.53125 -3.015625 12.3125 -1.796875 C 11.664062 -1.191406 10.882812 -0.707031 9.96875 -0.34375 C 9.351562 -0.113281 8.664062 0 7.90625 0 C 7.207031 0 6.519531 -0.113281 5.84375 -0.34375 C 4.59375 -0.84375 3.609375 -1.597656 2.890625 -2.609375 C 2.109375 -3.671875 1.71875 -4.867188 1.71875 -6.203125 L 1.71875 -21.078125 C 1.71875 -22.765625 2.328125 -24.222656 3.546875 -25.453125 C 4.171875 -26.117188 4.9375 -26.609375 5.84375 -26.921875 C 6.519531 -27.160156 7.207031 -27.28125 7.90625 -27.28125 C 8.664062 -27.28125 9.351562 -27.160156 9.96875 -26.921875 Z M 9.96875 -6.203125 L 9.96875 -21.078125 C 9.96875 -21.648438 9.773438 -22.132812 9.390625 -22.53125 C 8.972656 -22.9375 8.476562 -23.140625 7.90625 -23.140625 C 7.363281 -23.140625 6.882812 -22.9375 6.46875 -22.53125 C 6.050781 -22.113281 5.84375 -21.628906 5.84375 -21.078125 L 5.84375 -6.203125 C 5.84375 -5.648438 6.050781 -5.164062 6.46875 -4.75 C 6.851562 -4.332031 7.332031 -4.125 7.90625 -4.125 C 8.425781 -4.125 8.921875 -4.332031 9.390625 -4.75 C 9.773438 -5.144531 9.96875 -5.628906 9.96875 -6.203125 Z M 9.96875 -6.203125 "/></g></g></g><g fill="#ffffff" fill-opacity="1"><g transform="translate(290.858722, 300.073399)"><g><path d="M 6.46875 -22.53125 C 6.050781 -22.132812 5.84375 -21.648438 5.84375 -21.078125 L 5.84375 -17.453125 L 7.90625 -17.453125 C 8.632812 -17.453125 9.320312 -17.335938 9.96875 -17.109375 C 10.414062 -16.953125 10.832031 -16.75 11.21875 -16.5 C 11.613281 -16.257812 11.976562 -15.984375 12.3125 -15.671875 C 13.507812 -14.472656 14.109375 -13.003906 14.109375 -11.265625 L 14.109375 -6.203125 C 14.109375 -4.847656 13.734375 -3.640625 12.984375 -2.578125 C 12.203125 -1.535156 11.195312 -0.789062 9.96875 -0.34375 C 9.320312 -0.113281 8.632812 0 7.90625 0 L 1.71875 0 L 1.71875 -21.3125 C 1.738281 -22.53125 2.113281 -23.660156 2.84375 -24.703125 C 3.625 -25.710938 4.625 -26.453125 5.84375 -26.921875 C 6.519531 -27.160156 7.207031 -27.28125 7.90625 -27.28125 L 14.109375 -27.28125 L 14.109375 -23.140625 L 7.90625 -23.140625 C 7.332031 -23.140625 6.851562 -22.9375 6.46875 -22.53125 Z M 7.90625 -13.328125 L 5.84375 -13.328125 L 5.84375 -4.125 L 7.90625 -4.125 C 8.476562 -4.125 8.972656 -4.332031 9.390625 -4.75 C 9.773438 -5.144531 9.96875 -5.628906 9.96875 -6.203125 L 9.96875 -11.265625 C 9.96875 -11.835938 9.773438 -12.316406 9.390625 -12.703125 C 8.972656 -13.117188 8.476562 -13.328125 7.90625 -13.328125 Z M 7.90625 -13.328125 "/></g></g></g><g fill="#ffffff" fill-opacity="1"><g transform="translate(306.673723, 300.073399)"><g><path d="M 5.84375 -27.28125 L 1.71875 -27.28125 L 1.71875 0 L 5.84375 0 Z M 5.84375 -27.28125 "/></g></g></g><g fill="#ffffff" fill-opacity="1"><g transform="translate(314.230646, 300.073399)"><g><path d="M 14.109375 -27.28125 L 14.109375 -23.140625 L 9.96875 -23.140625 L 9.96875 0 L 5.84375 0 L 5.84375 -23.140625 L 1.71875 -23.140625 L 1.71875 -27.28125 Z M 14.109375 -27.28125 "/></g></g></g><g fill="#ffffff" fill-opacity="1"><g transform="translate(96.960935, 322.880662)"><g><path d="M 0.015625 -9.625 L 1.703125 -9.625 L 3.796875 -4.15625 C 3.972656 -3.65625 4.128906 -3.191406 4.265625 -2.765625 C 4.410156 -2.335938 4.519531 -1.925781 4.59375 -1.53125 L 4.671875 -1.53125 C 4.742188 -1.820312 4.859375 -2.210938 5.015625 -2.703125 C 5.171875 -3.191406 5.332031 -3.679688 5.5 -4.171875 L 7.453125 -9.625 L 9.15625 -9.625 L 5.015625 1.328125 C 4.660156 2.234375 4.21875 2.957031 3.6875 3.5 C 3.164062 4.039062 2.441406 4.3125 1.515625 4.3125 C 1.222656 4.3125 0.96875 4.296875 0.75 4.265625 C 0.539062 4.234375 0.359375 4.203125 0.203125 4.171875 L 0.203125 2.90625 C 0.328125 2.9375 0.484375 2.960938 0.671875 2.984375 C 0.859375 3.003906 1.050781 3.015625 1.25 3.015625 C 1.800781 3.015625 2.242188 2.859375 2.578125 2.546875 C 2.921875 2.234375 3.191406 1.820312 3.390625 1.3125 L 3.90625 0.03125 Z M 0.015625 -9.625 "/></g></g></g><g fill="#ffffff" fill-opacity="1"><g transform="translate(106.117009, 322.880662)"><g><path d="M 4.0625 -9.8125 C 5.164062 -9.8125 6.039062 -9.585938 6.6875 -9.140625 C 7.34375 -8.703125 7.671875 -8.082031 7.671875 -7.28125 C 7.671875 -6.6875 7.503906 -6.21875 7.171875 -5.875 C 6.847656 -5.539062 6.410156 -5.296875 5.859375 -5.140625 L 5.859375 -5.0625 C 6.242188 -4.957031 6.597656 -4.804688 6.921875 -4.609375 C 7.242188 -4.421875 7.503906 -4.164062 7.703125 -3.84375 C 7.898438 -3.53125 8 -3.132812 8 -2.65625 C 8 -1.851562 7.664062 -1.179688 7 -0.640625 C 6.332031 -0.0976562 5.289062 0.171875 3.875 0.171875 C 3.1875 0.171875 2.5625 0.117188 2 0.015625 C 1.4375 -0.0859375 0.96875 -0.242188 0.59375 -0.453125 L 0.59375 -1.875 C 1 -1.675781 1.476562 -1.5 2.03125 -1.34375 C 2.59375 -1.1875 3.203125 -1.109375 3.859375 -1.109375 C 4.578125 -1.109375 5.1875 -1.226562 5.6875 -1.46875 C 6.1875 -1.71875 6.4375 -2.144531 6.4375 -2.75 C 6.4375 -3.820312 5.519531 -4.359375 3.6875 -4.359375 L 2.390625 -4.359375 L 2.390625 -5.65625 L 3.4375 -5.65625 C 4.257812 -5.65625 4.914062 -5.765625 5.40625 -5.984375 C 5.90625 -6.210938 6.15625 -6.597656 6.15625 -7.140625 C 6.15625 -7.585938 5.96875 -7.925781 5.59375 -8.15625 C 5.21875 -8.382812 4.675781 -8.5 3.96875 -8.5 C 3.445312 -8.5 2.984375 -8.445312 2.578125 -8.34375 C 2.171875 -8.238281 1.726562 -8.085938 1.25 -7.890625 L 0.703125 -9.140625 C 1.703125 -9.585938 2.820312 -9.8125 4.0625 -9.8125 Z M 4.0625 -9.8125 "/></g></g></g><g fill="#ffffff" fill-opacity="1"><g transform="translate(114.914024, 322.880662)"><g><path d="M 7.40625 -9.625 L 7.40625 -8.296875 L 3.109375 -8.296875 L 3.109375 0 L 1.53125 0 L 1.53125 -9.625 Z M 7.40625 -9.625 "/></g></g></g><g fill="#ffffff" fill-opacity="1"><g transform="translate(122.687721, 322.880662)"><g><path d="M 9.90625 -4.828125 C 9.90625 -3.234375 9.5 -2 8.6875 -1.125 C 7.875 -0.257812 6.78125 0.171875 5.40625 0.171875 C 4.550781 0.171875 3.789062 -0.0195312 3.125 -0.40625 C 2.46875 -0.789062 1.945312 -1.359375 1.5625 -2.109375 C 1.175781 -2.859375 0.984375 -3.765625 0.984375 -4.828125 C 0.984375 -6.421875 1.378906 -7.648438 2.171875 -8.515625 C 2.972656 -9.378906 4.070312 -9.8125 5.46875 -9.8125 C 6.320312 -9.8125 7.082031 -9.613281 7.75 -9.21875 C 8.425781 -8.832031 8.953125 -8.269531 9.328125 -7.53125 C 9.710938 -6.800781 9.90625 -5.898438 9.90625 -4.828125 Z M 2.625 -4.828125 C 2.625 -3.691406 2.847656 -2.789062 3.296875 -2.125 C 3.742188 -1.457031 4.457031 -1.125 5.4375 -1.125 C 6.414062 -1.125 7.128906 -1.457031 7.578125 -2.125 C 8.035156 -2.789062 8.265625 -3.691406 8.265625 -4.828125 C 8.265625 -5.972656 8.035156 -6.867188 7.578125 -7.515625 C 7.128906 -8.160156 6.410156 -8.484375 5.421875 -8.484375 C 4.441406 -8.484375 3.726562 -8.160156 3.28125 -7.515625 C 2.84375 -6.867188 2.625 -5.972656 2.625 -4.828125 Z M 2.625 -4.828125 "/></g></g></g><g fill="#ffffff" fill-opacity="1"><g transform="translate(133.549342, 322.880662)"><g><path d="M 8.671875 -9.625 L 8.671875 -1.328125 L 10.078125 -1.328125 L 10.078125 3.34375 L 8.546875 3.34375 L 8.546875 0 L 1.84375 0 L 1.84375 3.34375 L 0.34375 3.34375 L 0.34375 -1.328125 L 1.109375 -1.328125 C 1.941406 -2.460938 2.5625 -3.757812 2.96875 -5.21875 C 3.382812 -6.675781 3.597656 -8.144531 3.609375 -9.625 Z M 7.15625 -8.390625 L 5.015625 -8.390625 C 4.953125 -7.578125 4.820312 -6.734375 4.625 -5.859375 C 4.425781 -4.992188 4.164062 -4.164062 3.84375 -3.375 C 3.53125 -2.582031 3.164062 -1.898438 2.75 -1.328125 L 7.15625 -1.328125 Z M 7.15625 -8.390625 "/></g></g></g><g fill="#ffffff" fill-opacity="1"><g transform="translate(143.980093, 322.880662)"><g><path d="M 13.078125 -9.625 L 9.109375 -4.953125 L 13.421875 0 L 11.625 0 L 7.453125 -4.890625 L 7.453125 0 L 5.984375 0 L 5.984375 -4.890625 L 1.8125 0 L 0.015625 0 L 4.328125 -4.953125 L 0.359375 -9.625 L 2.078125 -9.625 L 5.984375 -4.953125 L 5.984375 -9.625 L 7.453125 -9.625 L 7.453125 -4.953125 L 11.375 -9.625 Z M 13.078125 -9.625 "/></g></g></g><g fill="#ffffff" fill-opacity="1"><g transform="translate(157.444913, 322.880662)"><g><path d="M 5.25 -9.8125 C 6.0625 -9.8125 6.765625 -9.628906 7.359375 -9.265625 C 7.960938 -8.910156 8.421875 -8.40625 8.734375 -7.75 C 9.054688 -7.101562 9.21875 -6.34375 9.21875 -5.46875 L 9.21875 -4.515625 L 2.625 -4.515625 C 2.644531 -3.421875 2.921875 -2.585938 3.453125 -2.015625 C 3.992188 -1.453125 4.742188 -1.171875 5.703125 -1.171875 C 6.304688 -1.171875 6.84375 -1.226562 7.3125 -1.34375 C 7.789062 -1.457031 8.28125 -1.617188 8.78125 -1.828125 L 8.78125 -0.453125 C 8.289062 -0.234375 7.804688 -0.078125 7.328125 0.015625 C 6.847656 0.117188 6.28125 0.171875 5.625 0.171875 C 4.695312 0.171875 3.882812 -0.0078125 3.1875 -0.375 C 2.5 -0.75 1.957031 -1.300781 1.5625 -2.03125 C 1.175781 -2.757812 0.984375 -3.664062 0.984375 -4.75 C 0.984375 -5.800781 1.160156 -6.703125 1.515625 -7.453125 C 1.867188 -8.210938 2.363281 -8.796875 3 -9.203125 C 3.644531 -9.609375 4.394531 -9.8125 5.25 -9.8125 Z M 5.234375 -8.515625 C 4.472656 -8.515625 3.875 -8.269531 3.4375 -7.78125 C 3 -7.300781 2.738281 -6.628906 2.65625 -5.765625 L 7.5625 -5.765625 C 7.550781 -6.578125 7.359375 -7.238281 6.984375 -7.75 C 6.617188 -8.257812 6.035156 -8.515625 5.234375 -8.515625 Z M 5.234375 -8.515625 "/></g></g></g><g fill="#ffffff" fill-opacity="1"><g transform="translate(167.570461, 322.880662)"><g><path d="M 3.109375 -9.625 L 3.109375 -5.625 L 8.34375 -5.625 L 8.34375 -9.625 L 9.921875 -9.625 L 9.921875 0 L 8.34375 0 L 8.34375 -4.296875 L 3.109375 -4.296875 L 3.109375 0 L 1.53125 0 L 1.53125 -9.625 Z M 3.109375 -9.625 "/></g></g></g><g fill="#ffffff" fill-opacity="1"><g transform="translate(179.006587, 322.880662)"><g><path d="M 3.109375 -9.625 L 3.109375 -5.625 L 8.34375 -5.625 L 8.34375 -9.625 L 9.921875 -9.625 L 9.921875 0 L 8.34375 0 L 8.34375 -4.296875 L 3.109375 -4.296875 L 3.109375 0 L 1.53125 0 L 1.53125 -9.625 Z M 3.109375 -9.625 "/></g></g></g><g fill="#ffffff" fill-opacity="1"><g transform="translate(190.442713, 322.880662)"><g><path d="M 2.125 0 L 0.28125 0 L 3.03125 -4.046875 C 2.664062 -4.128906 2.304688 -4.273438 1.953125 -4.484375 C 1.609375 -4.703125 1.328125 -4.992188 1.109375 -5.359375 C 0.898438 -5.734375 0.796875 -6.210938 0.796875 -6.796875 C 0.796875 -7.703125 1.101562 -8.398438 1.71875 -8.890625 C 2.34375 -9.378906 3.171875 -9.625 4.203125 -9.625 L 8.515625 -9.625 L 8.515625 0 L 6.9375 0 L 6.9375 -3.828125 L 4.59375 -3.828125 Z M 2.3125 -6.78125 C 2.3125 -6.207031 2.519531 -5.789062 2.9375 -5.53125 C 3.351562 -5.269531 3.929688 -5.140625 4.671875 -5.140625 L 6.9375 -5.140625 L 6.9375 -8.3125 L 4.359375 -8.3125 C 3.628906 -8.3125 3.101562 -8.164062 2.78125 -7.875 C 2.46875 -7.582031 2.3125 -7.21875 2.3125 -6.78125 Z M 2.3125 -6.78125 "/></g></g></g><g fill="#ffffff" fill-opacity="1"><g transform="translate(200.478494, 322.880662)"><g/></g></g><g fill="#ffffff" fill-opacity="1"><g transform="translate(205.37969, 322.880662)"><g><path d="M 9.265625 -7.203125 C 9.265625 -6.609375 9.082031 -6.140625 8.71875 -5.796875 C 8.363281 -5.460938 7.90625 -5.238281 7.34375 -5.125 L 7.34375 -5.046875 C 7.9375 -4.960938 8.457031 -4.75 8.90625 -4.40625 C 9.351562 -4.070312 9.578125 -3.546875 9.578125 -2.828125 C 9.578125 -2.003906 9.273438 -1.328125 8.671875 -0.796875 C 8.066406 -0.265625 7.066406 0 5.671875 0 L 1.53125 0 L 1.53125 -9.625 L 5.65625 -9.625 C 6.34375 -9.625 6.957031 -9.550781 7.5 -9.40625 C 8.039062 -9.257812 8.46875 -9.007812 8.78125 -8.65625 C 9.101562 -8.300781 9.265625 -7.816406 9.265625 -7.203125 Z M 7.671875 -7 C 7.671875 -7.457031 7.503906 -7.789062 7.171875 -8 C 6.847656 -8.207031 6.3125 -8.3125 5.5625 -8.3125 L 3.109375 -8.3125 L 3.109375 -5.671875 L 5.28125 -5.671875 C 6.875 -5.671875 7.671875 -6.113281 7.671875 -7 Z M 7.9375 -2.828125 C 7.9375 -3.367188 7.726562 -3.757812 7.3125 -4 C 6.894531 -4.238281 6.28125 -4.359375 5.46875 -4.359375 L 3.109375 -4.359375 L 3.109375 -1.28125 L 5.5 -1.28125 C 6.289062 -1.28125 6.894531 -1.394531 7.3125 -1.625 C 7.726562 -1.851562 7.9375 -2.253906 7.9375 -2.828125 Z M 7.9375 -2.828125 "/></g></g></g><g fill="#ffffff" fill-opacity="1"><g transform="translate(215.720674, 322.880662)"><g><path d="M 5.171875 -9.796875 C 6.347656 -9.796875 7.21875 -9.535156 7.78125 -9.015625 C 8.34375 -8.503906 8.625 -7.6875 8.625 -6.5625 L 8.625 0 L 7.46875 0 L 7.171875 -1.359375 L 7.09375 -1.359375 C 6.675781 -0.835938 6.234375 -0.453125 5.765625 -0.203125 C 5.296875 0.046875 4.660156 0.171875 3.859375 0.171875 C 2.984375 0.171875 2.257812 -0.0546875 1.6875 -0.515625 C 1.113281 -0.972656 0.828125 -1.691406 0.828125 -2.671875 C 0.828125 -3.628906 1.203125 -4.367188 1.953125 -4.890625 C 2.710938 -5.410156 3.875 -5.695312 5.4375 -5.75 L 7.078125 -5.796875 L 7.078125 -6.375 C 7.078125 -7.175781 6.898438 -7.734375 6.546875 -8.046875 C 6.203125 -8.359375 5.710938 -8.515625 5.078125 -8.515625 C 4.578125 -8.515625 4.097656 -8.4375 3.640625 -8.28125 C 3.191406 -8.132812 2.769531 -7.96875 2.375 -7.78125 L 1.890625 -8.96875 C 2.304688 -9.195312 2.800781 -9.390625 3.375 -9.546875 C 3.945312 -9.710938 4.546875 -9.796875 5.171875 -9.796875 Z M 7.0625 -4.703125 L 5.640625 -4.65625 C 4.441406 -4.601562 3.613281 -4.410156 3.15625 -4.078125 C 2.695312 -3.742188 2.46875 -3.269531 2.46875 -2.65625 C 2.46875 -2.113281 2.628906 -1.71875 2.953125 -1.46875 C 3.285156 -1.21875 3.707031 -1.09375 4.21875 -1.09375 C 5.019531 -1.09375 5.691406 -1.316406 6.234375 -1.765625 C 6.785156 -2.210938 7.0625 -2.90625 7.0625 -3.84375 Z M 7.0625 -4.703125 "/></g></g></g><g fill="#ffffff" fill-opacity="1"><g transform="translate(225.792367, 322.880662)"><g><path d="M 6.109375 -9.8125 C 7.296875 -9.8125 8.25 -9.394531 8.96875 -8.5625 C 9.695312 -7.738281 10.0625 -6.492188 10.0625 -4.828125 C 10.0625 -3.191406 9.695312 -1.945312 8.96875 -1.09375 C 8.25 -0.25 7.289062 0.171875 6.09375 0.171875 C 5.351562 0.171875 4.738281 0.0351562 4.25 -0.234375 C 3.757812 -0.503906 3.378906 -0.832031 3.109375 -1.21875 L 3 -1.21875 C 3.007812 -1.019531 3.03125 -0.765625 3.0625 -0.453125 C 3.09375 -0.140625 3.109375 0.128906 3.109375 0.359375 L 3.109375 4.3125 L 1.53125 4.3125 L 1.53125 -9.625 L 2.828125 -9.625 L 3.03125 -8.3125 L 3.109375 -8.3125 C 3.398438 -8.738281 3.773438 -9.09375 4.234375 -9.375 C 4.703125 -9.664062 5.328125 -9.8125 6.109375 -9.8125 Z M 5.828125 -8.484375 C 4.835938 -8.484375 4.140625 -8.207031 3.734375 -7.65625 C 3.328125 -7.101562 3.117188 -6.265625 3.109375 -5.140625 L 3.109375 -4.828125 C 3.109375 -3.640625 3.300781 -2.722656 3.6875 -2.078125 C 4.082031 -1.441406 4.804688 -1.125 5.859375 -1.125 C 6.429688 -1.125 6.910156 -1.28125 7.296875 -1.59375 C 7.679688 -1.914062 7.960938 -2.359375 8.140625 -2.921875 C 8.328125 -3.484375 8.421875 -4.125 8.421875 -4.84375 C 8.421875 -5.945312 8.207031 -6.828125 7.78125 -7.484375 C 7.363281 -8.148438 6.710938 -8.484375 5.828125 -8.484375 Z M 5.828125 -8.484375 "/></g></g></g><g fill="#ffffff" fill-opacity="1"><g transform="translate(236.833523, 322.880662)"><g><path d="M 8.171875 -8.296875 L 5.03125 -8.296875 L 5.03125 0 L 3.46875 0 L 3.46875 -8.296875 L 0.359375 -8.296875 L 0.359375 -9.625 L 8.171875 -9.625 Z M 8.171875 -8.296875 "/></g></g></g><g fill="#ffffff" fill-opacity="1"><g transform="translate(245.379192, 322.880662)"><g><path d="M 9.90625 -4.828125 C 9.90625 -3.234375 9.5 -2 8.6875 -1.125 C 7.875 -0.257812 6.78125 0.171875 5.40625 0.171875 C 4.550781 0.171875 3.789062 -0.0195312 3.125 -0.40625 C 2.46875 -0.789062 1.945312 -1.359375 1.5625 -2.109375 C 1.175781 -2.859375 0.984375 -3.765625 0.984375 -4.828125 C 0.984375 -6.421875 1.378906 -7.648438 2.171875 -8.515625 C 2.972656 -9.378906 4.070312 -9.8125 5.46875 -9.8125 C 6.320312 -9.8125 7.082031 -9.613281 7.75 -9.21875 C 8.425781 -8.832031 8.953125 -8.269531 9.328125 -7.53125 C 9.710938 -6.800781 9.90625 -5.898438 9.90625 -4.828125 Z M 2.625 -4.828125 C 2.625 -3.691406 2.847656 -2.789062 3.296875 -2.125 C 3.742188 -1.457031 4.457031 -1.125 5.4375 -1.125 C 6.414062 -1.125 7.128906 -1.457031 7.578125 -2.125 C 8.035156 -2.789062 8.265625 -3.691406 8.265625 -4.828125 C 8.265625 -5.972656 8.035156 -6.867188 7.578125 -7.515625 C 7.128906 -8.160156 6.410156 -8.484375 5.421875 -8.484375 C 4.441406 -8.484375 3.726562 -8.160156 3.28125 -7.515625 C 2.84375 -6.867188 2.625 -5.972656 2.625 -4.828125 Z M 2.625 -4.828125 "/></g></g></g><g fill="#ffffff" fill-opacity="1"><g transform="translate(256.240813, 322.880662)"><g><path d="M 5.390625 0.171875 C 4.523438 0.171875 3.765625 0 3.109375 -0.34375 C 2.453125 -0.6875 1.929688 -1.222656 1.546875 -1.953125 C 1.171875 -2.679688 0.984375 -3.617188 0.984375 -4.765625 C 0.984375 -5.953125 1.175781 -6.914062 1.5625 -7.65625 C 1.957031 -8.394531 2.492188 -8.9375 3.171875 -9.28125 C 3.859375 -9.632812 4.632812 -9.8125 5.5 -9.8125 C 5.976562 -9.8125 6.445312 -9.757812 6.90625 -9.65625 C 7.363281 -9.550781 7.738281 -9.429688 8.03125 -9.296875 L 7.546875 -7.984375 C 7.253906 -8.085938 6.914062 -8.1875 6.53125 -8.28125 C 6.15625 -8.375 5.800781 -8.421875 5.46875 -8.421875 C 3.570312 -8.421875 2.625 -7.207031 2.625 -4.78125 C 2.625 -3.613281 2.851562 -2.722656 3.3125 -2.109375 C 3.769531 -1.492188 4.457031 -1.1875 5.375 -1.1875 C 5.882812 -1.1875 6.34375 -1.238281 6.75 -1.34375 C 7.15625 -1.457031 7.53125 -1.59375 7.875 -1.75 L 7.875 -0.34375 C 7.550781 -0.175781 7.191406 -0.0507812 6.796875 0.03125 C 6.410156 0.125 5.941406 0.171875 5.390625 0.171875 Z M 5.390625 0.171875 "/></g></g></g><g fill="#ffffff" fill-opacity="1"><g transform="translate(264.858305, 322.880662)"><g><path d="M 8.171875 -8.296875 L 5.03125 -8.296875 L 5.03125 0 L 3.46875 0 L 3.46875 -8.296875 L 0.359375 -8.296875 L 0.359375 -9.625 L 8.171875 -9.625 Z M 8.171875 -8.296875 "/></g></g></g><g fill="#ffffff" fill-opacity="1"><g transform="translate(273.403974, 322.880662)"><g><path d="M 3.109375 0 L 1.53125 0 L 1.53125 -9.625 L 3.109375 -9.625 Z M 3.109375 0 "/></g></g></g></svg>