<svg xmlns="http://www.w3.org/2000/svg" xmlns:xlink="http://www.w3.org/1999/xlink" width="500" zoomAndPan="magnify" viewBox="0 0 375 374.999991" height="500" preserveAspectRatio="xMidYMid meet" version="1.0"><defs><g/><clipPath id="ba2cf0b34b"><path d="M 153.058594 187.5 L 222.058594 187.5 L 222.058594 256.5 L 153.058594 256.5 Z M 153.058594 187.5 " clip-rule="nonzero"/></clipPath><clipPath id="97d4f24747"><path d="M 113.8125 69 L 243 69 L 243 150 L 113.8125 150 Z M 113.8125 69 " clip-rule="nonzero"/></clipPath><clipPath id="411fb9fc62"><path d="M 113.8125 145 L 243 145 L 243 162 L 113.8125 162 Z M 113.8125 145 " clip-rule="nonzero"/></clipPath><clipPath id="f8f6e4ae38"><path d="M 149 173 L 207 173 L 207 182.25 L 149 182.25 Z M 149 173 " clip-rule="nonzero"/></clipPath><clipPath id="d56a7cc45f"><path d="M 173 32.25 L 261.5625 32.25 L 261.5625 128 L 173 128 Z M 173 32.25 " clip-rule="nonzero"/></clipPath><clipPath id="d5e363ea8c"><path d="M 212 59 L 261.5625 59 L 261.5625 128 L 212 128 Z M 212 59 " clip-rule="nonzero"/></clipPath><clipPath id="975df1917a"><path d="M 173 32.25 L 223 32.25 L 223 100 L 173 100 Z M 173 32.25 " clip-rule="nonzero"/></clipPath></defs><g clip-path="url(#ba2cf0b34b)"><path fill="#ffc300" d="M 222.058594 244.515625 C 222.058594 251.109375 216.667969 256.5 210.074219 256.5 L 165.042969 256.5 C 158.449219 256.5 153.058594 251.109375 153.058594 244.515625 L 153.058594 199.484375 C 153.058594 192.890625 158.449219 187.5 165.042969 187.5 L 210.074219 187.5 C 216.667969 187.5 222.058594 192.890625 222.058594 199.484375 Z M 222.058594 244.515625 " fill-opacity="1" fill-rule="nonzero"/></g><path fill="#ffffff" d="M 202.636719 253.3125 L 197.363281 253.3125 C 196.742188 253.3125 196.234375 252.808594 196.234375 252.183594 C 196.234375 251.558594 196.742188 251.054688 197.363281 251.054688 L 202.636719 251.054688 C 203.261719 251.054688 203.765625 251.5625 203.765625 252.183594 C 203.765625 252.808594 203.261719 253.3125 202.636719 253.3125 Z M 192.09375 253.3125 L 186.820312 253.3125 C 186.199219 253.3125 185.691406 252.808594 185.691406 252.183594 C 185.691406 251.558594 186.199219 251.054688 186.820312 251.054688 L 192.09375 251.054688 C 192.71875 251.054688 193.222656 251.5625 193.222656 252.183594 C 193.222656 252.808594 192.71875 253.3125 192.09375 253.3125 Z M 181.550781 253.3125 L 176.28125 253.3125 C 175.65625 253.3125 175.148438 252.808594 175.148438 252.183594 C 175.148438 251.558594 175.65625 251.054688 176.28125 251.054688 L 181.550781 251.054688 C 182.175781 251.054688 182.679688 251.5625 182.679688 252.183594 C 182.679688 252.808594 182.175781 253.3125 181.550781 253.3125 Z M 171.007812 253.3125 L 167.859375 253.3125 C 167.074219 253.3125 166.285156 253.234375 165.523438 253.078125 C 164.914062 252.949219 164.519531 252.351562 164.644531 251.742188 C 164.773438 251.132812 165.371094 250.742188 165.980469 250.863281 C 166.59375 250.992188 167.226562 251.054688 167.859375 251.054688 L 171.007812 251.054688 C 171.632812 251.054688 172.136719 251.5625 172.136719 252.183594 C 172.136719 252.808594 171.632812 253.3125 171.007812 253.3125 Z M 207.90625 253.292969 C 207.316406 253.292969 206.816406 252.832031 206.78125 252.234375 C 206.742188 251.609375 207.214844 251.074219 207.839844 251.035156 C 209.402344 250.941406 210.929688 250.441406 212.257812 249.59375 C 212.785156 249.261719 213.480469 249.414062 213.816406 249.941406 C 214.152344 250.464844 214 251.164062 213.472656 251.5 C 211.824219 252.550781 209.921875 253.171875 207.976562 253.292969 C 207.953125 253.292969 207.929688 253.292969 207.90625 253.292969 Z M 161.070312 250.800781 C 160.808594 250.800781 160.550781 250.714844 160.335938 250.53125 C 158.847656 249.261719 157.695312 247.632812 157.003906 245.816406 C 156.78125 245.234375 157.074219 244.582031 157.65625 244.359375 C 158.238281 244.136719 158.890625 244.429688 159.113281 245.011719 C 159.671875 246.472656 160.601562 247.789062 161.804688 248.8125 C 162.277344 249.21875 162.335938 249.929688 161.929688 250.40625 C 161.707031 250.667969 161.390625 250.800781 161.070312 250.800781 Z M 216.4375 247.878906 C 216.253906 247.878906 216.066406 247.832031 215.890625 247.734375 C 215.347656 247.433594 215.148438 246.746094 215.449219 246.199219 C 216.210938 244.828125 216.613281 243.269531 216.613281 241.699219 L 216.613281 239.65625 C 216.613281 239.035156 217.117188 238.527344 217.742188 238.527344 C 218.367188 238.527344 218.871094 239.035156 218.871094 239.65625 L 218.871094 241.699219 C 218.871094 243.652344 218.371094 245.585938 217.425781 247.292969 C 217.222656 247.667969 216.835938 247.878906 216.4375 247.878906 Z M 157.375 241.355469 C 156.75 241.355469 156.246094 240.851562 156.246094 240.226562 L 156.246094 234.957031 C 156.246094 234.332031 156.75 233.828125 157.375 233.828125 C 158 233.828125 158.503906 234.332031 158.503906 234.957031 L 158.503906 240.226562 C 158.503906 240.851562 158 241.355469 157.375 241.355469 Z M 217.742188 235.515625 C 217.117188 235.515625 216.613281 235.007812 216.613281 234.386719 L 216.613281 229.113281 C 216.613281 228.488281 217.117188 227.984375 217.742188 227.984375 C 218.367188 227.984375 218.871094 228.488281 218.871094 229.113281 L 218.871094 234.386719 C 218.871094 235.011719 218.367188 235.515625 217.742188 235.515625 Z M 157.375 230.8125 C 156.75 230.8125 156.246094 230.308594 156.246094 229.683594 L 156.246094 224.414062 C 156.246094 223.789062 156.75 223.28125 157.375 223.28125 C 158 223.28125 158.503906 223.789062 158.503906 224.414062 L 158.503906 229.683594 C 158.503906 230.308594 158 230.8125 157.375 230.8125 Z M 217.742188 224.972656 C 217.117188 224.972656 216.613281 224.464844 216.613281 223.84375 L 216.613281 218.570312 C 216.613281 217.945312 217.117188 217.441406 217.742188 217.441406 C 218.367188 217.441406 218.871094 217.945312 218.871094 218.570312 L 218.871094 223.84375 C 218.871094 224.464844 218.367188 224.972656 217.742188 224.972656 Z M 157.375 220.269531 C 156.75 220.269531 156.246094 219.765625 156.246094 219.140625 L 156.246094 213.867188 C 156.246094 213.246094 156.75 212.738281 157.375 212.738281 C 158 212.738281 158.503906 213.246094 158.503906 213.867188 L 158.503906 219.140625 C 158.503906 219.765625 158 220.269531 157.375 220.269531 Z M 217.742188 214.429688 C 217.117188 214.429688 216.613281 213.921875 216.613281 213.300781 L 216.613281 208.027344 C 216.613281 207.402344 217.117188 206.898438 217.742188 206.898438 C 218.367188 206.898438 218.871094 207.402344 218.871094 208.027344 L 218.871094 213.300781 C 218.871094 213.921875 218.367188 214.429688 217.742188 214.429688 Z M 157.375 209.726562 C 156.75 209.726562 156.246094 209.222656 156.246094 208.597656 L 156.246094 203.324219 C 156.246094 202.703125 156.75 202.195312 157.375 202.195312 C 158 202.195312 158.503906 202.703125 158.503906 203.324219 L 158.503906 208.597656 C 158.503906 209.222656 158 209.726562 157.375 209.726562 Z M 217.742188 203.886719 C 217.117188 203.886719 216.613281 203.378906 216.613281 202.757812 L 216.613281 202.304688 C 216.613281 200.851562 216.285156 199.457031 215.636719 198.160156 C 215.359375 197.601562 215.585938 196.921875 216.144531 196.644531 C 216.703125 196.367188 217.382812 196.59375 217.660156 197.152344 C 218.464844 198.765625 218.871094 200.5 218.871094 202.304688 L 218.871094 202.757812 C 218.871094 203.378906 218.367188 203.886719 217.742188 203.886719 Z M 158.226562 199.300781 C 158.078125 199.300781 157.925781 199.273438 157.78125 199.210938 C 157.207031 198.960938 156.945312 198.296875 157.191406 197.722656 C 157.964844 195.941406 159.183594 194.359375 160.722656 193.15625 C 161.214844 192.773438 161.925781 192.859375 162.308594 193.351562 C 162.695312 193.839844 162.605469 194.550781 162.117188 194.933594 C 160.871094 195.90625 159.886719 197.183594 159.265625 198.621094 C 159.082031 199.046875 158.664062 199.300781 158.226562 199.300781 Z M 213.238281 194.835938 C 213.015625 194.835938 212.789062 194.773438 212.59375 194.632812 C 211.300781 193.730469 209.796875 193.164062 208.238281 193 C 207.621094 192.933594 207.167969 192.378906 207.234375 191.757812 C 207.300781 191.136719 207.855469 190.683594 208.476562 190.753906 C 210.414062 190.957031 212.285156 191.660156 213.886719 192.78125 C 214.398438 193.140625 214.523438 193.84375 214.167969 194.355469 C 213.945312 194.667969 213.597656 194.835938 213.238281 194.835938 Z M 166.195312 193.082031 C 165.648438 193.082031 165.167969 192.6875 165.082031 192.132812 C 164.980469 191.515625 165.398438 190.9375 166.015625 190.835938 C 166.621094 190.738281 167.242188 190.691406 167.859375 190.691406 L 171.460938 190.691406 C 172.082031 190.691406 172.589844 191.195312 172.589844 191.820312 C 172.589844 192.445312 172.082031 192.949219 171.460938 192.949219 L 167.859375 192.949219 C 167.359375 192.949219 166.863281 192.988281 166.375 193.066406 C 166.316406 193.078125 166.253906 193.082031 166.195312 193.082031 Z M 203.089844 192.949219 L 197.816406 192.949219 C 197.191406 192.949219 196.6875 192.445312 196.6875 191.820312 C 196.6875 191.195312 197.191406 190.691406 197.816406 190.691406 L 203.089844 190.691406 C 203.714844 190.691406 204.21875 191.195312 204.21875 191.820312 C 204.21875 192.445312 203.714844 192.949219 203.089844 192.949219 Z M 192.546875 192.949219 L 187.273438 192.949219 C 186.648438 192.949219 186.144531 192.445312 186.144531 191.820312 C 186.144531 191.195312 186.648438 190.691406 187.273438 190.691406 L 192.546875 190.691406 C 193.171875 190.691406 193.675781 191.195312 193.675781 191.820312 C 193.675781 192.445312 193.167969 192.949219 192.546875 192.949219 Z M 182.003906 192.949219 L 176.730469 192.949219 C 176.105469 192.949219 175.601562 192.445312 175.601562 191.820312 C 175.601562 191.195312 176.105469 190.691406 176.730469 190.691406 L 182.003906 190.691406 C 182.628906 190.691406 183.132812 191.195312 183.132812 191.820312 C 183.132812 192.445312 182.625 192.949219 182.003906 192.949219 Z M 182.003906 192.949219 " fill-opacity="1" fill-rule="nonzero"/><path fill="#4b1d00" d="M 201.546875 228.65625 C 201.074219 228.046875 200.261719 227.863281 199.449219 227.75 C 198.726562 227.644531 198.003906 227.558594 197.234375 227.472656 L 197.519531 226.414062 C 198.011719 224.539062 198.496094 222.714844 198.957031 220.882812 C 199.0625 220.433594 199.121094 219.972656 199.179688 219.445312 L 199.265625 218.691406 C 199.300781 218.40625 199.199219 218.117188 198.964844 217.910156 C 198.742188 217.695312 198.445312 217.554688 198.097656 217.597656 L 196.644531 217.648438 C 194.777344 217.710938 193.015625 217.761719 191.324219 218.195312 C 190.757812 218.339844 190.410156 218.84375 190.539062 219.351562 C 190.613281 219.632812 190.707031 219.902344 190.8125 220.15625 C 190.898438 220.425781 191.046875 220.804688 191.019531 220.914062 C 190.503906 222.644531 189.886719 224.363281 189.289062 226.042969 L 188.828125 227.332031 L 180.550781 228.308594 C 181.242188 227.449219 181.933594 226.589844 182.640625 225.742188 C 184.464844 223.496094 186.292969 221.25 188.03125 218.949219 C 190.941406 215.109375 196.125 207.964844 198.109375 203.234375 C 198.226562 202.945312 198.195312 202.632812 198.011719 202.378906 C 197.828125 202.125 197.523438 201.953125 197.179688 201.917969 L 189.46875 201.132812 C 188.988281 201.089844 188.535156 201.308594 188.332031 201.679688 L 186.011719 205.863281 C 185.160156 207.839844 172.375 225.617188 171.214844 226.898438 C 170.277344 227.921875 170.046875 229.089844 170.519531 230.367188 C 170.792969 231.136719 171.03125 231.917969 171.277344 232.695312 C 171.5 233.394531 171.722656 234.101562 171.964844 234.800781 C 172.210938 235.472656 172.652344 236.714844 174.257812 236.714844 C 174.621094 236.714844 175.042969 236.644531 175.660156 236.484375 L 177.160156 236.09375 C 178.203125 235.816406 179.234375 235.535156 180.296875 235.328125 C 182.632812 234.867188 184.695312 234.691406 186.78125 234.800781 C 186.6875 235.421875 186.566406 236.027344 186.441406 236.636719 C 186.121094 238.300781 185.777344 240.015625 185.902344 241.902344 C 185.921875 242.160156 186.058594 242.40625 186.285156 242.574219 C 186.511719 242.746094 186.796875 242.828125 187.105469 242.824219 C 188.402344 242.753906 189.386719 242.789062 190.351562 242.824219 C 190.945312 242.851562 191.535156 242.867188 192.175781 242.867188 C 192.65625 242.867188 193.167969 242.851562 193.738281 242.824219 C 194.121094 242.804688 194.503906 242.660156 194.695312 242.371094 C 194.867188 242.070312 194.890625 241.769531 194.699219 241.472656 C 194.527344 240.851562 194.964844 237.480469 195.472656 235.265625 L 195.585938 235.28125 C 196.3125 235.371094 196.957031 235.464844 197.613281 235.511719 C 197.898438 235.542969 198.136719 235.546875 198.347656 235.546875 C 199.976562 235.546875 200.449219 234.636719 200.789062 233.695312 C 201.148438 232.695312 201.460938 231.671875 201.726562 230.644531 C 201.898438 229.96875 202 229.25 201.546875 228.65625 Z M 201.546875 228.65625 " fill-opacity="1" fill-rule="evenodd"/><path fill="#f4f4f4" d="M 159.617188 176.53125 C 159.359375 176.53125 159.113281 176.421875 158.9375 176.230469 C 158.765625 176.042969 158.679688 175.789062 158.699219 175.53125 L 160.511719 155.226562 C 160.554688 154.753906 160.953125 154.390625 161.429688 154.390625 L 194.484375 154.390625 C 194.960938 154.390625 195.359375 154.75 195.402344 155.226562 L 197.214844 175.53125 C 197.238281 175.789062 197.152344 176.042969 196.976562 176.230469 C 196.800781 176.421875 196.554688 176.53125 196.296875 176.53125 L 159.617188 176.53125 " fill-opacity="1" fill-rule="nonzero"/><path fill="#1b3444" d="M 194.484375 153.472656 L 161.429688 153.472656 C 160.476562 153.472656 159.679688 154.199219 159.59375 155.144531 L 157.785156 175.449219 C 157.738281 175.960938 157.910156 176.472656 158.257812 176.851562 C 158.609375 177.230469 159.101562 177.449219 159.617188 177.449219 L 196.296875 177.449219 C 196.8125 177.449219 197.304688 177.230469 197.65625 176.851562 C 198.003906 176.472656 198.175781 175.960938 198.128906 175.449219 L 196.316406 155.144531 C 196.230469 154.195312 195.4375 153.472656 194.484375 153.472656 M 194.484375 155.308594 L 196.296875 175.613281 L 159.617188 175.613281 L 161.429688 155.308594 L 194.484375 155.308594 " fill-opacity="1" fill-rule="nonzero"/><path fill="#2e5773" d="M 114.773438 148.21875 L 114.773438 78.8125 C 114.773438 74.09375 118.621094 70.253906 123.355469 70.253906 L 232.558594 70.253906 C 237.289062 70.253906 241.140625 74.09375 241.140625 78.8125 L 241.140625 148.21875 L 114.773438 148.21875 " fill-opacity="1" fill-rule="nonzero"/><g clip-path="url(#97d4f24747)"><path fill="#1b3444" d="M 232.558594 69.296875 L 123.355469 69.296875 C 118.09375 69.296875 113.8125 73.566406 113.8125 78.8125 L 113.8125 149.175781 L 242.101562 149.175781 L 242.101562 78.8125 C 242.101562 73.566406 237.820312 69.296875 232.558594 69.296875 M 232.558594 71.210938 C 236.75 71.210938 240.179688 74.632812 240.179688 78.8125 L 240.179688 147.261719 L 115.734375 147.261719 L 115.734375 78.8125 C 115.734375 74.632812 119.164062 71.210938 123.355469 71.210938 L 232.558594 71.210938 " fill-opacity="1" fill-rule="nonzero"/></g><path fill="#f4f4f4" d="M 123.355469 160.503906 C 118.644531 160.503906 114.8125 156.683594 114.8125 151.984375 L 114.8125 147.261719 C 114.8125 146.753906 115.226562 146.34375 115.734375 146.34375 L 240.179688 146.34375 C 240.691406 146.34375 241.101562 146.753906 241.101562 147.261719 L 241.101562 151.984375 C 241.101562 156.683594 237.269531 160.503906 232.558594 160.503906 L 123.355469 160.503906 " fill-opacity="1" fill-rule="nonzero"/><g clip-path="url(#411fb9fc62)"><path fill="#1b3444" d="M 240.179688 145.425781 L 115.734375 145.425781 C 114.71875 145.425781 113.894531 146.246094 113.894531 147.261719 L 113.894531 151.984375 C 113.894531 157.1875 118.136719 161.421875 123.355469 161.421875 L 232.558594 161.421875 C 237.777344 161.421875 242.019531 157.1875 242.019531 151.984375 L 242.019531 147.261719 C 242.019531 146.246094 241.199219 145.425781 240.179688 145.425781 M 240.179688 147.261719 L 240.179688 151.984375 C 240.179688 156.167969 236.75 159.585938 232.558594 159.585938 L 123.355469 159.585938 C 119.164062 159.585938 115.734375 156.167969 115.734375 151.984375 L 115.734375 147.261719 L 240.179688 147.261719 " fill-opacity="1" fill-rule="nonzero"/></g><path fill="#d4f1fc" d="M 125.332031 139.769531 C 124.824219 139.769531 124.414062 139.359375 124.414062 138.851562 L 124.414062 79.042969 C 124.414062 78.539062 124.824219 78.125 125.332031 78.125 L 230.578125 78.125 C 231.085938 78.125 231.5 78.539062 231.5 79.042969 L 231.5 138.851562 C 231.5 139.359375 231.085938 139.769531 230.578125 139.769531 L 125.332031 139.769531 " fill-opacity="1" fill-rule="nonzero"/><path fill="#1b3444" d="M 230.578125 77.207031 L 125.332031 77.207031 C 124.316406 77.207031 123.492188 78.03125 123.492188 79.042969 L 123.492188 138.851562 C 123.492188 139.867188 124.316406 140.6875 125.332031 140.6875 L 230.578125 140.6875 C 231.59375 140.6875 232.417969 139.867188 232.417969 138.851562 L 232.417969 79.042969 C 232.417969 78.03125 231.59375 77.207031 230.578125 77.207031 M 230.578125 79.042969 L 230.578125 138.851562 L 125.332031 138.851562 L 125.332031 79.042969 L 230.578125 79.042969 " fill-opacity="1" fill-rule="nonzero"/><path fill="#f4f4f4" d="M 153.757812 181.320312 C 151.925781 181.320312 150.4375 179.832031 150.4375 178.007812 C 150.4375 176.179688 151.925781 174.695312 153.757812 174.695312 L 202.152344 174.695312 C 203.984375 174.695312 205.476562 176.179688 205.476562 178.007812 C 205.476562 179.832031 203.984375 181.320312 202.152344 181.320312 L 153.757812 181.320312 " fill-opacity="1" fill-rule="nonzero"/><g clip-path="url(#f8f6e4ae38)"><path fill="#1b3444" d="M 202.152344 173.777344 L 153.757812 173.777344 C 151.417969 173.777344 149.515625 175.671875 149.515625 178.007812 C 149.515625 180.339844 151.417969 182.238281 153.757812 182.238281 L 202.152344 182.238281 C 204.492188 182.238281 206.394531 180.339844 206.394531 178.007812 C 206.394531 175.671875 204.492188 173.777344 202.152344 173.777344 M 202.152344 175.613281 C 203.480469 175.613281 204.554688 176.683594 204.554688 178.007812 C 204.554688 179.328125 203.480469 180.402344 202.152344 180.402344 L 153.757812 180.402344 C 152.433594 180.402344 151.355469 179.328125 151.355469 178.007812 C 151.355469 176.683594 152.433594 175.613281 153.757812 175.613281 L 202.152344 175.613281 " fill-opacity="1" fill-rule="nonzero"/></g><path fill="#dfdfdf" d="M 196.132812 173.777344 L 177.957031 173.777344 L 177.957031 161.421875 L 195.027344 161.421875 L 196.132812 173.777344 " fill-opacity="1" fill-rule="nonzero"/><path fill="#294f68" d="M 240.179688 145.425781 L 177.957031 145.425781 L 177.957031 140.6875 L 230.578125 140.6875 C 231.59375 140.6875 232.417969 139.867188 232.417969 138.851562 L 232.417969 103.007812 L 240.179688 92.039062 L 240.179688 145.425781 " fill-opacity="1" fill-rule="nonzero"/><path fill="#dfdfdf" d="M 232.558594 159.585938 L 177.957031 159.585938 L 177.957031 147.261719 L 240.179688 147.261719 L 240.179688 151.984375 C 240.179688 156.167969 236.75 159.585938 232.558594 159.585938 " fill-opacity="1" fill-rule="nonzero"/><path fill="#182f3e" d="M 195.027344 161.421875 L 177.957031 161.421875 L 177.957031 159.585938 L 232.558594 159.585938 C 236.75 159.585938 240.179688 156.167969 240.179688 151.984375 L 240.179688 147.261719 L 177.957031 147.261719 L 177.957031 145.425781 L 240.179688 145.425781 L 240.179688 151.984375 C 240.179688 156.167969 236.75 159.585938 232.558594 159.585938 L 194.863281 159.585938 L 195.027344 161.421875 " fill-opacity="1" fill-rule="nonzero"/><path fill="#c2dce7" d="M 230.578125 138.851562 L 177.957031 138.851562 L 177.957031 109.828125 C 178 109.863281 178.042969 109.898438 178.097656 109.925781 C 179.253906 110.550781 180.496094 110.992188 181.765625 111.277344 C 183.03125 111.558594 184.324219 111.6875 185.578125 111.691406 C 187.078125 111.6875 188.523438 111.503906 189.816406 111.167969 C 190.019531 111.117188 190.21875 111.0625 190.414062 111 L 213.398438 127.183594 C 213.460938 127.230469 213.523438 127.269531 213.59375 127.304688 C 213.816406 127.421875 214.058594 127.480469 214.300781 127.480469 C 214.300781 127.480469 214.300781 127.480469 214.304688 127.480469 C 214.425781 127.480469 214.546875 127.464844 214.660156 127.4375 C 215.011719 127.355469 215.335938 127.148438 215.5625 126.832031 L 230.578125 105.609375 L 230.578125 138.851562 " fill-opacity="1" fill-rule="nonzero"/><path fill="#182f3e" d="M 230.578125 140.6875 L 177.957031 140.6875 L 177.957031 138.851562 L 230.578125 138.851562 L 230.578125 105.609375 L 232.417969 103.007812 L 232.417969 138.851562 C 232.417969 139.867188 231.59375 140.6875 230.578125 140.6875 " fill-opacity="1" fill-rule="nonzero"/><path fill="#c2dce7" d="M 177.957031 108.671875 L 177.957031 108.484375 L 178.039062 108.609375 C 178.011719 108.628906 177.984375 108.652344 177.957031 108.671875 " fill-opacity="1" fill-rule="nonzero"/><path fill="#294f68" d="M 177.957031 75.214844 L 177.957031 71.210938 L 181.996094 71.210938 C 181.839844 71.308594 181.699219 71.398438 181.570312 71.480469 C 181.042969 71.824219 180.535156 72.25 180.039062 72.738281 C 179.316406 73.453125 178.625 74.296875 177.957031 75.214844 " fill-opacity="1" fill-rule="nonzero"/><path fill="#dfdfdf" d="M 202.152344 180.402344 L 177.957031 180.402344 L 177.957031 175.613281 L 202.152344 175.613281 C 203.480469 175.613281 204.554688 176.683594 204.554688 178.007812 C 204.554688 179.328125 203.480469 180.402344 202.152344 180.402344 " fill-opacity="1" fill-rule="nonzero"/><path fill="#182f3e" d="M 202.152344 180.402344 L 177.957031 180.402344 L 202.152344 180.402344 C 203.480469 180.402344 204.554688 179.328125 204.554688 178.007812 C 204.554688 179.328125 203.480469 180.402344 202.152344 180.402344 M 196.296875 175.613281 L 177.957031 175.613281 L 177.957031 173.777344 L 196.132812 173.777344 L 196.296875 175.613281 " fill-opacity="1" fill-rule="nonzero"/><path fill="#fabaa2" d="M 136.929688 139.742188 C 136.59375 139.742188 136.296875 139.523438 136.195312 139.203125 L 129.382812 117.148438 C 129.277344 116.808594 129.421875 116.441406 129.726562 116.261719 L 171.015625 92.039062 C 171.136719 91.96875 171.269531 91.933594 171.402344 91.933594 C 171.640625 91.933594 171.871094 92.042969 172.019531 92.242188 L 185.359375 110.003906 C 185.488281 110.175781 185.542969 110.390625 185.5 110.601562 C 185.460938 110.8125 185.335938 110.996094 185.15625 111.113281 L 139.71875 139.625 C 139.597656 139.703125 139.453125 139.742188 139.308594 139.742188 L 136.929688 139.742188 " fill-opacity="1" fill-rule="nonzero"/><path fill="#1b3444" d="M 171.402344 91.167969 C 171.136719 91.167969 170.867188 91.238281 170.625 91.378906 L 129.339844 115.601562 C 128.726562 115.960938 128.441406 116.695312 128.648438 117.375 L 135.460938 139.429688 C 135.660156 140.070312 136.253906 140.507812 136.929688 140.507812 L 139.308594 140.507812 C 139.597656 140.507812 139.882812 140.429688 140.128906 140.273438 L 185.566406 111.757812 C 185.925781 111.53125 186.179688 111.164062 186.257812 110.742188 C 186.335938 110.320312 186.234375 109.886719 185.976562 109.542969 L 172.632812 91.78125 C 172.332031 91.382812 171.871094 91.167969 171.402344 91.167969 Z M 171.402344 92.699219 L 184.746094 110.460938 L 139.308594 138.976562 L 136.929688 138.976562 L 130.117188 116.921875 L 171.402344 92.699219 " fill-opacity="1" fill-rule="nonzero"/><path fill="#fabaa2" d="M 170.320312 96.929688 C 170.089844 93.621094 171.285156 89.269531 172.808594 86.074219 C 174.460938 82.601562 178.214844 74.574219 181.988281 72.125 C 184.808594 70.296875 195.21875 64.460938 198.203125 63.789062 C 206.265625 61.972656 214.3125 79.503906 209.425781 85.925781 C 207.625 88.292969 198.542969 104.972656 192.703125 109.09375 C 189.796875 111.144531 183.230469 111.832031 178.460938 109.25 L 170.320312 96.929688 " fill-opacity="1" fill-rule="nonzero"/><path fill="#1b3444" d="M 171.089844 96.875 C 171.070312 96.617188 171.0625 96.347656 171.0625 96.074219 C 171.058594 94.574219 171.328125 92.859375 171.769531 91.171875 C 172.210938 89.484375 172.824219 87.820312 173.5 86.402344 C 173.914062 85.535156 174.457031 84.386719 175.097656 83.117188 C 176.054688 81.214844 177.230469 79.035156 178.5 77.121094 C 179.136719 76.167969 179.796875 75.28125 180.457031 74.53125 C 181.117188 73.78125 181.785156 73.171875 182.40625 72.765625 C 182.75 72.546875 183.214844 72.257812 183.769531 71.925781 C 185.714844 70.757812 188.761719 69.039062 191.636719 67.546875 C 193.074219 66.800781 194.46875 66.109375 195.652344 65.574219 C 196.246094 65.304688 196.789062 65.074219 197.253906 64.898438 C 197.714844 64.71875 198.105469 64.59375 198.371094 64.535156 C 198.710938 64.460938 199.046875 64.421875 199.382812 64.421875 C 200.015625 64.421875 200.65625 64.554688 201.300781 64.804688 C 202.429688 65.246094 203.5625 66.0625 204.617188 67.15625 C 205.410156 67.972656 206.152344 68.945312 206.824219 70.015625 C 207.828125 71.617188 208.664062 73.4375 209.242188 75.277344 C 209.824219 77.117188 210.144531 78.980469 210.144531 80.660156 C 210.144531 81.632812 210.039062 82.546875 209.816406 83.355469 C 209.59375 84.167969 209.261719 84.878906 208.816406 85.464844 C 208.683594 85.636719 208.535156 85.851562 208.363281 86.109375 C 208.042969 86.601562 207.636719 87.253906 207.15625 88.03125 C 206.316406 89.398438 205.257812 91.15625 204.058594 93.082031 C 202.265625 95.964844 200.171875 99.21875 198.085938 102.054688 C 197.046875 103.472656 196.007812 104.78125 195.015625 105.886719 C 194.027344 106.992188 193.085938 107.886719 192.261719 108.46875 C 191.914062 108.710938 191.496094 108.941406 191.019531 109.148438 C 190.304688 109.457031 189.457031 109.710938 188.535156 109.886719 C 187.609375 110.0625 186.609375 110.15625 185.578125 110.15625 C 184.429688 110.15625 183.25 110.039062 182.101562 109.78125 C 180.957031 109.523438 179.84375 109.125 178.828125 108.578125 C 178.457031 108.375 177.988281 108.511719 177.785156 108.886719 C 177.585938 109.257812 177.722656 109.722656 178.097656 109.925781 C 179.253906 110.550781 180.496094 110.992188 181.765625 111.277344 C 183.03125 111.558594 184.324219 111.6875 185.578125 111.691406 C 187.078125 111.6875 188.523438 111.503906 189.816406 111.167969 C 190.464844 111 191.074219 110.796875 191.632812 110.554688 C 192.191406 110.3125 192.699219 110.035156 193.148438 109.71875 C 193.9375 109.160156 194.75 108.417969 195.582031 107.539062 C 197.042969 106 198.566406 104.039062 200.074219 101.925781 C 202.332031 98.757812 204.539062 95.246094 206.328125 92.332031 C 207.222656 90.875 208.015625 89.566406 208.652344 88.53125 C 208.972656 88.011719 209.253906 87.5625 209.488281 87.199219 C 209.605469 87.015625 209.710938 86.855469 209.804688 86.71875 C 209.898438 86.582031 209.976562 86.472656 210.039062 86.390625 C 210.625 85.621094 211.035156 84.726562 211.296875 83.757812 C 211.5625 82.789062 211.683594 81.746094 211.683594 80.660156 C 211.683594 78.757812 211.316406 76.722656 210.679688 74.722656 C 210.203125 73.226562 209.570312 71.753906 208.816406 70.378906 C 208.25 69.347656 207.617188 68.371094 206.925781 67.484375 C 205.890625 66.152344 204.726562 65.019531 203.460938 64.203125 C 202.828125 63.796875 202.167969 63.46875 201.484375 63.242188 C 200.800781 63.015625 200.097656 62.890625 199.382812 62.890625 C 198.933594 62.890625 198.484375 62.941406 198.035156 63.039062 C 197.8125 63.089844 197.578125 63.160156 197.316406 63.246094 C 196.835938 63.40625 196.277344 63.628906 195.65625 63.894531 C 194.574219 64.363281 193.304688 64.972656 191.96875 65.652344 C 189.964844 66.667969 187.808594 67.839844 185.929688 68.898438 C 184.992188 69.429688 184.125 69.929688 183.382812 70.371094 C 182.636719 70.8125 182.019531 71.191406 181.570312 71.480469 C 181.042969 71.824219 180.535156 72.25 180.039062 72.738281 C 179.171875 73.59375 178.34375 74.640625 177.554688 75.78125 C 176.375 77.492188 175.289062 79.410156 174.359375 81.1875 C 173.429688 82.964844 172.65625 84.609375 172.113281 85.746094 C 171.394531 87.253906 170.75 89 170.285156 90.785156 C 169.816406 92.574219 169.527344 94.394531 169.523438 96.074219 C 169.523438 96.382812 169.535156 96.6875 169.554688 96.984375 C 169.585938 97.40625 169.953125 97.726562 170.375 97.695312 C 170.800781 97.664062 171.117188 97.300781 171.089844 96.875 " fill-opacity="1" fill-rule="nonzero"/><path fill="#f28c1f" d="M 214.304688 126.714844 C 214.152344 126.714844 213.996094 126.667969 213.863281 126.574219 L 174.519531 98.875 C 174.351562 98.757812 174.238281 98.578125 174.203125 98.378906 C 174.167969 98.175781 174.214844 97.972656 174.332031 97.804688 L 219.933594 33.363281 C 220.085938 33.152344 220.324219 33.039062 220.5625 33.039062 C 220.71875 33.039062 220.871094 33.085938 221.007812 33.179688 L 260.351562 60.875 C 260.515625 60.996094 260.628906 61.171875 260.664062 61.371094 C 260.699219 61.574219 260.652344 61.777344 260.535156 61.945312 L 214.933594 126.390625 C 214.785156 126.601562 214.546875 126.714844 214.304688 126.714844 " fill-opacity="1" fill-rule="nonzero"/><g clip-path="url(#d56a7cc45f)"><path fill="#1b3444" d="M 220.5625 32.273438 C 220.082031 32.273438 219.605469 32.496094 219.308594 32.921875 L 173.707031 97.363281 C 173.46875 97.695312 173.378906 98.109375 173.445312 98.507812 C 173.515625 98.910156 173.742188 99.265625 174.074219 99.5 L 213.421875 127.199219 C 213.6875 127.386719 213.996094 127.480469 214.304688 127.480469 C 214.785156 127.480469 215.261719 127.253906 215.5625 126.832031 L 261.164062 62.386719 C 261.398438 62.054688 261.492188 61.640625 261.421875 61.242188 C 261.351562 60.839844 261.125 60.484375 260.792969 60.25 L 221.449219 32.554688 C 221.179688 32.363281 220.871094 32.273438 220.5625 32.273438 M 220.5625 33.804688 L 259.90625 61.503906 L 214.304688 125.945312 L 174.960938 98.246094 L 220.5625 33.804688 " fill-opacity="1" fill-rule="nonzero"/></g><path fill="#f4a41c" d="M 214.304688 126.714844 C 214.21875 126.714844 214.132812 126.699219 214.050781 126.667969 C 213.722656 126.554688 213.515625 126.238281 213.539062 125.894531 L 216.667969 79.824219 C 216.6875 79.539062 216.863281 79.285156 217.128906 79.171875 L 259.601562 60.800781 C 259.699219 60.757812 259.804688 60.738281 259.910156 60.738281 C 260.132812 60.738281 260.355469 60.835938 260.503906 61.019531 C 260.722656 61.285156 260.734375 61.664062 260.535156 61.945312 L 214.933594 126.390625 C 214.785156 126.597656 214.550781 126.714844 214.304688 126.714844 " fill-opacity="1" fill-rule="nonzero"/><g clip-path="url(#d5e363ea8c)"><path fill="#1b3444" d="M 259.90625 59.96875 C 259.703125 59.96875 259.492188 60.011719 259.296875 60.097656 L 216.824219 78.46875 C 216.296875 78.699219 215.941406 79.199219 215.902344 79.773438 L 212.773438 125.84375 C 212.726562 126.53125 213.140625 127.160156 213.792969 127.390625 C 213.960938 127.449219 214.132812 127.480469 214.304688 127.480469 C 214.792969 127.480469 215.265625 127.246094 215.5625 126.832031 L 261.164062 62.386719 C 261.558594 61.824219 261.535156 61.070312 261.101562 60.535156 C 260.800781 60.167969 260.359375 59.96875 259.90625 59.96875 M 259.90625 61.503906 L 214.304688 125.945312 L 217.433594 79.875 L 259.90625 61.503906 " fill-opacity="1" fill-rule="nonzero"/></g><path fill="#f8d317" d="M 174.960938 99.015625 C 174.726562 99.015625 174.496094 98.90625 174.347656 98.710938 C 174.144531 98.445312 174.140625 98.078125 174.332031 97.804688 L 219.933594 33.363281 C 220.082031 33.15625 220.316406 33.039062 220.5625 33.039062 C 220.640625 33.039062 220.71875 33.050781 220.792969 33.074219 C 221.113281 33.175781 221.328125 33.46875 221.332031 33.800781 L 221.554688 82.234375 C 221.558594 82.558594 221.351562 82.851562 221.042969 82.960938 L 175.214844 98.96875 C 175.132812 99 175.046875 99.015625 174.960938 99.015625 " fill-opacity="1" fill-rule="nonzero"/><g clip-path="url(#975df1917a)"><path fill="#1b3444" d="M 220.5625 32.273438 C 220.074219 32.273438 219.601562 32.503906 219.308594 32.921875 L 173.707031 97.363281 C 173.320312 97.90625 173.332031 98.640625 173.734375 99.171875 C 174.03125 99.5625 174.488281 99.78125 174.960938 99.78125 C 175.128906 99.78125 175.300781 99.753906 175.46875 99.695312 L 221.296875 83.683594 C 221.914062 83.464844 222.328125 82.882812 222.324219 82.226562 L 222.097656 33.796875 C 222.097656 33.128906 221.660156 32.542969 221.023438 32.34375 C 220.871094 32.296875 220.71875 32.273438 220.5625 32.273438 M 220.5625 33.804688 L 220.789062 82.238281 L 174.960938 98.246094 L 220.5625 33.804688 " fill-opacity="1" fill-rule="nonzero"/></g><path fill="#dd801c" d="M 222.296875 76.101562 L 222.105469 34.890625 L 258.4375 60.46875 L 222.296875 76.101562 " fill-opacity="1" fill-rule="nonzero"/><path fill="#df951a" d="M 237.105469 93.726562 L 222.042969 83.121094 C 222.222656 82.863281 222.328125 82.554688 222.324219 82.230469 L 222.304688 77.769531 L 259.90625 61.503906 L 237.105469 93.726562 " fill-opacity="1" fill-rule="nonzero"/><path fill="#182f3e" d="M 237.109375 93.726562 L 237.105469 93.726562 L 259.90625 61.503906 L 237.109375 93.726562 M 222.304688 77.769531 L 222.296875 76.101562 L 258.4375 60.46875 L 259.90625 61.503906 L 222.304688 77.769531 " fill-opacity="1" fill-rule="nonzero"/><path fill="#e2c115" d="M 220.789062 82.234375 L 197.761719 66.023438 L 220.5625 33.804688 L 220.789062 82.234375 " fill-opacity="1" fill-rule="nonzero"/><path fill="#182f3e" d="M 222.042969 83.121094 L 220.789062 82.234375 L 220.5625 33.804688 L 222.105469 34.890625 L 222.296875 76.101562 L 222.304688 77.769531 L 222.324219 82.230469 C 222.328125 82.554688 222.222656 82.863281 222.042969 83.121094 M 197.761719 66.023438 L 220.5625 33.804688 L 197.761719 66.023438 " fill-opacity="1" fill-rule="nonzero"/><path fill="#fabaa2" d="M 173.304688 85.171875 C 175.132812 78.632812 177.859375 75.121094 180.796875 73.222656 C 182.378906 72.199219 194.578125 72.359375 196.707031 72.816406 C 199.863281 73.789062 198.460938 76.683594 198 78.078125 C 196.210938 83.539062 184.074219 82.3125 179.433594 86.253906 " fill-opacity="1" fill-rule="nonzero"/><path fill="#1b3444" d="M 174.046875 85.378906 C 174.941406 82.167969 176.054688 79.730469 177.277344 77.878906 C 178.503906 76.027344 179.835938 74.757812 181.214844 73.867188 C 181.214844 73.863281 181.242188 73.847656 181.289062 73.832031 C 181.375 73.792969 181.523438 73.746094 181.71875 73.703125 C 182.054688 73.625 182.523438 73.550781 183.074219 73.488281 C 183.898438 73.398438 184.914062 73.332031 186.011719 73.289062 C 187.105469 73.246094 188.285156 73.226562 189.449219 73.226562 C 191.039062 73.226562 192.601562 73.261719 193.878906 73.324219 C 194.515625 73.355469 195.082031 73.394531 195.546875 73.433594 C 195.777344 73.457031 195.980469 73.476562 196.148438 73.5 C 196.320312 73.523438 196.457031 73.542969 196.546875 73.5625 L 196.707031 72.816406 L 196.480469 73.546875 C 196.8125 73.648438 197.0625 73.769531 197.253906 73.894531 C 197.394531 73.988281 197.503906 74.085938 197.589844 74.183594 C 197.71875 74.328125 197.800781 74.480469 197.855469 74.652344 C 197.914062 74.828125 197.941406 75.023438 197.941406 75.242188 C 197.941406 75.640625 197.84375 76.109375 197.707031 76.558594 C 197.636719 76.789062 197.5625 77.011719 197.484375 77.226562 C 197.410156 77.4375 197.335938 77.640625 197.269531 77.835938 L 197.269531 77.839844 C 197.179688 78.117188 197.054688 78.371094 196.902344 78.609375 C 196.613281 79.058594 196.210938 79.453125 195.695312 79.8125 C 195.246094 80.128906 194.714844 80.410156 194.113281 80.664062 C 193.0625 81.109375 191.816406 81.464844 190.480469 81.785156 C 189.480469 82.027344 188.433594 82.246094 187.382812 82.476562 C 185.804688 82.824219 184.21875 83.183594 182.765625 83.675781 C 182.042969 83.917969 181.347656 84.195312 180.703125 84.523438 C 180.058594 84.847656 179.460938 85.222656 178.9375 85.671875 C 178.613281 85.945312 178.574219 86.429688 178.847656 86.75 C 179.125 87.074219 179.609375 87.109375 179.933594 86.835938 C 180.441406 86.402344 181.078125 86.023438 181.808594 85.691406 C 183.089844 85.109375 184.664062 84.671875 186.324219 84.285156 C 187.570312 83.996094 188.871094 83.730469 190.136719 83.441406 C 191.085938 83.222656 192.023438 82.992188 192.910156 82.71875 C 193.578125 82.515625 194.21875 82.289062 194.820312 82.027344 C 195.722656 81.636719 196.539062 81.167969 197.222656 80.5625 C 197.5625 80.261719 197.867188 79.925781 198.121094 79.550781 C 198.378906 79.175781 198.585938 78.761719 198.730469 78.3125 L 198.730469 78.316406 C 198.78125 78.15625 198.855469 77.957031 198.933594 77.734375 C 199.050781 77.402344 199.183594 77.011719 199.292969 76.59375 C 199.398438 76.171875 199.476562 75.71875 199.476562 75.242188 C 199.476562 74.933594 199.441406 74.617188 199.355469 74.300781 C 199.289062 74.0625 199.191406 73.828125 199.058594 73.601562 C 198.859375 73.265625 198.578125 72.957031 198.222656 72.699219 C 197.867188 72.441406 197.4375 72.238281 196.9375 72.082031 C 196.90625 72.074219 196.902344 72.074219 196.871094 72.066406 C 196.714844 72.03125 196.542969 72.003906 196.347656 71.980469 C 196.003906 71.9375 195.582031 71.894531 195.09375 71.863281 C 193.628906 71.757812 191.566406 71.695312 189.449219 71.695312 C 187.53125 71.695312 185.566406 71.746094 183.957031 71.871094 C 183.152344 71.929688 182.433594 72.011719 181.839844 72.113281 C 181.542969 72.167969 181.277344 72.226562 181.039062 72.296875 C 180.921875 72.332031 180.808594 72.371094 180.699219 72.414062 C 180.589844 72.460938 180.484375 72.511719 180.378906 72.582031 C 178.820312 73.585938 177.324219 75.023438 175.996094 77.035156 C 174.664062 79.050781 173.496094 81.636719 172.566406 84.964844 C 172.449219 85.375 172.691406 85.796875 173.097656 85.910156 C 173.507812 86.023438 173.929688 85.785156 174.046875 85.378906 " fill-opacity="1" fill-rule="nonzero"/><path fill="#f9f5e2" d="M 124.984375 139.742188 C 124.5625 139.742188 124.21875 139.398438 124.21875 138.976562 L 124.21875 120.761719 C 124.21875 120.5 124.351562 120.257812 124.570312 120.117188 L 162.847656 95.621094 C 162.972656 95.539062 163.117188 95.5 163.261719 95.5 C 163.316406 95.5 163.371094 95.503906 163.425781 95.515625 C 163.625 95.558594 163.796875 95.679688 163.90625 95.851562 L 177.5 116.980469 C 177.726562 117.335938 177.625 117.8125 177.265625 118.039062 L 143.542969 139.621094 C 143.417969 139.703125 143.273438 139.742188 143.125 139.742188 L 124.984375 139.742188 " fill-opacity="1" fill-rule="nonzero"/><path fill="#1b3444" d="M 163.261719 94.734375 C 162.96875 94.734375 162.679688 94.816406 162.433594 94.976562 L 124.15625 119.472656 C 123.714844 119.753906 123.449219 120.238281 123.449219 120.761719 L 123.449219 138.976562 C 123.449219 139.824219 124.136719 140.507812 124.984375 140.507812 L 143.125 140.507812 C 143.421875 140.507812 143.707031 140.425781 143.957031 140.265625 L 177.679688 118.683594 C 178.394531 118.226562 178.601562 117.277344 178.144531 116.566406 L 164.554688 95.4375 C 164.335938 95.09375 163.988281 94.855469 163.589844 94.769531 C 163.480469 94.746094 163.371094 94.734375 163.261719 94.734375 Z M 163.261719 96.265625 L 176.851562 117.394531 L 143.125 138.976562 L 124.984375 138.976562 L 124.984375 120.761719 L 163.261719 96.265625 " fill-opacity="1" fill-rule="nonzero"/><path fill="#73d1e6" d="M 124.984375 139.742188 C 124.5625 139.742188 124.21875 139.398438 124.21875 138.976562 L 124.21875 118.074219 C 124.21875 117.8125 124.351562 117.570312 124.570312 117.429688 L 157.742188 96.199219 C 157.871094 96.117188 158.015625 96.078125 158.15625 96.078125 C 158.410156 96.078125 158.65625 96.203125 158.804688 96.429688 L 174.847656 121.367188 C 174.957031 121.535156 174.992188 121.746094 174.949219 121.945312 C 174.90625 122.140625 174.785156 122.316406 174.613281 122.425781 L 147.742188 139.621094 C 147.617188 139.703125 147.472656 139.742188 147.328125 139.742188 L 124.984375 139.742188 " fill-opacity="1" fill-rule="nonzero"/><path fill="#1b3444" d="M 158.15625 95.3125 C 157.871094 95.3125 157.585938 95.390625 157.328125 95.554688 L 124.15625 116.785156 C 123.714844 117.066406 123.449219 117.550781 123.449219 118.074219 L 123.449219 138.976562 C 123.449219 139.824219 124.136719 140.507812 124.984375 140.507812 L 147.328125 140.507812 C 147.621094 140.507812 147.910156 140.425781 148.15625 140.265625 L 175.027344 123.070312 C 175.371094 122.851562 175.613281 122.503906 175.699219 122.105469 C 175.789062 121.710938 175.710938 121.292969 175.492188 120.953125 L 159.449219 96.015625 C 159.15625 95.5625 158.660156 95.3125 158.15625 95.3125 Z M 158.15625 96.84375 L 174.199219 121.78125 L 147.328125 138.976562 L 124.984375 138.976562 L 124.984375 118.074219 L 158.15625 96.84375 " fill-opacity="1" fill-rule="nonzero"/><path fill="#ffffff" d="M 81.738281 302.324219 L 293.261719 302.324219 L 293.261719 306.074219 L 81.738281 306.074219 Z M 81.738281 302.324219 " fill-opacity="1" fill-rule="nonzero"/><g fill="#ffffff" fill-opacity="1"><g transform="translate(81.738281, 300.073456)"><g><path d="M 12.984375 -24.671875 C 13.734375 -23.597656 14.109375 -22.398438 14.109375 -21.078125 L 14.109375 0 L 9.96875 0 L 9.96875 -21.078125 C 9.96875 -21.628906 9.765625 -22.113281 9.359375 -22.53125 C 9.171875 -22.726562 8.953125 -22.875 8.703125 -22.96875 C 8.460938 -23.0625 8.195312 -23.109375 7.90625 -23.109375 C 7.332031 -23.109375 6.851562 -22.914062 6.46875 -22.53125 C 6.050781 -22.132812 5.84375 -21.648438 5.84375 -21.078125 L 5.84375 0 L 1.71875 0 L 1.71875 -21.078125 C 1.71875 -22.796875 2.3125 -24.253906 3.5 -25.453125 C 3.84375 -25.765625 4.207031 -26.039062 4.59375 -26.28125 C 4.988281 -26.53125 5.40625 -26.734375 5.84375 -26.890625 C 6.4375 -27.148438 7.125 -27.28125 7.90625 -27.28125 C 8.664062 -27.28125 9.351562 -27.148438 9.96875 -26.890625 C 11.195312 -26.441406 12.203125 -25.703125 12.984375 -24.671875 Z M 12.984375 -24.671875 "/></g></g></g><g fill="#ffffff" fill-opacity="1"><g transform="translate(97.553272, 300.073456)"><g><path d="M 14.109375 -17.453125 L 9.96875 -17.453125 L 9.96875 -21.078125 C 9.96875 -21.648438 9.765625 -22.132812 9.359375 -22.53125 C 9.171875 -22.726562 8.953125 -22.875 8.703125 -22.96875 C 8.460938 -23.0625 8.195312 -23.117188 7.90625 -23.140625 C 7.332031 -23.140625 6.851562 -22.9375 6.46875 -22.53125 C 6.050781 -22.132812 5.84375 -21.648438 5.84375 -21.078125 L 5.84375 -15.203125 L 14.109375 -15.203125 L 14.109375 -11.0625 L 5.84375 -11.0625 L 5.84375 -6.203125 C 5.84375 -5.628906 6.050781 -5.144531 6.46875 -4.75 C 6.851562 -4.332031 7.332031 -4.125 7.90625 -4.125 C 8.476562 -4.125 8.960938 -4.332031 9.359375 -4.75 C 9.765625 -5.144531 9.96875 -5.628906 9.96875 -6.203125 L 9.96875 -9.8125 L 14.109375 -9.8125 L 14.109375 -6.203125 C 14.109375 -4.484375 13.507812 -3.023438 12.3125 -1.828125 C 11.632812 -1.148438 10.851562 -0.65625 9.96875 -0.34375 C 9.320312 -0.113281 8.632812 0 7.90625 0 C 7.207031 0 6.519531 -0.113281 5.84375 -0.34375 C 4.625 -0.8125 3.625 -1.554688 2.84375 -2.578125 C 2.09375 -3.691406 1.71875 -4.898438 1.71875 -6.203125 L 1.71875 -21.078125 C 1.71875 -22.378906 2.09375 -23.585938 2.84375 -24.703125 C 3.625 -25.710938 4.625 -26.453125 5.84375 -26.921875 C 6.519531 -27.160156 7.207031 -27.28125 7.90625 -27.28125 C 8.632812 -27.28125 9.320312 -27.160156 9.96875 -26.921875 C 10.851562 -26.609375 11.632812 -26.117188 12.3125 -25.453125 C 13.507812 -24.253906 14.109375 -22.796875 14.109375 -21.078125 Z M 14.109375 -17.453125 "/></g></g></g><g fill="#ffffff" fill-opacity="1"><g transform="translate(113.368262, 300.073456)"><g><path d="M 12.984375 -24.703125 C 13.734375 -23.640625 14.109375 -22.429688 14.109375 -21.078125 L 14.109375 -16.015625 C 14.109375 -14.273438 13.507812 -12.804688 12.3125 -11.609375 C 11.976562 -11.296875 11.613281 -11.015625 11.21875 -10.765625 C 10.832031 -10.523438 10.414062 -10.328125 9.96875 -10.171875 C 9.320312 -9.929688 8.632812 -9.8125 7.90625 -9.8125 L 5.84375 -9.8125 L 5.84375 0 L 1.71875 0 L 1.71875 -27.28125 L 7.90625 -27.28125 C 8.632812 -27.28125 9.320312 -27.160156 9.96875 -26.921875 C 11.195312 -26.484375 12.203125 -25.742188 12.984375 -24.703125 Z M 9.96875 -16.015625 L 9.96875 -21.078125 C 9.96875 -21.648438 9.773438 -22.132812 9.390625 -22.53125 C 8.972656 -22.9375 8.476562 -23.140625 7.90625 -23.140625 L 5.84375 -23.140625 L 5.84375 -13.953125 L 7.90625 -13.953125 C 8.476562 -13.953125 8.972656 -14.160156 9.390625 -14.578125 C 9.773438 -14.960938 9.96875 -15.441406 9.96875 -16.015625 Z M 9.96875 -16.015625 "/></g></g></g><g fill="#ffffff" fill-opacity="1"><g transform="translate(129.183252, 300.073456)"><g><path d="M 14.109375 -17.453125 L 9.96875 -17.453125 L 9.96875 -21.078125 C 9.96875 -21.648438 9.765625 -22.132812 9.359375 -22.53125 C 9.171875 -22.726562 8.953125 -22.875 8.703125 -22.96875 C 8.460938 -23.0625 8.195312 -23.117188 7.90625 -23.140625 C 7.332031 -23.140625 6.851562 -22.9375 6.46875 -22.53125 C 6.050781 -22.132812 5.84375 -21.648438 5.84375 -21.078125 L 5.84375 -15.203125 L 14.109375 -15.203125 L 14.109375 -11.0625 L 5.84375 -11.0625 L 5.84375 -6.203125 C 5.84375 -5.628906 6.050781 -5.144531 6.46875 -4.75 C 6.851562 -4.332031 7.332031 -4.125 7.90625 -4.125 C 8.476562 -4.125 8.960938 -4.332031 9.359375 -4.75 C 9.765625 -5.144531 9.96875 -5.628906 9.96875 -6.203125 L 9.96875 -9.8125 L 14.109375 -9.8125 L 14.109375 -6.203125 C 14.109375 -4.484375 13.507812 -3.023438 12.3125 -1.828125 C 11.632812 -1.148438 10.851562 -0.65625 9.96875 -0.34375 C 9.320312 -0.113281 8.632812 0 7.90625 0 C 7.207031 0 6.519531 -0.113281 5.84375 -0.34375 C 4.625 -0.8125 3.625 -1.554688 2.84375 -2.578125 C 2.09375 -3.691406 1.71875 -4.898438 1.71875 -6.203125 L 1.71875 -21.078125 C 1.71875 -22.378906 2.09375 -23.585938 2.84375 -24.703125 C 3.625 -25.710938 4.625 -26.453125 5.84375 -26.921875 C 6.519531 -27.160156 7.207031 -27.28125 7.90625 -27.28125 C 8.632812 -27.28125 9.320312 -27.160156 9.96875 -26.921875 C 10.851562 -26.609375 11.632812 -26.117188 12.3125 -25.453125 C 13.507812 -24.253906 14.109375 -22.796875 14.109375 -21.078125 Z M 14.109375 -17.453125 "/></g></g></g><g fill="#ffffff" fill-opacity="1"><g transform="translate(144.998242, 300.073456)"><g><path d="M 15.59375 -2.34375 C 16.8125 -1.113281 17.421875 0.351562 17.421875 2.0625 L 13.28125 2.0625 C 13.28125 1.488281 13.085938 1.007812 12.703125 0.625 C 12.285156 0.207031 11.789062 0 11.21875 0 L 7.046875 0 C 6.484375 0 5.992188 0.207031 5.578125 0.625 C 5.179688 1.007812 4.984375 1.488281 4.984375 2.0625 L 0.859375 2.0625 C 0.859375 1.207031 1.003906 0.40625 1.296875 -0.34375 C 1.597656 -1.101562 2.0625 -1.769531 2.6875 -2.34375 L 2.96875 -2.578125 L 2.96875 -21.078125 C 2.96875 -22.453125 3.34375 -23.648438 4.09375 -24.671875 C 4.875 -25.734375 5.875 -26.472656 7.09375 -26.890625 C 7.71875 -27.148438 8.40625 -27.28125 9.15625 -27.28125 L 15.359375 -27.234375 L 15.359375 -2.578125 Z M 7.671875 -22.53125 C 7.285156 -22.132812 7.09375 -21.648438 7.09375 -21.078125 L 7.09375 -4.125 L 11.21875 -4.125 L 11.21875 -23.109375 L 9.15625 -23.109375 C 8.5625 -23.109375 8.066406 -22.914062 7.671875 -22.53125 Z M 7.671875 -22.53125 "/></g></g></g><g fill="#ffffff" fill-opacity="1"><g transform="translate(163.26728, 300.073456)"><g><path d="M 12.984375 -24.703125 C 13.734375 -23.585938 14.109375 -22.378906 14.109375 -21.078125 L 14.109375 0 L 9.96875 0 L 9.96875 -11.0625 L 5.84375 -11.0625 L 5.84375 0 L 1.71875 0 L 1.71875 -21.078125 C 1.71875 -22.765625 2.328125 -24.222656 3.546875 -25.453125 C 3.859375 -25.765625 4.207031 -26.046875 4.59375 -26.296875 C 4.988281 -26.554688 5.40625 -26.765625 5.84375 -26.921875 C 6.46875 -27.160156 7.15625 -27.28125 7.90625 -27.28125 C 8.664062 -27.28125 9.351562 -27.160156 9.96875 -26.921875 C 10.59375 -26.710938 11.148438 -26.421875 11.640625 -26.046875 C 12.140625 -25.671875 12.585938 -25.222656 12.984375 -24.703125 Z M 5.84375 -15.203125 L 9.96875 -15.203125 L 9.96875 -21.078125 C 9.96875 -21.648438 9.773438 -22.132812 9.390625 -22.53125 C 9.003906 -22.9375 8.507812 -23.140625 7.90625 -23.140625 C 7.28125 -23.140625 6.800781 -22.9375 6.46875 -22.53125 C 6.050781 -22.132812 5.84375 -21.648438 5.84375 -21.078125 Z M 5.84375 -15.203125 "/></g></g></g><g fill="#ffffff" fill-opacity="1"><g transform="translate(179.082271, 300.073456)"><g><path d="M 9.96875 -27.28125 L 14.109375 -27.28125 L 14.109375 0 L 9.96875 0 L 9.96875 -9.8125 L 7.90625 -9.8125 C 7.15625 -9.8125 6.46875 -9.929688 5.84375 -10.171875 C 4.9375 -10.484375 4.15625 -10.960938 3.5 -11.609375 C 2.3125 -12.804688 1.71875 -14.273438 1.71875 -16.015625 L 1.71875 -27.28125 L 5.84375 -27.28125 L 5.84375 -16.015625 C 5.84375 -15.441406 6.039062 -14.960938 6.4375 -14.578125 C 6.84375 -14.160156 7.332031 -13.953125 7.90625 -13.953125 L 9.96875 -13.953125 Z M 9.96875 -27.28125 "/></g></g></g><g fill="#ffffff" fill-opacity="1"><g transform="translate(194.897261, 300.073456)"><g><path d="M 12.984375 -24.703125 C 13.734375 -23.585938 14.109375 -22.378906 14.109375 -21.078125 L 14.109375 0 L 9.96875 0 L 9.96875 -11.0625 L 5.84375 -11.0625 L 5.84375 0 L 1.71875 0 L 1.71875 -21.078125 C 1.71875 -22.765625 2.328125 -24.222656 3.546875 -25.453125 C 3.859375 -25.765625 4.207031 -26.046875 4.59375 -26.296875 C 4.988281 -26.554688 5.40625 -26.765625 5.84375 -26.921875 C 6.46875 -27.160156 7.15625 -27.28125 7.90625 -27.28125 C 8.664062 -27.28125 9.351562 -27.160156 9.96875 -26.921875 C 10.59375 -26.710938 11.148438 -26.421875 11.640625 -26.046875 C 12.140625 -25.671875 12.585938 -25.222656 12.984375 -24.703125 Z M 5.84375 -15.203125 L 9.96875 -15.203125 L 9.96875 -21.078125 C 9.96875 -21.648438 9.773438 -22.132812 9.390625 -22.53125 C 9.003906 -22.9375 8.507812 -23.140625 7.90625 -23.140625 C 7.28125 -23.140625 6.800781 -22.9375 6.46875 -22.53125 C 6.050781 -22.132812 5.84375 -21.648438 5.84375 -21.078125 Z M 5.84375 -15.203125 "/></g></g></g><g fill="#ffffff" fill-opacity="1"><g transform="translate(210.712251, 300.073456)"><g/></g></g><g fill="#ffffff" fill-opacity="1"><g transform="translate(222.398201, 300.073456)"><g><path d="M 12.984375 -24.703125 C 13.734375 -23.640625 14.109375 -22.429688 14.109375 -21.078125 L 14.109375 -16.015625 C 14.109375 -14.273438 13.507812 -12.804688 12.3125 -11.609375 C 11.976562 -11.296875 11.613281 -11.015625 11.21875 -10.765625 C 10.832031 -10.523438 10.414062 -10.328125 9.96875 -10.171875 C 9.320312 -9.929688 8.632812 -9.8125 7.90625 -9.8125 L 5.84375 -9.8125 L 5.84375 0 L 1.71875 0 L 1.71875 -27.28125 L 7.90625 -27.28125 C 8.632812 -27.28125 9.320312 -27.160156 9.96875 -26.921875 C 11.195312 -26.484375 12.203125 -25.742188 12.984375 -24.703125 Z M 9.96875 -16.015625 L 9.96875 -21.078125 C 9.96875 -21.648438 9.773438 -22.132812 9.390625 -22.53125 C 8.972656 -22.9375 8.476562 -23.140625 7.90625 -23.140625 L 5.84375 -23.140625 L 5.84375 -13.953125 L 7.90625 -13.953125 C 8.476562 -13.953125 8.972656 -14.160156 9.390625 -14.578125 C 9.773438 -14.960938 9.96875 -15.441406 9.96875 -16.015625 Z M 9.96875 -16.015625 "/></g></g></g><g fill="#ffffff" fill-opacity="1"><g transform="translate(238.213192, 300.073456)"><g><path d="M 9.96875 -26.921875 C 11.25 -26.453125 12.253906 -25.710938 12.984375 -24.703125 C 13.753906 -23.609375 14.140625 -22.398438 14.140625 -21.078125 L 14.140625 -6.203125 C 14.140625 -4.484375 13.53125 -3.015625 12.3125 -1.796875 C 11.664062 -1.191406 10.882812 -0.707031 9.96875 -0.34375 C 9.351562 -0.113281 8.664062 0 7.90625 0 C 7.207031 0 6.519531 -0.113281 5.84375 -0.34375 C 4.59375 -0.84375 3.609375 -1.597656 2.890625 -2.609375 C 2.109375 -3.671875 1.71875 -4.867188 1.71875 -6.203125 L 1.71875 -21.078125 C 1.71875 -22.765625 2.328125 -24.222656 3.546875 -25.453125 C 4.171875 -26.117188 4.9375 -26.609375 5.84375 -26.921875 C 6.519531 -27.160156 7.207031 -27.28125 7.90625 -27.28125 C 8.664062 -27.28125 9.351562 -27.160156 9.96875 -26.921875 Z M 9.96875 -6.203125 L 9.96875 -21.078125 C 9.96875 -21.648438 9.773438 -22.132812 9.390625 -22.53125 C 8.972656 -22.9375 8.476562 -23.140625 7.90625 -23.140625 C 7.363281 -23.140625 6.882812 -22.9375 6.46875 -22.53125 C 6.050781 -22.113281 5.84375 -21.628906 5.84375 -21.078125 L 5.84375 -6.203125 C 5.84375 -5.648438 6.050781 -5.164062 6.46875 -4.75 C 6.851562 -4.332031 7.332031 -4.125 7.90625 -4.125 C 8.425781 -4.125 8.921875 -4.332031 9.390625 -4.75 C 9.773438 -5.144531 9.96875 -5.628906 9.96875 -6.203125 Z M 9.96875 -6.203125 "/></g></g></g><g fill="#ffffff" fill-opacity="1"><g transform="translate(254.067138, 300.073456)"><g><path d="M 6.46875 -22.53125 C 6.050781 -22.132812 5.84375 -21.648438 5.84375 -21.078125 L 5.84375 -17.453125 L 7.90625 -17.453125 C 8.632812 -17.453125 9.320312 -17.335938 9.96875 -17.109375 C 10.414062 -16.953125 10.832031 -16.75 11.21875 -16.5 C 11.613281 -16.257812 11.976562 -15.984375 12.3125 -15.671875 C 13.507812 -14.472656 14.109375 -13.003906 14.109375 -11.265625 L 14.109375 -6.203125 C 14.109375 -4.847656 13.734375 -3.640625 12.984375 -2.578125 C 12.203125 -1.535156 11.195312 -0.789062 9.96875 -0.34375 C 9.320312 -0.113281 8.632812 0 7.90625 0 L 1.71875 0 L 1.71875 -21.3125 C 1.738281 -22.53125 2.113281 -23.660156 2.84375 -24.703125 C 3.625 -25.710938 4.625 -26.453125 5.84375 -26.921875 C 6.519531 -27.160156 7.207031 -27.28125 7.90625 -27.28125 L 14.109375 -27.28125 L 14.109375 -23.140625 L 7.90625 -23.140625 C 7.332031 -23.140625 6.851562 -22.9375 6.46875 -22.53125 Z M 7.90625 -13.328125 L 5.84375 -13.328125 L 5.84375 -4.125 L 7.90625 -4.125 C 8.476562 -4.125 8.972656 -4.332031 9.390625 -4.75 C 9.773438 -5.144531 9.96875 -5.628906 9.96875 -6.203125 L 9.96875 -11.265625 C 9.96875 -11.835938 9.773438 -12.316406 9.390625 -12.703125 C 8.972656 -13.117188 8.476562 -13.328125 7.90625 -13.328125 Z M 7.90625 -13.328125 "/></g></g></g><g fill="#ffffff" fill-opacity="1"><g transform="translate(269.882128, 300.073456)"><g><path d="M 5.84375 -27.28125 L 1.71875 -27.28125 L 1.71875 0 L 5.84375 0 Z M 5.84375 -27.28125 "/></g></g></g><g fill="#ffffff" fill-opacity="1"><g transform="translate(277.439062, 300.073456)"><g><path d="M 14.109375 -27.28125 L 14.109375 -23.140625 L 9.96875 -23.140625 L 9.96875 0 L 5.84375 0 L 5.84375 -23.140625 L 1.71875 -23.140625 L 1.71875 -27.28125 Z M 14.109375 -27.28125 "/></g></g></g><g fill="#ffffff" fill-opacity="1"><g transform="translate(104.941405, 322.880604)"><g><path d="M 3.109375 -9.625 L 3.109375 -5.625 L 8.34375 -5.625 L 8.34375 -9.625 L 9.921875 -9.625 L 9.921875 0 L 8.34375 0 L 8.34375 -4.296875 L 3.109375 -4.296875 L 3.109375 0 L 1.53125 0 L 1.53125 -9.625 Z M 3.109375 -9.625 "/></g></g></g><g fill="#ffffff" fill-opacity="1"><g transform="translate(116.377531, 322.880604)"><g><path d="M 5.171875 -9.796875 C 6.347656 -9.796875 7.21875 -9.535156 7.78125 -9.015625 C 8.34375 -8.503906 8.625 -7.6875 8.625 -6.5625 L 8.625 0 L 7.46875 0 L 7.171875 -1.359375 L 7.09375 -1.359375 C 6.675781 -0.835938 6.234375 -0.453125 5.765625 -0.203125 C 5.296875 0.046875 4.660156 0.171875 3.859375 0.171875 C 2.984375 0.171875 2.257812 -0.0546875 1.6875 -0.515625 C 1.113281 -0.972656 0.828125 -1.691406 0.828125 -2.671875 C 0.828125 -3.628906 1.203125 -4.367188 1.953125 -4.890625 C 2.710938 -5.410156 3.875 -5.695312 5.4375 -5.75 L 7.078125 -5.796875 L 7.078125 -6.375 C 7.078125 -7.175781 6.898438 -7.734375 6.546875 -8.046875 C 6.203125 -8.359375 5.710938 -8.515625 5.078125 -8.515625 C 4.578125 -8.515625 4.097656 -8.4375 3.640625 -8.28125 C 3.191406 -8.132812 2.769531 -7.96875 2.375 -7.78125 L 1.890625 -8.96875 C 2.304688 -9.195312 2.800781 -9.390625 3.375 -9.546875 C 3.945312 -9.710938 4.546875 -9.796875 5.171875 -9.796875 Z M 7.0625 -4.703125 L 5.640625 -4.65625 C 4.441406 -4.601562 3.613281 -4.410156 3.15625 -4.078125 C 2.695312 -3.742188 2.46875 -3.269531 2.46875 -2.65625 C 2.46875 -2.113281 2.628906 -1.71875 2.953125 -1.46875 C 3.285156 -1.21875 3.707031 -1.09375 4.21875 -1.09375 C 5.019531 -1.09375 5.691406 -1.316406 6.234375 -1.765625 C 6.785156 -2.210938 7.0625 -2.90625 7.0625 -3.84375 Z M 7.0625 -4.703125 "/></g></g></g><g fill="#ffffff" fill-opacity="1"><g transform="translate(126.449224, 322.880604)"><g><path d="M 8.671875 -9.625 L 8.671875 -1.328125 L 10.078125 -1.328125 L 10.078125 3.34375 L 8.546875 3.34375 L 8.546875 0 L 1.84375 0 L 1.84375 3.34375 L 0.34375 3.34375 L 0.34375 -1.328125 L 1.109375 -1.328125 C 1.941406 -2.460938 2.5625 -3.757812 2.96875 -5.21875 C 3.382812 -6.675781 3.597656 -8.144531 3.609375 -9.625 Z M 7.15625 -8.390625 L 5.015625 -8.390625 C 4.953125 -7.578125 4.820312 -6.734375 4.625 -5.859375 C 4.425781 -4.992188 4.164062 -4.164062 3.84375 -3.375 C 3.53125 -2.582031 3.164062 -1.898438 2.75 -1.328125 L 7.15625 -1.328125 Z M 7.15625 -8.390625 "/></g></g></g><g fill="#ffffff" fill-opacity="1"><g transform="translate(136.879975, 322.880604)"><g><path d="M 5.390625 0.171875 C 4.523438 0.171875 3.765625 0 3.109375 -0.34375 C 2.453125 -0.6875 1.929688 -1.222656 1.546875 -1.953125 C 1.171875 -2.679688 0.984375 -3.617188 0.984375 -4.765625 C 0.984375 -5.953125 1.175781 -6.914062 1.5625 -7.65625 C 1.957031 -8.394531 2.492188 -8.9375 3.171875 -9.28125 C 3.859375 -9.632812 4.632812 -9.8125 5.5 -9.8125 C 5.976562 -9.8125 6.445312 -9.757812 6.90625 -9.65625 C 7.363281 -9.550781 7.738281 -9.429688 8.03125 -9.296875 L 7.546875 -7.984375 C 7.253906 -8.085938 6.914062 -8.1875 6.53125 -8.28125 C 6.15625 -8.375 5.800781 -8.421875 5.46875 -8.421875 C 3.570312 -8.421875 2.625 -7.207031 2.625 -4.78125 C 2.625 -3.613281 2.851562 -2.722656 3.3125 -2.109375 C 3.769531 -1.492188 4.457031 -1.1875 5.375 -1.1875 C 5.882812 -1.1875 6.34375 -1.238281 6.75 -1.34375 C 7.15625 -1.457031 7.53125 -1.59375 7.875 -1.75 L 7.875 -0.34375 C 7.550781 -0.175781 7.191406 -0.0507812 6.796875 0.03125 C 6.410156 0.125 5.941406 0.171875 5.390625 0.171875 Z M 5.390625 0.171875 "/></g></g></g><g fill="#ffffff" fill-opacity="1"><g transform="translate(145.497467, 322.880604)"><g><path d="M 3.015625 -9.625 L 3.015625 -3.75 C 3.015625 -3.59375 3.007812 -3.375 3 -3.09375 C 2.988281 -2.8125 2.972656 -2.523438 2.953125 -2.234375 C 2.929688 -1.941406 2.914062 -1.71875 2.90625 -1.5625 L 8.0625 -9.625 L 10.015625 -9.625 L 10.015625 0 L 8.53125 0 L 8.53125 -5.671875 C 8.53125 -5.867188 8.53125 -6.125 8.53125 -6.4375 C 8.539062 -6.75 8.550781 -7.054688 8.5625 -7.359375 C 8.582031 -7.660156 8.597656 -7.890625 8.609375 -8.046875 L 3.484375 0 L 1.53125 0 L 1.53125 -9.625 Z M 3.015625 -9.625 "/></g></g></g><g fill="#ffffff" fill-opacity="1"><g transform="translate(157.041305, 322.880604)"><g><path d="M 8.859375 0 L 7.265625 0 L 7.265625 -8.3125 L 4.421875 -8.3125 C 4.265625 -6.289062 4.046875 -4.660156 3.765625 -3.421875 C 3.492188 -2.179688 3.125 -1.28125 2.65625 -0.71875 C 2.195312 -0.15625 1.628906 0.125 0.953125 0.125 C 0.796875 0.125 0.640625 0.113281 0.484375 0.09375 C 0.335938 0.0820312 0.21875 0.0507812 0.125 0 L 0.125 -1.1875 C 0.195312 -1.164062 0.273438 -1.144531 0.359375 -1.125 C 0.441406 -1.113281 0.523438 -1.109375 0.609375 -1.109375 C 1.253906 -1.109375 1.769531 -1.796875 2.15625 -3.171875 C 2.550781 -4.554688 2.847656 -6.707031 3.046875 -9.625 L 8.859375 -9.625 Z M 8.859375 0 "/></g></g></g><g fill="#ffffff" fill-opacity="1"><g transform="translate(167.4182, 322.880604)"><g><path d="M 5.171875 -9.796875 C 6.347656 -9.796875 7.21875 -9.535156 7.78125 -9.015625 C 8.34375 -8.503906 8.625 -7.6875 8.625 -6.5625 L 8.625 0 L 7.46875 0 L 7.171875 -1.359375 L 7.09375 -1.359375 C 6.675781 -0.835938 6.234375 -0.453125 5.765625 -0.203125 C 5.296875 0.046875 4.660156 0.171875 3.859375 0.171875 C 2.984375 0.171875 2.257812 -0.0546875 1.6875 -0.515625 C 1.113281 -0.972656 0.828125 -1.691406 0.828125 -2.671875 C 0.828125 -3.628906 1.203125 -4.367188 1.953125 -4.890625 C 2.710938 -5.410156 3.875 -5.695312 5.4375 -5.75 L 7.078125 -5.796875 L 7.078125 -6.375 C 7.078125 -7.175781 6.898438 -7.734375 6.546875 -8.046875 C 6.203125 -8.359375 5.710938 -8.515625 5.078125 -8.515625 C 4.578125 -8.515625 4.097656 -8.4375 3.640625 -8.28125 C 3.191406 -8.132812 2.769531 -7.96875 2.375 -7.78125 L 1.890625 -8.96875 C 2.304688 -9.195312 2.800781 -9.390625 3.375 -9.546875 C 3.945312 -9.710938 4.546875 -9.796875 5.171875 -9.796875 Z M 7.0625 -4.703125 L 5.640625 -4.65625 C 4.441406 -4.601562 3.613281 -4.410156 3.15625 -4.078125 C 2.695312 -3.742188 2.46875 -3.269531 2.46875 -2.65625 C 2.46875 -2.113281 2.628906 -1.71875 2.953125 -1.46875 C 3.285156 -1.21875 3.707031 -1.09375 4.21875 -1.09375 C 5.019531 -1.09375 5.691406 -1.316406 6.234375 -1.765625 C 6.785156 -2.210938 7.0625 -2.90625 7.0625 -3.84375 Z M 7.0625 -4.703125 "/></g></g></g><g fill="#ffffff" fill-opacity="1"><g transform="translate(177.489893, 322.880604)"><g><path d="M 3.109375 -9.625 L 3.109375 -5.625 L 8.34375 -5.625 L 8.34375 -9.625 L 9.921875 -9.625 L 9.921875 0 L 8.34375 0 L 8.34375 -4.296875 L 3.109375 -4.296875 L 3.109375 0 L 1.53125 0 L 1.53125 -9.625 Z M 3.109375 -9.625 "/></g></g></g><g fill="#ffffff" fill-opacity="1"><g transform="translate(188.926019, 322.880604)"><g><path d="M 3.109375 -9.625 L 3.109375 -5.625 L 8.34375 -5.625 L 8.34375 -9.625 L 9.921875 -9.625 L 9.921875 0 L 8.34375 0 L 8.34375 -4.296875 L 3.109375 -4.296875 L 3.109375 0 L 1.53125 0 L 1.53125 -9.625 Z M 3.109375 -9.625 "/></g></g></g><g fill="#ffffff" fill-opacity="1"><g transform="translate(200.362145, 322.880604)"><g><path d="M 2.125 0 L 0.28125 0 L 3.03125 -4.046875 C 2.664062 -4.128906 2.304688 -4.273438 1.953125 -4.484375 C 1.609375 -4.703125 1.328125 -4.992188 1.109375 -5.359375 C 0.898438 -5.734375 0.796875 -6.210938 0.796875 -6.796875 C 0.796875 -7.703125 1.101562 -8.398438 1.71875 -8.890625 C 2.34375 -9.378906 3.171875 -9.625 4.203125 -9.625 L 8.515625 -9.625 L 8.515625 0 L 6.9375 0 L 6.9375 -3.828125 L 4.59375 -3.828125 Z M 2.3125 -6.78125 C 2.3125 -6.207031 2.519531 -5.789062 2.9375 -5.53125 C 3.351562 -5.269531 3.929688 -5.140625 4.671875 -5.140625 L 6.9375 -5.140625 L 6.9375 -8.3125 L 4.359375 -8.3125 C 3.628906 -8.3125 3.101562 -8.164062 2.78125 -7.875 C 2.46875 -7.582031 2.3125 -7.21875 2.3125 -6.78125 Z M 2.3125 -6.78125 "/></g></g></g><g fill="#ffffff" fill-opacity="1"><g transform="translate(210.397926, 322.880604)"><g/></g></g><g fill="#ffffff" fill-opacity="1"><g transform="translate(215.299121, 322.880604)"><g><path d="M 5.171875 -9.796875 C 6.347656 -9.796875 7.21875 -9.535156 7.78125 -9.015625 C 8.34375 -8.503906 8.625 -7.6875 8.625 -6.5625 L 8.625 0 L 7.46875 0 L 7.171875 -1.359375 L 7.09375 -1.359375 C 6.675781 -0.835938 6.234375 -0.453125 5.765625 -0.203125 C 5.296875 0.046875 4.660156 0.171875 3.859375 0.171875 C 2.984375 0.171875 2.257812 -0.0546875 1.6875 -0.515625 C 1.113281 -0.972656 0.828125 -1.691406 0.828125 -2.671875 C 0.828125 -3.628906 1.203125 -4.367188 1.953125 -4.890625 C 2.710938 -5.410156 3.875 -5.695312 5.4375 -5.75 L 7.078125 -5.796875 L 7.078125 -6.375 C 7.078125 -7.175781 6.898438 -7.734375 6.546875 -8.046875 C 6.203125 -8.359375 5.710938 -8.515625 5.078125 -8.515625 C 4.578125 -8.515625 4.097656 -8.4375 3.640625 -8.28125 C 3.191406 -8.132812 2.769531 -7.96875 2.375 -7.78125 L 1.890625 -8.96875 C 2.304688 -9.195312 2.800781 -9.390625 3.375 -9.546875 C 3.945312 -9.710938 4.546875 -9.796875 5.171875 -9.796875 Z M 7.0625 -4.703125 L 5.640625 -4.65625 C 4.441406 -4.601562 3.613281 -4.410156 3.15625 -4.078125 C 2.695312 -3.742188 2.46875 -3.269531 2.46875 -2.65625 C 2.46875 -2.113281 2.628906 -1.71875 2.953125 -1.46875 C 3.285156 -1.21875 3.707031 -1.09375 4.21875 -1.09375 C 5.019531 -1.09375 5.691406 -1.316406 6.234375 -1.765625 C 6.785156 -2.210938 7.0625 -2.90625 7.0625 -3.84375 Z M 7.0625 -4.703125 "/></g></g></g><g fill="#ffffff" fill-opacity="1"><g transform="translate(225.370814, 322.880604)"><g><path d="M 6.109375 -9.8125 C 7.296875 -9.8125 8.25 -9.394531 8.96875 -8.5625 C 9.695312 -7.738281 10.0625 -6.492188 10.0625 -4.828125 C 10.0625 -3.191406 9.695312 -1.945312 8.96875 -1.09375 C 8.25 -0.25 7.289062 0.171875 6.09375 0.171875 C 5.351562 0.171875 4.738281 0.0351562 4.25 -0.234375 C 3.757812 -0.503906 3.378906 -0.832031 3.109375 -1.21875 L 3 -1.21875 C 3.007812 -1.019531 3.03125 -0.765625 3.0625 -0.453125 C 3.09375 -0.140625 3.109375 0.128906 3.109375 0.359375 L 3.109375 4.3125 L 1.53125 4.3125 L 1.53125 -9.625 L 2.828125 -9.625 L 3.03125 -8.3125 L 3.109375 -8.3125 C 3.398438 -8.738281 3.773438 -9.09375 4.234375 -9.375 C 4.703125 -9.664062 5.328125 -9.8125 6.109375 -9.8125 Z M 5.828125 -8.484375 C 4.835938 -8.484375 4.140625 -8.207031 3.734375 -7.65625 C 3.328125 -7.101562 3.117188 -6.265625 3.109375 -5.140625 L 3.109375 -4.828125 C 3.109375 -3.640625 3.300781 -2.722656 3.6875 -2.078125 C 4.082031 -1.441406 4.804688 -1.125 5.859375 -1.125 C 6.429688 -1.125 6.910156 -1.28125 7.296875 -1.59375 C 7.679688 -1.914062 7.960938 -2.359375 8.140625 -2.921875 C 8.328125 -3.484375 8.421875 -4.125 8.421875 -4.84375 C 8.421875 -5.945312 8.207031 -6.828125 7.78125 -7.484375 C 7.363281 -8.148438 6.710938 -8.484375 5.828125 -8.484375 Z M 5.828125 -8.484375 "/></g></g></g><g fill="#ffffff" fill-opacity="1"><g transform="translate(236.41197, 322.880604)"><g><path d="M 3.8125 -4.921875 L 0.484375 -9.625 L 2.28125 -9.625 L 4.765625 -6 L 7.21875 -9.625 L 9 -9.625 L 5.671875 -4.921875 L 9.1875 0 L 7.390625 0 L 4.765625 -3.84375 L 2.109375 0 L 0.328125 0 Z M 3.8125 -4.921875 "/></g></g></g><g fill="#ffffff" fill-opacity="1"><g transform="translate(245.909158, 322.880604)"><g><path d="M 3.109375 0 L 1.53125 0 L 1.53125 -9.625 L 3.109375 -9.625 Z M 3.109375 0 "/></g></g></g><g fill="#ffffff" fill-opacity="1"><g transform="translate(250.541062, 322.880604)"><g><path d="M 9.265625 -7.203125 C 9.265625 -6.609375 9.082031 -6.140625 8.71875 -5.796875 C 8.363281 -5.460938 7.90625 -5.238281 7.34375 -5.125 L 7.34375 -5.046875 C 7.9375 -4.960938 8.457031 -4.75 8.90625 -4.40625 C 9.351562 -4.070312 9.578125 -3.546875 9.578125 -2.828125 C 9.578125 -2.003906 9.273438 -1.328125 8.671875 -0.796875 C 8.066406 -0.265625 7.066406 0 5.671875 0 L 1.53125 0 L 1.53125 -9.625 L 5.65625 -9.625 C 6.34375 -9.625 6.957031 -9.550781 7.5 -9.40625 C 8.039062 -9.257812 8.46875 -9.007812 8.78125 -8.65625 C 9.101562 -8.300781 9.265625 -7.816406 9.265625 -7.203125 Z M 7.671875 -7 C 7.671875 -7.457031 7.503906 -7.789062 7.171875 -8 C 6.847656 -8.207031 6.3125 -8.3125 5.5625 -8.3125 L 3.109375 -8.3125 L 3.109375 -5.671875 L 5.28125 -5.671875 C 6.875 -5.671875 7.671875 -6.113281 7.671875 -7 Z M 7.9375 -2.828125 C 7.9375 -3.367188 7.726562 -3.757812 7.3125 -4 C 6.894531 -4.238281 6.28125 -4.359375 5.46875 -4.359375 L 3.109375 -4.359375 L 3.109375 -1.28125 L 5.5 -1.28125 C 6.289062 -1.28125 6.894531 -1.394531 7.3125 -1.625 C 7.726562 -1.851562 7.9375 -2.253906 7.9375 -2.828125 Z M 7.9375 -2.828125 "/></g></g></g><g fill="#ffffff" fill-opacity="1"><g transform="translate(260.882046, 322.880604)"><g><path d="M 0.015625 -9.625 L 1.703125 -9.625 L 3.796875 -4.15625 C 3.972656 -3.65625 4.128906 -3.191406 4.265625 -2.765625 C 4.410156 -2.335938 4.519531 -1.925781 4.59375 -1.53125 L 4.671875 -1.53125 C 4.742188 -1.820312 4.859375 -2.210938 5.015625 -2.703125 C 5.171875 -3.191406 5.332031 -3.679688 5.5 -4.171875 L 7.453125 -9.625 L 9.15625 -9.625 L 5.015625 1.328125 C 4.660156 2.234375 4.21875 2.957031 3.6875 3.5 C 3.164062 4.039062 2.441406 4.3125 1.515625 4.3125 C 1.222656 4.3125 0.96875 4.296875 0.75 4.265625 C 0.539062 4.234375 0.359375 4.203125 0.203125 4.171875 L 0.203125 2.90625 C 0.328125 2.9375 0.484375 2.960938 0.671875 2.984375 C 0.859375 3.003906 1.050781 3.015625 1.25 3.015625 C 1.800781 3.015625 2.242188 2.859375 2.578125 2.546875 C 2.921875 2.234375 3.191406 1.820312 3.390625 1.3125 L 3.90625 0.03125 Z M 0.015625 -9.625 "/></g></g></g></svg>